<svg width="1280" height="700" viewBox="0 0 1280 700" fill="none" xmlns="http://www.w3.org/2000/svg">
<g clip-path="url(#clip0_1_1882)">
<rect width="1280" height="700" fill="#FAFAFA"/>
<rect width="1280" height="74" fill="#FAFAFA"/>
<path d="M231.352 35.5C231.002 33.5611 229.45 32.4162 227.548 32.4162C225.129 32.4162 223.375 34.2812 223.375 37.2727C223.375 40.2642 225.129 42.1293 227.548 42.1293C229.45 42.1293 231.002 40.9844 231.352 39.0455H230.208C229.931 40.3565 228.804 41.0582 227.548 41.0582C225.831 41.0582 224.483 39.7287 224.483 37.2727C224.483 34.8168 225.831 33.4872 227.548 33.4872C228.804 33.4872 229.931 34.1889 230.208 35.5H231.352ZM235.935 42.1477C237.856 42.1477 239.149 40.6889 239.149 38.4915C239.149 36.2756 237.856 34.8168 235.935 34.8168C234.015 34.8168 232.722 36.2756 232.722 38.4915C232.722 40.6889 234.015 42.1477 235.935 42.1477ZM235.935 41.169C234.477 41.169 233.812 39.9134 233.812 38.4915C233.812 37.0696 234.477 35.7955 235.935 35.7955C237.394 35.7955 238.059 37.0696 238.059 38.4915C238.059 39.9134 237.394 41.169 235.935 41.169ZM241.332 34.9091H240.076L242.329 38.4545L240.076 42H241.332L243.031 39.2486L244.73 42H245.986L243.696 38.4545L245.986 34.9091H244.73L243.031 37.8082L241.332 34.9091ZM247.54 44.6591H248.63V40.9105H248.722C248.962 41.2983 249.424 42.1477 250.79 42.1477C252.563 42.1477 253.8 40.7259 253.8 38.473C253.8 36.2386 252.563 34.8168 250.772 34.8168C249.387 34.8168 248.962 35.6662 248.722 36.0355H248.593V34.9091H247.54V44.6591ZM248.611 38.4545C248.611 36.8665 249.313 35.7955 250.642 35.7955C252.027 35.7955 252.711 36.9588 252.711 38.4545C252.711 39.9688 252.009 41.169 250.642 41.169C249.331 41.169 248.611 40.0611 248.611 38.4545ZM257.549 42.1662C258.786 42.1662 259.432 41.5014 259.654 41.0398H259.709V42H260.799V37.3281C260.799 35.0753 259.081 34.8168 258.176 34.8168C257.105 34.8168 255.887 35.1861 255.333 36.4787L256.367 36.848C256.607 36.331 257.175 35.777 258.213 35.777C259.215 35.777 259.709 36.3079 259.709 37.2173V37.2543C259.709 37.7805 259.174 37.7344 257.881 37.9006C256.565 38.0714 255.13 38.3622 255.13 39.9872C255.13 41.3722 256.201 42.1662 257.549 42.1662ZM257.715 41.1875C256.847 41.1875 256.219 40.7997 256.219 40.0426C256.219 39.2116 256.976 38.9531 257.826 38.8423C258.287 38.7869 259.525 38.6577 259.709 38.4361V39.4332C259.709 40.3196 259.007 41.1875 257.715 41.1875ZM263.877 34.9091H262.787V42H263.877V38.9716H267.274V42H268.364V34.9091H267.274V37.956H263.877V34.9091ZM273.327 42.1477C274.767 42.1477 275.82 41.4276 276.152 40.3565L275.099 40.0611C274.822 40.7997 274.181 41.169 273.327 41.169C272.048 41.169 271.166 40.3427 271.115 38.8239H276.263V38.3622C276.263 35.7216 274.693 34.8168 273.216 34.8168C271.295 34.8168 270.021 36.331 270.021 38.5099C270.021 40.6889 271.277 42.1477 273.327 42.1477ZM271.115 37.8821C271.189 36.7788 271.969 35.7955 273.216 35.7955C274.398 35.7955 275.155 36.6818 275.155 37.8821H271.115ZM271.831 33.7273C272.256 33.7273 272.57 33.3764 272.57 32.9886C272.57 32.5639 272.256 32.25 271.831 32.25C271.443 32.25 271.092 32.5639 271.092 32.9886C271.092 33.3764 271.443 33.7273 271.831 33.7273ZM274.49 33.7273C274.915 33.7273 275.229 33.3764 275.229 32.9886C275.229 32.5639 274.915 32.25 274.49 32.25C274.102 32.25 273.751 32.5639 273.751 32.9886C273.751 33.3764 274.102 33.7273 274.49 33.7273ZM279.009 34.9091H277.92V42H279.009V38.9716H282.407V42H283.497V34.9091H282.407V37.956H279.009V34.9091ZM286.576 34.9091H285.486V42H286.576V38.9716H289.974V42H291.063V34.9091H289.974V37.956H286.576V34.9091ZM294.142 37.4759V34.9091H293.053V42H296.026C297.688 42 298.593 40.9844 298.593 39.7102C298.593 38.4176 297.688 37.4759 296.026 37.4759H294.142ZM299.719 42H300.809V34.9091H299.719V42ZM294.142 38.4915H296.026C296.889 38.4915 297.503 39.0178 297.503 39.7656C297.503 40.4812 296.889 40.9844 296.026 40.9844H294.142V38.4915ZM305.776 42.1477C307.216 42.1477 308.269 41.4276 308.601 40.3565L307.549 40.0611C307.272 40.7997 306.63 41.169 305.776 41.169C304.497 41.169 303.615 40.3427 303.565 38.8239H308.712V38.3622C308.712 35.7216 307.142 34.8168 305.665 34.8168C303.745 34.8168 302.47 36.331 302.47 38.5099C302.47 40.6889 303.726 42.1477 305.776 42.1477ZM303.565 37.8821C303.638 36.7788 304.419 35.7955 305.665 35.7955C306.847 35.7955 307.604 36.6818 307.604 37.8821H303.565ZM316.906 44.419H317.996V42.1477C319.916 42.1477 321.209 40.6889 321.209 38.4915C321.209 36.2756 319.916 34.8168 317.996 34.8168V32.5455H316.906V34.8168C314.986 34.8168 313.693 36.2756 313.693 38.4915C313.693 40.6889 314.986 42.1477 316.906 42.1477V44.419ZM317.996 41.169V35.7955C319.454 35.7955 320.119 37.0696 320.119 38.4915C320.119 39.9134 319.454 41.169 317.996 41.169ZM316.906 41.169C315.447 41.169 314.783 39.9134 314.783 38.4915C314.783 37.0696 315.447 35.7955 316.906 35.7955V41.169ZM323.964 40.3935V34.9091H322.874V42H324.148L327.546 36.5156V42H328.635V34.9091H327.38L323.964 40.3935ZM330.003 42H330.372C331.942 42 332.394 40.7812 332.496 38.4545L332.607 35.9247H335.21V42H336.3V34.9091H331.573L331.443 38.0483C331.351 40.4304 331.111 40.9844 330.262 40.9844H330.003V42ZM339.388 37.4759V34.9091H338.299V42H341.272C342.934 42 343.839 40.9844 343.839 39.7102C343.839 38.4176 342.934 37.4759 341.272 37.4759H339.388ZM339.388 38.4915H341.272C342.135 38.4915 342.749 39.0178 342.749 39.7656C342.749 40.4812 342.135 40.9844 341.272 40.9844H339.388V38.4915ZM349.375 40.5227L346.938 34.9091H345.497V42H346.587V36.4741L348.932 42H349.818L352.163 36.5756V42H353.253V34.9091H351.849L349.375 40.5227ZM356.337 37.4759V34.9091H355.247V42H358.22C359.882 42 360.787 40.9844 360.787 39.7102C360.787 38.4176 359.882 37.4759 358.22 37.4759H356.337ZM361.913 42H363.003V34.9091H361.913V42ZM356.337 38.4915H358.22C359.083 38.4915 359.697 39.0178 359.697 39.7656C359.697 40.4812 359.083 40.9844 358.22 40.9844H356.337V38.4915Z" fill="black"/>
<path d="M157.079 33.6349C154.923 33.6349 153.363 35.163 153.363 37.4251C153.363 39.6641 154.914 41.1644 157.079 41.1644H157.236V42.3878H158.635V41.1644H158.783C160.943 41.1644 162.494 39.6456 162.494 37.4112C162.494 35.1538 160.943 33.6349 158.783 33.6349H158.635V32.3793H157.236V33.6349H157.079ZM157.079 34.8675H157.236V39.9318H157.079C155.611 39.9318 154.743 38.9854 154.743 37.4251C154.743 35.8232 155.602 34.8675 157.079 34.8675ZM158.635 34.8675H158.787C160.26 34.8675 161.109 35.8278 161.109 37.4112C161.109 38.9808 160.26 39.9318 158.787 39.9318H158.635V34.8675ZM165.51 40.0657V34.9091H164.157V42H165.658L168.769 36.8388V42H170.122V34.9091H168.635L165.51 40.0657ZM171.419 42H171.862C173.409 42 173.977 40.8551 174.087 38.5099L174.198 36.1001H176.516V42H177.868V34.9091H172.919L172.795 38.0483C172.707 40.2365 172.458 40.8043 171.668 40.8043H171.415L171.419 42ZM181.062 37.3466V34.9091H179.709V42H182.807C184.543 42 185.512 40.9936 185.512 39.6594C185.512 38.2976 184.543 37.3466 182.807 37.3466H181.062ZM181.062 38.5376H182.807C183.601 38.5376 184.169 39.0178 184.169 39.701C184.169 40.3473 183.601 40.8089 182.807 40.8089H181.062V38.5376ZM191.039 40.2919L188.796 34.9091H187.06V42H188.412V36.8434L190.527 42H191.552L193.703 36.8619V42H195.046V34.9091H193.329L191.039 40.2919ZM198.239 37.3466V34.9091H196.886V42H199.984C201.719 42 202.689 40.9936 202.689 39.6594C202.689 38.2976 201.719 37.3466 199.984 37.3466H198.239ZM203.695 42H205.076V34.9091H203.695V42ZM198.239 38.5376H199.984C200.778 38.5376 201.345 39.0178 201.345 39.701C201.345 40.3473 200.778 40.8089 199.984 40.8089H198.239V38.5376Z" fill="black"/>
<rect opacity="0.2" x="1111" y="22" width="98" height="30" rx="15" stroke="#AAAAAA" stroke-width="2"/>
<path d="M1142.98 42H1141.35L1145.01 31.8182H1146.79L1150.45 42H1148.82L1145.94 33.6676H1145.86L1142.98 42ZM1143.25 38.0128H1148.54V39.3054H1143.25V38.0128ZM1151.8 42V34.3636H1153.29V37.5653H1154L1156.53 34.3636H1158.36L1155.41 38.0774L1158.4 42H1156.55L1154.25 38.9474H1153.29V42H1151.8ZM1159.55 42V34.3636H1161.04V37.5653H1161.76L1164.28 34.3636H1166.12L1163.16 38.0774L1166.15 42H1164.31L1162 38.9474H1161.04V42H1159.55ZM1169.53 42.169C1169.04 42.169 1168.61 42.0795 1168.22 41.9006C1167.82 41.7183 1167.51 41.4548 1167.29 41.1101C1167.06 40.7654 1166.95 40.3428 1166.95 39.8423C1166.95 39.4115 1167.03 39.0568 1167.2 38.7784C1167.36 38.5 1167.59 38.2796 1167.87 38.1172C1168.15 37.9548 1168.46 37.8321 1168.81 37.7493C1169.16 37.6664 1169.51 37.6035 1169.88 37.5604C1170.33 37.5073 1170.7 37.4643 1170.99 37.4311C1171.27 37.3946 1171.48 37.3366 1171.61 37.2571C1171.74 37.1776 1171.81 37.0483 1171.81 36.8693V36.8345C1171.81 36.4003 1171.68 36.0639 1171.44 35.8253C1171.2 35.5866 1170.83 35.4673 1170.35 35.4673C1169.85 35.4673 1169.46 35.5784 1169.17 35.8004C1168.89 36.0192 1168.69 36.2628 1168.58 36.5312L1167.18 36.2131C1167.35 35.7491 1167.59 35.3745 1167.91 35.0895C1168.23 34.8011 1168.6 34.5923 1169.02 34.4631C1169.43 34.3305 1169.87 34.2642 1170.33 34.2642C1170.64 34.2642 1170.96 34.3007 1171.3 34.3736C1171.65 34.4432 1171.97 34.5724 1172.27 34.7614C1172.57 34.9503 1172.82 35.2204 1173.01 35.5717C1173.2 35.9197 1173.3 36.3722 1173.3 36.929V42H1171.84V40.956H1171.79C1171.69 41.1482 1171.55 41.3371 1171.35 41.5227C1171.16 41.7083 1170.91 41.8625 1170.61 41.9851C1170.31 42.1077 1169.95 42.169 1169.53 42.169ZM1169.85 40.9759C1170.26 40.9759 1170.61 40.8946 1170.91 40.7322C1171.2 40.5698 1171.42 40.3577 1171.58 40.0959C1171.73 39.8307 1171.81 39.5473 1171.81 39.2457V38.2614C1171.76 38.3144 1171.65 38.3641 1171.5 38.4105C1171.35 38.4536 1171.18 38.4917 1170.99 38.5249C1170.8 38.5547 1170.61 38.5829 1170.43 38.6094C1170.25 38.6326 1170.09 38.6525 1169.97 38.669C1169.68 38.7055 1169.42 38.7668 1169.18 38.853C1168.94 38.9392 1168.76 39.0634 1168.61 39.2259C1168.47 39.3849 1168.4 39.5971 1168.4 39.8622C1168.4 40.2301 1168.54 40.5085 1168.81 40.6974C1169.08 40.883 1169.43 40.9759 1169.85 40.9759ZM1175.94 44.8636C1175.72 44.8636 1175.52 44.8454 1175.34 44.8089C1175.15 44.7758 1175.02 44.7393 1174.93 44.6996L1175.29 43.4815C1175.56 43.5545 1175.8 43.5859 1176.01 43.576C1176.22 43.5661 1176.41 43.4865 1176.57 43.3374C1176.74 43.1882 1176.89 42.9446 1177.01 42.6065L1177.2 42.0994L1174.4 34.3636H1175.99L1177.93 40.2898H1178.01L1179.94 34.3636H1181.54L1178.39 43.0192C1178.24 43.4169 1178.06 43.7533 1177.83 44.0284C1177.61 44.3068 1177.34 44.5156 1177.03 44.6548C1176.72 44.794 1176.35 44.8636 1175.94 44.8636ZM1188.11 37.5405V38.8281H1183.97V37.5405H1188.11ZM1184.39 34.3636V42H1182.93V34.3636H1184.39ZM1189.15 34.3636V42H1187.7V34.3636H1189.15ZM1190.19 35.6463V34.3636H1196.63V35.6463H1194.14V42H1192.69V35.6463H1190.19Z" fill="black"/>
<path fill-rule="evenodd" clip-rule="evenodd" d="M1130 34C1130 35.1046 1129.1 36 1128 36C1126.9 36 1126 35.1046 1126 34C1126 32.8954 1126.9 32 1128 32C1129.1 32 1130 32.8954 1130 34ZM1132 34C1132 36.2091 1130.21 38 1128 38C1125.79 38 1124 36.2091 1124 34C1124 31.7909 1125.79 30 1128 30C1130.21 30 1132 31.7909 1132 34ZM1126 39C1123.79 39 1122 40.7909 1122 43V44H1124V43C1124 41.8954 1124.9 41 1126 41H1130C1131.1 41 1132 41.8954 1132 43V44H1134V43C1134 40.7909 1132.21 39 1130 39H1126Z" fill="black"/>
<path d="M70 30.6667C70 26.2329 70 24.016 70.8629 22.3226C71.6219 20.833 72.833 19.6219 74.3226 18.8629C76.016 18 78.2329 18 82.6667 18H95.3333C99.7671 18 101.984 18 103.677 18.8629C105.167 19.6219 106.378 20.833 107.137 22.3226C108 24.016 108 26.2329 108 30.6667V43.3333C108 47.7671 108 49.984 107.137 51.6774C106.378 53.167 105.167 54.3781 103.677 55.1371C101.984 56 99.7671 56 95.3333 56H82.6667C78.2329 56 76.016 56 74.3226 55.1371C72.833 54.3781 71.6219 53.167 70.8629 51.6774C70 49.984 70 47.7671 70 43.3333V30.6667Z" fill="#3456F3"/>
<circle cx="89" cy="37" r="11" fill="white"/>
<path fill-rule="evenodd" clip-rule="evenodd" d="M85.1538 37C85.1538 39.1242 86.8758 40.8462 89 40.8462C91.1242 40.8462 92.8462 39.1242 92.8462 37H95C95 40.3137 92.3137 43 89 43C85.6863 43 83 40.3137 83 37H85.1538Z" fill="#3456F3"/>
<path d="M552.75 153.545H539.284V171H541.909V155.795H550.125V171H552.75V153.545ZM556.572 175.909H559.121V168.963H559.274C559.734 169.798 560.672 171.256 563.058 171.256C566.229 171.256 568.53 168.716 568.53 164.48C568.53 160.236 566.195 157.739 563.033 157.739C560.604 157.739 559.726 159.222 559.274 160.031H559.061V157.909H556.572V175.909ZM559.07 164.455C559.07 161.719 560.263 159.903 562.487 159.903C564.797 159.903 565.956 161.855 565.956 164.455C565.956 167.08 564.763 169.082 562.487 169.082C560.297 169.082 559.07 167.207 559.07 164.455ZM573.882 167.429V157.909H571.385V171H574.155L579.899 161.472V171H582.396V157.909H579.652L573.882 167.429ZM585.822 171H592.078C594.942 171 596.621 169.551 596.621 167.472C596.621 165.528 595.129 164.335 593.382 164.131C594.993 163.824 596.058 162.938 596.058 161.403C596.058 159.256 594.2 157.909 591.251 157.909H585.822V171ZM588.217 168.869V165.23H592.078C593.339 165.23 594.098 165.972 594.098 167.19C594.098 168.23 593.339 168.869 592.078 168.869H588.217ZM588.217 163.364V160.065H591.251C592.7 160.065 593.578 160.67 593.578 161.676C593.578 162.724 592.709 163.364 591.277 163.364H588.217ZM605.058 171.264C607.913 171.264 609.933 169.858 610.513 167.727L608.101 167.293C607.641 168.528 606.533 169.159 605.084 169.159C602.902 169.159 601.436 167.744 601.368 165.222H610.675V164.318C610.675 159.588 607.845 157.739 604.879 157.739C601.232 157.739 598.828 160.517 598.828 164.54C598.828 168.605 601.197 171.264 605.058 171.264ZM601.376 163.312C601.479 161.455 602.825 159.844 604.896 159.844C606.874 159.844 608.169 161.31 608.178 163.312H601.376ZM612.347 160.108H616.634V171H619.123V160.108H623.393V157.909H612.347V160.108ZM627.341 168.614H624.886L624.801 169.568C624.605 171.878 624.06 174.205 623.83 175.261H625.636C626.045 174.145 626.949 171.588 627.213 169.543L627.341 168.614ZM637.214 171H643.905C647.962 171 649.794 168.98 649.794 166.304C649.794 163.602 647.902 162.077 646.172 161.983V161.812C647.774 161.403 649.112 160.312 649.112 158.131C649.112 155.548 647.322 153.545 643.607 153.545H637.214V171ZM639.848 168.741V163.151H643.743C645.857 163.151 647.178 164.514 647.178 166.176C647.178 167.642 646.18 168.741 643.649 168.741H639.848ZM639.848 161.097V155.787H643.445C645.533 155.787 646.53 156.886 646.53 158.335C646.53 160.023 645.149 161.097 643.376 161.097H639.848ZM655.21 167.429V157.909H652.713V171H655.483L661.227 161.472V171H663.724V157.909H660.98L655.21 167.429ZM665.527 160.108H669.814V171H672.303V160.108H676.572V157.909H665.527V160.108ZM682.468 171.29C684.633 171.29 685.852 170.19 686.337 169.21H686.44V171H688.928V162.307C688.928 158.497 685.928 157.739 683.849 157.739C681.479 157.739 679.298 158.693 678.445 161.08L680.84 161.625C681.215 160.696 682.17 159.801 683.883 159.801C685.528 159.801 686.371 160.662 686.371 162.145V162.205C686.371 163.134 685.417 163.116 683.065 163.389C680.585 163.679 678.045 164.327 678.045 167.301C678.045 169.875 679.979 171.29 682.468 171.29ZM683.022 169.244C681.582 169.244 680.542 168.597 680.542 167.335C680.542 165.972 681.752 165.486 683.227 165.29C684.053 165.179 686.013 164.957 686.38 164.591V166.278C686.38 167.83 685.144 169.244 683.022 169.244ZM691.291 171H692.109C694.964 171 696.013 168.886 696.217 164.557L696.422 160.108H700.7V171H703.197V157.909H694.061L693.831 163.705C693.669 167.744 693.209 168.793 691.751 168.793H691.283L691.291 171ZM709.093 167.429V157.909H706.596V171H709.366L715.11 161.472V171H717.607V157.909H714.863L709.093 167.429ZM723.531 167.429V157.909H721.033V171H723.803L729.548 161.472V171H732.045V157.909H729.3L723.531 167.429ZM728.21 153.477C728.21 154.338 727.732 155.097 726.539 155.097C725.329 155.097 724.877 154.33 724.877 153.477H722.789C722.789 155.395 724.246 156.716 726.539 156.716C728.849 156.716 730.306 155.395 730.306 153.477H728.21ZM738.684 153.545H735.88L736.102 165.98H738.462L738.684 153.545ZM737.278 171.162C738.207 171.162 738.982 170.403 738.982 169.457C738.982 168.528 738.207 167.761 737.278 167.761C736.34 167.761 735.573 168.528 735.573 169.457C735.573 170.403 736.34 171.162 737.278 171.162Z" fill="black"/>
<path d="M581.25 627V617.545H584.712C585.383 617.545 585.939 617.656 586.379 617.878C586.819 618.096 587.148 618.393 587.367 618.769C587.585 619.141 587.695 619.561 587.695 620.029C587.695 620.423 587.622 620.755 587.478 621.026C587.333 621.294 587.139 621.509 586.896 621.673C586.656 621.833 586.391 621.95 586.102 622.023V622.116C586.416 622.131 586.722 622.233 587.021 622.42C587.322 622.605 587.572 622.868 587.769 623.21C587.966 623.551 588.064 623.967 588.064 624.456C588.064 624.94 587.95 625.373 587.722 625.758C587.498 626.14 587.15 626.443 586.679 626.668C586.208 626.889 585.607 627 584.874 627H581.25ZM582.677 625.777H584.736C585.419 625.777 585.908 625.644 586.204 625.38C586.499 625.115 586.647 624.784 586.647 624.387C586.647 624.089 586.571 623.815 586.421 623.565C586.27 623.316 586.054 623.118 585.774 622.97C585.497 622.822 585.168 622.748 584.786 622.748H582.677V625.777ZM582.677 621.636H584.588C584.908 621.636 585.196 621.574 585.451 621.451C585.71 621.328 585.914 621.156 586.065 620.934C586.219 620.709 586.296 620.445 586.296 620.14C586.296 619.749 586.159 619.421 585.885 619.157C585.611 618.892 585.191 618.76 584.625 618.76H582.677V621.636ZM590.684 622.347H592.743C593.611 622.347 594.279 622.562 594.746 622.993C595.214 623.424 595.448 623.979 595.448 624.659C595.448 625.103 595.343 625.501 595.134 625.855C594.925 626.209 594.619 626.489 594.216 626.695C593.812 626.898 593.321 627 592.743 627H589.645V619.909H590.998V625.809H592.743C593.14 625.809 593.466 625.706 593.722 625.5C593.977 625.29 594.105 625.024 594.105 624.701C594.105 624.359 593.977 624.081 593.722 623.865C593.466 623.647 593.14 623.538 592.743 623.538H590.684V622.347ZM596.455 627V619.909H597.835V627H596.455ZM601.04 625.066L604.165 619.909H605.652V627H604.299V621.839L601.188 627H599.687V619.909H601.04V625.066ZM603.574 617.509H604.71C604.71 618.029 604.525 618.452 604.156 618.778C603.79 619.101 603.294 619.263 602.669 619.263C602.048 619.263 601.554 619.101 601.188 618.778C600.821 618.452 600.638 618.029 600.638 617.509H601.769C601.769 617.739 601.837 617.944 601.972 618.123C602.108 618.298 602.34 618.386 602.669 618.386C602.993 618.386 603.223 618.298 603.362 618.123C603.503 617.947 603.574 617.742 603.574 617.509ZM606.628 621.1V619.909H612.611V621.1H610.298V627H608.95V621.1H606.628ZM615.424 625.066L618.549 619.909H620.035V627H618.683V621.839L615.571 627H614.071V619.909H615.424V625.066ZM626.684 625.066L629.81 619.909H631.296V627H629.944V621.839L626.832 627H625.332V619.909H626.684V625.066ZM632.732 625.126H634.145C634.163 625.415 634.294 625.638 634.537 625.795C634.783 625.952 635.102 626.031 635.493 626.031C635.89 626.031 636.228 625.946 636.508 625.777C636.788 625.604 636.928 625.338 636.928 624.978C636.928 624.763 636.874 624.575 636.767 624.415C636.662 624.252 636.513 624.125 636.319 624.036C636.128 623.947 635.902 623.902 635.64 623.902H634.486V622.817H635.64C636.031 622.817 636.324 622.728 636.517 622.55C636.711 622.371 636.808 622.148 636.808 621.88C636.808 621.591 636.704 621.359 636.494 621.183C636.288 621.005 636 620.915 635.631 620.915C635.256 620.915 634.943 621 634.694 621.169C634.445 621.336 634.314 621.551 634.302 621.816H632.907C632.917 621.419 633.037 621.071 633.267 620.772C633.501 620.471 633.815 620.237 634.209 620.071C634.606 619.901 635.057 619.817 635.562 619.817C636.088 619.817 636.544 619.901 636.928 620.071C637.313 620.24 637.61 620.474 637.819 620.772C638.032 621.071 638.138 621.414 638.138 621.802C638.138 622.193 638.021 622.513 637.787 622.762C637.556 623.008 637.255 623.185 636.882 623.293V623.367C637.156 623.385 637.399 623.468 637.612 623.616C637.824 623.764 637.99 623.959 638.11 624.202C638.23 624.446 638.29 624.721 638.29 625.029C638.29 625.463 638.17 625.838 637.93 626.155C637.693 626.472 637.364 626.717 636.942 626.889C636.524 627.058 636.045 627.143 635.506 627.143C634.983 627.143 634.514 627.062 634.098 626.898C633.686 626.732 633.358 626.498 633.115 626.197C632.875 625.895 632.747 625.538 632.732 625.126ZM645.22 627.157C644.77 627.157 644.364 627.074 644.001 626.908C643.638 626.738 643.35 626.494 643.137 626.174C642.928 625.854 642.824 625.461 642.824 624.996C642.824 624.596 642.9 624.267 643.054 624.009C643.208 623.75 643.416 623.545 643.678 623.395C643.939 623.244 644.232 623.13 644.555 623.053C644.878 622.976 645.207 622.917 645.543 622.877C645.967 622.828 646.312 622.788 646.577 622.757C646.841 622.724 647.034 622.67 647.154 622.596C647.274 622.522 647.334 622.402 647.334 622.236V622.203C647.334 621.8 647.22 621.488 646.992 621.266C646.768 621.045 646.432 620.934 645.986 620.934C645.521 620.934 645.155 621.037 644.887 621.243C644.622 621.446 644.439 621.673 644.338 621.922L643.041 621.626C643.194 621.196 643.419 620.848 643.715 620.583C644.013 620.315 644.356 620.121 644.744 620.001C645.132 619.878 645.54 619.817 645.967 619.817C646.251 619.817 646.551 619.851 646.868 619.918C647.188 619.983 647.486 620.103 647.763 620.278C648.043 620.454 648.273 620.705 648.451 621.031C648.63 621.354 648.719 621.774 648.719 622.291V627H647.371V626.031H647.315C647.226 626.209 647.092 626.384 646.914 626.557C646.735 626.729 646.506 626.872 646.226 626.986C645.946 627.1 645.61 627.157 645.22 627.157ZM645.52 626.049C645.901 626.049 646.227 625.974 646.498 625.823C646.772 625.672 646.98 625.475 647.121 625.232C647.266 624.986 647.338 624.723 647.338 624.442V623.528C647.289 623.578 647.194 623.624 647.052 623.667C646.914 623.707 646.755 623.742 646.577 623.773C646.398 623.801 646.224 623.827 646.055 623.852C645.886 623.873 645.744 623.892 645.63 623.907C645.363 623.941 645.118 623.998 644.896 624.078C644.678 624.158 644.502 624.273 644.37 624.424C644.241 624.572 644.176 624.769 644.176 625.015C644.176 625.357 644.302 625.615 644.555 625.79C644.807 625.963 645.129 626.049 645.52 626.049ZM650.557 627V619.909H651.938V622.882H652.602L654.943 619.909H656.651L653.904 623.358L656.683 627H654.971L652.833 624.165H651.938V627H650.557ZM657.756 627V619.909H659.136V622.882H659.801L662.141 619.909H663.849L661.102 623.358L663.882 627H662.169L660.031 624.165H659.136V627H657.756ZM667.017 627.157C666.568 627.157 666.162 627.074 665.799 626.908C665.435 626.738 665.148 626.494 664.935 626.174C664.726 625.854 664.621 625.461 664.621 624.996C664.621 624.596 664.698 624.267 664.852 624.009C665.006 623.75 665.214 623.545 665.475 623.395C665.737 623.244 666.029 623.13 666.353 623.053C666.676 622.976 667.005 622.917 667.341 622.877C667.765 622.828 668.11 622.788 668.375 622.757C668.639 622.724 668.832 622.67 668.952 622.596C669.072 622.522 669.132 622.402 669.132 622.236V622.203C669.132 621.8 669.018 621.488 668.79 621.266C668.565 621.045 668.23 620.934 667.784 620.934C667.319 620.934 666.953 621.037 666.685 621.243C666.42 621.446 666.237 621.673 666.136 621.922L664.838 621.626C664.992 621.196 665.217 620.848 665.512 620.583C665.811 620.315 666.154 620.121 666.542 620.001C666.93 619.878 667.337 619.817 667.765 619.817C668.048 619.817 668.348 619.851 668.665 619.918C668.986 619.983 669.284 620.103 669.561 620.278C669.841 620.454 670.07 620.705 670.249 621.031C670.427 621.354 670.517 621.774 670.517 622.291V627H669.169V626.031H669.113C669.024 626.209 668.89 626.384 668.712 626.557C668.533 626.729 668.304 626.872 668.024 626.986C667.744 627.1 667.408 627.157 667.017 627.157ZM667.317 626.049C667.699 626.049 668.025 625.974 668.296 625.823C668.57 625.672 668.778 625.475 668.919 625.232C669.064 624.986 669.136 624.723 669.136 624.442V623.528C669.087 623.578 668.992 623.624 668.85 623.667C668.712 623.707 668.553 623.742 668.375 623.773C668.196 623.801 668.022 623.827 667.853 623.852C667.684 623.873 667.542 623.892 667.428 623.907C667.16 623.941 666.916 623.998 666.694 624.078C666.476 624.158 666.3 624.273 666.168 624.424C666.039 624.572 665.974 624.769 665.974 625.015C665.974 625.357 666.1 625.615 666.353 625.79C666.605 625.963 666.927 626.049 667.317 626.049ZM672.974 629.659C672.768 629.659 672.58 629.642 672.411 629.608C672.241 629.578 672.115 629.544 672.032 629.507L672.364 628.376C672.617 628.443 672.841 628.473 673.038 628.463C673.235 628.454 673.409 628.38 673.56 628.242C673.714 628.103 673.849 627.877 673.966 627.563L674.137 627.092L671.543 619.909H673.02L674.816 625.412H674.89L676.685 619.909H678.167L675.245 627.946C675.11 628.316 674.937 628.628 674.728 628.884C674.519 629.142 674.269 629.336 673.98 629.465C673.691 629.594 673.355 629.659 672.974 629.659ZM684.27 622.859V624.055H680.429V622.859H684.27ZM680.817 619.909V627H679.465V619.909H680.817ZM685.235 619.909V627H683.887V619.909H685.235ZM686.202 621.1V619.909H692.185V621.1H689.872V627H688.524V621.1H686.202ZM695.379 627.157C694.929 627.157 694.523 627.074 694.16 626.908C693.797 626.738 693.509 626.494 693.297 626.174C693.087 625.854 692.983 625.461 692.983 624.996C692.983 624.596 693.06 624.267 693.214 624.009C693.367 623.75 693.575 623.545 693.837 623.395C694.098 623.244 694.391 623.13 694.714 623.053C695.037 622.976 695.366 622.917 695.702 622.877C696.127 622.828 696.471 622.788 696.736 622.757C697.001 622.724 697.193 622.67 697.313 622.596C697.433 622.522 697.493 622.402 697.493 622.236V622.203C697.493 621.8 697.379 621.488 697.151 621.266C696.927 621.045 696.591 620.934 696.145 620.934C695.68 620.934 695.314 621.037 695.046 621.243C694.782 621.446 694.598 621.673 694.497 621.922L693.2 621.626C693.354 621.196 693.578 620.848 693.874 620.583C694.172 620.315 694.515 620.121 694.903 620.001C695.291 619.878 695.699 619.817 696.127 619.817C696.41 619.817 696.71 619.851 697.027 619.918C697.347 619.983 697.645 620.103 697.922 620.278C698.202 620.454 698.432 620.705 698.61 621.031C698.789 621.354 698.878 621.774 698.878 622.291V627H697.53V626.031H697.475C697.385 626.209 697.251 626.384 697.073 626.557C696.894 626.729 696.665 626.872 696.385 626.986C696.105 627.1 695.77 627.157 695.379 627.157ZM695.679 626.049C696.06 626.049 696.387 625.974 696.657 625.823C696.931 625.672 697.139 625.475 697.281 625.232C697.425 624.986 697.498 624.723 697.498 624.442V623.528C697.448 623.578 697.353 623.624 697.211 623.667C697.073 623.707 696.914 623.742 696.736 623.773C696.557 623.801 696.384 623.827 696.214 623.852C696.045 623.873 695.903 623.892 695.79 623.907C695.522 623.941 695.277 623.998 695.056 624.078C694.837 624.158 694.662 624.273 694.529 624.424C694.4 624.572 694.335 624.769 694.335 625.015C694.335 625.357 694.462 625.615 694.714 625.79C694.966 625.963 695.288 626.049 695.679 626.049Z" fill="#EE3465"/>
<path d="M435.879 359V351H440.895V352.039H437.086V354.477H440.633V355.512H437.086V357.961H440.941V359H435.879ZM445.948 355.113V356.125H442.401V355.113H445.948ZM447.505 359V353H448.626V353.977H448.7C448.825 353.646 449.03 353.388 449.313 353.203C449.597 353.016 449.937 352.922 450.333 352.922C450.734 352.922 451.07 353.016 451.341 353.203C451.614 353.391 451.816 353.648 451.946 353.977H452.009C452.152 353.656 452.38 353.401 452.692 353.211C453.005 353.018 453.377 352.922 453.81 352.922C454.354 352.922 454.798 353.092 455.142 353.434C455.488 353.775 455.661 354.289 455.661 354.977V359H454.493V355.086C454.493 354.68 454.382 354.385 454.161 354.203C453.94 354.021 453.675 353.93 453.368 353.93C452.988 353.93 452.692 354.047 452.481 354.281C452.271 354.513 452.165 354.811 452.165 355.176V359H451.001V355.012C451.001 354.686 450.899 354.424 450.696 354.227C450.493 354.029 450.229 353.93 449.903 353.93C449.682 353.93 449.478 353.988 449.29 354.105C449.105 354.22 448.955 354.38 448.841 354.586C448.729 354.792 448.673 355.03 448.673 355.301V359H447.505ZM458.973 359.133C458.592 359.133 458.249 359.063 457.941 358.922C457.634 358.779 457.391 358.572 457.211 358.301C457.034 358.03 456.945 357.698 456.945 357.305C456.945 356.966 457.01 356.687 457.141 356.469C457.271 356.25 457.447 356.077 457.668 355.949C457.889 355.822 458.137 355.725 458.41 355.66C458.684 355.595 458.962 355.546 459.246 355.512C459.605 355.47 459.897 355.436 460.121 355.41C460.345 355.382 460.508 355.336 460.609 355.273C460.711 355.211 460.762 355.109 460.762 354.969V354.941C460.762 354.6 460.665 354.336 460.473 354.148C460.283 353.961 459.999 353.867 459.621 353.867C459.228 353.867 458.918 353.954 458.691 354.129C458.467 354.301 458.313 354.492 458.227 354.703L457.129 354.453C457.259 354.089 457.449 353.794 457.699 353.57C457.952 353.344 458.242 353.18 458.57 353.078C458.898 352.974 459.243 352.922 459.605 352.922C459.845 352.922 460.099 352.951 460.367 353.008C460.638 353.062 460.891 353.164 461.125 353.312C461.362 353.461 461.556 353.673 461.707 353.949C461.858 354.223 461.934 354.578 461.934 355.016V359H460.793V358.18H460.746C460.671 358.331 460.557 358.479 460.406 358.625C460.255 358.771 460.061 358.892 459.824 358.988C459.587 359.085 459.303 359.133 458.973 359.133ZM459.227 358.195C459.549 358.195 459.826 358.132 460.055 358.004C460.286 357.876 460.462 357.71 460.582 357.504C460.704 357.296 460.766 357.073 460.766 356.836V356.062C460.724 356.104 460.643 356.143 460.523 356.18C460.406 356.214 460.272 356.243 460.121 356.27C459.97 356.293 459.823 356.315 459.68 356.336C459.536 356.354 459.417 356.37 459.32 356.383C459.094 356.411 458.887 356.46 458.699 356.527C458.514 356.595 458.366 356.693 458.254 356.82C458.145 356.945 458.09 357.112 458.09 357.32C458.09 357.609 458.197 357.828 458.41 357.977C458.624 358.122 458.896 358.195 459.227 358.195ZM463.489 359V353H464.657V359H463.489ZM464.079 352.074C463.876 352.074 463.701 352.007 463.556 351.871C463.412 351.733 463.341 351.569 463.341 351.379C463.341 351.186 463.412 351.022 463.556 350.887C463.701 350.749 463.876 350.68 464.079 350.68C464.282 350.68 464.455 350.749 464.599 350.887C464.744 351.022 464.817 351.186 464.817 351.379C464.817 351.569 464.744 351.733 464.599 351.871C464.455 352.007 464.282 352.074 464.079 352.074ZM467.396 351V359H466.229V351H467.396Z" fill="black"/>
<path d="M435.879 303H437.074V308.875H437.148L441.219 303H442.336V311H441.129V305.133H441.055L436.992 311H435.879V303ZM447.37 309.555L449.308 305H450.315L447.804 311H446.937L444.476 305H445.472L447.37 309.555ZM445.147 305V311H444.003V305H445.147ZM449.624 311V305H450.761V311H449.624ZM455.896 311V305.996H454.458C454.117 305.996 453.851 306.076 453.661 306.234C453.471 306.393 453.376 306.602 453.376 306.859C453.376 307.115 453.463 307.32 453.638 307.477C453.815 307.63 454.062 307.707 454.38 307.707H456.235V308.652H454.38C453.937 308.652 453.554 308.579 453.231 308.434C452.911 308.285 452.664 308.076 452.489 307.805C452.317 307.534 452.231 307.214 452.231 306.844C452.231 306.466 452.32 306.141 452.497 305.867C452.677 305.591 452.933 305.378 453.267 305.227C453.603 305.076 454 305 454.458 305H456.993V311H455.896ZM451.958 311L453.649 307.969H454.845L453.153 311H451.958Z" fill="black"/>
<path d="M592.769 595H593.914V591.547H595.982C598.185 591.547 599.177 590.208 599.177 588.537C599.177 586.866 598.185 585.545 595.964 585.545H592.769V595ZM593.914 590.531V586.561H595.927C597.464 586.561 598.051 587.401 598.051 588.537C598.051 589.673 597.464 590.531 595.946 590.531H593.914ZM603.77 595.148C605.211 595.148 606.263 594.428 606.596 593.357L605.543 593.061C605.266 593.8 604.625 594.169 603.77 594.169C602.492 594.169 601.61 593.343 601.559 591.824H606.707V591.362C606.707 588.722 605.137 587.817 603.66 587.817C601.739 587.817 600.465 589.331 600.465 591.51C600.465 593.689 601.721 595.148 603.77 595.148ZM601.559 590.882C601.633 589.779 602.413 588.795 603.66 588.795C604.841 588.795 605.599 589.682 605.599 590.882H601.559ZM607.607 597.031H608.696V595H613.941V597.031H615.03V593.984H613.941V587.909H609.435L609.195 590.716C609.024 592.701 608.77 593.384 608.198 593.984H607.607V597.031ZM609.435 593.984C609.933 593.329 610.114 592.198 610.266 590.716L610.451 588.925H612.851V593.984H609.435ZM618.563 595.166C619.8 595.166 620.446 594.501 620.668 594.04H620.723V595H621.813V590.328C621.813 588.075 620.095 587.817 619.191 587.817C618.12 587.817 616.901 588.186 616.347 589.479L617.381 589.848C617.621 589.331 618.189 588.777 619.228 588.777C620.229 588.777 620.723 589.308 620.723 590.217V590.254C620.723 590.781 620.188 590.734 618.895 590.901C617.58 591.071 616.144 591.362 616.144 592.987C616.144 594.372 617.215 595.166 618.563 595.166ZM618.729 594.188C617.861 594.188 617.233 593.8 617.233 593.043C617.233 592.212 617.99 591.953 618.84 591.842C619.301 591.787 620.539 591.658 620.723 591.436V592.433C620.723 593.32 620.022 594.188 618.729 594.188ZM623.801 595H624.891V592.009H625.87L628.196 595H629.6L626.701 591.325L629.563 587.909H628.159L625.611 590.993H624.891V587.909H623.801V595ZM630.378 588.925H632.723V595H633.812V588.925H636.139V587.909H630.378V588.925ZM638.818 593.393V587.909H637.728V595H639.002L642.4 589.516V595H643.489V587.909H642.234L638.818 593.393ZM645.485 597.659H646.574V593.911H646.667C646.907 594.298 647.368 595.148 648.735 595.148C650.508 595.148 651.745 593.726 651.745 591.473C651.745 589.239 650.508 587.817 648.716 587.817C647.332 587.817 646.907 588.666 646.667 589.036H646.538V587.909H645.485V597.659ZM646.556 591.455C646.556 589.866 647.258 588.795 648.587 588.795C649.972 588.795 650.655 589.959 650.655 591.455C650.655 592.969 649.954 594.169 648.587 594.169C647.276 594.169 646.556 593.061 646.556 591.455ZM656.288 595.148C658.208 595.148 659.501 593.689 659.501 591.491C659.501 589.276 658.208 587.817 656.288 587.817C654.367 587.817 653.074 589.276 653.074 591.491C653.074 593.689 654.367 595.148 656.288 595.148ZM656.288 594.169C654.829 594.169 654.164 592.913 654.164 591.491C654.164 590.07 654.829 588.795 656.288 588.795C657.746 588.795 658.411 590.07 658.411 591.491C658.411 592.913 657.746 594.169 656.288 594.169ZM661.164 595H664.506C665.946 595 666.814 594.188 666.814 593.098C666.814 591.985 665.969 591.385 665.189 591.27C665.988 591.104 666.556 590.656 666.556 589.793C666.556 588.662 665.586 587.909 664.063 587.909H661.164V595ZM662.198 594.003V591.824H664.506C665.254 591.824 665.706 592.272 665.706 593.006C665.706 593.624 665.254 594.003 664.506 594.003H662.198ZM662.198 590.882V588.906H664.063C664.935 588.906 665.466 589.271 665.466 589.866C665.466 590.499 664.935 590.882 664.063 590.882H662.198ZM670.55 595.166C671.787 595.166 672.434 594.501 672.655 594.04H672.711V595H673.8V590.328C673.8 588.075 672.083 587.817 671.178 587.817C670.107 587.817 668.888 588.186 668.334 589.479L669.368 589.848C669.608 589.331 670.176 588.777 671.215 588.777C672.217 588.777 672.711 589.308 672.711 590.217V590.254C672.711 590.781 672.175 590.734 670.883 590.901C669.567 591.071 668.131 591.362 668.131 592.987C668.131 594.372 669.202 595.166 670.55 595.166ZM670.716 594.188C669.848 594.188 669.221 593.8 669.221 593.043C669.221 592.212 669.978 591.953 670.827 591.842C671.289 591.787 672.526 591.658 672.711 591.436V592.433C672.711 593.32 672.009 594.188 670.716 594.188ZM674.824 588.925H677.169V595H678.258V588.925H680.585V587.909H674.824V588.925ZM683.264 590.476V587.909H682.174V595H685.147C686.809 595 687.714 593.984 687.714 592.71C687.714 591.418 686.809 590.476 685.147 590.476H683.264ZM683.264 591.491H685.147C686.011 591.491 686.625 592.018 686.625 592.766C686.625 593.481 686.011 593.984 685.147 593.984H683.264V591.491Z" fill="black"/>
<path d="M748.337 361.25V353H749.228V353.953H749.337C749.405 353.849 749.498 353.716 749.618 353.555C749.741 353.391 749.915 353.245 750.142 353.117C750.371 352.987 750.681 352.922 751.071 352.922C751.576 352.922 752.022 353.048 752.407 353.301C752.793 353.553 753.093 353.911 753.31 354.375C753.526 354.839 753.634 355.385 753.634 356.016C753.634 356.651 753.526 357.202 753.31 357.668C753.093 358.132 752.794 358.491 752.411 358.746C752.028 358.999 751.587 359.125 751.087 359.125C750.701 359.125 750.393 359.061 750.161 358.934C749.929 358.803 749.751 358.656 749.626 358.492C749.501 358.326 749.405 358.187 749.337 358.078H749.259V361.25H748.337ZM749.243 356C749.243 356.453 749.31 356.853 749.442 357.199C749.575 357.543 749.769 357.812 750.024 358.008C750.28 358.201 750.592 358.297 750.962 358.297C751.347 358.297 751.669 358.195 751.927 357.992C752.187 357.786 752.382 357.51 752.513 357.164C752.646 356.815 752.712 356.427 752.712 356C752.712 355.578 752.647 355.198 752.517 354.859C752.389 354.518 752.195 354.249 751.935 354.051C751.677 353.85 751.353 353.75 750.962 353.75C750.587 353.75 750.272 353.845 750.017 354.035C749.761 354.223 749.569 354.486 749.438 354.824C749.308 355.16 749.243 355.552 749.243 356ZM757.478 359.125C756.936 359.125 756.461 358.996 756.052 358.738C755.646 358.48 755.328 358.12 755.099 357.656C754.872 357.193 754.759 356.651 754.759 356.031C754.759 355.406 754.872 354.861 755.099 354.395C755.328 353.928 755.646 353.566 756.052 353.309C756.461 353.051 756.936 352.922 757.478 352.922C758.019 352.922 758.493 353.051 758.899 353.309C759.308 353.566 759.626 353.928 759.853 354.395C760.082 354.861 760.196 355.406 760.196 356.031C760.196 356.651 760.082 357.193 759.853 357.656C759.626 358.12 759.308 358.48 758.899 358.738C758.493 358.996 758.019 359.125 757.478 359.125ZM757.478 358.297C757.889 358.297 758.228 358.191 758.493 357.98C758.759 357.77 758.955 357.492 759.083 357.148C759.211 356.805 759.274 356.432 759.274 356.031C759.274 355.63 759.211 355.257 759.083 354.91C758.955 354.564 758.759 354.284 758.493 354.07C758.228 353.857 757.889 353.75 757.478 353.75C757.066 353.75 756.728 353.857 756.462 354.07C756.196 354.284 756 354.564 755.872 354.91C755.744 355.257 755.681 355.63 755.681 356.031C755.681 356.432 755.744 356.805 755.872 357.148C756 357.492 756.196 357.77 756.462 357.98C756.728 358.191 757.066 358.297 757.478 358.297ZM764.041 359.125C763.479 359.125 762.994 358.992 762.588 358.727C762.182 358.461 761.869 358.095 761.65 357.629C761.432 357.163 761.322 356.63 761.322 356.031C761.322 355.422 761.434 354.884 761.658 354.418C761.885 353.949 762.2 353.583 762.604 353.32C763.01 353.055 763.484 352.922 764.025 352.922C764.447 352.922 764.827 353 765.166 353.156C765.505 353.312 765.782 353.531 765.998 353.812C766.214 354.094 766.348 354.422 766.4 354.797H765.479C765.408 354.523 765.252 354.281 765.01 354.07C764.77 353.857 764.447 353.75 764.041 353.75C763.682 353.75 763.367 353.844 763.096 354.031C762.827 354.216 762.618 354.478 762.467 354.816C762.318 355.152 762.244 355.547 762.244 356C762.244 356.464 762.317 356.867 762.463 357.211C762.611 357.555 762.82 357.822 763.088 358.012C763.359 358.202 763.676 358.297 764.041 358.297C764.281 358.297 764.498 358.255 764.693 358.172C764.889 358.089 765.054 357.969 765.189 357.812C765.325 357.656 765.421 357.469 765.479 357.25H766.4C766.348 357.604 766.219 357.923 766.014 358.207C765.811 358.488 765.541 358.712 765.205 358.879C764.872 359.043 764.484 359.125 764.041 359.125ZM768.67 355.391V359H767.748V351H768.67V353.937H768.748C768.889 353.628 769.1 353.382 769.381 353.199C769.665 353.014 770.042 352.922 770.514 352.922C770.923 352.922 771.281 353.004 771.588 353.168C771.895 353.329 772.133 353.578 772.303 353.914C772.475 354.247 772.561 354.672 772.561 355.188V359H771.639V355.25C771.639 354.773 771.515 354.405 771.268 354.145C771.023 353.882 770.683 353.75 770.248 353.75C769.946 353.75 769.675 353.814 769.436 353.941C769.199 354.069 769.011 354.255 768.873 354.5C768.738 354.745 768.67 355.042 768.67 355.391ZM776.856 353V353.781H773.747V353H776.856ZM774.653 351.562H775.575V357.281C775.575 357.542 775.613 357.737 775.688 357.867C775.767 357.995 775.866 358.081 775.985 358.125C776.108 358.167 776.237 358.187 776.372 358.187C776.474 358.187 776.557 358.182 776.622 358.172C776.687 358.159 776.739 358.148 776.778 358.141L776.966 358.969C776.903 358.992 776.816 359.016 776.704 359.039C776.592 359.065 776.45 359.078 776.278 359.078C776.018 359.078 775.763 359.022 775.513 358.91C775.265 358.798 775.06 358.628 774.896 358.398C774.734 358.169 774.653 357.88 774.653 357.531V351.562ZM780.009 359.141C779.629 359.141 779.284 359.069 778.974 358.926C778.664 358.78 778.418 358.57 778.235 358.297C778.053 358.021 777.962 357.687 777.962 357.297C777.962 356.953 778.03 356.674 778.165 356.461C778.3 356.245 778.481 356.076 778.708 355.953C778.935 355.831 779.185 355.74 779.458 355.68C779.734 355.617 780.011 355.568 780.29 355.531C780.655 355.484 780.95 355.449 781.177 355.426C781.406 355.4 781.573 355.357 781.677 355.297C781.784 355.237 781.837 355.133 781.837 354.984V354.953C781.837 354.568 781.731 354.268 781.521 354.055C781.312 353.841 780.996 353.734 780.571 353.734C780.131 353.734 779.786 353.831 779.536 354.023C779.286 354.216 779.11 354.422 779.009 354.641L778.134 354.328C778.29 353.964 778.498 353.68 778.759 353.477C779.022 353.271 779.308 353.128 779.618 353.047C779.931 352.964 780.238 352.922 780.54 352.922C780.733 352.922 780.954 352.945 781.204 352.992C781.457 353.036 781.7 353.129 781.935 353.27C782.172 353.41 782.368 353.622 782.524 353.906C782.681 354.19 782.759 354.57 782.759 355.047V359H781.837V358.187H781.79C781.728 358.318 781.623 358.457 781.478 358.605C781.332 358.754 781.138 358.88 780.896 358.984C780.653 359.089 780.358 359.141 780.009 359.141ZM780.149 358.312C780.514 358.312 780.821 358.241 781.071 358.098C781.324 357.954 781.514 357.77 781.642 357.543C781.772 357.316 781.837 357.078 781.837 356.828V355.984C781.798 356.031 781.712 356.074 781.579 356.113C781.449 356.15 781.298 356.182 781.126 356.211C780.957 356.237 780.791 356.26 780.63 356.281C780.471 356.299 780.342 356.315 780.243 356.328C780.004 356.359 779.78 356.41 779.571 356.48C779.366 356.548 779.199 356.651 779.071 356.789C778.946 356.924 778.884 357.109 778.884 357.344C778.884 357.664 779.002 357.906 779.239 358.07C779.479 358.232 779.782 358.312 780.149 358.312ZM789.051 361.109C788.254 361.109 787.549 361 786.937 360.781C786.326 360.565 785.811 360.246 785.395 359.824C784.978 359.402 784.663 358.885 784.449 358.273C784.236 357.661 784.129 356.961 784.129 356.172C784.129 355.409 784.237 354.727 784.453 354.125C784.672 353.523 784.988 353.013 785.402 352.594C785.819 352.172 786.324 351.85 786.918 351.629C787.514 351.408 788.189 351.297 788.941 351.297C789.673 351.297 790.314 351.417 790.863 351.656C791.415 351.893 791.876 352.215 792.246 352.621C792.618 353.025 792.897 353.479 793.082 353.984C793.27 354.49 793.363 355.01 793.363 355.547C793.363 355.924 793.345 356.307 793.309 356.695C793.272 357.083 793.195 357.44 793.078 357.766C792.961 358.089 792.78 358.349 792.535 358.547C792.293 358.745 791.965 358.844 791.551 358.844C791.368 358.844 791.168 358.815 790.949 358.758C790.73 358.701 790.536 358.605 790.367 358.473C790.198 358.34 790.098 358.161 790.066 357.937H790.02C789.957 358.089 789.861 358.232 789.73 358.367C789.603 358.503 789.435 358.611 789.227 358.691C789.021 358.772 788.77 358.807 788.473 358.797C788.134 358.784 787.836 358.708 787.578 358.57C787.32 358.43 787.104 358.24 786.93 358C786.758 357.758 786.628 357.478 786.539 357.16C786.453 356.84 786.41 356.495 786.41 356.125C786.41 355.773 786.462 355.452 786.566 355.16C786.671 354.868 786.815 354.613 787 354.395C787.188 354.176 787.406 354.001 787.656 353.871C787.909 353.738 788.181 353.656 788.473 353.625C788.733 353.599 788.97 353.611 789.184 353.66C789.397 353.707 789.573 353.779 789.711 353.875C789.849 353.969 789.936 354.073 789.973 354.188H790.02V353.75H790.848V357.281C790.848 357.5 790.909 357.693 791.031 357.859C791.154 358.026 791.332 358.109 791.566 358.109C791.832 358.109 792.035 358.018 792.176 357.836C792.319 357.654 792.417 357.372 792.469 356.992C792.523 356.612 792.551 356.125 792.551 355.531C792.551 355.182 792.503 354.839 792.406 354.5C792.313 354.159 792.169 353.84 791.977 353.543C791.786 353.246 791.546 352.984 791.254 352.758C790.962 352.531 790.62 352.354 790.227 352.227C789.836 352.096 789.392 352.031 788.895 352.031C788.283 352.031 787.734 352.126 787.25 352.316C786.768 352.504 786.358 352.779 786.02 353.141C785.684 353.5 785.427 353.937 785.25 354.453C785.076 354.966 784.988 355.549 784.988 356.203C784.988 356.867 785.076 357.457 785.25 357.973C785.427 358.488 785.688 358.923 786.031 359.277C786.378 359.632 786.806 359.9 787.316 360.082C787.827 360.267 788.415 360.359 789.082 360.359C789.368 360.359 789.651 360.332 789.93 360.277C790.208 360.223 790.454 360.163 790.668 360.098C790.882 360.033 791.035 359.984 791.129 359.953L791.348 360.672C791.186 360.74 790.975 360.807 790.715 360.875C790.457 360.943 790.181 360.999 789.887 361.043C789.595 361.087 789.316 361.109 789.051 361.109ZM788.598 358C788.947 358 789.229 357.93 789.445 357.789C789.661 357.648 789.819 357.436 789.918 357.152C790.017 356.868 790.066 356.51 790.066 356.078C790.066 355.641 790.012 355.299 789.902 355.055C789.793 354.81 789.632 354.638 789.418 354.539C789.204 354.44 788.941 354.391 788.629 354.391C788.332 354.391 788.078 354.469 787.867 354.625C787.659 354.779 787.499 354.984 787.387 355.242C787.277 355.497 787.223 355.776 787.223 356.078C787.223 356.411 787.267 356.725 787.355 357.02C787.444 357.311 787.589 357.548 787.789 357.73C787.99 357.91 788.259 358 788.598 358ZM795.337 361.25C795.181 361.25 795.041 361.237 794.919 361.211C794.797 361.188 794.712 361.164 794.665 361.141L794.899 360.328C795.123 360.385 795.321 360.406 795.493 360.391C795.665 360.375 795.817 360.298 795.95 360.16C796.086 360.025 796.209 359.805 796.321 359.5L796.493 359.031L794.274 353H795.274L796.931 357.781H796.993L798.649 353H799.649L797.103 359.875C796.988 360.185 796.846 360.441 796.677 360.645C796.507 360.85 796.311 361.003 796.087 361.102C795.866 361.201 795.616 361.25 795.337 361.25ZM802.449 359.141C802.069 359.141 801.724 359.069 801.414 358.926C801.104 358.78 800.858 358.57 800.676 358.297C800.493 358.021 800.402 357.687 800.402 357.297C800.402 356.953 800.47 356.674 800.605 356.461C800.741 356.245 800.922 356.076 801.148 355.953C801.375 355.831 801.625 355.74 801.898 355.68C802.174 355.617 802.452 355.568 802.73 355.531C803.095 355.484 803.391 355.449 803.617 355.426C803.846 355.4 804.013 355.357 804.117 355.297C804.224 355.237 804.277 355.133 804.277 354.984V354.953C804.277 354.568 804.172 354.268 803.961 354.055C803.753 353.841 803.436 353.734 803.012 353.734C802.572 353.734 802.227 353.831 801.977 354.023C801.727 354.216 801.551 354.422 801.449 354.641L800.574 354.328C800.73 353.964 800.939 353.68 801.199 353.477C801.462 353.271 801.749 353.128 802.059 353.047C802.371 352.964 802.678 352.922 802.98 352.922C803.173 352.922 803.395 352.945 803.645 352.992C803.897 353.036 804.141 353.129 804.375 353.27C804.612 353.41 804.809 353.622 804.965 353.906C805.121 354.19 805.199 354.57 805.199 355.047V359H804.277V358.187H804.23C804.168 358.318 804.064 358.457 803.918 358.605C803.772 358.754 803.578 358.88 803.336 358.984C803.094 359.089 802.798 359.141 802.449 359.141ZM802.59 358.312C802.954 358.312 803.262 358.241 803.512 358.098C803.764 357.954 803.954 357.77 804.082 357.543C804.212 357.316 804.277 357.078 804.277 356.828V355.984C804.238 356.031 804.152 356.074 804.02 356.113C803.889 356.15 803.738 356.182 803.566 356.211C803.397 356.237 803.232 356.26 803.07 356.281C802.911 356.299 802.783 356.315 802.684 356.328C802.444 356.359 802.22 356.41 802.012 356.48C801.806 356.548 801.639 356.651 801.512 356.789C801.387 356.924 801.324 357.109 801.324 357.344C801.324 357.664 801.443 357.906 801.68 358.07C801.919 358.232 802.223 358.312 802.59 358.312ZM807.804 355.391V359H806.882V353H807.772V353.937H807.851C807.991 353.633 808.205 353.388 808.491 353.203C808.778 353.016 809.147 352.922 809.601 352.922C810.007 352.922 810.362 353.005 810.667 353.172C810.972 353.336 811.209 353.586 811.378 353.922C811.547 354.255 811.632 354.677 811.632 355.188V359H810.71V355.25C810.71 354.779 810.588 354.411 810.343 354.148C810.098 353.883 809.762 353.75 809.335 353.75C809.041 353.75 808.778 353.814 808.546 353.941C808.317 354.069 808.136 354.255 808.003 354.5C807.87 354.745 807.804 355.042 807.804 355.391ZM815.582 359.125C815.082 359.125 814.641 358.999 814.258 358.746C813.875 358.491 813.576 358.132 813.359 357.668C813.143 357.202 813.035 356.651 813.035 356.016C813.035 355.385 813.143 354.839 813.359 354.375C813.576 353.911 813.876 353.553 814.262 353.301C814.647 353.048 815.092 352.922 815.598 352.922C815.988 352.922 816.297 352.987 816.523 353.117C816.753 353.245 816.927 353.391 817.047 353.555C817.169 353.716 817.264 353.849 817.332 353.953H817.41V351H818.332V359H817.441V358.078H817.332C817.264 358.187 817.168 358.326 817.043 358.492C816.918 358.656 816.74 358.803 816.508 358.934C816.276 359.061 815.967 359.125 815.582 359.125ZM815.707 358.297C816.077 358.297 816.389 358.201 816.645 358.008C816.9 357.812 817.094 357.543 817.227 357.199C817.359 356.853 817.426 356.453 817.426 356C817.426 355.552 817.361 355.16 817.23 354.824C817.1 354.486 816.908 354.223 816.652 354.035C816.397 353.845 816.082 353.75 815.707 353.75C815.316 353.75 814.991 353.85 814.73 354.051C814.473 354.249 814.279 354.518 814.148 354.859C814.021 355.198 813.957 355.578 813.957 356C813.957 356.427 814.022 356.815 814.152 357.164C814.285 357.51 814.48 357.786 814.738 357.992C814.999 358.195 815.322 358.297 815.707 358.297ZM822.664 359.125C822.086 359.125 821.587 358.997 821.168 358.742C820.751 358.484 820.43 358.125 820.203 357.664C819.979 357.201 819.867 356.661 819.867 356.047C819.867 355.432 819.979 354.891 820.203 354.422C820.43 353.951 820.745 353.583 821.148 353.32C821.555 353.055 822.029 352.922 822.57 352.922C822.883 352.922 823.191 352.974 823.496 353.078C823.801 353.182 824.078 353.352 824.328 353.586C824.578 353.818 824.777 354.125 824.926 354.508C825.074 354.891 825.148 355.362 825.148 355.922V356.312H820.523V355.516H824.211C824.211 355.177 824.143 354.875 824.008 354.609C823.875 354.344 823.685 354.134 823.438 353.98C823.193 353.827 822.904 353.75 822.57 353.75C822.203 353.75 821.885 353.841 821.617 354.023C821.352 354.203 821.147 354.437 821.004 354.727C820.861 355.016 820.789 355.326 820.789 355.656V356.188C820.789 356.641 820.867 357.025 821.023 357.34C821.182 357.652 821.402 357.891 821.684 358.055C821.965 358.216 822.292 358.297 822.664 358.297C822.906 358.297 823.125 358.263 823.32 358.195C823.518 358.125 823.689 358.021 823.832 357.883C823.975 357.742 824.086 357.568 824.164 357.359L825.055 357.609C824.961 357.911 824.803 358.177 824.582 358.406C824.361 358.633 824.087 358.81 823.762 358.937C823.436 359.063 823.07 359.125 822.664 359.125ZM827.077 353L828.515 355.453L829.952 353H831.015L829.077 356L831.015 359H829.952L828.515 356.672L827.077 359H826.015L827.921 356L826.015 353H827.077ZM833.002 359.063C832.809 359.063 832.644 358.993 832.506 358.855C832.368 358.717 832.299 358.552 832.299 358.359C832.299 358.167 832.368 358.001 832.506 357.863C832.644 357.725 832.809 357.656 833.002 357.656C833.195 357.656 833.36 357.725 833.498 357.863C833.636 358.001 833.705 358.167 833.705 358.359C833.705 358.487 833.673 358.604 833.607 358.711C833.545 358.818 833.46 358.904 833.354 358.969C833.249 359.031 833.132 359.063 833.002 359.063ZM835.359 359V353H836.25V353.906H836.313C836.422 353.609 836.62 353.368 836.906 353.184C837.193 352.999 837.516 352.906 837.875 352.906C837.943 352.906 838.027 352.908 838.129 352.91C838.23 352.913 838.307 352.917 838.359 352.922V353.859C838.328 353.852 838.257 353.84 838.145 353.824C838.035 353.806 837.919 353.797 837.797 353.797C837.505 353.797 837.245 353.858 837.016 353.98C836.789 354.1 836.609 354.267 836.477 354.48C836.346 354.691 836.281 354.932 836.281 355.203V359H835.359ZM843.233 356.547V353H844.155V359H843.233V357.984H843.171C843.03 358.289 842.812 358.548 842.515 358.762C842.218 358.973 841.843 359.078 841.39 359.078C841.015 359.078 840.681 358.996 840.39 358.832C840.098 358.665 839.869 358.415 839.702 358.082C839.535 357.746 839.452 357.323 839.452 356.812V353H840.374V356.75C840.374 357.187 840.496 357.536 840.741 357.797C840.989 358.057 841.304 358.187 841.687 358.187C841.916 358.187 842.149 358.129 842.386 358.012C842.625 357.895 842.826 357.715 842.987 357.473C843.151 357.23 843.233 356.922 843.233 356.547Z" fill="black"/>
<path d="M801.346 311V303H804.143C804.7 303 805.16 303.096 805.521 303.289C805.883 303.479 806.153 303.736 806.33 304.059C806.507 304.379 806.596 304.734 806.596 305.125C806.596 305.469 806.535 305.753 806.412 305.977C806.292 306.201 806.133 306.378 805.936 306.508C805.74 306.638 805.528 306.734 805.299 306.797V306.875C805.544 306.891 805.79 306.977 806.037 307.133C806.285 307.289 806.492 307.513 806.658 307.805C806.825 308.096 806.908 308.453 806.908 308.875C806.908 309.276 806.817 309.637 806.635 309.957C806.452 310.277 806.165 310.531 805.771 310.719C805.378 310.906 804.867 311 804.236 311H801.346ZM802.314 310.141H804.236C804.869 310.141 805.318 310.018 805.584 309.773C805.852 309.526 805.986 309.227 805.986 308.875C805.986 308.604 805.917 308.354 805.779 308.125C805.641 307.893 805.445 307.708 805.189 307.57C804.934 307.43 804.632 307.359 804.283 307.359H802.314V310.141ZM802.314 306.516H804.111C804.403 306.516 804.666 306.458 804.9 306.344C805.137 306.229 805.325 306.068 805.463 305.859C805.604 305.651 805.674 305.406 805.674 305.125C805.674 304.773 805.551 304.475 805.307 304.23C805.062 303.983 804.674 303.859 804.143 303.859H802.314V306.516ZM809.297 309.641L812.188 305H813.25V311H812.328V306.359L809.453 311H808.375V305H809.297V309.641ZM814.122 305.859V305H818.997V305.859H817.028V311H816.106V305.859H814.122ZM821.796 311.141C821.416 311.141 821.071 311.069 820.761 310.926C820.451 310.78 820.205 310.57 820.022 310.297C819.84 310.021 819.749 309.687 819.749 309.297C819.749 308.953 819.817 308.674 819.952 308.461C820.088 308.245 820.269 308.076 820.495 307.953C820.722 307.831 820.972 307.74 821.245 307.68C821.521 307.617 821.799 307.568 822.077 307.531C822.442 307.484 822.737 307.449 822.964 307.426C823.193 307.4 823.36 307.357 823.464 307.297C823.571 307.237 823.624 307.133 823.624 306.984V306.953C823.624 306.568 823.519 306.268 823.308 306.055C823.099 305.841 822.783 305.734 822.358 305.734C821.918 305.734 821.573 305.831 821.323 306.023C821.073 306.216 820.897 306.422 820.796 306.641L819.921 306.328C820.077 305.964 820.285 305.68 820.546 305.477C820.809 305.271 821.095 305.128 821.405 305.047C821.718 304.964 822.025 304.922 822.327 304.922C822.52 304.922 822.741 304.945 822.991 304.992C823.244 305.036 823.487 305.129 823.722 305.27C823.959 305.41 824.155 305.622 824.312 305.906C824.468 306.19 824.546 306.57 824.546 307.047V311H823.624V310.187H823.577C823.515 310.318 823.41 310.457 823.265 310.605C823.119 310.754 822.925 310.88 822.683 310.984C822.44 311.089 822.145 311.141 821.796 311.141ZM821.937 310.312C822.301 310.312 822.608 310.241 822.858 310.098C823.111 309.954 823.301 309.77 823.429 309.543C823.559 309.316 823.624 309.078 823.624 308.828V307.984C823.585 308.031 823.499 308.074 823.366 308.113C823.236 308.15 823.085 308.182 822.913 308.211C822.744 308.237 822.578 308.26 822.417 308.281C822.258 308.299 822.129 308.315 822.03 308.328C821.791 308.359 821.567 308.41 821.358 308.48C821.153 308.548 820.986 308.651 820.858 308.789C820.733 308.924 820.671 309.109 820.671 309.344C820.671 309.664 820.789 309.906 821.026 310.07C821.266 310.232 821.569 310.312 821.937 310.312ZM825.697 311V310.141H825.916C826.096 310.141 826.245 310.105 826.365 310.035C826.485 309.962 826.581 309.836 826.654 309.656C826.73 309.474 826.787 309.221 826.826 308.898C826.868 308.573 826.898 308.159 826.916 307.656L827.025 305H831.025V311H830.104V305.859H827.9L827.807 308C827.786 308.492 827.742 308.926 827.674 309.301C827.609 309.673 827.508 309.986 827.373 310.238C827.24 310.491 827.063 310.681 826.842 310.809C826.62 310.936 826.343 311 826.01 311H825.697ZM833.639 309.641L836.529 305H837.592V311H836.67V306.359L833.795 311H832.717V305H833.639V309.641ZM840.202 309.641L843.093 305H844.155V311H843.233V306.359L840.358 311H839.28V305H840.202V309.641ZM842.483 303H843.343C843.343 303.422 843.197 303.767 842.905 304.035C842.614 304.303 842.218 304.437 841.718 304.437C841.226 304.437 840.834 304.303 840.542 304.035C840.253 303.767 840.108 303.422 840.108 303H840.968C840.968 303.203 841.024 303.382 841.136 303.535C841.25 303.689 841.444 303.766 841.718 303.766C841.991 303.766 842.187 303.689 842.304 303.535C842.424 303.382 842.483 303.203 842.483 303Z" fill="black"/>
<path fill-rule="evenodd" clip-rule="evenodd" d="M845 331L435 331L435 330L845 330L845 331Z" fill="#E8E8E8"/>
</g>
<defs>
<clipPath id="clip0_1_1882">
<rect width="1280" height="700" fill="white"/>
</clipPath>
</defs>
</svg>
