<svg width="320" height="780" viewBox="0 0 320 780" fill="none" xmlns="http://www.w3.org/2000/svg">
<g clip-path="url(#clip0_1_2436)">
<rect width="320" height="780" fill="#FAFAFA"/>
<rect width="320" height="780" fill="#FAFAFA"/>
<rect x="282.161" y="22.2825" width="3" height="22" transform="rotate(-45 282.161 22.2825)" fill="black"/>
<rect x="297.717" y="20.1611" width="3" height="22" transform="rotate(45 297.717 20.1611)" fill="black"/>
<path d="M129.213 196.418C126.228 196.418 124.067 198.533 124.067 201.665C124.067 204.766 126.215 206.843 129.213 206.843H129.43V208.537H131.367V206.843H131.571C134.563 206.843 136.711 204.74 136.711 201.646C136.711 198.521 134.563 196.418 131.571 196.418H131.367V194.679H129.43V196.418H129.213ZM129.213 198.124H129.43V205.136H129.213C127.18 205.136 125.978 203.826 125.978 201.665C125.978 199.447 127.167 198.124 129.213 198.124ZM131.367 198.124H131.578C133.617 198.124 134.793 199.454 134.793 201.646C134.793 203.82 133.617 205.136 131.578 205.136H131.367V198.124ZM140.886 205.322V198.182H139.013V208H141.091L145.399 200.854V208H147.272V198.182H145.214L140.886 205.322ZM149.068 208H149.682C151.823 208 152.609 206.415 152.763 203.168L152.916 199.831H156.125V208H157.998V198.182H151.145L150.973 202.528C150.851 205.558 150.506 206.344 149.413 206.344H149.062L149.068 208ZM162.419 201.557V198.182H160.547V208H164.836C167.239 208 168.581 206.607 168.581 204.759C168.581 202.874 167.239 201.557 164.836 201.557H162.419ZM162.419 203.206H164.836C165.935 203.206 166.721 203.871 166.721 204.817C166.721 205.712 165.935 206.351 164.836 206.351H162.419V203.206ZM176.234 205.635L173.128 198.182H170.724V208H172.597V200.86L175.525 208H176.944L179.922 200.886V208H181.782V198.182H179.405L176.234 205.635ZM186.203 201.557V198.182H184.33V208H188.619C191.022 208 192.365 206.607 192.365 204.759C192.365 202.874 191.022 201.557 188.619 201.557H186.203ZM193.758 208H195.669V198.182H193.758V208ZM186.203 203.206H188.619C189.718 203.206 190.504 203.871 190.504 204.817C190.504 205.712 189.718 206.351 188.619 206.351H186.203V203.206Z" fill="black"/>
<path d="M133.337 148.909H125.175V162H127.15V150.609H133.337V148.909ZM134.636 162H135.25C137.391 162 138.178 160.415 138.331 157.168L138.484 153.831H141.693V162H143.566V152.182H136.714L136.541 156.528C136.42 159.558 136.075 160.344 134.982 160.344H134.63L134.636 162ZM148.972 162.217C150.596 162.217 151.51 161.393 151.874 160.658H151.951V162H153.817V155.48C153.817 152.623 151.567 152.054 150.008 152.054C148.231 152.054 146.594 152.77 145.955 154.56L147.751 154.969C148.032 154.272 148.748 153.601 150.033 153.601C151.267 153.601 151.9 154.246 151.9 155.359V155.403C151.9 156.1 151.184 156.087 149.42 156.292C147.559 156.509 145.655 156.995 145.655 159.226C145.655 161.156 147.106 162.217 148.972 162.217ZM149.388 160.683C148.307 160.683 147.528 160.197 147.528 159.251C147.528 158.229 148.435 157.864 149.541 157.717C150.161 157.634 151.631 157.468 151.906 157.193V158.459C151.906 159.622 150.979 160.683 149.388 160.683ZM156.363 162H161.055C163.202 162 164.462 160.913 164.462 159.354C164.462 157.896 163.343 157.001 162.033 156.848C163.241 156.618 164.04 155.953 164.04 154.803C164.04 153.192 162.646 152.182 160.435 152.182H156.363V162ZM158.159 160.402V157.673H161.055C162.001 157.673 162.57 158.229 162.57 159.143C162.57 159.923 162.001 160.402 161.055 160.402H158.159ZM158.159 156.273V153.799H160.435C161.521 153.799 162.18 154.253 162.18 155.007C162.18 155.793 161.528 156.273 160.454 156.273H158.159ZM168.431 152.182H166.558V162H168.431V157.922H172.682V162H174.548V152.182H172.682V156.266H168.431V152.182ZM179.962 162.217C181.586 162.217 182.5 161.393 182.864 160.658H182.941V162H184.808V155.48C184.808 152.623 182.558 152.054 180.998 152.054C179.221 152.054 177.585 152.77 176.945 154.56L178.741 154.969C179.023 154.272 179.739 153.601 181.023 153.601C182.257 153.601 182.89 154.246 182.89 155.359V155.403C182.89 156.1 182.174 156.087 180.41 156.292C178.55 156.509 176.645 156.995 176.645 159.226C176.645 161.156 178.096 162.217 179.962 162.217ZM180.378 160.683C179.298 160.683 178.518 160.197 178.518 159.251C178.518 158.229 179.425 157.864 180.531 157.717C181.151 157.634 182.621 157.468 182.896 157.193V158.459C182.896 159.622 181.969 160.683 180.378 160.683ZM193.208 162H195.004V152.182H190.856C188.593 152.182 187.213 153.352 187.213 155.199C187.213 156.49 187.89 157.442 189.06 157.884L186.765 162H188.721L190.862 158.158H193.208V162ZM193.208 156.612H190.728C189.686 156.612 189.079 156.062 189.085 155.224C189.079 154.381 189.737 153.812 190.856 153.812H193.208V156.612Z" fill="black"/>
<path d="M73.0474 245.166C72.6 242.366 70.4075 240.73 67.6397 240.73C64.252 240.73 61.7527 243.268 61.7527 247.455C61.7527 251.641 64.2392 254.179 67.6397 254.179C70.5162 254.179 72.6191 252.376 73.0474 249.788L71.0531 249.781C70.7143 251.456 69.3081 252.376 67.6525 252.376C65.4089 252.376 63.715 250.657 63.715 247.455C63.715 244.278 65.4025 242.533 67.6589 242.533C69.3272 242.533 70.7271 243.472 71.0531 245.166H73.0474ZM79.3931 254.198C82.1609 254.198 83.9698 252.172 83.9698 249.136C83.9698 246.08 82.1609 244.054 79.3931 244.054C76.6254 244.054 74.8164 246.08 74.8164 249.136C74.8164 252.172 76.6254 254.198 79.3931 254.198ZM79.3995 252.594C77.5906 252.594 76.7468 251.015 76.7468 249.129C76.7468 247.25 77.5906 245.652 79.3995 245.652C81.1957 245.652 82.0394 247.25 82.0394 249.129C82.0394 251.015 81.1957 252.594 79.3995 252.594ZM87.2074 244.182H85.1108L88.1278 249.091L85.0724 254H87.169L89.3743 250.331L91.5859 254H93.6761L90.5888 249.091L93.6506 244.182H91.5604L89.3743 248.004L87.2074 244.182ZM95.6129 257.682H97.5241V252.472H97.6392C97.9844 253.099 98.6875 254.192 100.477 254.192C102.855 254.192 104.581 252.287 104.581 249.11C104.581 245.927 102.83 244.054 100.458 244.054C98.6364 244.054 97.978 245.166 97.6392 245.773H97.4794V244.182H95.6129V257.682ZM97.4858 249.091C97.4858 247.039 98.3807 245.678 100.049 245.678C101.781 245.678 102.651 247.141 102.651 249.091C102.651 251.06 101.756 252.562 100.049 252.562C98.4062 252.562 97.4858 251.156 97.4858 249.091ZM109.58 254.217C111.203 254.217 112.117 253.393 112.482 252.658H112.558V254H114.425V247.48C114.425 244.623 112.175 244.054 110.615 244.054C108.838 244.054 107.202 244.77 106.562 246.56L108.359 246.969C108.64 246.272 109.356 245.601 110.641 245.601C111.874 245.601 112.507 246.246 112.507 247.359V247.403C112.507 248.1 111.791 248.087 110.027 248.292C108.167 248.509 106.262 248.995 106.262 251.226C106.262 253.156 107.713 254.217 109.58 254.217ZM109.995 252.683C108.915 252.683 108.135 252.197 108.135 251.251C108.135 250.229 109.043 249.864 110.148 249.717C110.768 249.634 112.239 249.468 112.513 249.193V250.459C112.513 251.622 111.587 252.683 109.995 252.683ZM118.843 244.182H116.97V254H118.843V249.922H123.094V254H124.96V244.182H123.094V248.266H118.843V244.182ZM131.749 254.198C133.89 254.198 135.405 253.143 135.84 251.545L134.031 251.219C133.686 252.146 132.855 252.619 131.768 252.619C130.132 252.619 129.032 251.558 128.981 249.666H135.961V248.989C135.961 245.441 133.839 244.054 131.615 244.054C128.879 244.054 127.076 246.138 127.076 249.155C127.076 252.204 128.853 254.198 131.749 254.198ZM128.987 248.234C129.064 246.841 130.074 245.633 131.627 245.633C133.11 245.633 134.082 246.732 134.088 248.234H128.987ZM129.665 242.641C130.304 242.641 130.79 242.124 130.79 241.529C130.79 240.896 130.304 240.411 129.665 240.411C129.064 240.411 128.534 240.896 128.534 241.529C128.534 242.124 129.064 242.641 129.665 242.641ZM133.423 242.641C134.063 242.641 134.548 242.124 134.548 241.529C134.548 240.896 134.063 240.411 133.423 240.411C132.823 240.411 132.292 240.896 132.292 241.529C132.292 242.124 132.823 242.641 133.423 242.641ZM139.955 244.182H138.082V254H139.955V249.922H144.205V254H146.072V244.182H144.205V248.266H139.955V244.182ZM150.501 244.182H148.629V254H150.501V249.922H154.752V254H156.619V244.182H154.752V248.266H150.501V244.182ZM161.048 247.557V244.182H159.175V254H163.464C165.868 254 167.21 252.607 167.21 250.759C167.21 248.874 165.868 247.557 163.464 247.557H161.048ZM168.604 254H170.515V244.182H168.604V254ZM161.048 249.206H163.464C164.564 249.206 165.35 249.871 165.35 250.817C165.35 251.712 164.564 252.351 163.464 252.351H161.048V249.206ZM177.311 254.198C179.453 254.198 180.968 253.143 181.402 251.545L179.593 251.219C179.248 252.146 178.417 252.619 177.33 252.619C175.694 252.619 174.595 251.558 174.544 249.666H181.524V248.989C181.524 245.441 179.401 244.054 177.177 244.054C174.441 244.054 172.639 246.138 172.639 249.155C172.639 252.204 174.416 254.198 177.311 254.198ZM174.55 248.234C174.627 246.841 175.637 245.633 177.19 245.633C178.673 245.633 179.644 246.732 179.651 248.234H174.55ZM192.633 257.343H194.544V254.198C197.318 254.198 199.204 252.165 199.204 249.136C199.204 246.087 197.318 244.054 194.544 244.054V240.909H192.633V244.054C189.859 244.054 187.967 246.087 187.967 249.136C187.967 252.165 189.859 254.198 192.633 254.198V257.343ZM192.633 252.587C190.798 252.587 189.904 250.996 189.904 249.136C189.904 247.276 190.798 245.665 192.633 245.665V252.587ZM194.544 252.587V245.665C196.379 245.665 197.267 247.276 197.267 249.136C197.267 250.996 196.379 252.587 194.544 252.587ZM203.201 251.322V244.182H201.328V254H203.405L207.713 246.854V254H209.586V244.182H207.528L203.201 251.322ZM211.382 254H211.996C214.137 254 214.924 252.415 215.077 249.168L215.23 245.831H218.439V254H220.312V244.182H213.46L213.287 248.528C213.166 251.558 212.821 252.344 211.728 252.344H211.376L211.382 254ZM224.734 247.557V244.182H222.861V254H227.15C229.553 254 230.896 252.607 230.896 250.759C230.896 248.874 229.553 247.557 227.15 247.557H224.734ZM224.734 249.206H227.15C228.249 249.206 229.036 249.871 229.036 250.817C229.036 251.712 228.249 252.351 227.15 252.351H224.734V249.206ZM238.549 251.635L235.442 244.182H233.039V254H234.912V246.86L237.839 254H239.258L242.237 246.886V254H244.097V244.182H241.719L238.549 251.635ZM248.517 247.557V244.182H246.644V254H250.933C253.337 254 254.679 252.607 254.679 250.759C254.679 248.874 253.337 247.557 250.933 247.557H248.517ZM256.072 254H257.984V244.182H256.072V254ZM248.517 249.206H250.933C252.033 249.206 252.819 249.871 252.819 250.817C252.819 251.712 252.033 252.351 250.933 252.351H248.517V249.206Z" fill="black"/>
<path fill-rule="evenodd" clip-rule="evenodd" d="M196 221H124V219H196V221Z" fill="black"/>
<rect opacity="0.2" x="111" y="703" width="98" height="30" rx="15" stroke="#AAAAAA" stroke-width="2"/>
<path d="M142.979 723H141.348L145.012 712.818H146.787L150.451 723H148.82L145.942 714.668H145.862L142.979 723ZM143.252 719.013H148.542V720.305H143.252V719.013ZM151.802 723V715.364H153.289V718.565H154.004L156.525 715.364H158.365L155.406 719.077L158.399 723H156.555L154.253 719.947H153.289V723H151.802ZM159.554 723V715.364H161.04V718.565H161.756L164.277 715.364H166.116L163.158 719.077L166.151 723H164.307L162.005 719.947H161.04V723H159.554ZM169.528 723.169C169.044 723.169 168.607 723.08 168.216 722.901C167.825 722.718 167.515 722.455 167.286 722.11C167.061 721.765 166.948 721.343 166.948 720.842C166.948 720.411 167.031 720.057 167.197 719.778C167.362 719.5 167.586 719.28 167.868 719.117C168.149 718.955 168.464 718.832 168.812 718.749C169.16 718.666 169.515 718.603 169.876 718.56C170.334 718.507 170.705 718.464 170.99 718.431C171.275 718.395 171.482 718.337 171.611 718.257C171.741 718.178 171.805 718.048 171.805 717.869V717.835C171.805 717.4 171.683 717.064 171.437 716.825C171.195 716.587 170.834 716.467 170.354 716.467C169.853 716.467 169.459 716.578 169.17 716.8C168.885 717.019 168.688 717.263 168.579 717.531L167.182 717.213C167.347 716.749 167.589 716.375 167.907 716.089C168.229 715.801 168.599 715.592 169.016 715.463C169.434 715.33 169.873 715.264 170.334 715.264C170.639 715.264 170.962 715.301 171.303 715.374C171.648 715.443 171.969 715.572 172.268 715.761C172.569 715.95 172.816 716.22 173.008 716.572C173.201 716.92 173.297 717.372 173.297 717.929V723H171.845V721.956H171.785C171.689 722.148 171.545 722.337 171.353 722.523C171.161 722.708 170.914 722.862 170.612 722.985C170.31 723.108 169.949 723.169 169.528 723.169ZM169.851 721.976C170.262 721.976 170.614 721.895 170.905 721.732C171.2 721.57 171.424 721.358 171.577 721.096C171.732 720.831 171.81 720.547 171.81 720.246V719.261C171.757 719.314 171.654 719.364 171.502 719.411C171.353 719.454 171.182 719.492 170.99 719.525C170.798 719.555 170.61 719.583 170.428 719.609C170.246 719.633 170.093 719.652 169.971 719.669C169.682 719.705 169.419 719.767 169.18 719.853C168.945 719.939 168.756 720.063 168.613 720.226C168.474 720.385 168.405 720.597 168.405 720.862C168.405 721.23 168.541 721.509 168.812 721.697C169.084 721.883 169.43 721.976 169.851 721.976ZM175.943 725.864C175.721 725.864 175.519 725.845 175.336 725.809C175.154 725.776 175.018 725.739 174.929 725.7L175.287 724.482C175.558 724.554 175.8 724.586 176.012 724.576C176.225 724.566 176.412 724.487 176.574 724.337C176.74 724.188 176.886 723.945 177.012 723.607L177.196 723.099L174.402 715.364H175.993L177.926 721.29H178.006L179.94 715.364H181.536L178.389 724.019C178.243 724.417 178.057 724.753 177.832 725.028C177.607 725.307 177.338 725.516 177.027 725.655C176.715 725.794 176.354 725.864 175.943 725.864ZM188.108 718.54V719.828H183.972V718.54H188.108ZM184.39 715.364V723H182.933V715.364H184.39ZM189.147 715.364V723H187.696V715.364H189.147ZM190.189 716.646V715.364H196.632V716.646H194.141V723H192.69V716.646H190.189Z" fill="black"/>
<path fill-rule="evenodd" clip-rule="evenodd" d="M130 715C130 716.105 129.105 717 128 717C126.895 717 126 716.105 126 715C126 713.895 126.895 713 128 713C129.105 713 130 713.895 130 715ZM132 715C132 717.209 130.209 719 128 719C125.791 719 124 717.209 124 715C124 712.791 125.791 711 128 711C130.209 711 132 712.791 132 715ZM126 720C123.791 720 122 721.791 122 724V725H124V724C124 722.895 124.895 722 126 722H130C131.105 722 132 722.895 132 724V725H134V724C134 721.791 132.209 720 130 720H126Z" fill="black"/>
</g>
<defs>
<clipPath id="clip0_1_2436">
<rect width="320" height="780" fill="white"/>
</clipPath>
</defs>
</svg>
