<svg width="1280" height="700" viewBox="0 0 1280 700" fill="none" xmlns="http://www.w3.org/2000/svg">
<g clip-path="url(#clip0_1_1923)">
<rect width="1280" height="700" fill="#FAFAFA"/>
<path d="M443.918 171H446.551V164.864H450.131C454.179 164.864 456.182 162.418 456.182 159.196C456.182 155.983 454.196 153.545 450.139 153.545H443.918V171ZM446.551 162.631V155.804H449.858C452.466 155.804 453.531 157.219 453.531 159.196C453.531 161.173 452.466 162.631 449.892 162.631H446.551ZM462.757 171.29C464.922 171.29 466.141 170.19 466.626 169.21H466.729V171H469.217V162.307C469.217 158.497 466.217 157.739 464.138 157.739C461.768 157.739 459.587 158.693 458.734 161.08L461.129 161.625C461.504 160.696 462.459 159.801 464.172 159.801C465.817 159.801 466.661 160.662 466.661 162.145V162.205C466.661 163.134 465.706 163.116 463.354 163.389C460.874 163.679 458.334 164.327 458.334 167.301C458.334 169.875 460.268 171.29 462.757 171.29ZM463.311 169.244C461.871 169.244 460.831 168.597 460.831 167.335C460.831 165.972 462.041 165.486 463.516 165.29C464.342 165.179 466.303 164.957 466.669 164.591V166.278C466.669 167.83 465.433 169.244 463.311 169.244ZM471.333 174.776H473.856V171H482.984V174.776H485.472V168.793H483.461V157.909H474.563L474.154 162.793C473.881 166.091 473.481 167.812 472.398 168.793H471.333V174.776ZM475.126 168.793C475.995 167.574 476.319 165.545 476.575 162.793L476.847 160.091H480.972V168.793H475.126ZM490.46 162.409V157.909H487.963V171H493.682C496.886 171 498.676 169.142 498.676 166.679C498.676 164.165 496.886 162.409 493.682 162.409H490.46ZM500.534 171H503.082V157.909H500.534V171ZM490.46 164.608H493.682C495.148 164.608 496.196 165.494 496.196 166.756C496.196 167.949 495.148 168.801 493.682 168.801H490.46V164.608ZM512.854 171H519.109C521.973 171 523.652 169.551 523.652 167.472C523.652 165.528 522.161 164.335 520.413 164.131C522.024 163.824 523.089 162.938 523.089 161.403C523.089 159.256 521.232 157.909 518.283 157.909H512.854V171ZM515.249 168.869V165.23H519.109C520.371 165.23 521.129 165.972 521.129 167.19C521.129 168.23 520.371 168.869 519.109 168.869H515.249ZM515.249 163.364V160.065H518.283C519.732 160.065 520.609 160.67 520.609 161.676C520.609 162.724 519.74 163.364 518.308 163.364H515.249ZM528.945 167.429V157.909H526.447V171H529.217L534.962 161.472V171H537.459V157.909H534.714L528.945 167.429ZM539.607 174.776H542.129V171H551.257V174.776H553.746V168.793H551.734V157.909H542.837L542.428 162.793C542.155 166.091 541.754 167.812 540.672 168.793H539.607V174.776ZM543.399 168.793C544.268 167.574 544.592 165.545 544.848 162.793L545.121 160.091H549.246V168.793H543.399ZM561.879 171.264C564.734 171.264 566.754 169.858 567.333 167.727L564.921 167.293C564.461 168.528 563.353 169.159 561.904 169.159C559.722 169.159 558.256 167.744 558.188 165.222H567.495V164.318C567.495 159.588 564.665 157.739 561.7 157.739C558.052 157.739 555.648 160.517 555.648 164.54C555.648 168.605 558.018 171.264 561.879 171.264ZM558.197 163.312C558.299 161.455 559.646 159.844 561.717 159.844C563.694 159.844 564.989 161.31 564.998 163.312H558.197ZM569.168 160.108H573.455V171H575.943V160.108H580.213V157.909H569.168V160.108ZM585.406 162.409V157.909H582.908V171H588.627C591.832 171 593.621 169.142 593.621 166.679C593.621 164.165 591.832 162.409 588.627 162.409H585.406ZM585.406 164.608H588.627C590.093 164.608 591.141 165.494 591.141 166.756C591.141 167.949 590.093 168.801 588.627 168.801H585.406V164.608ZM599.692 153.545H596.888L597.109 165.98H599.47L599.692 153.545ZM598.286 171.162C599.214 171.162 599.99 170.403 599.99 169.457C599.99 168.528 599.214 167.761 598.286 167.761C597.348 167.761 596.581 168.528 596.581 169.457C596.581 170.403 597.348 171.162 598.286 171.162Z" fill="black"/>
<path d="M442 82.6667C442 78.2329 442 76.016 442.863 74.3226C443.622 72.833 444.833 71.6219 446.323 70.8629C448.016 70 450.233 70 454.667 70H467.333C471.767 70 473.984 70 475.677 70.8629C477.167 71.6219 478.378 72.833 479.137 74.3226C480 76.016 480 78.2329 480 82.6667V95.3333C480 99.7671 480 101.984 479.137 103.677C478.378 105.167 477.167 106.378 475.677 107.137C473.984 108 471.767 108 467.333 108H454.667C450.233 108 448.016 108 446.323 107.137C444.833 106.378 443.622 105.167 442.863 103.677C442 101.984 442 99.7671 442 95.3333V82.6667Z" fill="#3456F3"/>
<circle cx="461" cy="89" r="11" fill="white"/>
<path fill-rule="evenodd" clip-rule="evenodd" d="M457.154 89C457.154 91.1242 458.876 92.8462 461 92.8462C463.124 92.8462 464.846 91.1242 464.846 89H467C467 92.3137 464.314 95 461 95C457.686 95 455 92.3137 455 89H457.154Z" fill="#3456F3"/>
<rect y="217" width="1280" height="156" fill="#FAFAFA"/>
<path fill-rule="evenodd" clip-rule="evenodd" d="M838 331H442V330H838V331Z" fill="#E8E8E8"/>
<path d="M448.321 288.727H442.895V296H443.776V289.509H447.44V296H448.321V288.727ZM451.589 296.128C452.541 296.128 453.038 295.616 453.208 295.261H453.251V296H454.089V292.406C454.089 290.673 452.768 290.474 452.072 290.474C451.248 290.474 450.311 290.759 449.884 291.753L450.68 292.037C450.865 291.639 451.301 291.213 452.1 291.213C452.871 291.213 453.251 291.621 453.251 292.321V292.349C453.251 292.754 452.839 292.719 451.845 292.847C450.833 292.978 449.728 293.202 449.728 294.452C449.728 295.517 450.552 296.128 451.589 296.128ZM451.717 295.375C451.049 295.375 450.566 295.077 450.566 294.494C450.566 293.855 451.149 293.656 451.802 293.571C452.157 293.528 453.109 293.429 453.251 293.259V294.026C453.251 294.707 452.711 295.375 451.717 295.375ZM455.619 298.045H456.457V295.162H456.528C456.712 295.46 457.067 296.114 458.119 296.114C459.482 296.114 460.434 295.02 460.434 293.287C460.434 291.568 459.482 290.474 458.104 290.474C457.039 290.474 456.712 291.128 456.528 291.412H456.428V290.545H455.619V298.045ZM456.442 293.273C456.442 292.051 456.982 291.227 458.005 291.227C459.07 291.227 459.596 292.122 459.596 293.273C459.596 294.438 459.056 295.361 458.005 295.361C456.996 295.361 456.442 294.509 456.442 293.273ZM463.928 296.114C465.406 296.114 466.4 294.991 466.4 293.301C466.4 291.597 465.406 290.474 463.928 290.474C462.451 290.474 461.457 291.597 461.457 293.301C461.457 294.991 462.451 296.114 463.928 296.114ZM463.928 295.361C462.806 295.361 462.295 294.395 462.295 293.301C462.295 292.207 462.806 291.227 463.928 291.227C465.05 291.227 465.562 292.207 465.562 293.301C465.562 294.395 465.05 295.361 463.928 295.361ZM467.196 296H467.48C468.688 296 469.036 295.062 469.114 293.273L469.199 291.327H471.202V296H472.04V290.545H468.404L468.304 292.96C468.233 294.793 468.048 295.219 467.395 295.219H467.196V296ZM474.416 292.52V290.545H473.578V296H475.865C477.143 296 477.839 295.219 477.839 294.239C477.839 293.244 477.143 292.52 475.865 292.52H474.416ZM474.416 293.301H475.865C476.529 293.301 477.001 293.706 477.001 294.281C477.001 294.832 476.529 295.219 475.865 295.219H474.416V293.301Z" fill="#A0A0A0"/>
<path d="M442.999 250.864V240.364H444.451V241.602H444.575C444.661 241.442 444.786 241.259 444.948 241.05C445.111 240.841 445.336 240.659 445.624 240.503C445.913 240.344 446.294 240.264 446.768 240.264C447.384 240.264 447.934 240.42 448.418 240.732C448.902 241.043 449.282 241.492 449.557 242.079C449.835 242.665 449.974 243.371 449.974 244.197C449.974 245.022 449.837 245.73 449.562 246.32C449.287 246.906 448.909 247.359 448.428 247.677C447.948 247.992 447.399 248.149 446.783 248.149C446.319 248.149 445.939 248.071 445.644 247.915C445.353 247.76 445.124 247.577 444.958 247.369C444.792 247.16 444.665 246.974 444.575 246.812H444.486V250.864H442.999ZM444.456 244.182C444.456 244.719 444.534 245.189 444.69 245.594C444.845 245.998 445.071 246.315 445.366 246.543C445.661 246.769 446.022 246.881 446.45 246.881C446.894 246.881 447.265 246.764 447.563 246.528C447.862 246.29 448.087 245.967 448.239 245.559C448.395 245.151 448.473 244.692 448.473 244.182C448.473 243.678 448.397 243.226 448.244 242.825C448.095 242.424 447.87 242.107 447.568 241.875C447.27 241.643 446.897 241.527 446.45 241.527C446.019 241.527 445.654 241.638 445.356 241.86C445.061 242.082 444.837 242.392 444.685 242.79C444.532 243.187 444.456 243.652 444.456 244.182ZM454.857 248.154C454.141 248.154 453.516 247.99 452.982 247.662C452.449 247.334 452.034 246.875 451.739 246.285C451.444 245.695 451.297 245.005 451.297 244.217C451.297 243.424 451.444 242.732 451.739 242.138C452.034 241.545 452.449 241.085 452.982 240.756C453.516 240.428 454.141 240.264 454.857 240.264C455.572 240.264 456.197 240.428 456.731 240.756C457.264 241.085 457.679 241.545 457.974 242.138C458.269 242.732 458.416 243.424 458.416 244.217C458.416 245.005 458.269 245.695 457.974 246.285C457.679 246.875 457.264 247.334 456.731 247.662C456.197 247.99 455.572 248.154 454.857 248.154ZM454.862 246.906C455.326 246.906 455.71 246.784 456.015 246.538C456.32 246.293 456.545 245.967 456.691 245.559C456.84 245.151 456.915 244.702 456.915 244.212C456.915 243.724 456.84 243.277 456.691 242.869C456.545 242.458 456.32 242.129 456.015 241.88C455.71 241.631 455.326 241.507 454.862 241.507C454.394 241.507 454.006 241.631 453.698 241.88C453.393 242.129 453.166 242.458 453.017 242.869C452.871 243.277 452.798 243.724 452.798 244.212C452.798 244.702 452.871 245.151 453.017 245.559C453.166 245.967 453.393 246.293 453.698 246.538C454.006 246.784 454.394 246.906 454.862 246.906ZM463.292 248.154C462.553 248.154 461.917 247.987 461.383 247.652C460.853 247.314 460.445 246.848 460.16 246.255C459.875 245.662 459.732 244.982 459.732 244.217C459.732 243.441 459.878 242.757 460.17 242.163C460.462 241.567 460.873 241.101 461.403 240.766C461.933 240.432 462.558 240.264 463.277 240.264C463.857 240.264 464.374 240.372 464.828 240.587C465.282 240.799 465.649 241.098 465.927 241.482C466.209 241.867 466.376 242.316 466.429 242.83H464.982C464.903 242.472 464.721 242.163 464.436 241.905C464.154 241.646 463.776 241.517 463.302 241.517C462.888 241.517 462.525 241.626 462.213 241.845C461.905 242.061 461.665 242.369 461.492 242.77C461.32 243.168 461.234 243.638 461.234 244.182C461.234 244.739 461.318 245.219 461.487 245.624C461.656 246.028 461.895 246.341 462.203 246.563C462.515 246.785 462.881 246.896 463.302 246.896C463.584 246.896 463.839 246.845 464.068 246.742C464.3 246.636 464.494 246.485 464.649 246.29C464.808 246.094 464.919 245.859 464.982 245.584H466.429C466.376 246.078 466.215 246.518 465.947 246.906C465.678 247.294 465.319 247.599 464.868 247.821C464.421 248.043 463.895 248.154 463.292 248.154ZM469.505 243.466V248H468.019V237.818H469.485V241.607H469.58C469.759 241.196 470.032 240.869 470.4 240.627C470.768 240.385 471.249 240.264 471.842 240.264C472.366 240.264 472.823 240.372 473.214 240.587C473.609 240.803 473.913 241.124 474.129 241.552C474.348 241.976 474.457 242.506 474.457 243.143V248H472.971V243.322C472.971 242.762 472.826 242.327 472.538 242.019C472.25 241.708 471.849 241.552 471.335 241.552C470.984 241.552 470.669 241.626 470.39 241.776C470.115 241.925 469.898 242.143 469.739 242.432C469.583 242.717 469.505 243.062 469.505 243.466ZM480.005 240.364V241.557H475.834V240.364H480.005ZM476.953 238.534H478.439V245.758C478.439 246.046 478.482 246.263 478.569 246.409C478.655 246.552 478.766 246.649 478.902 246.702C479.041 246.752 479.192 246.777 479.354 246.777C479.473 246.777 479.578 246.769 479.667 246.752C479.757 246.736 479.826 246.722 479.876 246.712L480.145 247.94C480.058 247.973 479.936 248.007 479.777 248.04C479.618 248.076 479.419 248.096 479.18 248.099C478.789 248.106 478.424 248.036 478.086 247.891C477.748 247.745 477.475 247.519 477.266 247.214C477.057 246.91 476.953 246.527 476.953 246.066V238.534ZM483.872 248.169C483.388 248.169 482.951 248.08 482.559 247.901C482.168 247.718 481.858 247.455 481.63 247.11C481.404 246.765 481.292 246.343 481.292 245.842C481.292 245.411 481.375 245.057 481.54 244.778C481.706 244.5 481.93 244.28 482.211 244.117C482.493 243.955 482.808 243.832 483.156 243.749C483.504 243.666 483.859 243.603 484.22 243.56C484.677 243.507 485.049 243.464 485.334 243.431C485.619 243.395 485.826 243.337 485.955 243.257C486.084 243.178 486.149 243.048 486.149 242.869V242.835C486.149 242.4 486.026 242.064 485.781 241.825C485.539 241.587 485.178 241.467 484.697 241.467C484.197 241.467 483.802 241.578 483.514 241.8C483.229 242.019 483.032 242.263 482.922 242.531L481.525 242.213C481.691 241.749 481.933 241.375 482.251 241.089C482.573 240.801 482.942 240.592 483.36 240.463C483.778 240.33 484.217 240.264 484.677 240.264C484.982 240.264 485.305 240.301 485.647 240.374C485.992 240.443 486.313 240.572 486.611 240.761C486.913 240.95 487.16 241.22 487.352 241.572C487.544 241.92 487.64 242.372 487.64 242.929V248H486.189V246.956H486.129C486.033 247.148 485.889 247.337 485.697 247.523C485.504 247.708 485.257 247.862 484.956 247.985C484.654 248.108 484.293 248.169 483.872 248.169ZM484.195 246.976C484.606 246.976 484.957 246.895 485.249 246.732C485.544 246.57 485.768 246.358 485.92 246.096C486.076 245.831 486.154 245.547 486.154 245.246V244.261C486.101 244.314 485.998 244.364 485.846 244.411C485.697 244.454 485.526 244.492 485.334 244.525C485.141 244.555 484.954 244.583 484.772 244.609C484.59 244.633 484.437 244.652 484.314 244.669C484.026 244.705 483.763 244.767 483.524 244.853C483.289 244.939 483.1 245.063 482.957 245.226C482.818 245.385 482.748 245.597 482.748 245.862C482.748 246.23 482.884 246.509 483.156 246.697C483.428 246.883 483.774 246.976 484.195 246.976ZM495.75 250.769C494.723 250.769 493.811 250.628 493.016 250.347C492.224 250.068 491.556 249.657 491.012 249.114C490.469 248.573 490.056 247.911 489.775 247.125C489.493 246.339 489.352 245.443 489.352 244.435C489.352 243.454 489.494 242.573 489.779 241.79C490.065 241.008 490.479 240.342 491.022 239.792C491.569 239.238 492.234 238.816 493.016 238.524C493.798 238.232 494.686 238.087 495.681 238.087C496.632 238.087 497.471 238.236 498.196 238.534C498.922 238.832 499.532 239.242 500.026 239.762C500.523 240.282 500.898 240.879 501.15 241.552C501.401 242.225 501.527 242.936 501.527 243.685C501.527 244.208 501.494 244.72 501.428 245.221C501.362 245.718 501.239 246.169 501.06 246.573C500.884 246.974 500.629 247.296 500.294 247.538C499.963 247.776 499.532 247.901 499.002 247.911C498.72 247.92 498.447 247.887 498.181 247.811C497.916 247.735 497.691 247.612 497.505 247.443C497.32 247.271 497.207 247.052 497.167 246.787H497.108C497.028 246.982 496.895 247.165 496.71 247.334C496.524 247.5 496.287 247.632 495.999 247.732C495.714 247.828 495.382 247.867 495.005 247.851C494.587 247.834 494.211 247.74 493.876 247.567C493.541 247.395 493.255 247.156 493.016 246.852C492.781 246.547 492.6 246.185 492.474 245.768C492.348 245.35 492.285 244.886 492.285 244.376C492.285 243.885 492.356 243.446 492.499 243.058C492.641 242.667 492.835 242.331 493.081 242.049C493.329 241.764 493.614 241.539 493.936 241.373C494.257 241.207 494.597 241.103 494.955 241.06C495.303 241.02 495.623 241.03 495.914 241.089C496.206 241.149 496.448 241.24 496.64 241.363C496.836 241.486 496.958 241.62 497.008 241.766H497.073V241.209H498.296V245.822C498.296 246.084 498.364 246.306 498.5 246.489C498.639 246.671 498.836 246.762 499.091 246.762C499.393 246.762 499.628 246.651 499.797 246.429C499.97 246.207 500.091 245.866 500.16 245.405C500.233 244.944 500.27 244.354 500.27 243.635C500.27 243.131 500.202 242.657 500.066 242.213C499.933 241.766 499.736 241.361 499.474 241C499.216 240.635 498.897 240.322 498.52 240.06C498.142 239.799 497.711 239.596 497.227 239.454C496.746 239.311 496.214 239.24 495.631 239.24C494.839 239.24 494.135 239.363 493.518 239.608C492.902 239.85 492.381 240.2 491.957 240.657C491.536 241.114 491.216 241.663 490.998 242.303C490.782 242.939 490.674 243.653 490.674 244.445C490.674 245.271 490.785 246.003 491.007 246.643C491.23 247.279 491.558 247.816 491.992 248.254C492.426 248.691 492.963 249.022 493.603 249.248C494.242 249.477 494.98 249.591 495.815 249.591C496.186 249.591 496.551 249.558 496.909 249.491C497.267 249.429 497.585 249.356 497.863 249.273C498.145 249.193 498.355 249.129 498.495 249.079L498.843 250.168C498.637 250.264 498.364 250.358 498.022 250.451C497.684 250.544 497.316 250.62 496.919 250.68C496.524 250.739 496.135 250.769 495.75 250.769ZM495.293 246.633C495.724 246.633 496.07 246.547 496.332 246.374C496.597 246.202 496.788 245.945 496.904 245.604C497.023 245.259 497.083 244.828 497.083 244.311C497.079 243.807 497.015 243.406 496.889 243.108C496.766 242.806 496.574 242.591 496.312 242.462C496.054 242.329 495.721 242.263 495.313 242.263C494.938 242.263 494.618 242.354 494.353 242.536C494.092 242.719 493.891 242.965 493.752 243.277C493.616 243.589 493.546 243.935 493.543 244.316C493.546 244.717 493.603 245.095 493.712 245.45C493.825 245.801 494.007 246.086 494.259 246.305C494.514 246.523 494.859 246.633 495.293 246.633ZM504.109 250.864C503.887 250.864 503.685 250.845 503.502 250.809C503.32 250.776 503.184 250.739 503.095 250.7L503.453 249.482C503.724 249.554 503.966 249.586 504.178 249.576C504.391 249.566 504.578 249.487 504.74 249.337C504.906 249.188 505.052 248.945 505.178 248.607L505.362 248.099L502.568 240.364H504.159L506.093 246.29H506.172L508.106 240.364H509.702L506.555 249.019C506.409 249.417 506.223 249.753 505.998 250.028C505.773 250.307 505.504 250.516 505.193 250.655C504.881 250.794 504.52 250.864 504.109 250.864ZM513.102 248.169C512.619 248.169 512.181 248.08 511.79 247.901C511.399 247.718 511.089 247.455 510.86 247.11C510.635 246.765 510.522 246.343 510.522 245.842C510.522 245.411 510.605 245.057 510.771 244.778C510.936 244.5 511.16 244.28 511.442 244.117C511.724 243.955 512.039 243.832 512.387 243.749C512.735 243.666 513.089 243.603 513.45 243.56C513.908 243.507 514.279 243.464 514.564 243.431C514.849 243.395 515.056 243.337 515.186 243.257C515.315 243.178 515.379 243.048 515.379 242.869V242.835C515.379 242.4 515.257 242.064 515.012 241.825C514.77 241.587 514.408 241.467 513.928 241.467C513.427 241.467 513.033 241.578 512.744 241.8C512.459 242.019 512.262 242.263 512.153 242.531L510.756 242.213C510.922 241.749 511.164 241.375 511.482 241.089C511.803 240.801 512.173 240.592 512.59 240.463C513.008 240.33 513.447 240.264 513.908 240.264C514.213 240.264 514.536 240.301 514.877 240.374C515.222 240.443 515.544 240.572 515.842 240.761C516.143 240.95 516.39 241.22 516.583 241.572C516.775 241.92 516.871 242.372 516.871 242.929V248H515.419V246.956H515.36C515.263 247.148 515.119 247.337 514.927 247.523C514.735 247.708 514.488 247.862 514.186 247.985C513.885 248.108 513.523 248.169 513.102 248.169ZM513.426 246.976C513.837 246.976 514.188 246.895 514.48 246.732C514.775 246.57 514.998 246.358 515.151 246.096C515.307 245.831 515.384 245.547 515.384 245.246V244.261C515.331 244.314 515.229 244.364 515.076 244.411C514.927 244.454 514.756 244.492 514.564 244.525C514.372 244.555 514.185 244.583 514.002 244.609C513.82 244.633 513.668 244.652 513.545 244.669C513.257 244.705 512.993 244.767 512.754 244.853C512.519 244.939 512.33 245.063 512.188 245.226C512.048 245.385 511.979 245.597 511.979 245.862C511.979 246.23 512.115 246.509 512.387 246.697C512.658 246.883 513.005 246.976 513.426 246.976ZM520.337 243.466V248H518.851V240.364H520.278V241.607H520.372C520.548 241.202 520.823 240.877 521.197 240.632C521.575 240.387 522.051 240.264 522.624 240.264C523.145 240.264 523.6 240.374 523.991 240.592C524.383 240.808 524.686 241.129 524.901 241.557C525.117 241.984 525.224 242.513 525.224 243.143V248H523.738V243.322C523.738 242.768 523.594 242.336 523.305 242.024C523.017 241.709 522.621 241.552 522.117 241.552C521.772 241.552 521.466 241.626 521.197 241.776C520.932 241.925 520.722 242.143 520.566 242.432C520.414 242.717 520.337 243.062 520.337 243.466ZM530.077 248.149C529.46 248.149 528.91 247.992 528.426 247.677C527.946 247.359 527.568 246.906 527.293 246.32C527.021 245.73 526.885 245.022 526.885 244.197C526.885 243.371 527.022 242.665 527.298 242.079C527.576 241.492 527.957 241.043 528.441 240.732C528.925 240.42 529.473 240.264 530.087 240.264C530.561 240.264 530.942 240.344 531.23 240.503C531.522 240.659 531.747 240.841 531.906 241.05C532.069 241.259 532.195 241.442 532.284 241.602H532.374V237.818H533.86V248H532.408V246.812H532.284C532.195 246.974 532.065 247.16 531.896 247.369C531.731 247.577 531.502 247.76 531.21 247.915C530.919 248.071 530.541 248.149 530.077 248.149ZM530.405 246.881C530.832 246.881 531.194 246.769 531.489 246.543C531.787 246.315 532.012 245.998 532.165 245.594C532.321 245.189 532.398 244.719 532.398 244.182C532.398 243.652 532.322 243.187 532.17 242.79C532.017 242.392 531.794 242.082 531.499 241.86C531.204 241.638 530.839 241.527 530.405 241.527C529.957 241.527 529.585 241.643 529.286 241.875C528.988 242.107 528.763 242.424 528.61 242.825C528.461 243.226 528.386 243.678 528.386 244.182C528.386 244.692 528.463 245.151 528.615 245.559C528.768 245.967 528.993 246.29 529.291 246.528C529.593 246.764 529.964 246.881 530.405 246.881ZM539.273 248.154C538.521 248.154 537.873 247.993 537.329 247.672C536.789 247.347 536.371 246.891 536.076 246.305C535.785 245.715 535.639 245.024 535.639 244.232C535.639 243.449 535.785 242.76 536.076 242.163C536.371 241.567 536.782 241.101 537.309 240.766C537.839 240.432 538.459 240.264 539.169 240.264C539.599 240.264 540.017 240.335 540.421 240.478C540.826 240.621 541.189 240.844 541.51 241.149C541.832 241.454 542.085 241.85 542.271 242.337C542.456 242.821 542.549 243.41 542.549 244.102V244.629H536.479V243.516H541.093C541.093 243.125 541.013 242.778 540.854 242.477C540.695 242.172 540.471 241.931 540.183 241.756C539.898 241.58 539.563 241.492 539.178 241.492C538.761 241.492 538.396 241.595 538.085 241.8C537.776 242.003 537.538 242.268 537.369 242.596C537.203 242.921 537.12 243.274 537.12 243.655V244.525C537.12 245.035 537.21 245.469 537.389 245.827C537.571 246.185 537.825 246.459 538.149 246.648C538.474 246.833 538.854 246.926 539.288 246.926C539.57 246.926 539.826 246.886 540.058 246.807C540.29 246.724 540.491 246.601 540.66 246.439C540.829 246.277 540.958 246.076 541.048 245.837L542.455 246.091C542.342 246.505 542.14 246.868 541.848 247.18C541.56 247.488 541.197 247.728 540.759 247.901C540.325 248.07 539.83 248.154 539.273 248.154ZM545.194 240.364L546.879 243.337L548.58 240.364H550.205L547.824 244.182L550.225 248H548.6L546.879 245.146L545.164 248H543.534L545.91 244.182L543.563 240.364H545.194ZM552.711 248.094C552.439 248.094 552.206 247.998 552.01 247.806C551.815 247.611 551.717 247.375 551.717 247.1C551.717 246.828 551.815 246.596 552.01 246.404C552.206 246.209 552.439 246.111 552.711 246.111C552.983 246.111 553.217 246.209 553.412 246.404C553.608 246.596 553.705 246.828 553.705 247.1C553.705 247.282 553.659 247.45 553.566 247.602C553.477 247.751 553.357 247.871 553.208 247.96C553.059 248.05 552.893 248.094 552.711 248.094ZM555.697 248V240.364H557.133V241.577H557.213C557.352 241.166 557.597 240.843 557.949 240.607C558.303 240.369 558.704 240.249 559.152 240.249C559.245 240.249 559.354 240.253 559.48 240.259C559.609 240.266 559.71 240.274 559.783 240.284V241.706C559.724 241.689 559.617 241.671 559.465 241.651C559.313 241.628 559.16 241.616 559.008 241.616C558.656 241.616 558.343 241.691 558.068 241.84C557.796 241.986 557.581 242.19 557.422 242.452C557.263 242.71 557.183 243.005 557.183 243.337V248H555.697ZM565.907 244.833V240.364H567.398V248H565.937V246.678H565.857C565.682 247.085 565.4 247.425 565.012 247.697C564.628 247.965 564.149 248.099 563.575 248.099C563.085 248.099 562.651 247.992 562.273 247.776C561.898 247.558 561.603 247.234 561.388 246.807C561.176 246.379 561.07 245.851 561.07 245.221V240.364H562.556V245.042C562.556 245.562 562.7 245.977 562.989 246.285C563.277 246.593 563.652 246.747 564.112 246.747C564.391 246.747 564.667 246.678 564.942 246.538C565.221 246.399 565.451 246.189 565.634 245.907C565.819 245.625 565.91 245.267 565.907 244.833ZM571.181 234.537V251.281H570.186V234.537H571.181Z" fill="black"/>
<path fill-rule="evenodd" clip-rule="evenodd" d="M838 262H442V261H838V262Z" fill="#E8E8E8"/>
<path d="M442.881 227H447.327V226.219H443.761V223.747H447.043V222.966H443.761V220.509H447.27V219.727H442.881V227ZM451.869 223.491H448.687V224.273H451.869V223.491ZM453.343 227H454.181V223.591C454.181 222.792 454.764 222.227 455.417 222.227C456.053 222.227 456.497 222.643 456.497 223.264V227H457.349V223.449C457.349 222.746 457.789 222.227 458.556 222.227C459.153 222.227 459.664 222.543 459.664 223.349V227H460.502V223.349C460.502 222.067 459.813 221.474 458.84 221.474C458.059 221.474 457.487 221.833 457.207 222.398H457.15C456.88 221.815 456.404 221.474 455.687 221.474C454.977 221.474 454.451 221.815 454.224 222.398H454.153V221.545H453.343V227ZM463.64 227.128C464.591 227.128 465.089 226.616 465.259 226.261H465.302V227H466.14V223.406C466.14 221.673 464.819 221.474 464.123 221.474C463.299 221.474 462.361 221.759 461.935 222.753L462.731 223.037C462.915 222.639 463.352 222.213 464.151 222.213C464.922 222.213 465.302 222.621 465.302 223.321V223.349C465.302 223.754 464.89 223.719 463.895 223.847C462.883 223.978 461.779 224.202 461.779 225.452C461.779 226.517 462.603 227.128 463.64 227.128ZM463.768 226.375C463.1 226.375 462.617 226.077 462.617 225.494C462.617 224.855 463.199 224.656 463.853 224.571C464.208 224.528 465.16 224.429 465.302 224.259V225.026C465.302 225.707 464.762 226.375 463.768 226.375ZM467.669 227H468.507V221.545H467.669V227ZM468.096 220.636C468.422 220.636 468.692 220.381 468.692 220.068C468.692 219.756 468.422 219.5 468.096 219.5C467.769 219.5 467.499 219.756 467.499 220.068C467.499 220.381 467.769 220.636 468.096 220.636ZM470.881 219.727H470.042V227H470.881V219.727Z" fill="#A0A0A0"/>
<rect x="442" y="552" width="396" height="45" rx="3" fill="#3456F3"/>
<path d="M619.365 579H623.267C625.634 579 626.703 577.822 626.703 576.261C626.703 574.685 625.599 573.795 624.59 573.74V573.641C625.525 573.402 626.305 572.766 626.305 571.493C626.305 569.987 625.261 568.818 623.093 568.818H619.365V579ZM620.901 577.683V574.421H623.173C624.406 574.421 625.176 575.217 625.176 576.186C625.176 577.041 624.595 577.683 623.118 577.683H620.901ZM620.901 573.223V570.126H622.999C624.217 570.126 624.799 570.767 624.799 571.612C624.799 572.597 623.993 573.223 622.959 573.223H620.901ZM631.622 579.154C633.775 579.154 635.182 577.578 635.182 575.217C635.182 572.84 633.775 571.264 631.622 571.264C629.469 571.264 628.062 572.84 628.062 575.217C628.062 577.578 629.469 579.154 631.622 579.154ZM631.627 577.906C630.22 577.906 629.564 576.678 629.564 575.212C629.564 573.75 630.22 572.507 631.627 572.507C633.024 572.507 633.68 573.75 633.68 575.212C633.68 576.678 633.024 577.906 631.627 577.906ZM638.298 576.917V571.364H636.841V579H638.457L641.808 573.442V579H643.264V571.364H641.664L638.298 576.917ZM641.027 568.778C641.027 569.281 640.749 569.723 640.053 569.723C639.347 569.723 639.083 569.276 639.083 568.778H637.865C637.865 569.897 638.715 570.668 640.053 570.668C641.4 570.668 642.25 569.897 642.25 568.778H641.027ZM644.316 572.646H646.817V579H648.268V572.646H650.759V571.364H644.316V572.646ZM653.788 576.917V571.364H652.331V579H653.947L657.298 573.442V579H658.755V571.364H657.154L653.788 576.917Z" fill="white"/>
<path d="M499.535 627H505.759V625.906H500.768V622.446H505.361V621.352H500.768V617.912H505.68V616.818H499.535V627ZM518.163 625.906H517.03V619.364H515.856V625.906H512.973V619.364H511.8V625.906H508.916V619.364H507.743V627H516.811V629.188H518.024L518.163 625.906ZM522.989 627.159C524.541 627.159 525.674 626.384 526.032 625.23L524.899 624.912C524.6 625.707 523.909 626.105 522.989 626.105C521.612 626.105 520.663 625.215 520.608 623.58H526.151V623.082C526.151 620.239 524.461 619.264 522.87 619.264C520.802 619.264 519.43 620.895 519.43 623.241C519.43 625.588 520.782 627.159 522.989 627.159ZM520.608 622.565C520.688 621.377 521.528 620.318 522.87 620.318C524.143 620.318 524.958 621.273 524.958 622.565H520.608ZM521.379 618.091C521.836 618.091 522.174 617.713 522.174 617.295C522.174 616.838 521.836 616.5 521.379 616.5C520.961 616.5 520.583 616.838 520.583 617.295C520.583 617.713 520.961 618.091 521.379 618.091ZM524.242 618.091C524.7 618.091 525.038 617.713 525.038 617.295C525.038 616.838 524.7 616.5 524.242 616.5C523.825 616.5 523.447 616.838 523.447 617.295C523.447 617.713 523.825 618.091 524.242 618.091ZM533.047 619.364H531.874V627H533.047V623.739H536.706V627H537.879V619.364H536.706V622.645H533.047V619.364ZM543.224 627.159C544.775 627.159 545.908 626.384 546.266 625.23L545.133 624.912C544.835 625.707 544.144 626.105 543.224 626.105C541.847 626.105 540.897 625.215 540.842 623.58H546.386V623.082C546.386 620.239 544.695 619.264 543.104 619.264C541.036 619.264 539.664 620.895 539.664 623.241C539.664 625.588 541.016 627.159 543.224 627.159ZM540.842 622.565C540.922 621.377 541.762 620.318 543.104 620.318C544.377 620.318 545.193 621.273 545.193 622.565H540.842ZM551.631 625.051C551.671 626.304 552.869 627.159 554.494 627.159C556.165 627.159 557.378 626.264 557.378 624.872C557.378 623.918 556.806 623.142 555.946 623.082V623.003C556.672 622.779 557.219 622.252 557.219 621.392C557.219 620.184 556.185 619.264 554.574 619.264C552.983 619.264 551.85 620.139 551.81 621.372H553.043C553.078 620.741 553.739 620.298 554.634 620.298C555.524 620.298 556.026 620.751 556.026 621.432C556.026 622.068 555.588 622.545 554.653 622.545H553.341V623.599H554.653C555.588 623.599 556.185 624.112 556.185 624.872C556.185 625.742 555.414 626.105 554.475 626.105C553.555 626.105 552.938 625.742 552.884 625.051H551.631ZM561.273 627.179C562.606 627.179 563.302 626.463 563.54 625.966H563.6V627H564.773V621.969C564.773 619.543 562.924 619.264 561.949 619.264C560.796 619.264 559.483 619.662 558.887 621.054L560 621.452C560.259 620.895 560.87 620.298 561.989 620.298C563.068 620.298 563.6 620.87 563.6 621.849V621.889C563.6 622.456 563.023 622.406 561.631 622.585C560.214 622.769 558.668 623.082 558.668 624.832C558.668 626.324 559.821 627.179 561.273 627.179ZM561.452 626.125C560.517 626.125 559.841 625.707 559.841 624.892C559.841 623.997 560.657 623.719 561.571 623.599C562.069 623.54 563.401 623.401 563.6 623.162V624.236C563.6 625.19 562.844 626.125 561.452 626.125ZM566.915 629.864H568.088V625.827H568.187C568.446 626.244 568.943 627.159 570.415 627.159C572.324 627.159 573.656 625.628 573.656 623.202C573.656 620.795 572.324 619.264 570.395 619.264C568.903 619.264 568.446 620.179 568.187 620.577H568.048V619.364H566.915V629.864ZM568.068 623.182C568.068 621.472 568.824 620.318 570.256 620.318C571.747 620.318 572.483 621.571 572.483 623.182C572.483 624.812 571.727 626.105 570.256 626.105C568.844 626.105 568.068 624.912 568.068 623.182ZM578.648 627.159C580.199 627.159 581.332 626.384 581.69 625.23L580.557 624.912C580.258 625.707 579.567 626.105 578.648 626.105C577.271 626.105 576.321 625.215 576.266 623.58H581.81V623.082C581.81 620.239 580.119 619.264 578.528 619.264C576.46 619.264 575.088 620.895 575.088 623.241C575.088 625.588 576.44 627.159 578.648 627.159ZM576.266 622.565C576.346 621.377 577.186 620.318 578.528 620.318C579.801 620.318 580.616 621.273 580.616 622.565H576.266ZM588.307 619.364H583.594V627H584.768V620.457H588.307V619.364ZM591.193 625.27V619.364H590.02V627H591.392L595.051 621.094V627H596.225V619.364H594.872L591.193 625.27ZM601.476 627.159C603.166 627.159 604.28 626.125 604.479 624.773H603.305C603.087 625.608 602.391 626.105 601.476 626.105C600.084 626.105 599.189 624.952 599.189 623.182C599.189 621.452 600.104 620.318 601.476 620.318C602.51 620.318 603.127 620.955 603.305 621.651H604.479C604.28 620.219 603.067 619.264 601.456 619.264C599.388 619.264 598.016 620.895 598.016 623.222C598.016 625.509 599.328 627.159 601.476 627.159ZM605.592 620.457H608.118V627H609.291V620.457H611.797V619.364H605.592V620.457ZM613.508 629.864H614.682V625.827H614.781C615.04 626.244 615.537 627.159 617.008 627.159C618.918 627.159 620.25 625.628 620.25 623.202C620.25 620.795 618.918 619.264 616.989 619.264C615.497 619.264 615.04 620.179 614.781 620.577H614.642V619.364H613.508V629.864ZM614.662 623.182C614.662 621.472 615.418 620.318 616.849 620.318C618.341 620.318 619.077 621.571 619.077 623.182C619.077 624.812 618.321 626.105 616.849 626.105C615.437 626.105 614.662 624.912 614.662 623.182ZM623.213 625.27V619.364H622.04V627H623.412L627.071 621.094V627H628.244V619.364H626.892L623.213 625.27ZM630.393 629.864H631.566V625.827H631.666C631.924 626.244 632.422 627.159 633.893 627.159C635.802 627.159 637.135 625.628 637.135 623.202C637.135 620.795 635.802 619.264 633.873 619.264C632.382 619.264 631.924 620.179 631.666 620.577H631.527V619.364H630.393V629.864ZM631.547 623.182C631.547 621.472 632.302 620.318 633.734 620.318C635.226 620.318 635.961 621.571 635.961 623.182C635.961 624.812 635.206 626.105 633.734 626.105C632.322 626.105 631.547 624.912 631.547 623.182ZM642.027 627.159C644.095 627.159 645.487 625.588 645.487 623.222C645.487 620.835 644.095 619.264 642.027 619.264C639.959 619.264 638.566 620.835 638.566 623.222C638.566 625.588 639.959 627.159 642.027 627.159ZM642.027 626.105C640.456 626.105 639.74 624.753 639.74 623.222C639.74 621.69 640.456 620.318 642.027 620.318C643.598 620.318 644.314 621.69 644.314 623.222C644.314 624.753 643.598 626.105 642.027 626.105ZM647.278 627H650.877C652.429 627 653.363 626.125 653.363 624.952C653.363 623.754 652.453 623.107 651.613 622.983C652.473 622.804 653.085 622.322 653.085 621.392C653.085 620.174 652.041 619.364 650.4 619.364H647.278V627ZM648.392 625.926V623.58H650.877C651.683 623.58 652.17 624.062 652.17 624.852C652.17 625.518 651.683 625.926 650.877 625.926H648.392ZM648.392 622.565V620.438H650.4C651.34 620.438 651.911 620.83 651.911 621.472C651.911 622.153 651.34 622.565 650.4 622.565H648.392ZM657.386 627.179C658.719 627.179 659.415 626.463 659.653 625.966H659.713V627H660.886V621.969C660.886 619.543 659.037 619.264 658.063 619.264C656.909 619.264 655.597 619.662 655 621.054L656.114 621.452C656.372 620.895 656.984 620.298 658.102 620.298C659.181 620.298 659.713 620.87 659.713 621.849V621.889C659.713 622.456 659.136 622.406 657.744 622.585C656.328 622.769 654.781 623.082 654.781 624.832C654.781 626.324 655.935 627.179 657.386 627.179ZM657.565 626.125C656.631 626.125 655.955 625.707 655.955 624.892C655.955 623.997 656.77 623.719 657.685 623.599C658.182 623.54 659.514 623.401 659.713 623.162V624.236C659.713 625.19 658.957 626.125 657.565 626.125ZM664.201 619.364H663.028V627H664.201V623.739H667.86V627H669.034V619.364H667.86V622.645H664.201V619.364ZM672.35 622.128V619.364H671.176V627H674.378C676.168 627 677.142 625.906 677.142 624.534C677.142 623.142 676.168 622.128 674.378 622.128H672.35ZM678.355 627H679.529V619.364H678.355V627ZM672.35 623.222H674.378C675.308 623.222 675.969 623.788 675.969 624.594C675.969 625.364 675.308 625.906 674.378 625.906H672.35V623.222ZM683.208 624.136H684.401V624.077C684.421 622.844 684.739 622.307 685.614 621.76C686.489 621.228 687.006 620.462 687.006 619.364C687.006 617.812 685.872 616.679 684.122 616.679C682.512 616.679 681.234 617.673 681.159 619.364H682.412C682.487 618.19 683.307 617.713 684.122 617.713C685.057 617.713 685.813 618.33 685.813 619.304C685.813 620.094 685.36 620.661 684.779 621.014C683.804 621.606 683.223 622.183 683.208 624.077V624.136ZM683.844 627.08C684.336 627.08 684.739 626.677 684.739 626.185C684.739 625.692 684.336 625.29 683.844 625.29C683.352 625.29 682.949 625.692 682.949 626.185C682.949 626.677 683.352 627.08 683.844 627.08Z" fill="#A0A0A0"/>
<path d="M695.539 627H696.772V623.281H698.999C701.37 623.281 702.439 621.839 702.439 620.04C702.439 618.24 701.37 616.818 698.979 616.818H695.539V627ZM696.772 622.188V617.912H698.939C700.595 617.912 701.226 618.817 701.226 620.04C701.226 621.263 700.595 622.188 698.959 622.188H696.772ZM707.386 627.159C708.937 627.159 710.071 626.384 710.429 625.23L709.295 624.912C708.997 625.707 708.306 626.105 707.386 626.105C706.009 626.105 705.059 625.215 705.005 623.58H710.548V623.082C710.548 620.239 708.858 619.264 707.267 619.264C705.198 619.264 703.826 620.895 703.826 623.241C703.826 625.588 705.179 627.159 707.386 627.159ZM705.005 622.565C705.084 621.377 705.924 620.318 707.267 620.318C708.539 620.318 709.355 621.273 709.355 622.565H705.005ZM717.046 619.364H712.333V627H713.506V620.457H717.046V619.364ZM719.932 625.27V619.364H718.758V627H720.131L723.79 621.094V627H724.963V619.364H723.611L719.932 625.27ZM730.214 627.159C731.905 627.159 733.018 626.125 733.217 624.773H732.044C731.825 625.608 731.129 626.105 730.214 626.105C728.822 626.105 727.927 624.952 727.927 623.182C727.927 621.452 728.842 620.318 730.214 620.318C731.248 620.318 731.865 620.955 732.044 621.651H733.217C733.018 620.219 731.805 619.264 730.194 619.264C728.126 619.264 726.754 620.895 726.754 623.222C726.754 625.509 728.066 627.159 730.214 627.159ZM734.331 620.457H736.856V627H738.03V620.457H740.535V619.364H734.331V620.457ZM742.247 629.864H743.42V625.827H743.519C743.778 626.244 744.275 627.159 745.747 627.159C747.656 627.159 748.988 625.628 748.988 623.202C748.988 620.795 747.656 619.264 745.727 619.264C744.235 619.264 743.778 620.179 743.519 620.577H743.38V619.364H742.247V629.864ZM743.4 623.182C743.4 621.472 744.156 620.318 745.588 620.318C747.079 620.318 747.815 621.571 747.815 623.182C747.815 624.812 747.059 626.105 745.588 626.105C744.176 626.105 743.4 624.912 743.4 623.182ZM753.025 627.179C754.358 627.179 755.054 626.463 755.292 625.966H755.352V627H756.525V621.969C756.525 619.543 754.676 619.264 753.701 619.264C752.548 619.264 751.235 619.662 750.639 621.054L751.752 621.452C752.011 620.895 752.622 620.298 753.741 620.298C754.82 620.298 755.352 620.87 755.352 621.849V621.889C755.352 622.456 754.775 622.406 753.383 622.585C751.966 622.769 750.42 623.082 750.42 624.832C750.42 626.324 751.573 627.179 753.025 627.179ZM753.204 626.125C752.269 626.125 751.593 625.707 751.593 624.892C751.593 623.997 752.409 623.719 753.323 623.599C753.821 623.54 755.153 623.401 755.352 623.162V624.236C755.352 625.19 754.596 626.125 753.204 626.125ZM764.672 619.364H763.499V625.906H759.84V619.364H758.667V627H764.672V629.466H765.846V625.906H764.672V619.364ZM768.727 625.27V619.364H767.553V627H768.926L772.585 621.094V627H773.758V619.364H772.406L768.727 625.27ZM780.501 627H781.614V619.364H778.472C776.827 619.364 775.827 620.224 775.827 621.631C775.827 622.68 776.354 623.425 777.274 623.739L775.41 627H776.682L778.452 623.898H780.501V627ZM780.501 622.804H778.333C777.503 622.804 777.001 622.362 777.001 621.631C777.001 620.89 777.557 620.438 778.472 620.438H780.501V622.804Z" fill="#3456F3"/>
</g>
<defs>
<clipPath id="clip0_1_1923">
<rect width="1280" height="700" fill="white"/>
</clipPath>
</defs>
</svg>
