<svg width="768" height="1024" viewBox="0 0 768 1024" fill="none" xmlns="http://www.w3.org/2000/svg">
<g clip-path="url(#clip0_1_2161)">
<rect width="768" height="1024" fill="#FAFAFA"/>
<path d="M186.597 337.219H189.119V333H200.838V337.193H203.361V330.767H201.384V315.545H190.619L190.21 322.918C189.946 327.776 188.915 329.778 187.747 330.767H186.597V337.219ZM190.849 330.767C191.847 329.173 192.52 326.608 192.733 322.918L193.006 317.812H198.861V330.767H190.849ZM211.555 333.264C215.246 333.264 217.658 330.562 217.658 326.514C217.658 322.44 215.246 319.739 211.555 319.739C207.865 319.739 205.453 322.44 205.453 326.514C205.453 330.562 207.865 333.264 211.555 333.264ZM211.564 331.125C209.152 331.125 208.027 329.02 208.027 326.506C208.027 324 209.152 321.869 211.564 321.869C213.959 321.869 215.084 324 215.084 326.506C215.084 329.02 213.959 331.125 211.564 331.125ZM230.602 315.034C229.962 315.545 228.991 315.545 227.636 315.537C227.235 315.537 226.8 315.537 226.323 315.545C222.079 315.631 219.931 318.648 219.931 324.631V325.926C219.931 330.733 222.317 333.264 225.974 333.264C229.63 333.264 231.999 330.724 231.999 326.651C231.999 322.628 229.673 320.403 226.519 320.403C224.619 320.403 223.033 321.213 222.181 322.832H222.019C222.309 319.517 223.553 317.872 226.383 317.787C228.897 317.71 230.491 317.719 231.658 316.645L230.602 315.034ZM225.982 331.125C223.817 331.125 222.496 329.395 222.496 326.693C222.531 324.043 223.835 322.526 225.957 322.526C228.113 322.526 229.425 324.043 229.425 326.693C229.425 329.403 228.113 331.125 225.982 331.125ZM234.846 337.909H237.394V330.963H237.548C238.008 331.798 238.945 333.256 241.332 333.256C244.502 333.256 246.803 330.716 246.803 326.48C246.803 322.236 244.468 319.739 241.306 319.739C238.877 319.739 237.999 321.222 237.548 322.031H237.335V319.909H234.846V337.909ZM237.343 326.455C237.343 323.719 238.536 321.903 240.761 321.903C243.07 321.903 244.229 323.855 244.229 326.455C244.229 329.08 243.036 331.082 240.761 331.082C238.57 331.082 237.343 329.207 237.343 326.455ZM255.173 333.264C258.863 333.264 261.275 330.562 261.275 326.514C261.275 322.44 258.863 319.739 255.173 319.739C251.482 319.739 249.07 322.44 249.07 326.514C249.07 330.562 251.482 333.264 255.173 333.264ZM255.181 331.125C252.769 331.125 251.644 329.02 251.644 326.506C251.644 324 252.769 321.869 255.181 321.869C257.576 321.869 258.701 324 258.701 326.506C258.701 329.02 257.576 331.125 255.181 331.125ZM270.471 333H272.951V322.108H278.653V333H281.15V319.909H270.471V333ZM290.071 333.264C293.761 333.264 296.173 330.562 296.173 326.514C296.173 322.44 293.761 319.739 290.071 319.739C286.381 319.739 283.969 322.44 283.969 326.514C283.969 330.562 286.381 333.264 290.071 333.264ZM290.08 331.125C287.668 331.125 286.543 329.02 286.543 326.506C286.543 324 287.668 321.869 290.08 321.869C292.474 321.869 293.599 324 293.599 326.506C293.599 329.02 292.474 331.125 290.08 331.125ZM297.643 333H300.669L304.777 327.545H305.629V333H308.178V327.545H309.03L313.112 333H316.138L311.092 326.301L316.078 319.909H313.112L309.064 325.347H308.178V319.909H305.629V325.347H304.717L300.669 319.909H297.703L302.714 326.301L297.643 333ZM322.515 333.29C324.68 333.29 325.898 332.19 326.384 331.21H326.487V333H328.975V324.307C328.975 320.497 325.975 319.739 323.896 319.739C321.526 319.739 319.344 320.693 318.492 323.08L320.887 323.625C321.262 322.696 322.217 321.801 323.93 321.801C325.575 321.801 326.418 322.662 326.418 324.145V324.205C326.418 325.134 325.464 325.116 323.112 325.389C320.631 325.679 318.092 326.327 318.092 329.301C318.092 331.875 320.026 333.29 322.515 333.29ZM323.069 331.244C321.629 331.244 320.589 330.597 320.589 329.335C320.589 327.972 321.799 327.486 323.273 327.29C324.1 327.179 326.06 326.957 326.427 326.591V328.278C326.427 329.83 325.191 331.244 323.069 331.244ZM331.338 333H332.156C335.011 333 336.06 330.886 336.264 326.557L336.469 322.108H340.747V333H343.244V319.909H334.108L333.878 325.705C333.716 329.744 333.256 330.793 331.798 330.793H331.33L331.338 333ZM352.157 333.264C355.847 333.264 358.259 330.562 358.259 326.514C358.259 322.44 355.847 319.739 352.157 319.739C348.467 319.739 346.055 322.44 346.055 326.514C346.055 330.562 348.467 333.264 352.157 333.264ZM352.165 331.125C349.754 331.125 348.629 329.02 348.629 326.506C348.629 324 349.754 321.869 352.165 321.869C354.56 321.869 355.685 324 355.685 326.506C355.685 329.02 354.56 331.125 352.165 331.125ZM361.104 333H367.359C370.223 333 371.902 331.551 371.902 329.472C371.902 327.528 370.411 326.335 368.663 326.131C370.274 325.824 371.339 324.938 371.339 323.403C371.339 321.256 369.482 319.909 366.533 319.909H361.104V333ZM363.499 330.869V327.23H367.359C368.621 327.23 369.379 327.972 369.379 329.19C369.379 330.23 368.621 330.869 367.359 330.869H363.499ZM363.499 325.364V322.065H366.533C367.982 322.065 368.859 322.67 368.859 323.676C368.859 324.724 367.99 325.364 366.558 325.364H363.499ZM378.507 333.29C380.672 333.29 381.891 332.19 382.376 331.21H382.479V333H384.967V324.307C384.967 320.497 381.967 319.739 379.888 319.739C377.518 319.739 375.337 320.693 374.484 323.08L376.879 323.625C377.254 322.696 378.209 321.801 379.922 321.801C381.567 321.801 382.411 322.662 382.411 324.145V324.205C382.411 325.134 381.456 325.116 379.104 325.389C376.624 325.679 374.084 326.327 374.084 329.301C374.084 331.875 376.018 333.29 378.507 333.29ZM379.061 331.244C377.621 331.244 376.581 330.597 376.581 329.335C376.581 327.972 377.791 327.486 379.266 327.29C380.092 327.179 382.053 326.957 382.419 326.591V328.278C382.419 329.83 381.183 331.244 379.061 331.244ZM386.738 322.108H391.025V333H393.513V322.108H397.783V319.909H386.738V322.108ZM402.976 324.409V319.909H400.479V333H406.197C409.402 333 411.192 331.142 411.192 328.679C411.192 326.165 409.402 324.409 406.197 324.409H402.976ZM402.976 326.608H406.197C407.663 326.608 408.712 327.494 408.712 328.756C408.712 329.949 407.663 330.801 406.197 330.801H402.976V326.608ZM417.262 315.545H414.458L414.68 327.98H417.04L417.262 315.545ZM415.856 333.162C416.785 333.162 417.56 332.403 417.56 331.457C417.56 330.528 416.785 329.761 415.856 329.761C414.918 329.761 414.151 330.528 414.151 331.457C414.151 332.403 414.918 333.162 415.856 333.162Z" fill="black"/>
<path d="M186 244.667C186 240.233 186 238.016 186.863 236.323C187.622 234.833 188.833 233.622 190.323 232.863C192.016 232 194.233 232 198.667 232H211.333C215.767 232 217.984 232 219.677 232.863C221.167 233.622 222.378 234.833 223.137 236.323C224 238.016 224 240.233 224 244.667V257.333C224 261.767 224 263.984 223.137 265.677C222.378 267.167 221.167 268.378 219.677 269.137C217.984 270 215.767 270 211.333 270H198.667C194.233 270 192.016 270 190.323 269.137C188.833 268.378 187.622 267.167 186.863 265.677C186 263.984 186 261.767 186 257.333V244.667Z" fill="#3456F3"/>
<circle cx="205" cy="251" r="11" fill="white"/>
<path fill-rule="evenodd" clip-rule="evenodd" d="M201.154 251C201.154 253.124 202.876 254.846 205 254.846C207.124 254.846 208.846 253.124 208.846 251H211C211 254.314 208.314 257 205 257C201.686 257 199 254.314 199 251H201.154Z" fill="#3456F3"/>
<rect y="379" width="768" height="266" fill="#FAFAFA"/>
<path d="M186.999 481.864V471.364H188.451V472.602H188.575C188.661 472.442 188.786 472.259 188.948 472.05C189.111 471.841 189.336 471.659 189.624 471.503C189.913 471.344 190.294 471.264 190.768 471.264C191.384 471.264 191.934 471.42 192.418 471.732C192.902 472.043 193.282 472.492 193.557 473.079C193.835 473.665 193.974 474.371 193.974 475.197C193.974 476.022 193.837 476.73 193.562 477.32C193.287 477.906 192.909 478.359 192.428 478.677C191.948 478.992 191.399 479.149 190.783 479.149C190.319 479.149 189.939 479.071 189.644 478.915C189.353 478.76 189.124 478.577 188.958 478.369C188.792 478.16 188.665 477.974 188.575 477.812H188.486V481.864H186.999ZM188.456 475.182C188.456 475.719 188.534 476.189 188.69 476.594C188.845 476.998 189.071 477.315 189.366 477.543C189.661 477.769 190.022 477.881 190.45 477.881C190.894 477.881 191.265 477.764 191.563 477.528C191.862 477.29 192.087 476.967 192.239 476.559C192.395 476.151 192.473 475.692 192.473 475.182C192.473 474.678 192.397 474.226 192.244 473.825C192.095 473.424 191.87 473.107 191.568 472.875C191.27 472.643 190.897 472.527 190.45 472.527C190.019 472.527 189.654 472.638 189.356 472.86C189.061 473.082 188.837 473.392 188.685 473.79C188.532 474.187 188.456 474.652 188.456 475.182ZM198.857 479.154C198.141 479.154 197.516 478.99 196.982 478.662C196.449 478.334 196.034 477.875 195.739 477.285C195.444 476.695 195.297 476.005 195.297 475.217C195.297 474.424 195.444 473.732 195.739 473.138C196.034 472.545 196.449 472.085 196.982 471.756C197.516 471.428 198.141 471.264 198.857 471.264C199.572 471.264 200.197 471.428 200.731 471.756C201.264 472.085 201.679 472.545 201.974 473.138C202.269 473.732 202.416 474.424 202.416 475.217C202.416 476.005 202.269 476.695 201.974 477.285C201.679 477.875 201.264 478.334 200.731 478.662C200.197 478.99 199.572 479.154 198.857 479.154ZM198.862 477.906C199.326 477.906 199.71 477.784 200.015 477.538C200.32 477.293 200.545 476.967 200.691 476.559C200.84 476.151 200.915 475.702 200.915 475.212C200.915 474.724 200.84 474.277 200.691 473.869C200.545 473.458 200.32 473.129 200.015 472.88C199.71 472.631 199.326 472.507 198.862 472.507C198.394 472.507 198.006 472.631 197.698 472.88C197.393 473.129 197.166 473.458 197.017 473.869C196.871 474.277 196.798 474.724 196.798 475.212C196.798 475.702 196.871 476.151 197.017 476.559C197.166 476.967 197.393 477.293 197.698 477.538C198.006 477.784 198.394 477.906 198.862 477.906ZM207.292 479.154C206.553 479.154 205.917 478.987 205.383 478.652C204.853 478.314 204.445 477.848 204.16 477.255C203.875 476.662 203.732 475.982 203.732 475.217C203.732 474.441 203.878 473.757 204.17 473.163C204.462 472.567 204.873 472.101 205.403 471.766C205.933 471.432 206.558 471.264 207.277 471.264C207.857 471.264 208.374 471.372 208.828 471.587C209.282 471.799 209.649 472.098 209.927 472.482C210.209 472.867 210.376 473.316 210.429 473.83H208.982C208.903 473.472 208.721 473.163 208.436 472.905C208.154 472.646 207.776 472.517 207.302 472.517C206.888 472.517 206.525 472.626 206.213 472.845C205.905 473.061 205.665 473.369 205.492 473.77C205.32 474.168 205.234 474.638 205.234 475.182C205.234 475.739 205.318 476.219 205.487 476.624C205.656 477.028 205.895 477.341 206.203 477.563C206.515 477.785 206.881 477.896 207.302 477.896C207.584 477.896 207.839 477.845 208.068 477.742C208.3 477.636 208.494 477.485 208.649 477.29C208.808 477.094 208.919 476.859 208.982 476.584H210.429C210.376 477.078 210.215 477.518 209.947 477.906C209.678 478.294 209.319 478.599 208.868 478.821C208.421 479.043 207.895 479.154 207.292 479.154ZM213.505 474.466V479H212.019V468.818H213.485V472.607H213.58C213.759 472.196 214.032 471.869 214.4 471.627C214.768 471.385 215.249 471.264 215.842 471.264C216.366 471.264 216.823 471.372 217.214 471.587C217.609 471.803 217.913 472.124 218.129 472.552C218.348 472.976 218.457 473.506 218.457 474.143V479H216.971V474.322C216.971 473.762 216.826 473.327 216.538 473.019C216.25 472.708 215.849 472.552 215.335 472.552C214.984 472.552 214.669 472.626 214.39 472.776C214.115 472.925 213.898 473.143 213.739 473.432C213.583 473.717 213.505 474.062 213.505 474.466ZM224.005 471.364V472.557H219.834V471.364H224.005ZM220.953 469.534H222.439V476.758C222.439 477.046 222.482 477.263 222.569 477.409C222.655 477.552 222.766 477.649 222.902 477.702C223.041 477.752 223.192 477.777 223.354 477.777C223.473 477.777 223.578 477.769 223.667 477.752C223.757 477.736 223.826 477.722 223.876 477.712L224.145 478.94C224.058 478.973 223.936 479.007 223.777 479.04C223.618 479.076 223.419 479.096 223.18 479.099C222.789 479.106 222.424 479.036 222.086 478.891C221.748 478.745 221.475 478.519 221.266 478.214C221.057 477.91 220.953 477.527 220.953 477.066V469.534ZM227.872 479.169C227.388 479.169 226.951 479.08 226.559 478.901C226.168 478.718 225.858 478.455 225.63 478.11C225.404 477.765 225.292 477.343 225.292 476.842C225.292 476.411 225.375 476.057 225.54 475.778C225.706 475.5 225.93 475.28 226.211 475.117C226.493 474.955 226.808 474.832 227.156 474.749C227.504 474.666 227.859 474.603 228.22 474.56C228.677 474.507 229.049 474.464 229.334 474.431C229.619 474.395 229.826 474.337 229.955 474.257C230.084 474.178 230.149 474.048 230.149 473.869V473.835C230.149 473.4 230.026 473.064 229.781 472.825C229.539 472.587 229.178 472.467 228.697 472.467C228.197 472.467 227.802 472.578 227.514 472.8C227.229 473.019 227.032 473.263 226.922 473.531L225.525 473.213C225.691 472.749 225.933 472.375 226.251 472.089C226.573 471.801 226.942 471.592 227.36 471.463C227.778 471.33 228.217 471.264 228.677 471.264C228.982 471.264 229.305 471.301 229.647 471.374C229.992 471.443 230.313 471.572 230.611 471.761C230.913 471.95 231.16 472.22 231.352 472.572C231.544 472.92 231.64 473.372 231.64 473.929V479H230.189V477.956H230.129C230.033 478.148 229.889 478.337 229.697 478.523C229.504 478.708 229.257 478.862 228.956 478.985C228.654 479.108 228.293 479.169 227.872 479.169ZM228.195 477.976C228.606 477.976 228.957 477.895 229.249 477.732C229.544 477.57 229.768 477.358 229.92 477.096C230.076 476.831 230.154 476.547 230.154 476.246V475.261C230.101 475.314 229.998 475.364 229.846 475.411C229.697 475.454 229.526 475.492 229.334 475.525C229.141 475.555 228.954 475.583 228.772 475.609C228.59 475.633 228.437 475.652 228.314 475.669C228.026 475.705 227.763 475.767 227.524 475.853C227.289 475.939 227.1 476.063 226.957 476.226C226.818 476.385 226.748 476.597 226.748 476.862C226.748 477.23 226.884 477.509 227.156 477.697C227.428 477.883 227.774 477.976 228.195 477.976ZM239.75 481.769C238.723 481.769 237.811 481.628 237.016 481.347C236.224 481.068 235.556 480.657 235.012 480.114C234.469 479.573 234.056 478.911 233.775 478.125C233.493 477.339 233.352 476.443 233.352 475.435C233.352 474.454 233.494 473.573 233.779 472.79C234.065 472.008 234.479 471.342 235.022 470.792C235.569 470.238 236.234 469.816 237.016 469.524C237.798 469.232 238.686 469.087 239.681 469.087C240.632 469.087 241.471 469.236 242.196 469.534C242.922 469.832 243.532 470.242 244.026 470.762C244.523 471.282 244.898 471.879 245.15 472.552C245.401 473.225 245.527 473.936 245.527 474.685C245.527 475.208 245.494 475.72 245.428 476.221C245.362 476.718 245.239 477.169 245.06 477.573C244.884 477.974 244.629 478.296 244.294 478.538C243.963 478.776 243.532 478.901 243.002 478.911C242.72 478.92 242.447 478.887 242.181 478.811C241.916 478.735 241.691 478.612 241.505 478.443C241.32 478.271 241.207 478.052 241.167 477.787H241.108C241.028 477.982 240.895 478.165 240.71 478.334C240.524 478.5 240.287 478.632 239.999 478.732C239.714 478.828 239.382 478.867 239.005 478.851C238.587 478.834 238.211 478.74 237.876 478.567C237.541 478.395 237.255 478.156 237.016 477.852C236.781 477.547 236.6 477.185 236.474 476.768C236.348 476.35 236.285 475.886 236.285 475.376C236.285 474.885 236.356 474.446 236.499 474.058C236.641 473.667 236.835 473.331 237.081 473.049C237.329 472.764 237.614 472.539 237.936 472.373C238.257 472.207 238.597 472.103 238.955 472.06C239.303 472.02 239.623 472.03 239.914 472.089C240.206 472.149 240.448 472.24 240.64 472.363C240.836 472.486 240.958 472.62 241.008 472.766H241.073V472.209H242.296V476.822C242.296 477.084 242.364 477.306 242.5 477.489C242.639 477.671 242.836 477.762 243.091 477.762C243.393 477.762 243.628 477.651 243.797 477.429C243.97 477.207 244.091 476.866 244.16 476.405C244.233 475.944 244.27 475.354 244.27 474.635C244.27 474.131 244.202 473.657 244.066 473.213C243.933 472.766 243.736 472.361 243.474 472C243.216 471.635 242.897 471.322 242.52 471.06C242.142 470.799 241.711 470.596 241.227 470.454C240.746 470.311 240.214 470.24 239.631 470.24C238.839 470.24 238.135 470.363 237.518 470.608C236.902 470.85 236.381 471.2 235.957 471.657C235.536 472.114 235.216 472.663 234.998 473.303C234.782 473.939 234.674 474.653 234.674 475.445C234.674 476.271 234.785 477.003 235.007 477.643C235.23 478.279 235.558 478.816 235.992 479.254C236.426 479.691 236.963 480.022 237.603 480.248C238.242 480.477 238.98 480.591 239.815 480.591C240.186 480.591 240.551 480.558 240.909 480.491C241.267 480.429 241.585 480.356 241.863 480.273C242.145 480.193 242.355 480.129 242.495 480.079L242.843 481.168C242.637 481.264 242.364 481.358 242.022 481.451C241.684 481.544 241.316 481.62 240.919 481.68C240.524 481.739 240.135 481.769 239.75 481.769ZM239.293 477.633C239.724 477.633 240.07 477.547 240.332 477.374C240.597 477.202 240.788 476.945 240.904 476.604C241.023 476.259 241.083 475.828 241.083 475.311C241.079 474.807 241.015 474.406 240.889 474.108C240.766 473.806 240.574 473.591 240.312 473.462C240.054 473.329 239.721 473.263 239.313 473.263C238.938 473.263 238.618 473.354 238.353 473.536C238.092 473.719 237.891 473.965 237.752 474.277C237.616 474.589 237.546 474.935 237.543 475.316C237.546 475.717 237.603 476.095 237.712 476.45C237.825 476.801 238.007 477.086 238.259 477.305C238.514 477.523 238.859 477.633 239.293 477.633ZM248.109 481.864C247.887 481.864 247.685 481.845 247.502 481.809C247.32 481.776 247.184 481.739 247.095 481.7L247.453 480.482C247.724 480.554 247.966 480.586 248.178 480.576C248.391 480.566 248.578 480.487 248.74 480.337C248.906 480.188 249.052 479.945 249.178 479.607L249.362 479.099L246.568 471.364H248.159L250.093 477.29H250.172L252.106 471.364H253.702L250.555 480.019C250.409 480.417 250.223 480.753 249.998 481.028C249.773 481.307 249.504 481.516 249.193 481.655C248.881 481.794 248.52 481.864 248.109 481.864ZM257.102 479.169C256.619 479.169 256.181 479.08 255.79 478.901C255.399 478.718 255.089 478.455 254.86 478.11C254.635 477.765 254.522 477.343 254.522 476.842C254.522 476.411 254.605 476.057 254.771 475.778C254.936 475.5 255.16 475.28 255.442 475.117C255.724 474.955 256.039 474.832 256.387 474.749C256.735 474.666 257.089 474.603 257.45 474.56C257.908 474.507 258.279 474.464 258.564 474.431C258.849 474.395 259.056 474.337 259.186 474.257C259.315 474.178 259.379 474.048 259.379 473.869V473.835C259.379 473.4 259.257 473.064 259.012 472.825C258.77 472.587 258.408 472.467 257.928 472.467C257.427 472.467 257.033 472.578 256.744 472.8C256.459 473.019 256.262 473.263 256.153 473.531L254.756 473.213C254.922 472.749 255.164 472.375 255.482 472.089C255.803 471.801 256.173 471.592 256.59 471.463C257.008 471.33 257.447 471.264 257.908 471.264C258.213 471.264 258.536 471.301 258.877 471.374C259.222 471.443 259.544 471.572 259.842 471.761C260.143 471.95 260.39 472.22 260.583 472.572C260.775 472.92 260.871 473.372 260.871 473.929V479H259.419V477.956H259.36C259.263 478.148 259.119 478.337 258.927 478.523C258.735 478.708 258.488 478.862 258.186 478.985C257.885 479.108 257.523 479.169 257.102 479.169ZM257.426 477.976C257.837 477.976 258.188 477.895 258.48 477.732C258.775 477.57 258.998 477.358 259.151 477.096C259.307 476.831 259.384 476.547 259.384 476.246V475.261C259.331 475.314 259.229 475.364 259.076 475.411C258.927 475.454 258.756 475.492 258.564 475.525C258.372 475.555 258.185 475.583 258.002 475.609C257.82 475.633 257.668 475.652 257.545 475.669C257.257 475.705 256.993 475.767 256.754 475.853C256.519 475.939 256.33 476.063 256.188 476.226C256.048 476.385 255.979 476.597 255.979 476.862C255.979 477.23 256.115 477.509 256.387 477.697C256.658 477.883 257.005 477.976 257.426 477.976ZM264.337 474.466V479H262.851V471.364H264.278V472.607H264.372C264.548 472.202 264.823 471.877 265.197 471.632C265.575 471.387 266.051 471.264 266.624 471.264C267.145 471.264 267.6 471.374 267.991 471.592C268.383 471.808 268.686 472.129 268.901 472.557C269.117 472.984 269.224 473.513 269.224 474.143V479H267.738V474.322C267.738 473.768 267.594 473.336 267.305 473.024C267.017 472.709 266.621 472.552 266.117 472.552C265.772 472.552 265.466 472.626 265.197 472.776C264.932 472.925 264.722 473.143 264.566 473.432C264.414 473.717 264.337 474.062 264.337 474.466ZM274.077 479.149C273.46 479.149 272.91 478.992 272.426 478.677C271.946 478.359 271.568 477.906 271.293 477.32C271.021 476.73 270.885 476.022 270.885 475.197C270.885 474.371 271.022 473.665 271.298 473.079C271.576 472.492 271.957 472.043 272.441 471.732C272.925 471.42 273.473 471.264 274.087 471.264C274.561 471.264 274.942 471.344 275.23 471.503C275.522 471.659 275.747 471.841 275.906 472.05C276.069 472.259 276.195 472.442 276.284 472.602H276.374V468.818H277.86V479H276.408V477.812H276.284C276.195 477.974 276.065 478.16 275.896 478.369C275.731 478.577 275.502 478.76 275.21 478.915C274.919 479.071 274.541 479.149 274.077 479.149ZM274.405 477.881C274.832 477.881 275.194 477.769 275.489 477.543C275.787 477.315 276.012 476.998 276.165 476.594C276.321 476.189 276.398 475.719 276.398 475.182C276.398 474.652 276.322 474.187 276.17 473.79C276.017 473.392 275.794 473.082 275.499 472.86C275.204 472.638 274.839 472.527 274.405 472.527C273.957 472.527 273.585 472.643 273.286 472.875C272.988 473.107 272.763 473.424 272.61 473.825C272.461 474.226 272.386 474.678 272.386 475.182C272.386 475.692 272.463 476.151 272.615 476.559C272.768 476.967 272.993 477.29 273.291 477.528C273.593 477.764 273.964 477.881 274.405 477.881ZM283.273 479.154C282.521 479.154 281.873 478.993 281.329 478.672C280.789 478.347 280.371 477.891 280.076 477.305C279.785 476.715 279.639 476.024 279.639 475.232C279.639 474.449 279.785 473.76 280.076 473.163C280.371 472.567 280.782 472.101 281.309 471.766C281.839 471.432 282.459 471.264 283.169 471.264C283.599 471.264 284.017 471.335 284.421 471.478C284.826 471.621 285.189 471.844 285.51 472.149C285.832 472.454 286.085 472.85 286.271 473.337C286.456 473.821 286.549 474.41 286.549 475.102V475.629H280.479V474.516H285.093C285.093 474.125 285.013 473.778 284.854 473.477C284.695 473.172 284.471 472.931 284.183 472.756C283.898 472.58 283.563 472.492 283.178 472.492C282.761 472.492 282.396 472.595 282.085 472.8C281.776 473.003 281.538 473.268 281.369 473.596C281.203 473.921 281.12 474.274 281.12 474.655V475.525C281.12 476.035 281.21 476.469 281.389 476.827C281.571 477.185 281.825 477.459 282.149 477.648C282.474 477.833 282.854 477.926 283.288 477.926C283.57 477.926 283.826 477.886 284.058 477.807C284.29 477.724 284.491 477.601 284.66 477.439C284.829 477.277 284.958 477.076 285.048 476.837L286.455 477.091C286.342 477.505 286.14 477.868 285.848 478.18C285.56 478.488 285.197 478.728 284.759 478.901C284.325 479.07 283.83 479.154 283.273 479.154ZM289.194 471.364L290.879 474.337L292.58 471.364H294.205L291.824 475.182L294.225 479H292.6L290.879 476.146L289.164 479H287.534L289.91 475.182L287.563 471.364H289.194ZM296.711 479.094C296.439 479.094 296.206 478.998 296.01 478.806C295.815 478.611 295.717 478.375 295.717 478.1C295.717 477.828 295.815 477.596 296.01 477.404C296.206 477.209 296.439 477.111 296.711 477.111C296.983 477.111 297.217 477.209 297.412 477.404C297.608 477.596 297.705 477.828 297.705 478.1C297.705 478.282 297.659 478.45 297.566 478.602C297.477 478.751 297.357 478.871 297.208 478.96C297.059 479.05 296.893 479.094 296.711 479.094ZM299.697 479V471.364H301.133V472.577H301.213C301.352 472.166 301.597 471.843 301.949 471.607C302.303 471.369 302.704 471.249 303.152 471.249C303.245 471.249 303.354 471.253 303.48 471.259C303.609 471.266 303.71 471.274 303.783 471.284V472.706C303.724 472.689 303.617 472.671 303.465 472.651C303.313 472.628 303.16 472.616 303.008 472.616C302.656 472.616 302.343 472.691 302.068 472.84C301.796 472.986 301.581 473.19 301.422 473.452C301.263 473.71 301.183 474.005 301.183 474.337V479H299.697ZM309.907 475.833V471.364H311.398V479H309.937V477.678H309.857C309.682 478.085 309.4 478.425 309.012 478.697C308.628 478.965 308.149 479.099 307.575 479.099C307.085 479.099 306.651 478.992 306.273 478.776C305.898 478.558 305.603 478.234 305.388 477.807C305.176 477.379 305.07 476.851 305.07 476.221V471.364H306.556V476.042C306.556 476.562 306.7 476.977 306.989 477.285C307.277 477.593 307.652 477.747 308.112 477.747C308.391 477.747 308.667 477.678 308.942 477.538C309.221 477.399 309.451 477.189 309.634 476.907C309.819 476.625 309.91 476.267 309.907 475.833ZM315.181 465.537V482.281H314.186V465.537H315.181Z" fill="black"/>
<path fill-rule="evenodd" clip-rule="evenodd" d="M582 493H186V492H582V493Z" fill="#3456F3"/>
<path d="M186.881 458H191.327V457.219H187.761V454.747H191.043V453.966H187.761V451.509H191.27V450.727H186.881V458ZM195.869 454.491H192.687V455.273H195.869V454.491ZM197.343 458H198.181V454.591C198.181 453.792 198.764 453.227 199.417 453.227C200.053 453.227 200.497 453.643 200.497 454.264V458H201.349V454.449C201.349 453.746 201.789 453.227 202.556 453.227C203.153 453.227 203.664 453.543 203.664 454.349V458H204.502V454.349C204.502 453.067 203.813 452.474 202.84 452.474C202.059 452.474 201.487 452.833 201.207 453.398H201.15C200.88 452.815 200.404 452.474 199.687 452.474C198.977 452.474 198.451 452.815 198.224 453.398H198.153V452.545H197.343V458ZM207.64 458.128C208.591 458.128 209.089 457.616 209.259 457.261H209.302V458H210.14V454.406C210.14 452.673 208.819 452.474 208.123 452.474C207.299 452.474 206.361 452.759 205.935 453.753L206.731 454.037C206.915 453.639 207.352 453.213 208.151 453.213C208.922 453.213 209.302 453.621 209.302 454.321V454.349C209.302 454.754 208.89 454.719 207.895 454.847C206.883 454.978 205.779 455.202 205.779 456.452C205.779 457.517 206.603 458.128 207.64 458.128ZM207.768 457.375C207.1 457.375 206.617 457.077 206.617 456.494C206.617 455.855 207.199 455.656 207.853 455.571C208.208 455.528 209.16 455.429 209.302 455.259V456.026C209.302 456.707 208.762 457.375 207.768 457.375ZM211.669 458H212.507V452.545H211.669V458ZM212.096 451.636C212.422 451.636 212.692 451.381 212.692 451.068C212.692 450.756 212.422 450.5 212.096 450.5C211.769 450.5 211.499 450.756 211.499 451.068C211.499 451.381 211.769 451.636 212.096 451.636ZM214.881 450.727H214.042V458H214.881V450.727Z" fill="#A0A0A0"/>
<path d="M187.233 410H190.912C193.318 410 194.312 408.827 194.312 407.295C194.312 405.685 193.199 404.81 192.264 404.75V404.651C193.139 404.412 193.915 403.835 193.915 402.523C193.915 401.031 192.92 399.818 190.793 399.818H187.233V410ZM188.466 408.906V405.366H190.972C192.304 405.366 193.139 406.261 193.139 407.295C193.139 408.19 192.523 408.906 190.912 408.906H188.466ZM188.466 404.293V400.912H190.793C192.145 400.912 192.741 401.628 192.741 402.523C192.741 403.597 191.866 404.293 190.753 404.293H188.466ZM197.353 408.27V402.364H196.179V410H197.551L201.211 404.094V410H202.384V402.364H201.032L197.353 408.27ZM203.494 403.457H206.019V410H207.193V403.457H209.698V402.364H203.494V403.457ZM213.26 410.179C214.593 410.179 215.289 409.463 215.528 408.966H215.587V410H216.76V404.969C216.76 402.543 214.911 402.264 213.937 402.264C212.783 402.264 211.471 402.662 210.874 404.054L211.988 404.452C212.246 403.895 212.858 403.298 213.976 403.298C215.055 403.298 215.587 403.87 215.587 404.849V404.889C215.587 405.456 215.01 405.406 213.618 405.585C212.202 405.769 210.655 406.082 210.655 407.832C210.655 409.324 211.809 410.179 213.26 410.179ZM213.439 409.125C212.505 409.125 211.829 408.707 211.829 407.892C211.829 406.997 212.644 406.719 213.559 406.599C214.056 406.54 215.388 406.401 215.587 406.162V407.236C215.587 408.19 214.831 409.125 213.439 409.125ZM218.226 410H218.624C220.314 410 220.801 408.688 220.911 406.182L221.03 403.457H223.834V410H225.007V402.364H219.916L219.777 405.744C219.678 408.31 219.419 408.906 218.504 408.906H218.226V410ZM228.333 408.27V402.364H227.16V410H228.532L232.191 404.094V410H233.364V402.364H232.012L228.333 408.27ZM236.687 408.27V402.364H235.513V410H236.885L240.545 404.094V410H241.718V402.364H240.366L236.687 408.27ZM239.59 399.818C239.59 400.335 239.312 400.793 238.616 400.793C237.92 400.793 237.661 400.335 237.661 399.818H236.567C236.567 400.892 237.363 401.648 238.616 401.648C239.888 401.648 240.684 400.892 240.684 399.818H239.59Z" fill="black"/>
<path fill-rule="evenodd" clip-rule="evenodd" d="M582 424H186V423H582V424Z" fill="#E8E8E8"/>
<path d="M186.881 381.727V389H187.733L191.696 383.29H191.767V389H192.648V381.727H191.795L187.818 387.452H187.747V381.727H186.881ZM197.279 387.864L195.404 383.545H194.296V389H195.134V384.749L196.938 389H197.62L199.424 384.827V389H200.262V383.545H199.183L197.279 387.864ZM205.078 389H205.873V383.545H203.629C202.453 383.545 201.74 384.16 201.74 385.165C201.74 385.914 202.116 386.447 202.773 386.67L201.441 389H202.35L203.615 386.784H205.078V389ZM205.078 386.003H203.529C202.936 386.003 202.578 385.687 202.578 385.165C202.578 384.636 202.975 384.312 203.629 384.312H205.078V386.003Z" fill="#A0A0A0"/>
<path d="M189.938 546.131C189.536 546.131 189.17 546.033 188.839 545.837C188.507 545.638 188.242 545.373 188.043 545.042C187.848 544.71 187.75 544.344 187.75 543.943C187.75 543.539 187.848 543.173 188.043 542.844C188.242 542.513 188.507 542.25 188.839 542.054C189.17 541.855 189.536 541.756 189.938 541.756C190.342 541.756 190.708 541.855 191.036 542.054C191.368 542.25 191.631 542.513 191.827 542.844C192.026 543.173 192.125 543.539 192.125 543.943C192.125 544.344 192.026 544.71 191.827 545.042C191.631 545.373 191.368 545.638 191.036 545.837C190.708 546.033 190.342 546.131 189.938 546.131ZM197.812 546.131C197.411 546.131 197.045 546.033 196.714 545.837C196.382 545.638 196.117 545.373 195.918 545.042C195.723 544.71 195.625 544.344 195.625 543.943C195.625 543.539 195.723 543.173 195.918 542.844C196.117 542.513 196.382 542.25 196.714 542.054C197.045 541.855 197.411 541.756 197.812 541.756C198.217 541.756 198.583 541.855 198.911 542.054C199.243 542.25 199.506 542.513 199.702 542.844C199.901 543.173 200 543.539 200 543.943C200 544.344 199.901 544.71 199.702 545.042C199.506 545.373 199.243 545.638 198.911 545.837C198.583 546.033 198.217 546.131 197.812 546.131ZM205.688 546.131C205.286 546.131 204.92 546.033 204.589 545.837C204.257 545.638 203.992 545.373 203.793 545.042C203.598 544.71 203.5 544.344 203.5 543.943C203.5 543.539 203.598 543.173 203.793 542.844C203.992 542.513 204.257 542.25 204.589 542.054C204.92 541.855 205.286 541.756 205.688 541.756C206.092 541.756 206.458 541.855 206.786 542.054C207.118 542.25 207.381 542.513 207.577 542.844C207.776 543.173 207.875 543.539 207.875 543.943C207.875 544.344 207.776 544.71 207.577 545.042C207.381 545.373 207.118 545.638 206.786 545.837C206.458 546.033 206.092 546.131 205.688 546.131ZM213.562 546.131C213.161 546.131 212.795 546.033 212.464 545.837C212.132 545.638 211.867 545.373 211.668 545.042C211.473 544.71 211.375 544.344 211.375 543.943C211.375 543.539 211.473 543.173 211.668 542.844C211.867 542.513 212.132 542.25 212.464 542.054C212.795 541.855 213.161 541.756 213.562 541.756C213.967 541.756 214.333 541.855 214.661 542.054C214.993 542.25 215.256 542.513 215.452 542.844C215.651 543.173 215.75 543.539 215.75 543.943C215.75 544.344 215.651 544.71 215.452 545.042C215.256 545.373 214.993 545.638 214.661 545.837C214.333 546.033 213.967 546.131 213.562 546.131ZM221.438 546.131C221.036 546.131 220.67 546.033 220.339 545.837C220.007 545.638 219.742 545.373 219.543 545.042C219.348 544.71 219.25 544.344 219.25 543.943C219.25 543.539 219.348 543.173 219.543 542.844C219.742 542.513 220.007 542.25 220.339 542.054C220.67 541.855 221.036 541.756 221.438 541.756C221.842 541.756 222.208 541.855 222.536 542.054C222.868 542.25 223.131 542.513 223.327 542.844C223.526 543.173 223.625 543.539 223.625 543.943C223.625 544.344 223.526 544.71 223.327 545.042C223.131 545.373 222.868 545.638 222.536 545.837C222.208 546.033 221.842 546.131 221.438 546.131ZM229.312 546.131C228.911 546.131 228.545 546.033 228.214 545.837C227.882 545.638 227.617 545.373 227.418 545.042C227.223 544.71 227.125 544.344 227.125 543.943C227.125 543.539 227.223 543.173 227.418 542.844C227.617 542.513 227.882 542.25 228.214 542.054C228.545 541.855 228.911 541.756 229.312 541.756C229.717 541.756 230.083 541.855 230.411 542.054C230.743 542.25 231.006 542.513 231.202 542.844C231.401 543.173 231.5 543.539 231.5 543.943C231.5 544.344 231.401 544.71 231.202 545.042C231.006 545.373 230.743 545.638 230.411 545.837C230.083 546.033 229.717 546.131 229.312 546.131ZM237.188 546.131C236.786 546.131 236.42 546.033 236.089 545.837C235.757 545.638 235.492 545.373 235.293 545.042C235.098 544.71 235 544.344 235 543.943C235 543.539 235.098 543.173 235.293 542.844C235.492 542.513 235.757 542.25 236.089 542.054C236.42 541.855 236.786 541.756 237.188 541.756C237.592 541.756 237.958 541.855 238.286 542.054C238.618 542.25 238.881 542.513 239.077 542.844C239.276 543.173 239.375 543.539 239.375 543.943C239.375 544.344 239.276 544.71 239.077 545.042C238.881 545.373 238.618 545.638 238.286 545.837C237.958 546.033 237.592 546.131 237.188 546.131ZM245.062 546.131C244.661 546.131 244.295 546.033 243.964 545.837C243.632 545.638 243.367 545.373 243.168 545.042C242.973 544.71 242.875 544.344 242.875 543.943C242.875 543.539 242.973 543.173 243.168 542.844C243.367 542.513 243.632 542.25 243.964 542.054C244.295 541.855 244.661 541.756 245.062 541.756C245.467 541.756 245.833 541.855 246.161 542.054C246.493 542.25 246.756 542.513 246.952 542.844C247.151 543.173 247.25 543.539 247.25 543.943C247.25 544.344 247.151 544.71 246.952 545.042C246.756 545.373 246.493 545.638 246.161 545.837C245.833 546.033 245.467 546.131 245.062 546.131ZM252.938 546.131C252.536 546.131 252.17 546.033 251.839 545.837C251.507 545.638 251.242 545.373 251.043 545.042C250.848 544.71 250.75 544.344 250.75 543.943C250.75 543.539 250.848 543.173 251.043 542.844C251.242 542.513 251.507 542.25 251.839 542.054C252.17 541.855 252.536 541.756 252.938 541.756C253.342 541.756 253.708 541.855 254.036 542.054C254.368 542.25 254.631 542.513 254.827 542.844C255.026 543.173 255.125 543.539 255.125 543.943C255.125 544.344 255.026 544.71 254.827 545.042C254.631 545.373 254.368 545.638 254.036 545.837C253.708 546.033 253.342 546.131 252.938 546.131ZM260.812 546.131C260.411 546.131 260.045 546.033 259.714 545.837C259.382 545.638 259.117 545.373 258.918 545.042C258.723 544.71 258.625 544.344 258.625 543.943C258.625 543.539 258.723 543.173 258.918 542.844C259.117 542.513 259.382 542.25 259.714 542.054C260.045 541.855 260.411 541.756 260.812 541.756C261.217 541.756 261.583 541.855 261.911 542.054C262.243 542.25 262.506 542.513 262.702 542.844C262.901 543.173 263 543.539 263 543.943C263 544.344 262.901 544.71 262.702 545.042C262.506 545.373 262.243 545.638 261.911 545.837C261.583 546.033 261.217 546.131 260.812 546.131ZM268.688 546.131C268.286 546.131 267.92 546.033 267.589 545.837C267.257 545.638 266.992 545.373 266.793 545.042C266.598 544.71 266.5 544.344 266.5 543.943C266.5 543.539 266.598 543.173 266.793 542.844C266.992 542.513 267.257 542.25 267.589 542.054C267.92 541.855 268.286 541.756 268.688 541.756C269.092 541.756 269.458 541.855 269.786 542.054C270.118 542.25 270.381 542.513 270.577 542.844C270.776 543.173 270.875 543.539 270.875 543.943C270.875 544.344 270.776 544.71 270.577 545.042C270.381 545.373 270.118 545.638 269.786 545.837C269.458 546.033 269.092 546.131 268.688 546.131ZM276.562 546.131C276.161 546.131 275.795 546.033 275.464 545.837C275.132 545.638 274.867 545.373 274.668 545.042C274.473 544.71 274.375 544.344 274.375 543.943C274.375 543.539 274.473 543.173 274.668 542.844C274.867 542.513 275.132 542.25 275.464 542.054C275.795 541.855 276.161 541.756 276.562 541.756C276.967 541.756 277.333 541.855 277.661 542.054C277.993 542.25 278.256 542.513 278.452 542.844C278.651 543.173 278.75 543.539 278.75 543.943C278.75 544.344 278.651 544.71 278.452 545.042C278.256 545.373 277.993 545.638 277.661 545.837C277.333 546.033 276.967 546.131 276.562 546.131ZM284.438 546.131C284.036 546.131 283.67 546.033 283.339 545.837C283.007 545.638 282.742 545.373 282.543 545.042C282.348 544.71 282.25 544.344 282.25 543.943C282.25 543.539 282.348 543.173 282.543 542.844C282.742 542.513 283.007 542.25 283.339 542.054C283.67 541.855 284.036 541.756 284.438 541.756C284.842 541.756 285.208 541.855 285.536 542.054C285.868 542.25 286.131 542.513 286.327 542.844C286.526 543.173 286.625 543.539 286.625 543.943C286.625 544.344 286.526 544.71 286.327 545.042C286.131 545.373 285.868 545.638 285.536 545.837C285.208 546.033 284.842 546.131 284.438 546.131ZM292.312 546.131C291.911 546.131 291.545 546.033 291.214 545.837C290.882 545.638 290.617 545.373 290.418 545.042C290.223 544.71 290.125 544.344 290.125 543.943C290.125 543.539 290.223 543.173 290.418 542.844C290.617 542.513 290.882 542.25 291.214 542.054C291.545 541.855 291.911 541.756 292.312 541.756C292.717 541.756 293.083 541.855 293.411 542.054C293.743 542.25 294.006 542.513 294.202 542.844C294.401 543.173 294.5 543.539 294.5 543.943C294.5 544.344 294.401 544.71 294.202 545.042C294.006 545.373 293.743 545.638 293.411 545.837C293.083 546.033 292.717 546.131 292.312 546.131Z" fill="#EE3465"/>
<path fill-rule="evenodd" clip-rule="evenodd" d="M582 562H186V561H582V562Z" fill="#E8E8E8"/>
<path d="M192.321 519.727H186.895V527H187.776V520.509H191.44V527H192.321V519.727ZM195.589 527.128C196.541 527.128 197.038 526.616 197.208 526.261H197.251V527H198.089V523.406C198.089 521.673 196.768 521.474 196.072 521.474C195.248 521.474 194.311 521.759 193.884 522.753L194.68 523.037C194.865 522.639 195.301 522.213 196.1 522.213C196.871 522.213 197.251 522.621 197.251 523.321V523.349C197.251 523.754 196.839 523.719 195.845 523.847C194.833 523.978 193.728 524.202 193.728 525.452C193.728 526.517 194.552 527.128 195.589 527.128ZM195.717 526.375C195.049 526.375 194.566 526.077 194.566 525.494C194.566 524.855 195.149 524.656 195.802 524.571C196.157 524.528 197.109 524.429 197.251 524.259V525.026C197.251 525.707 196.711 526.375 195.717 526.375ZM199.619 529.045H200.457V526.162H200.528C200.712 526.46 201.067 527.114 202.119 527.114C203.482 527.114 204.434 526.02 204.434 524.287C204.434 522.568 203.482 521.474 202.104 521.474C201.039 521.474 200.712 522.128 200.528 522.412H200.428V521.545H199.619V529.045ZM200.442 524.273C200.442 523.051 200.982 522.227 202.005 522.227C203.07 522.227 203.596 523.122 203.596 524.273C203.596 525.438 203.056 526.361 202.005 526.361C200.996 526.361 200.442 525.509 200.442 524.273ZM207.928 527.114C209.406 527.114 210.4 525.991 210.4 524.301C210.4 522.597 209.406 521.474 207.928 521.474C206.451 521.474 205.457 522.597 205.457 524.301C205.457 525.991 206.451 527.114 207.928 527.114ZM207.928 526.361C206.806 526.361 206.295 525.395 206.295 524.301C206.295 523.207 206.806 522.227 207.928 522.227C209.05 522.227 209.562 523.207 209.562 524.301C209.562 525.395 209.05 526.361 207.928 526.361ZM211.196 527H211.48C212.688 527 213.036 526.062 213.114 524.273L213.199 522.327H215.202V527H216.04V521.545H212.404L212.304 523.96C212.233 525.793 212.048 526.219 211.395 526.219H211.196V527ZM218.416 523.52V521.545H217.578V527H219.865C221.143 527 221.839 526.219 221.839 525.239C221.839 524.244 221.143 523.52 219.865 523.52H218.416ZM218.416 524.301H219.865C220.529 524.301 221.001 524.706 221.001 525.281C221.001 525.832 220.529 526.219 219.865 526.219H218.416V524.301Z" fill="#A0A0A0"/>
<path d="M186.952 570.727H187.832V573.156C187.832 573.516 187.895 573.799 188.021 574.005C188.146 574.209 188.324 574.353 188.553 574.438C188.783 574.521 189.054 574.562 189.366 574.562C189.563 574.562 189.754 574.555 189.938 574.541C190.123 574.525 190.303 574.502 190.478 574.474C190.656 574.445 190.828 574.411 190.996 574.371C191.167 574.33 191.334 574.286 191.497 574.236V575.031C191.339 575.081 191.181 575.126 191.025 575.166C190.871 575.206 190.71 575.241 190.542 575.269C190.376 575.298 190.197 575.32 190.006 575.337C189.814 575.351 189.601 575.358 189.366 575.358C188.865 575.358 188.433 575.286 188.07 575.141C187.71 574.997 187.433 574.764 187.239 574.442C187.048 574.12 186.952 573.691 186.952 573.156V570.727ZM191.384 570.727H192.264V578H191.384V570.727ZM193.603 573.327V572.545H198.035V573.327H196.245V578H195.407V573.327H193.603ZM201.19 578.114C200.698 578.114 200.266 577.996 199.894 577.762C199.525 577.528 199.236 577.2 199.027 576.778C198.821 576.357 198.718 575.865 198.718 575.301C198.718 574.733 198.821 574.237 199.027 573.813C199.236 573.389 199.525 573.06 199.894 572.826C200.266 572.592 200.698 572.474 201.19 572.474C201.682 572.474 202.113 572.592 202.483 572.826C202.854 573.06 203.143 573.389 203.349 573.813C203.557 574.237 203.662 574.733 203.662 575.301C203.662 575.865 203.557 576.357 203.349 576.778C203.143 577.2 202.854 577.528 202.483 577.762C202.113 577.996 201.682 578.114 201.19 578.114ZM201.19 577.361C201.564 577.361 201.872 577.265 202.113 577.073C202.355 576.881 202.533 576.629 202.65 576.317C202.766 576.004 202.824 575.666 202.824 575.301C202.824 574.937 202.766 574.597 202.65 574.282C202.533 573.967 202.355 573.713 202.113 573.518C201.872 573.324 201.564 573.227 201.19 573.227C200.816 573.227 200.508 573.324 200.267 573.518C200.025 573.713 199.846 573.967 199.73 574.282C199.614 574.597 199.556 574.937 199.556 575.301C199.556 575.666 199.614 576.004 199.73 576.317C199.846 576.629 200.025 576.881 200.267 577.073C200.508 577.265 200.816 577.361 201.19 577.361ZM208.066 574.491V575.273H204.884V574.491H208.066ZM208.945 573.327V572.545H213.377V573.327H211.587V578H210.749V573.327H208.945ZM216.532 578.114C216.039 578.114 215.607 577.996 215.236 577.762C214.866 577.528 214.577 577.2 214.369 576.778C214.163 576.357 214.06 575.865 214.06 575.301C214.06 574.733 214.163 574.237 214.369 573.813C214.577 573.389 214.866 573.06 215.236 572.826C215.607 572.592 216.039 572.474 216.532 572.474C217.024 572.474 217.455 572.592 217.824 572.826C218.196 573.06 218.485 573.389 218.691 573.813C218.899 574.237 219.003 574.733 219.003 575.301C219.003 575.865 218.899 576.357 218.691 576.778C218.485 577.2 218.196 577.528 217.824 577.762C217.455 577.996 217.024 578.114 216.532 578.114ZM216.532 577.361C216.906 577.361 217.214 577.265 217.455 577.073C217.697 576.881 217.875 576.629 217.991 576.317C218.107 576.004 218.165 575.666 218.165 575.301C218.165 574.937 218.107 574.597 217.991 574.282C217.875 573.967 217.697 573.713 217.455 573.518C217.214 573.324 216.906 573.227 216.532 573.227C216.158 573.227 215.85 573.324 215.608 573.518C215.367 573.713 215.188 573.967 215.072 574.282C214.956 574.597 214.898 574.937 214.898 575.301C214.898 575.666 214.956 576.004 215.072 576.317C215.188 576.629 215.367 576.881 215.608 577.073C215.85 577.265 216.158 577.361 216.532 577.361ZM223.095 578V572.545H227.385V578H226.547V573.327H223.933V578H223.095ZM231.131 578.114C230.639 578.114 230.207 577.996 229.835 577.762C229.466 577.528 229.177 577.2 228.969 576.778C228.763 576.357 228.66 575.865 228.66 575.301C228.66 574.733 228.763 574.237 228.969 573.813C229.177 573.389 229.466 573.06 229.835 572.826C230.207 572.592 230.639 572.474 231.131 572.474C231.624 572.474 232.055 572.592 232.424 572.826C232.796 573.06 233.085 573.389 233.29 573.813C233.499 574.237 233.603 574.733 233.603 575.301C233.603 575.865 233.499 576.357 233.29 576.778C233.085 577.2 232.796 577.528 232.424 577.762C232.055 577.996 231.624 578.114 231.131 578.114ZM231.131 577.361C231.505 577.361 231.813 577.265 232.055 577.073C232.296 576.881 232.475 576.629 232.591 576.317C232.707 576.004 232.765 575.666 232.765 575.301C232.765 574.937 232.707 574.597 232.591 574.282C232.475 573.967 232.296 573.713 232.055 573.518C231.813 573.324 231.505 573.227 231.131 573.227C230.757 573.227 230.45 573.324 230.208 573.518C229.967 573.713 229.788 573.967 229.672 574.282C229.556 574.597 229.498 574.937 229.498 575.301C229.498 575.666 229.556 576.004 229.672 576.317C229.788 576.629 229.967 576.881 230.208 577.073C230.45 577.265 230.757 577.361 231.131 577.361ZM234.882 572.545H235.72V577.219H237.78V572.545H238.618V577.219H240.678V572.545H241.516V578H234.882V572.545ZM242.563 578V577.219H242.762C242.926 577.219 243.062 577.187 243.171 577.123C243.28 577.057 243.367 576.942 243.433 576.778C243.502 576.613 243.554 576.383 243.59 576.089C243.628 575.794 243.655 575.417 243.671 574.96L243.771 572.545H247.407V578H246.569V573.327H244.566L244.481 575.273C244.462 575.72 244.422 576.114 244.36 576.455C244.301 576.794 244.21 577.078 244.087 577.308C243.966 577.537 243.805 577.71 243.604 577.826C243.403 577.942 243.151 578 242.847 578H242.563ZM251.161 578.114C250.668 578.114 250.236 577.996 249.865 577.762C249.495 577.528 249.206 577.2 248.998 576.778C248.792 576.357 248.689 575.865 248.689 575.301C248.689 574.733 248.792 574.237 248.998 573.813C249.206 573.389 249.495 573.06 249.865 572.826C250.236 572.592 250.668 572.474 251.161 572.474C251.653 572.474 252.084 572.592 252.453 572.826C252.825 573.06 253.114 573.389 253.32 573.813C253.528 574.237 253.632 574.733 253.632 575.301C253.632 575.865 253.528 576.357 253.32 576.778C253.114 577.2 252.825 577.528 252.453 577.762C252.084 577.996 251.653 578.114 251.161 578.114ZM251.161 577.361C251.535 577.361 251.843 577.265 252.084 577.073C252.325 576.881 252.504 576.629 252.62 576.317C252.736 576.004 252.794 575.666 252.794 575.301C252.794 574.937 252.736 574.597 252.62 574.282C252.504 573.967 252.325 573.713 252.084 573.518C251.843 573.324 251.535 573.227 251.161 573.227C250.787 573.227 250.479 573.324 250.237 573.518C249.996 573.713 249.817 573.967 249.701 574.282C249.585 574.597 249.527 574.937 249.527 575.301C249.527 575.666 249.585 576.004 249.701 576.317C249.817 576.629 249.996 576.881 250.237 577.073C250.479 577.265 250.787 577.361 251.161 577.361ZM261.375 574.889V575.67H258.363V574.889H261.375ZM258.562 572.545V578H257.724V572.545H258.562ZM262.014 572.545V578H261.176V572.545H262.014ZM265.831 578.114C265.306 578.114 264.852 577.998 264.471 577.766C264.092 577.531 263.8 577.205 263.594 576.786C263.391 576.364 263.289 575.874 263.289 575.315C263.289 574.757 263.391 574.264 263.594 573.838C263.8 573.41 264.087 573.076 264.453 572.837C264.823 572.595 265.254 572.474 265.746 572.474C266.03 572.474 266.311 572.522 266.588 572.616C266.865 572.711 267.117 572.865 267.344 573.078C267.571 573.289 267.752 573.568 267.887 573.916C268.022 574.264 268.09 574.693 268.09 575.202V575.557H263.885V574.832H267.238C267.238 574.525 267.176 574.25 267.053 574.009C266.932 573.767 266.759 573.576 266.534 573.437C266.312 573.297 266.049 573.227 265.746 573.227C265.412 573.227 265.123 573.31 264.88 573.476C264.638 573.639 264.452 573.852 264.322 574.115C264.192 574.378 264.127 574.66 264.127 574.96V575.443C264.127 575.855 264.198 576.204 264.34 576.491C264.484 576.775 264.684 576.991 264.94 577.141C265.196 577.287 265.493 577.361 265.831 577.361C266.051 577.361 266.25 577.33 266.428 577.268C266.608 577.205 266.763 577.11 266.893 576.984C267.023 576.857 267.124 576.698 267.195 576.509L268.005 576.736C267.919 577.01 267.776 577.252 267.575 577.46C267.374 577.666 267.125 577.827 266.829 577.943C266.533 578.057 266.201 578.114 265.831 578.114ZM271.865 573.327V572.545H276.297V573.327H274.507V578H273.669V573.327H271.865ZM278.841 578.128C278.495 578.128 278.182 578.063 277.9 577.933C277.618 577.8 277.394 577.609 277.229 577.361C277.063 577.11 276.98 576.807 276.98 576.452C276.98 576.139 277.042 575.886 277.165 575.692C277.288 575.495 277.452 575.341 277.658 575.23C277.864 575.119 278.092 575.036 278.34 574.982C278.591 574.925 278.843 574.88 279.097 574.847C279.428 574.804 279.697 574.772 279.903 574.751C280.111 574.727 280.263 574.688 280.357 574.634C280.454 574.579 280.503 574.484 280.503 574.349V574.321C280.503 573.971 280.407 573.698 280.215 573.504C280.026 573.31 279.738 573.213 279.352 573.213C278.952 573.213 278.638 573.301 278.411 573.476C278.184 573.651 278.024 573.838 277.932 574.037L277.136 573.753C277.278 573.421 277.468 573.163 277.705 572.979C277.944 572.792 278.204 572.661 278.486 572.588C278.77 572.512 279.049 572.474 279.324 572.474C279.499 572.474 279.7 572.496 279.928 572.538C280.157 572.579 280.379 572.663 280.592 572.79C280.807 572.918 280.986 573.111 281.128 573.369C281.27 573.627 281.341 573.973 281.341 574.406V578H280.503V577.261H280.46C280.403 577.38 280.309 577.506 280.176 577.641C280.044 577.776 279.867 577.891 279.647 577.986C279.427 578.08 279.158 578.128 278.841 578.128ZM278.969 577.375C279.3 577.375 279.58 577.31 279.807 577.18C280.036 577.049 280.209 576.881 280.325 576.675C280.444 576.469 280.503 576.253 280.503 576.026V575.259C280.467 575.301 280.389 575.34 280.268 575.376C280.15 575.409 280.013 575.438 279.857 575.464C279.703 575.488 279.552 575.509 279.406 575.528C279.261 575.545 279.144 575.559 279.054 575.571C278.836 575.599 278.633 575.646 278.443 575.71C278.256 575.771 278.105 575.865 277.989 575.99C277.875 576.113 277.818 576.281 277.818 576.494C277.818 576.786 277.926 577.006 278.141 577.155C278.359 577.302 278.635 577.375 278.969 577.375ZM282.871 578V572.545H283.709V574.918H284.263L286.223 572.545H287.302L285.101 575.173L287.331 578H286.251L284.461 575.699H283.709V578H282.871ZM288.852 578.057C288.677 578.057 288.527 577.994 288.401 577.869C288.276 577.743 288.213 577.593 288.213 577.418C288.213 577.242 288.276 577.092 288.401 576.967C288.527 576.841 288.677 576.778 288.852 576.778C289.028 576.778 289.178 576.841 289.303 576.967C289.429 577.092 289.492 577.242 289.492 577.418C289.492 577.534 289.462 577.64 289.403 577.737C289.346 577.834 289.269 577.912 289.172 577.972C289.077 578.028 288.971 578.057 288.852 578.057ZM291.606 578.057C291.431 578.057 291.281 577.994 291.155 577.869C291.03 577.743 290.967 577.593 290.967 577.418C290.967 577.242 291.03 577.092 291.155 576.967C291.281 576.841 291.431 576.778 291.606 576.778C291.782 576.778 291.932 576.841 292.057 576.967C292.183 577.092 292.246 577.242 292.246 577.418C292.246 577.534 292.216 577.64 292.157 577.737C292.1 577.834 292.023 577.912 291.926 577.972C291.831 578.028 291.725 578.057 291.606 578.057ZM294.36 578.057C294.185 578.057 294.035 577.994 293.909 577.869C293.784 577.743 293.721 577.593 293.721 577.418C293.721 577.242 293.784 577.092 293.909 576.967C294.035 576.841 294.185 576.778 294.36 576.778C294.535 576.778 294.686 576.841 294.811 576.967C294.937 577.092 294.999 577.242 294.999 577.418C294.999 577.534 294.97 577.64 294.911 577.737C294.854 577.834 294.777 577.912 294.68 577.972C294.585 578.028 294.479 578.057 294.36 578.057Z" fill="#EE3465"/>
<rect x="186" y="714" width="396" height="45" rx="3" fill="#3456F3"/>
<path d="M315.022 741.139C317.1 741.139 318.627 739.896 318.622 738.206C318.627 736.918 317.846 735.994 316.494 735.785V735.705C317.558 735.432 318.249 734.597 318.244 733.453C318.249 731.957 317.021 730.679 315.062 730.679C313.193 730.679 311.691 731.808 311.642 733.463H313.128C313.163 732.528 314.043 731.962 315.042 731.962C316.081 731.962 316.762 732.593 316.757 733.533C316.762 734.517 315.972 735.163 314.843 735.163H313.983V736.416H314.843C316.255 736.416 317.07 737.132 317.07 738.156C317.07 739.146 316.21 739.817 315.012 739.817C313.909 739.817 313.048 739.25 312.989 738.345H311.428C311.492 740.006 312.964 741.139 315.022 741.139ZM322.743 741.169C324.006 741.169 324.717 740.528 325 739.956H325.06V741H326.512V735.929C326.512 733.707 324.762 733.264 323.548 733.264C322.166 733.264 320.894 733.821 320.396 735.213L321.794 735.531C322.012 734.989 322.569 734.467 323.568 734.467C324.528 734.467 325.02 734.969 325.02 735.835V735.869C325.02 736.411 324.463 736.401 323.091 736.56C321.644 736.729 320.163 737.107 320.163 738.842C320.163 740.344 321.291 741.169 322.743 741.169ZM323.066 739.976C322.226 739.976 321.619 739.598 321.619 738.862C321.619 738.067 322.325 737.783 323.186 737.669C323.668 737.604 324.811 737.475 325.025 737.261V738.246C325.025 739.151 324.304 739.976 323.066 739.976ZM328.491 743.864H329.978V739.812H330.067C330.336 740.299 330.883 741.149 332.275 741.149C334.124 741.149 335.467 739.668 335.467 737.197C335.467 734.721 334.104 733.264 332.26 733.264C330.843 733.264 330.331 734.129 330.067 734.602H329.943V733.364H328.491V743.864ZM329.948 737.182C329.948 735.586 330.644 734.527 331.942 734.527C333.289 734.527 333.965 735.665 333.965 737.182C333.965 738.713 333.269 739.881 331.942 739.881C330.664 739.881 329.948 738.788 329.948 737.182ZM340.423 741.154C342.089 741.154 343.267 740.334 343.605 739.091L342.198 738.837C341.93 739.558 341.283 739.926 340.438 739.926C339.165 739.926 338.31 739.101 338.271 737.629H343.7V737.102C343.7 734.343 342.049 733.264 340.319 733.264C338.191 733.264 336.789 734.885 336.789 737.232C336.789 739.603 338.171 741.154 340.423 741.154ZM338.276 736.516C338.335 735.432 339.121 734.492 340.329 734.492C341.482 734.492 342.238 735.347 342.243 736.516H338.276ZM350.231 733.364H345.349V741H346.816V734.646H350.231V733.364ZM353.259 738.917V733.364H351.802V741H353.418L356.769 735.442V741H358.225V733.364H356.624L353.259 738.917ZM363.441 741.154C365.245 741.154 366.414 740.07 366.578 738.584H365.131C364.942 739.409 364.301 739.896 363.45 739.896C362.193 739.896 361.382 738.847 361.382 737.182C361.382 735.546 362.208 734.517 363.45 734.517C364.395 734.517 364.972 735.114 365.131 735.83H366.578C366.419 734.288 365.161 733.264 363.426 733.264C361.273 733.264 359.881 734.885 359.881 737.217C359.881 739.518 361.223 741.154 363.441 741.154ZM367.589 734.646H370.09V741H371.542V734.646H374.032V733.364H367.589V734.646ZM375.605 743.864H377.091V739.812H377.181C377.449 740.299 377.996 741.149 379.388 741.149C381.238 741.149 382.58 739.668 382.58 737.197C382.58 734.721 381.218 733.264 379.373 733.264C377.956 733.264 377.444 734.129 377.181 734.602H377.056V733.364H375.605V743.864ZM377.061 737.182C377.061 735.586 377.757 734.527 379.055 734.527C380.402 734.527 381.078 735.665 381.078 737.182C381.078 738.713 380.382 739.881 379.055 739.881C377.777 739.881 377.061 738.788 377.061 737.182ZM385.702 738.917V733.364H384.245V741H385.861L389.212 735.442V741H390.669V733.364H389.068L385.702 738.917ZM392.667 743.864H394.154V739.812H394.243C394.512 740.299 395.059 741.149 396.451 741.149C398.3 741.149 399.642 739.668 399.642 737.197C399.642 734.721 398.28 733.264 396.436 733.264C395.019 733.264 394.507 734.129 394.243 734.602H394.119V733.364H392.667V743.864ZM394.124 737.182C394.124 735.586 394.82 734.527 396.118 734.527C397.465 734.527 398.141 735.665 398.141 737.182C398.141 738.713 397.445 739.881 396.118 739.881C394.84 739.881 394.124 738.788 394.124 737.182ZM404.525 741.154C406.677 741.154 408.084 739.578 408.084 737.217C408.084 734.84 406.677 733.264 404.525 733.264C402.372 733.264 400.965 734.84 400.965 737.217C400.965 739.578 402.372 741.154 404.525 741.154ZM404.529 739.906C403.123 739.906 402.466 738.678 402.466 737.212C402.466 735.75 403.123 734.507 404.529 734.507C405.926 734.507 406.583 735.75 406.583 737.212C406.583 738.678 405.926 739.906 404.529 739.906ZM409.743 741H413.393C415.063 741 416.042 740.155 416.042 738.942C416.042 737.808 415.172 737.112 414.153 736.993C415.093 736.814 415.714 736.297 415.714 735.402C415.714 734.149 414.631 733.364 412.91 733.364H409.743V741ZM411.14 739.757V737.634H413.393C414.128 737.634 414.571 738.067 414.571 738.778C414.571 739.384 414.128 739.757 413.393 739.757H411.14ZM411.14 736.545V734.621H412.91C413.756 734.621 414.268 734.974 414.268 735.561C414.268 736.173 413.76 736.545 412.925 736.545H411.14ZM419.895 741.169C421.158 741.169 421.869 740.528 422.153 739.956H422.212V741H423.664V735.929C423.664 733.707 421.914 733.264 420.701 733.264C419.319 733.264 418.046 733.821 417.549 735.213L418.946 735.531C419.165 734.989 419.721 734.467 420.721 734.467C421.68 734.467 422.172 734.969 422.172 735.835V735.869C422.172 736.411 421.616 736.401 420.243 736.56C418.797 736.729 417.315 737.107 417.315 738.842C417.315 740.344 418.444 741.169 419.895 741.169ZM420.219 739.976C419.378 739.976 418.772 739.598 418.772 738.862C418.772 738.067 419.478 737.783 420.338 737.669C420.82 737.604 421.964 737.475 422.177 737.261V738.246C422.177 739.151 421.456 739.976 420.219 739.976ZM424.697 734.646H427.197V741H428.649V734.646H431.14V733.364H424.697V734.646ZM434.169 735.989V733.364H432.712V741H436.048C437.917 741 438.961 739.916 438.961 738.479C438.961 737.013 437.917 735.989 436.048 735.989H434.169ZM434.169 737.271H436.048C436.903 737.271 437.515 737.788 437.515 738.524C437.515 739.22 436.903 739.717 436.048 739.717H434.169V737.271ZM443.845 741.154C445.65 741.154 446.818 740.07 446.982 738.584H445.535C445.346 739.409 444.705 739.896 443.855 739.896C442.597 739.896 441.787 738.847 441.787 737.182C441.787 735.546 442.612 734.517 443.855 734.517C444.799 734.517 445.376 735.114 445.535 735.83H446.982C446.823 734.288 445.565 733.264 443.83 733.264C441.677 733.264 440.285 734.885 440.285 737.217C440.285 739.518 441.627 741.154 443.845 741.154ZM453.126 741H454.523V733.364H451.296C449.536 733.364 448.462 734.273 448.462 735.71C448.462 736.714 448.989 737.455 449.899 737.798L448.114 741H449.635L451.301 738.012H453.126V741ZM453.126 736.809H451.197C450.386 736.809 449.914 736.381 449.919 735.73C449.914 735.074 450.426 734.631 451.296 734.631H453.126V736.809Z" fill="white"/>
<path d="M276.894 789.139H277.55C279.101 789.139 279.559 788.304 279.976 787.349L283.496 778.818H282.184L279.618 785.142L276.814 778.818H275.482L279.002 786.614L278.843 786.991C278.624 787.489 278.266 787.986 277.53 787.986H276.894V789.139ZM284.457 789H285.869L288.474 785.719H289.071V789H290.244V785.719H290.84L293.426 789H294.838L291.755 785.122L294.798 781.364H293.406L290.86 784.625H290.244V781.364H289.071V784.625H288.434L285.889 781.364H284.497L287.559 785.122L284.457 789ZM299.402 789.159C300.953 789.159 302.086 788.384 302.444 787.23L301.311 786.912C301.012 787.707 300.321 788.105 299.402 788.105C298.024 788.105 297.075 787.215 297.02 785.58H302.563V785.082C302.563 782.239 300.873 781.264 299.282 781.264C297.214 781.264 295.842 782.895 295.842 785.241C295.842 787.588 297.194 789.159 299.402 789.159ZM297.02 784.565C297.1 783.377 297.94 782.318 299.282 782.318C300.555 782.318 301.37 783.273 301.37 784.565H297.02ZM307.809 787.051C307.848 788.304 309.046 789.159 310.672 789.159C312.343 789.159 313.556 788.264 313.556 786.872C313.556 785.918 312.984 785.142 312.124 785.082V785.003C312.85 784.779 313.397 784.252 313.397 783.392C313.397 782.184 312.362 781.264 310.752 781.264C309.161 781.264 308.027 782.139 307.987 783.372H309.22C309.255 782.741 309.916 782.298 310.811 782.298C311.701 782.298 312.203 782.751 312.203 783.432C312.203 784.068 311.766 784.545 310.831 784.545H309.519V785.599H310.831C311.766 785.599 312.362 786.112 312.362 786.872C312.362 787.742 311.592 788.105 310.652 788.105C309.733 788.105 309.116 787.742 309.061 787.051H307.809ZM317.451 789.179C318.783 789.179 319.479 788.463 319.718 787.966H319.778V789H320.951V783.969C320.951 781.543 319.101 781.264 318.127 781.264C316.974 781.264 315.661 781.662 315.065 783.054L316.178 783.452C316.437 782.895 317.048 782.298 318.167 782.298C319.246 782.298 319.778 782.87 319.778 783.849V783.889C319.778 784.456 319.201 784.406 317.809 784.585C316.392 784.769 314.846 785.082 314.846 786.832C314.846 788.324 315.999 789.179 317.451 789.179ZM317.63 788.125C316.695 788.125 316.019 787.707 316.019 786.892C316.019 785.997 316.834 785.719 317.749 785.599C318.246 785.54 319.579 785.401 319.778 785.162V786.236C319.778 787.19 319.022 788.125 317.63 788.125ZM323.092 791.864H324.266V787.827H324.365C324.624 788.244 325.121 789.159 326.592 789.159C328.502 789.159 329.834 787.628 329.834 785.202C329.834 782.795 328.502 781.264 326.573 781.264C325.081 781.264 324.624 782.179 324.365 782.577H324.226V781.364H323.092V791.864ZM324.246 785.182C324.246 783.472 325.002 782.318 326.433 782.318C327.925 782.318 328.661 783.571 328.661 785.182C328.661 786.812 327.905 788.105 326.433 788.105C325.021 788.105 324.246 786.912 324.246 785.182ZM334.825 789.159C336.377 789.159 337.51 788.384 337.868 787.23L336.734 786.912C336.436 787.707 335.745 788.105 334.825 788.105C333.448 788.105 332.499 787.215 332.444 785.58H337.987V785.082C337.987 782.239 336.297 781.264 334.706 781.264C332.638 781.264 331.266 782.895 331.266 785.241C331.266 787.588 332.618 789.159 334.825 789.159ZM332.444 784.565C332.524 783.377 333.364 782.318 334.706 782.318C335.979 782.318 336.794 783.273 336.794 784.565H332.444ZM344.485 781.364H339.772V789H340.945V782.457H344.485V781.364ZM347.371 787.27V781.364H346.198V789H347.57L351.229 783.094V789H352.402V781.364H351.05L347.371 787.27ZM357.654 789.159C359.344 789.159 360.458 788.125 360.657 786.773H359.483C359.264 787.608 358.568 788.105 357.654 788.105C356.262 788.105 355.367 786.952 355.367 785.182C355.367 783.452 356.282 782.318 357.654 782.318C358.688 782.318 359.304 782.955 359.483 783.651H360.657C360.458 782.219 359.245 781.264 357.634 781.264C355.566 781.264 354.193 782.895 354.193 785.222C354.193 787.509 355.506 789.159 357.654 789.159ZM361.77 782.457H364.296V789H365.469V782.457H367.975V781.364H361.77V782.457ZM369.686 791.864H370.859V787.827H370.959C371.217 788.244 371.715 789.159 373.186 789.159C375.095 789.159 376.428 787.628 376.428 785.202C376.428 782.795 375.095 781.264 373.166 781.264C371.675 781.264 371.217 782.179 370.959 782.577H370.82V781.364H369.686V791.864ZM370.84 785.182C370.84 783.472 371.595 782.318 373.027 782.318C374.519 782.318 375.254 783.571 375.254 785.182C375.254 786.812 374.499 788.105 373.027 788.105C371.615 788.105 370.84 786.912 370.84 785.182ZM379.391 787.27V781.364H378.217V789H379.59L383.249 783.094V789H384.422V781.364H383.07L379.391 787.27ZM386.571 791.864H387.744V787.827H387.844C388.102 788.244 388.599 789.159 390.071 789.159C391.98 789.159 393.312 787.628 393.312 785.202C393.312 782.795 391.98 781.264 390.051 781.264C388.56 781.264 388.102 782.179 387.844 782.577H387.704V781.364H386.571V791.864ZM387.724 785.182C387.724 783.472 388.48 782.318 389.912 782.318C391.403 782.318 392.139 783.571 392.139 785.182C392.139 786.812 391.383 788.105 389.912 788.105C388.5 788.105 387.724 786.912 387.724 785.182ZM398.204 789.159C400.273 789.159 401.665 787.588 401.665 785.222C401.665 782.835 400.273 781.264 398.204 781.264C396.136 781.264 394.744 782.835 394.744 785.222C394.744 787.588 396.136 789.159 398.204 789.159ZM398.204 788.105C396.633 788.105 395.918 786.753 395.918 785.222C395.918 783.69 396.633 782.318 398.204 782.318C399.775 782.318 400.491 783.69 400.491 785.222C400.491 786.753 399.775 788.105 398.204 788.105ZM403.456 789H407.055C408.606 789 409.541 788.125 409.541 786.952C409.541 785.754 408.631 785.107 407.791 784.983C408.651 784.804 409.263 784.322 409.263 783.392C409.263 782.174 408.218 781.364 406.578 781.364H403.456V789ZM404.569 787.926V785.58H407.055C407.861 785.58 408.348 786.062 408.348 786.852C408.348 787.518 407.861 787.926 407.055 787.926H404.569ZM404.569 784.565V782.438H406.578C407.517 782.438 408.089 782.83 408.089 783.472C408.089 784.153 407.517 784.565 406.578 784.565H404.569ZM413.564 789.179C414.897 789.179 415.593 788.463 415.831 787.966H415.891V789H417.064V783.969C417.064 781.543 415.215 781.264 414.24 781.264C413.087 781.264 411.774 781.662 411.178 783.054L412.291 783.452C412.55 782.895 413.161 782.298 414.28 782.298C415.359 782.298 415.891 782.87 415.891 783.849V783.889C415.891 784.456 415.314 784.406 413.922 784.585C412.505 784.769 410.959 785.082 410.959 786.832C410.959 788.324 412.112 789.179 413.564 789.179ZM413.743 788.125C412.809 788.125 412.132 787.707 412.132 786.892C412.132 785.997 412.948 785.719 413.862 785.599C414.36 785.54 415.692 785.401 415.891 785.162V786.236C415.891 787.19 415.135 788.125 413.743 788.125ZM420.379 781.364H419.206V789H420.379V785.739H424.038V789H425.211V781.364H424.038V784.645H420.379V781.364ZM428.527 784.128V781.364H427.354V789H430.556C432.346 789 433.32 787.906 433.32 786.534C433.32 785.142 432.346 784.128 430.556 784.128H428.527ZM434.533 789H435.706V781.364H434.533V789ZM428.527 785.222H430.556C431.486 785.222 432.147 785.788 432.147 786.594C432.147 787.364 431.486 787.906 430.556 787.906H428.527V785.222ZM439.385 786.136H440.579V786.077C440.598 784.844 440.917 784.307 441.792 783.76C442.667 783.228 443.184 782.462 443.184 781.364C443.184 779.812 442.05 778.679 440.3 778.679C438.689 778.679 437.412 779.673 437.337 781.364H438.59C438.665 780.19 439.485 779.713 440.3 779.713C441.235 779.713 441.991 780.33 441.991 781.304C441.991 782.094 441.538 782.661 440.956 783.014C439.982 783.606 439.4 784.183 439.385 786.077V786.136ZM440.022 789.08C440.514 789.08 440.917 788.677 440.917 788.185C440.917 787.692 440.514 787.29 440.022 787.29C439.53 787.29 439.127 787.692 439.127 788.185C439.127 788.677 439.53 789.08 440.022 789.08Z" fill="#A0A0A0"/>
<path d="M451.711 789H455.39C457.797 789 458.791 787.827 458.791 786.295C458.791 784.685 457.677 783.81 456.743 783.75V783.651C457.618 783.412 458.393 782.835 458.393 781.523C458.393 780.031 457.399 778.818 455.271 778.818H451.711V789ZM452.944 787.906V784.366H455.45C456.782 784.366 457.618 785.261 457.618 786.295C457.618 787.19 457.001 787.906 455.39 787.906H452.944ZM452.944 783.293V779.912H455.271C456.623 779.912 457.22 780.628 457.22 781.523C457.22 782.597 456.345 783.293 455.231 783.293H452.944ZM463.76 789.159C465.828 789.159 467.22 787.588 467.22 785.222C467.22 782.835 465.828 781.264 463.76 781.264C461.692 781.264 460.3 782.835 460.3 785.222C460.3 787.588 461.692 789.159 463.76 789.159ZM463.76 788.105C462.189 788.105 461.473 786.753 461.473 785.222C461.473 783.69 462.189 782.318 463.76 782.318C465.331 782.318 466.047 783.69 466.047 785.222C466.047 786.753 465.331 788.105 463.76 788.105ZM470.185 787.27V781.364H469.011V789H470.384L474.043 783.094V789H475.216V781.364H473.864L470.185 787.27ZM473.088 778.818C473.088 779.335 472.81 779.793 472.114 779.793C471.418 779.793 471.159 779.335 471.159 778.818H470.065C470.065 779.892 470.861 780.648 472.114 780.648C473.386 780.648 474.182 779.892 474.182 778.818H473.088ZM476.326 782.457H478.851V789H480.025V782.457H482.53V781.364H476.326V782.457ZM485.415 787.27V781.364H484.242V789H485.614L489.273 783.094V789H490.446V781.364H489.094L485.415 787.27Z" fill="#3456F3"/>
</g>
<defs>
<clipPath id="clip0_1_2161">
<rect width="768" height="1024" fill="white"/>
</clipPath>
</defs>
</svg>
