<svg width="768" height="1024" viewBox="0 0 768 1024" fill="none" xmlns="http://www.w3.org/2000/svg">
<g clip-path="url(#clip0_1_2202)">
<rect width="768" height="1024" fill="#FAFAFA"/>
<path d="M309.718 589C309.286 586.614 307.377 585.205 305.036 585.205C302.059 585.205 299.9 587.5 299.9 591.182C299.9 594.864 302.059 597.159 305.036 597.159C307.377 597.159 309.286 595.75 309.718 593.364H308.309C307.968 594.977 306.582 595.841 305.036 595.841C302.923 595.841 301.263 594.205 301.263 591.182C301.263 588.159 302.923 586.523 305.036 586.523C306.582 586.523 307.968 587.386 308.309 589H309.718ZM311.313 589.523H314.2V597H315.54V589.523H318.404V588.273H311.313V589.523ZM320.36 600.273H321.701V595.659H321.815C322.11 596.136 322.678 597.182 324.36 597.182C326.542 597.182 328.065 595.432 328.065 592.659C328.065 589.909 326.542 588.159 324.337 588.159C322.633 588.159 322.11 589.205 321.815 589.659H321.656V588.273H320.36V600.273ZM321.678 592.636C321.678 590.682 322.542 589.364 324.178 589.364C325.883 589.364 326.724 590.795 326.724 592.636C326.724 594.5 325.86 595.977 324.178 595.977C322.565 595.977 321.678 594.614 321.678 592.636ZM332.678 597.205C334.201 597.205 334.996 596.386 335.269 595.818H335.337V597H336.678V591.25C336.678 588.477 334.565 588.159 333.451 588.159C332.133 588.159 330.633 588.614 329.951 590.205L331.224 590.659C331.519 590.023 332.218 589.341 333.496 589.341C334.729 589.341 335.337 589.994 335.337 591.114V591.159C335.337 591.807 334.678 591.75 333.087 591.955C331.468 592.165 329.701 592.523 329.701 594.523C329.701 596.227 331.019 597.205 332.678 597.205ZM332.883 596C331.815 596 331.042 595.523 331.042 594.591C331.042 593.568 331.974 593.25 333.019 593.114C333.587 593.045 335.11 592.886 335.337 592.614V593.841C335.337 594.932 334.474 596 332.883 596ZM340.467 588.273H339.126V597H340.467V593.273H344.648V597H345.989V588.273H344.648V592.023H340.467V588.273ZM349.779 595.023V588.273H348.438V597H350.006L354.188 590.25V597H355.529V588.273H353.984L349.779 595.023ZM364.849 588.273H363.508V595.75H359.326V588.273H357.985V597H364.849V599.818H366.19V595.75H364.849V588.273ZM370.71 597.205C372.232 597.205 373.028 596.386 373.3 595.818H373.369V597H374.71V591.25C374.71 588.477 372.596 588.159 371.482 588.159C370.164 588.159 368.664 588.614 367.982 590.205L369.255 590.659C369.55 590.023 370.249 589.341 371.528 589.341C372.761 589.341 373.369 589.994 373.369 591.114V591.159C373.369 591.807 372.71 591.75 371.119 591.955C369.499 592.165 367.732 592.523 367.732 594.523C367.732 596.227 369.05 597.205 370.71 597.205ZM370.914 596C369.846 596 369.073 595.523 369.073 594.591C369.073 593.568 370.005 593.25 371.05 593.114C371.619 593.045 373.141 592.886 373.369 592.614V593.841C373.369 594.932 372.505 596 370.914 596ZM382.998 588.273H381.657V597H382.998V593.273H387.18V597H388.521V588.273H387.18V592.023H382.998V588.273ZM394.629 597.182C396.401 597.182 397.697 596.295 398.106 594.977L396.81 594.614C396.469 595.523 395.68 595.977 394.629 595.977C393.055 595.977 391.969 594.96 391.907 593.091H398.242V592.523C398.242 589.273 396.31 588.159 394.492 588.159C392.129 588.159 390.56 590.023 390.56 592.705C390.56 595.386 392.106 597.182 394.629 597.182ZM391.907 591.932C391.998 590.574 392.958 589.364 394.492 589.364C395.947 589.364 396.879 590.455 396.879 591.932H391.907ZM406.123 588.273H404.782V597H406.123V593.273H410.305V597H411.646V588.273H410.305V592.023H406.123V588.273ZM416.663 597.205C418.185 597.205 418.981 596.386 419.254 595.818H419.322V597H420.663V591.25C420.663 588.477 418.549 588.159 417.435 588.159C416.117 588.159 414.617 588.614 413.935 590.205L415.208 590.659C415.504 590.023 416.202 589.341 417.481 589.341C418.714 589.341 419.322 589.994 419.322 591.114V591.159C419.322 591.807 418.663 591.75 417.072 591.955C415.452 592.165 413.685 592.523 413.685 594.523C413.685 596.227 415.004 597.205 416.663 597.205ZM416.867 596C415.799 596 415.026 595.523 415.026 594.591C415.026 593.568 415.958 593.25 417.004 593.114C417.572 593.045 419.094 592.886 419.322 592.614V593.841C419.322 594.932 418.458 596 416.867 596ZM424.451 595.023V588.273H423.11V597H424.678L428.86 590.25V597H430.201V588.273H428.656L424.451 595.023ZM427.769 585.364C427.769 585.955 427.451 586.477 426.656 586.477C425.86 586.477 425.565 585.955 425.565 585.364H424.315C424.315 586.591 425.224 587.455 426.656 587.455C428.11 587.455 429.019 586.591 429.019 585.364H427.769ZM431.725 599.5H433.066V597H439.521V599.5H440.862V595.75H439.521V588.273H433.975L433.68 591.727C433.469 594.17 433.157 595.011 432.452 595.75H431.725V599.5ZM433.975 595.75C434.589 594.943 434.81 593.551 434.998 591.727L435.225 589.523H438.18V595.75H433.975ZM446.3 597.182C448.073 597.182 449.369 596.295 449.778 594.977L448.482 594.614C448.141 595.523 447.352 595.977 446.3 595.977C444.727 595.977 443.641 594.96 443.579 593.091H449.914V592.523C449.914 589.273 447.982 588.159 446.164 588.159C443.8 588.159 442.232 590.023 442.232 592.705C442.232 595.386 443.778 597.182 446.3 597.182ZM443.579 591.932C443.67 590.574 444.63 589.364 446.164 589.364C447.619 589.364 448.55 590.455 448.55 591.932H443.579ZM453.295 588.273H451.954V597H453.295V593.273H457.477V597H458.817V588.273H457.477V592.023H453.295V588.273ZM463.835 597.205C465.357 597.205 466.153 596.386 466.425 595.818H466.494V597H467.835V591.25C467.835 588.477 465.721 588.159 464.607 588.159C463.289 588.159 461.789 588.614 461.107 590.205L462.38 590.659C462.675 590.023 463.374 589.341 464.653 589.341C465.886 589.341 466.494 589.994 466.494 591.114V591.159C466.494 591.807 465.835 591.75 464.244 591.955C462.624 592.165 460.857 592.523 460.857 594.523C460.857 596.227 462.175 597.205 463.835 597.205ZM464.039 596C462.971 596 462.198 595.523 462.198 594.591C462.198 593.568 463.13 593.25 464.175 593.114C464.744 593.045 466.266 592.886 466.494 592.614V593.841C466.494 594.932 465.63 596 464.039 596Z" fill="black"/>
<path d="M258.579 522.119H306.505V543H318.238V522.119H332.159V511.182H318.238V441.182H303.324L258.579 511.977V522.119ZM306.505 511.182H271.903V510.386L305.71 456.892H306.505V511.182ZM384 544.392C406.472 544.392 419.398 525.351 419.398 492.091C419.398 459.08 406.273 439.79 384 439.79C361.727 439.79 348.602 459.08 348.602 492.091C348.602 525.351 361.528 544.392 384 544.392ZM384 533.455C369.185 533.455 360.534 518.589 360.534 492.091C360.534 465.642 369.284 450.528 384 450.528C398.716 450.528 407.466 465.642 407.466 492.091C407.466 518.589 398.815 533.455 384 533.455ZM435.903 522.119H483.83V543H495.562V522.119H509.483V511.182H495.562V441.182H480.648L435.903 511.977V522.119ZM483.83 511.182H449.227V510.386L483.034 456.892H483.83V511.182Z" fill="black"/>
<path d="M364.335 799H365.568V794.446H370.997V799H372.23V788.818H370.997V793.352H365.568V788.818H364.335V799ZM376.787 799.179C378.119 799.179 378.815 798.463 379.054 797.966H379.114V799H380.287V793.969C380.287 791.543 378.437 791.264 377.463 791.264C376.31 791.264 374.997 791.662 374.4 793.054L375.514 793.452C375.773 792.895 376.384 792.298 377.503 792.298C378.582 792.298 379.114 792.87 379.114 793.849V793.889C379.114 794.456 378.537 794.406 377.145 794.585C375.728 794.769 374.182 795.082 374.182 796.832C374.182 798.324 375.335 799.179 376.787 799.179ZM376.966 798.125C376.031 798.125 375.355 797.707 375.355 796.892C375.355 795.997 376.17 795.719 377.085 795.599C377.582 795.54 378.915 795.401 379.114 795.162V796.236C379.114 797.19 378.358 798.125 376.966 798.125ZM381.951 797.051C381.991 798.304 383.189 799.159 384.815 799.159C386.485 799.159 387.698 798.264 387.698 796.872C387.698 795.918 387.127 795.142 386.266 795.082V795.003C386.992 794.779 387.539 794.252 387.539 793.392C387.539 792.184 386.505 791.264 384.894 791.264C383.303 791.264 382.17 792.139 382.13 793.372H383.363C383.398 792.741 384.059 792.298 384.954 792.298C385.844 792.298 386.346 792.751 386.346 793.432C386.346 794.068 385.908 794.545 384.974 794.545H383.661V795.599H384.974C385.908 795.599 386.505 796.112 386.505 796.872C386.505 797.742 385.734 798.105 384.795 798.105C383.875 798.105 383.259 797.742 383.204 797.051H381.951ZM391.593 799.179C392.926 799.179 393.622 798.463 393.861 797.966H393.92V799H395.093V793.969C395.093 791.543 393.244 791.264 392.27 791.264C391.116 791.264 389.804 791.662 389.207 793.054L390.321 793.452C390.579 792.895 391.191 792.298 392.309 792.298C393.388 792.298 393.92 792.87 393.92 793.849V793.889C393.92 794.456 393.343 794.406 391.951 794.585C390.535 794.769 388.988 795.082 388.988 796.832C388.988 798.324 390.142 799.179 391.593 799.179ZM391.772 798.125C390.838 798.125 390.162 797.707 390.162 796.892C390.162 795.997 390.977 795.719 391.892 795.599C392.389 795.54 393.721 795.401 393.92 795.162V796.236C393.92 797.19 393.165 798.125 391.772 798.125ZM396.42 801.188H397.593V799H403.241V801.188H404.414V797.906H403.241V791.364H398.388L398.13 794.386C397.946 796.524 397.672 797.26 397.056 797.906H396.42V801.188ZM398.388 797.906C398.925 797.2 399.119 795.982 399.283 794.386L399.482 792.457H402.067V797.906H398.388Z" fill="#3456F3"/>
</g>
<defs>
<clipPath id="clip0_1_2202">
<rect width="768" height="1024" fill="white"/>
</clipPath>
</defs>
</svg>
