<svg width="768" height="1024" viewBox="0 0 768 1024" fill="none" xmlns="http://www.w3.org/2000/svg">
<g clip-path="url(#clip0_1_2184)">
<rect width="768" height="1024" fill="#FAFAFA"/>
<path d="M187.918 333H190.551V326.864H194.131C198.179 326.864 200.182 324.418 200.182 321.196C200.182 317.983 198.196 315.545 194.139 315.545H187.918V333ZM190.551 324.631V317.804H193.858C196.466 317.804 197.531 319.219 197.531 321.196C197.531 323.173 196.466 324.631 193.892 324.631H190.551ZM206.757 333.29C208.922 333.29 210.141 332.19 210.626 331.21H210.729V333H213.217V324.307C213.217 320.497 210.217 319.739 208.138 319.739C205.768 319.739 203.587 320.693 202.734 323.08L205.129 323.625C205.504 322.696 206.459 321.801 208.172 321.801C209.817 321.801 210.661 322.662 210.661 324.145V324.205C210.661 325.134 209.706 325.116 207.354 325.389C204.874 325.679 202.334 326.327 202.334 329.301C202.334 331.875 204.268 333.29 206.757 333.29ZM207.311 331.244C205.871 331.244 204.831 330.597 204.831 329.335C204.831 327.972 206.041 327.486 207.516 327.29C208.342 327.179 210.303 326.957 210.669 326.591V328.278C210.669 329.83 209.433 331.244 207.311 331.244ZM215.333 336.776H217.856V333H226.984V336.776H229.472V330.793H227.461V319.909H218.563L218.154 324.793C217.881 328.091 217.481 329.812 216.398 330.793H215.333V336.776ZM219.126 330.793C219.995 329.574 220.319 327.545 220.575 324.793L220.847 322.091H224.972V330.793H219.126ZM234.46 324.409V319.909H231.963V333H237.682C240.886 333 242.676 331.142 242.676 328.679C242.676 326.165 240.886 324.409 237.682 324.409H234.46ZM244.534 333H247.082V319.909H244.534V333ZM234.46 326.608H237.682C239.148 326.608 240.196 327.494 240.196 328.756C240.196 329.949 239.148 330.801 237.682 330.801H234.46V326.608ZM256.854 333H263.109C265.973 333 267.652 331.551 267.652 329.472C267.652 327.528 266.161 326.335 264.413 326.131C266.024 325.824 267.089 324.938 267.089 323.403C267.089 321.256 265.232 319.909 262.283 319.909H256.854V333ZM259.249 330.869V327.23H263.109C264.371 327.23 265.129 327.972 265.129 329.19C265.129 330.23 264.371 330.869 263.109 330.869H259.249ZM259.249 325.364V322.065H262.283C263.732 322.065 264.609 322.67 264.609 323.676C264.609 324.724 263.74 325.364 262.308 325.364H259.249ZM272.945 329.429V319.909H270.447V333H273.217L278.962 323.472V333H281.459V319.909H278.714L272.945 329.429ZM283.607 336.776H286.129V333H295.257V336.776H297.746V330.793H295.734V319.909H286.837L286.428 324.793C286.155 328.091 285.754 329.812 284.672 330.793H283.607V336.776ZM287.399 330.793C288.268 329.574 288.592 327.545 288.848 324.793L289.121 322.091H293.246V330.793H287.399ZM305.879 333.264C308.734 333.264 310.754 331.858 311.333 329.727L308.921 329.293C308.461 330.528 307.353 331.159 305.904 331.159C303.722 331.159 302.256 329.744 302.188 327.222H311.495V326.318C311.495 321.588 308.665 319.739 305.7 319.739C302.052 319.739 299.648 322.517 299.648 326.54C299.648 330.605 302.018 333.264 305.879 333.264ZM302.197 325.312C302.299 323.455 303.646 321.844 305.717 321.844C307.694 321.844 308.989 323.31 308.998 325.312H302.197ZM313.168 322.108H317.455V333H319.943V322.108H324.213V319.909H313.168V322.108ZM329.406 324.409V319.909H326.908V333H332.627C335.832 333 337.621 331.142 337.621 328.679C337.621 326.165 335.832 324.409 332.627 324.409H329.406ZM329.406 326.608H332.627C334.093 326.608 335.141 327.494 335.141 328.756C335.141 329.949 334.093 330.801 332.627 330.801H329.406V326.608ZM343.692 315.545H340.888L341.109 327.98H343.47L343.692 315.545ZM342.286 333.162C343.214 333.162 343.99 332.403 343.99 331.457C343.99 330.528 343.214 329.761 342.286 329.761C341.348 329.761 340.581 330.528 340.581 331.457C340.581 332.403 341.348 333.162 342.286 333.162Z" fill="black"/>
<path d="M186 244.667C186 240.233 186 238.016 186.863 236.323C187.622 234.833 188.833 233.622 190.323 232.863C192.016 232 194.233 232 198.667 232H211.333C215.767 232 217.984 232 219.677 232.863C221.167 233.622 222.378 234.833 223.137 236.323C224 238.016 224 240.233 224 244.667V257.333C224 261.767 224 263.984 223.137 265.677C222.378 267.167 221.167 268.378 219.677 269.137C217.984 270 215.767 270 211.333 270H198.667C194.233 270 192.016 270 190.323 269.137C188.833 268.378 187.622 267.167 186.863 265.677C186 263.984 186 261.767 186 257.333V244.667Z" fill="#3456F3"/>
<circle cx="205" cy="251" r="11" fill="white"/>
<path fill-rule="evenodd" clip-rule="evenodd" d="M201.154 251C201.154 253.124 202.876 254.846 205 254.846C207.124 254.846 208.846 253.124 208.846 251H211C211 254.314 208.314 257 205 257C201.686 257 199 254.314 199 251H201.154Z" fill="#3456F3"/>
<rect y="379" width="768" height="156" fill="#FAFAFA"/>
<path fill-rule="evenodd" clip-rule="evenodd" d="M582 493H186V492H582V493Z" fill="#E8E8E8"/>
<path d="M192.321 450.727H186.895V458H187.776V451.509H191.44V458H192.321V450.727ZM195.589 458.128C196.541 458.128 197.038 457.616 197.208 457.261H197.251V458H198.089V454.406C198.089 452.673 196.768 452.474 196.072 452.474C195.248 452.474 194.311 452.759 193.884 453.753L194.68 454.037C194.865 453.639 195.301 453.213 196.1 453.213C196.871 453.213 197.251 453.621 197.251 454.321V454.349C197.251 454.754 196.839 454.719 195.845 454.847C194.833 454.978 193.728 455.202 193.728 456.452C193.728 457.517 194.552 458.128 195.589 458.128ZM195.717 457.375C195.049 457.375 194.566 457.077 194.566 456.494C194.566 455.855 195.149 455.656 195.802 455.571C196.157 455.528 197.109 455.429 197.251 455.259V456.026C197.251 456.707 196.711 457.375 195.717 457.375ZM199.619 460.045H200.457V457.162H200.528C200.712 457.46 201.067 458.114 202.119 458.114C203.482 458.114 204.434 457.02 204.434 455.287C204.434 453.568 203.482 452.474 202.104 452.474C201.039 452.474 200.712 453.128 200.528 453.412H200.428V452.545H199.619V460.045ZM200.442 455.273C200.442 454.051 200.982 453.227 202.005 453.227C203.07 453.227 203.596 454.122 203.596 455.273C203.596 456.438 203.056 457.361 202.005 457.361C200.996 457.361 200.442 456.509 200.442 455.273ZM207.928 458.114C209.406 458.114 210.4 456.991 210.4 455.301C210.4 453.597 209.406 452.474 207.928 452.474C206.451 452.474 205.457 453.597 205.457 455.301C205.457 456.991 206.451 458.114 207.928 458.114ZM207.928 457.361C206.806 457.361 206.295 456.395 206.295 455.301C206.295 454.207 206.806 453.227 207.928 453.227C209.05 453.227 209.562 454.207 209.562 455.301C209.562 456.395 209.05 457.361 207.928 457.361ZM211.196 458H211.48C212.688 458 213.036 457.062 213.114 455.273L213.199 453.327H215.202V458H216.04V452.545H212.404L212.304 454.96C212.233 456.793 212.048 457.219 211.395 457.219H211.196V458ZM218.416 454.52V452.545H217.578V458H219.865C221.143 458 221.839 457.219 221.839 456.239C221.839 455.244 221.143 454.52 219.865 454.52H218.416ZM218.416 455.301H219.865C220.529 455.301 221.001 455.706 221.001 456.281C221.001 456.832 220.529 457.219 219.865 457.219H218.416V455.301Z" fill="#A0A0A0"/>
<path d="M186.999 412.864V402.364H188.451V403.602H188.575C188.661 403.442 188.786 403.259 188.948 403.05C189.111 402.841 189.336 402.659 189.624 402.503C189.913 402.344 190.294 402.264 190.768 402.264C191.384 402.264 191.934 402.42 192.418 402.732C192.902 403.043 193.282 403.492 193.557 404.079C193.835 404.665 193.974 405.371 193.974 406.197C193.974 407.022 193.837 407.73 193.562 408.32C193.287 408.906 192.909 409.359 192.428 409.677C191.948 409.992 191.399 410.149 190.783 410.149C190.319 410.149 189.939 410.071 189.644 409.915C189.353 409.76 189.124 409.577 188.958 409.369C188.792 409.16 188.665 408.974 188.575 408.812H188.486V412.864H186.999ZM188.456 406.182C188.456 406.719 188.534 407.189 188.69 407.594C188.845 407.998 189.071 408.315 189.366 408.543C189.661 408.769 190.022 408.881 190.45 408.881C190.894 408.881 191.265 408.764 191.563 408.528C191.862 408.29 192.087 407.967 192.239 407.559C192.395 407.151 192.473 406.692 192.473 406.182C192.473 405.678 192.397 405.226 192.244 404.825C192.095 404.424 191.87 404.107 191.568 403.875C191.27 403.643 190.897 403.527 190.45 403.527C190.019 403.527 189.654 403.638 189.356 403.86C189.061 404.082 188.837 404.392 188.685 404.79C188.532 405.187 188.456 405.652 188.456 406.182ZM198.857 410.154C198.141 410.154 197.516 409.99 196.982 409.662C196.449 409.334 196.034 408.875 195.739 408.285C195.444 407.695 195.297 407.005 195.297 406.217C195.297 405.424 195.444 404.732 195.739 404.138C196.034 403.545 196.449 403.085 196.982 402.756C197.516 402.428 198.141 402.264 198.857 402.264C199.572 402.264 200.197 402.428 200.731 402.756C201.264 403.085 201.679 403.545 201.974 404.138C202.269 404.732 202.416 405.424 202.416 406.217C202.416 407.005 202.269 407.695 201.974 408.285C201.679 408.875 201.264 409.334 200.731 409.662C200.197 409.99 199.572 410.154 198.857 410.154ZM198.862 408.906C199.326 408.906 199.71 408.784 200.015 408.538C200.32 408.293 200.545 407.967 200.691 407.559C200.84 407.151 200.915 406.702 200.915 406.212C200.915 405.724 200.84 405.277 200.691 404.869C200.545 404.458 200.32 404.129 200.015 403.88C199.71 403.631 199.326 403.507 198.862 403.507C198.394 403.507 198.006 403.631 197.698 403.88C197.393 404.129 197.166 404.458 197.017 404.869C196.871 405.277 196.798 405.724 196.798 406.212C196.798 406.702 196.871 407.151 197.017 407.559C197.166 407.967 197.393 408.293 197.698 408.538C198.006 408.784 198.394 408.906 198.862 408.906ZM207.292 410.154C206.553 410.154 205.917 409.987 205.383 409.652C204.853 409.314 204.445 408.848 204.16 408.255C203.875 407.662 203.732 406.982 203.732 406.217C203.732 405.441 203.878 404.757 204.17 404.163C204.462 403.567 204.873 403.101 205.403 402.766C205.933 402.432 206.558 402.264 207.277 402.264C207.857 402.264 208.374 402.372 208.828 402.587C209.282 402.799 209.649 403.098 209.927 403.482C210.209 403.867 210.376 404.316 210.429 404.83H208.982C208.903 404.472 208.721 404.163 208.436 403.905C208.154 403.646 207.776 403.517 207.302 403.517C206.888 403.517 206.525 403.626 206.213 403.845C205.905 404.061 205.665 404.369 205.492 404.77C205.32 405.168 205.234 405.638 205.234 406.182C205.234 406.739 205.318 407.219 205.487 407.624C205.656 408.028 205.895 408.341 206.203 408.563C206.515 408.785 206.881 408.896 207.302 408.896C207.584 408.896 207.839 408.845 208.068 408.742C208.3 408.636 208.494 408.485 208.649 408.29C208.808 408.094 208.919 407.859 208.982 407.584H210.429C210.376 408.078 210.215 408.518 209.947 408.906C209.678 409.294 209.319 409.599 208.868 409.821C208.421 410.043 207.895 410.154 207.292 410.154ZM213.505 405.466V410H212.019V399.818H213.485V403.607H213.58C213.759 403.196 214.032 402.869 214.4 402.627C214.768 402.385 215.249 402.264 215.842 402.264C216.366 402.264 216.823 402.372 217.214 402.587C217.609 402.803 217.913 403.124 218.129 403.552C218.348 403.976 218.457 404.506 218.457 405.143V410H216.971V405.322C216.971 404.762 216.826 404.327 216.538 404.019C216.25 403.708 215.849 403.552 215.335 403.552C214.984 403.552 214.669 403.626 214.39 403.776C214.115 403.925 213.898 404.143 213.739 404.432C213.583 404.717 213.505 405.062 213.505 405.466ZM224.005 402.364V403.557H219.834V402.364H224.005ZM220.953 400.534H222.439V407.758C222.439 408.046 222.482 408.263 222.569 408.409C222.655 408.552 222.766 408.649 222.902 408.702C223.041 408.752 223.192 408.777 223.354 408.777C223.473 408.777 223.578 408.769 223.667 408.752C223.757 408.736 223.826 408.722 223.876 408.712L224.145 409.94C224.058 409.973 223.936 410.007 223.777 410.04C223.618 410.076 223.419 410.096 223.18 410.099C222.789 410.106 222.424 410.036 222.086 409.891C221.748 409.745 221.475 409.519 221.266 409.214C221.057 408.91 220.953 408.527 220.953 408.066V400.534ZM227.872 410.169C227.388 410.169 226.951 410.08 226.559 409.901C226.168 409.718 225.858 409.455 225.63 409.11C225.404 408.765 225.292 408.343 225.292 407.842C225.292 407.411 225.375 407.057 225.54 406.778C225.706 406.5 225.93 406.28 226.211 406.117C226.493 405.955 226.808 405.832 227.156 405.749C227.504 405.666 227.859 405.603 228.22 405.56C228.677 405.507 229.049 405.464 229.334 405.431C229.619 405.395 229.826 405.337 229.955 405.257C230.084 405.178 230.149 405.048 230.149 404.869V404.835C230.149 404.4 230.026 404.064 229.781 403.825C229.539 403.587 229.178 403.467 228.697 403.467C228.197 403.467 227.802 403.578 227.514 403.8C227.229 404.019 227.032 404.263 226.922 404.531L225.525 404.213C225.691 403.749 225.933 403.375 226.251 403.089C226.573 402.801 226.942 402.592 227.36 402.463C227.778 402.33 228.217 402.264 228.677 402.264C228.982 402.264 229.305 402.301 229.647 402.374C229.992 402.443 230.313 402.572 230.611 402.761C230.913 402.95 231.16 403.22 231.352 403.572C231.544 403.92 231.64 404.372 231.64 404.929V410H230.189V408.956H230.129C230.033 409.148 229.889 409.337 229.697 409.523C229.504 409.708 229.257 409.862 228.956 409.985C228.654 410.108 228.293 410.169 227.872 410.169ZM228.195 408.976C228.606 408.976 228.957 408.895 229.249 408.732C229.544 408.57 229.768 408.358 229.92 408.096C230.076 407.831 230.154 407.547 230.154 407.246V406.261C230.101 406.314 229.998 406.364 229.846 406.411C229.697 406.454 229.526 406.492 229.334 406.525C229.141 406.555 228.954 406.583 228.772 406.609C228.59 406.633 228.437 406.652 228.314 406.669C228.026 406.705 227.763 406.767 227.524 406.853C227.289 406.939 227.1 407.063 226.957 407.226C226.818 407.385 226.748 407.597 226.748 407.862C226.748 408.23 226.884 408.509 227.156 408.697C227.428 408.883 227.774 408.976 228.195 408.976ZM239.75 412.769C238.723 412.769 237.811 412.628 237.016 412.347C236.224 412.068 235.556 411.657 235.012 411.114C234.469 410.573 234.056 409.911 233.775 409.125C233.493 408.339 233.352 407.443 233.352 406.435C233.352 405.454 233.494 404.573 233.779 403.79C234.065 403.008 234.479 402.342 235.022 401.792C235.569 401.238 236.234 400.816 237.016 400.524C237.798 400.232 238.686 400.087 239.681 400.087C240.632 400.087 241.471 400.236 242.196 400.534C242.922 400.832 243.532 401.242 244.026 401.762C244.523 402.282 244.898 402.879 245.15 403.552C245.401 404.225 245.527 404.936 245.527 405.685C245.527 406.208 245.494 406.72 245.428 407.221C245.362 407.718 245.239 408.169 245.06 408.573C244.884 408.974 244.629 409.296 244.294 409.538C243.963 409.776 243.532 409.901 243.002 409.911C242.72 409.92 242.447 409.887 242.181 409.811C241.916 409.735 241.691 409.612 241.505 409.443C241.32 409.271 241.207 409.052 241.167 408.787H241.108C241.028 408.982 240.895 409.165 240.71 409.334C240.524 409.5 240.287 409.632 239.999 409.732C239.714 409.828 239.382 409.867 239.005 409.851C238.587 409.834 238.211 409.74 237.876 409.567C237.541 409.395 237.255 409.156 237.016 408.852C236.781 408.547 236.6 408.185 236.474 407.768C236.348 407.35 236.285 406.886 236.285 406.376C236.285 405.885 236.356 405.446 236.499 405.058C236.641 404.667 236.835 404.331 237.081 404.049C237.329 403.764 237.614 403.539 237.936 403.373C238.257 403.207 238.597 403.103 238.955 403.06C239.303 403.02 239.623 403.03 239.914 403.089C240.206 403.149 240.448 403.24 240.64 403.363C240.836 403.486 240.958 403.62 241.008 403.766H241.073V403.209H242.296V407.822C242.296 408.084 242.364 408.306 242.5 408.489C242.639 408.671 242.836 408.762 243.091 408.762C243.393 408.762 243.628 408.651 243.797 408.429C243.97 408.207 244.091 407.866 244.16 407.405C244.233 406.944 244.27 406.354 244.27 405.635C244.27 405.131 244.202 404.657 244.066 404.213C243.933 403.766 243.736 403.361 243.474 403C243.216 402.635 242.897 402.322 242.52 402.06C242.142 401.799 241.711 401.596 241.227 401.454C240.746 401.311 240.214 401.24 239.631 401.24C238.839 401.24 238.135 401.363 237.518 401.608C236.902 401.85 236.381 402.2 235.957 402.657C235.536 403.114 235.216 403.663 234.998 404.303C234.782 404.939 234.674 405.653 234.674 406.445C234.674 407.271 234.785 408.003 235.007 408.643C235.23 409.279 235.558 409.816 235.992 410.254C236.426 410.691 236.963 411.022 237.603 411.248C238.242 411.477 238.98 411.591 239.815 411.591C240.186 411.591 240.551 411.558 240.909 411.491C241.267 411.429 241.585 411.356 241.863 411.273C242.145 411.193 242.355 411.129 242.495 411.079L242.843 412.168C242.637 412.264 242.364 412.358 242.022 412.451C241.684 412.544 241.316 412.62 240.919 412.68C240.524 412.739 240.135 412.769 239.75 412.769ZM239.293 408.633C239.724 408.633 240.07 408.547 240.332 408.374C240.597 408.202 240.788 407.945 240.904 407.604C241.023 407.259 241.083 406.828 241.083 406.311C241.079 405.807 241.015 405.406 240.889 405.108C240.766 404.806 240.574 404.591 240.312 404.462C240.054 404.329 239.721 404.263 239.313 404.263C238.938 404.263 238.618 404.354 238.353 404.536C238.092 404.719 237.891 404.965 237.752 405.277C237.616 405.589 237.546 405.935 237.543 406.316C237.546 406.717 237.603 407.095 237.712 407.45C237.825 407.801 238.007 408.086 238.259 408.305C238.514 408.523 238.859 408.633 239.293 408.633ZM248.109 412.864C247.887 412.864 247.685 412.845 247.502 412.809C247.32 412.776 247.184 412.739 247.095 412.7L247.453 411.482C247.724 411.554 247.966 411.586 248.178 411.576C248.391 411.566 248.578 411.487 248.74 411.337C248.906 411.188 249.052 410.945 249.178 410.607L249.362 410.099L246.568 402.364H248.159L250.093 408.29H250.172L252.106 402.364H253.702L250.555 411.019C250.409 411.417 250.223 411.753 249.998 412.028C249.773 412.307 249.504 412.516 249.193 412.655C248.881 412.794 248.52 412.864 248.109 412.864ZM257.102 410.169C256.619 410.169 256.181 410.08 255.79 409.901C255.399 409.718 255.089 409.455 254.86 409.11C254.635 408.765 254.522 408.343 254.522 407.842C254.522 407.411 254.605 407.057 254.771 406.778C254.936 406.5 255.16 406.28 255.442 406.117C255.724 405.955 256.039 405.832 256.387 405.749C256.735 405.666 257.089 405.603 257.45 405.56C257.908 405.507 258.279 405.464 258.564 405.431C258.849 405.395 259.056 405.337 259.186 405.257C259.315 405.178 259.379 405.048 259.379 404.869V404.835C259.379 404.4 259.257 404.064 259.012 403.825C258.77 403.587 258.408 403.467 257.928 403.467C257.427 403.467 257.033 403.578 256.744 403.8C256.459 404.019 256.262 404.263 256.153 404.531L254.756 404.213C254.922 403.749 255.164 403.375 255.482 403.089C255.803 402.801 256.173 402.592 256.59 402.463C257.008 402.33 257.447 402.264 257.908 402.264C258.213 402.264 258.536 402.301 258.877 402.374C259.222 402.443 259.544 402.572 259.842 402.761C260.143 402.95 260.39 403.22 260.583 403.572C260.775 403.92 260.871 404.372 260.871 404.929V410H259.419V408.956H259.36C259.263 409.148 259.119 409.337 258.927 409.523C258.735 409.708 258.488 409.862 258.186 409.985C257.885 410.108 257.523 410.169 257.102 410.169ZM257.426 408.976C257.837 408.976 258.188 408.895 258.48 408.732C258.775 408.57 258.998 408.358 259.151 408.096C259.307 407.831 259.384 407.547 259.384 407.246V406.261C259.331 406.314 259.229 406.364 259.076 406.411C258.927 406.454 258.756 406.492 258.564 406.525C258.372 406.555 258.185 406.583 258.002 406.609C257.82 406.633 257.668 406.652 257.545 406.669C257.257 406.705 256.993 406.767 256.754 406.853C256.519 406.939 256.33 407.063 256.188 407.226C256.048 407.385 255.979 407.597 255.979 407.862C255.979 408.23 256.115 408.509 256.387 408.697C256.658 408.883 257.005 408.976 257.426 408.976ZM264.337 405.466V410H262.851V402.364H264.278V403.607H264.372C264.548 403.202 264.823 402.877 265.197 402.632C265.575 402.387 266.051 402.264 266.624 402.264C267.145 402.264 267.6 402.374 267.991 402.592C268.383 402.808 268.686 403.129 268.901 403.557C269.117 403.984 269.224 404.513 269.224 405.143V410H267.738V405.322C267.738 404.768 267.594 404.336 267.305 404.024C267.017 403.709 266.621 403.552 266.117 403.552C265.772 403.552 265.466 403.626 265.197 403.776C264.932 403.925 264.722 404.143 264.566 404.432C264.414 404.717 264.337 405.062 264.337 405.466ZM274.077 410.149C273.46 410.149 272.91 409.992 272.426 409.677C271.946 409.359 271.568 408.906 271.293 408.32C271.021 407.73 270.885 407.022 270.885 406.197C270.885 405.371 271.022 404.665 271.298 404.079C271.576 403.492 271.957 403.043 272.441 402.732C272.925 402.42 273.473 402.264 274.087 402.264C274.561 402.264 274.942 402.344 275.23 402.503C275.522 402.659 275.747 402.841 275.906 403.05C276.069 403.259 276.195 403.442 276.284 403.602H276.374V399.818H277.86V410H276.408V408.812H276.284C276.195 408.974 276.065 409.16 275.896 409.369C275.731 409.577 275.502 409.76 275.21 409.915C274.919 410.071 274.541 410.149 274.077 410.149ZM274.405 408.881C274.832 408.881 275.194 408.769 275.489 408.543C275.787 408.315 276.012 407.998 276.165 407.594C276.321 407.189 276.398 406.719 276.398 406.182C276.398 405.652 276.322 405.187 276.17 404.79C276.017 404.392 275.794 404.082 275.499 403.86C275.204 403.638 274.839 403.527 274.405 403.527C273.957 403.527 273.585 403.643 273.286 403.875C272.988 404.107 272.763 404.424 272.61 404.825C272.461 405.226 272.386 405.678 272.386 406.182C272.386 406.692 272.463 407.151 272.615 407.559C272.768 407.967 272.993 408.29 273.291 408.528C273.593 408.764 273.964 408.881 274.405 408.881ZM283.273 410.154C282.521 410.154 281.873 409.993 281.329 409.672C280.789 409.347 280.371 408.891 280.076 408.305C279.785 407.715 279.639 407.024 279.639 406.232C279.639 405.449 279.785 404.76 280.076 404.163C280.371 403.567 280.782 403.101 281.309 402.766C281.839 402.432 282.459 402.264 283.169 402.264C283.599 402.264 284.017 402.335 284.421 402.478C284.826 402.621 285.189 402.844 285.51 403.149C285.832 403.454 286.085 403.85 286.271 404.337C286.456 404.821 286.549 405.41 286.549 406.102V406.629H280.479V405.516H285.093C285.093 405.125 285.013 404.778 284.854 404.477C284.695 404.172 284.471 403.931 284.183 403.756C283.898 403.58 283.563 403.492 283.178 403.492C282.761 403.492 282.396 403.595 282.085 403.8C281.776 404.003 281.538 404.268 281.369 404.596C281.203 404.921 281.12 405.274 281.12 405.655V406.525C281.12 407.035 281.21 407.469 281.389 407.827C281.571 408.185 281.825 408.459 282.149 408.648C282.474 408.833 282.854 408.926 283.288 408.926C283.57 408.926 283.826 408.886 284.058 408.807C284.29 408.724 284.491 408.601 284.66 408.439C284.829 408.277 284.958 408.076 285.048 407.837L286.455 408.091C286.342 408.505 286.14 408.868 285.848 409.18C285.56 409.488 285.197 409.728 284.759 409.901C284.325 410.07 283.83 410.154 283.273 410.154ZM289.194 402.364L290.879 405.337L292.58 402.364H294.205L291.824 406.182L294.225 410H292.6L290.879 407.146L289.164 410H287.534L289.91 406.182L287.563 402.364H289.194ZM296.711 410.094C296.439 410.094 296.206 409.998 296.01 409.806C295.815 409.611 295.717 409.375 295.717 409.1C295.717 408.828 295.815 408.596 296.01 408.404C296.206 408.209 296.439 408.111 296.711 408.111C296.983 408.111 297.217 408.209 297.412 408.404C297.608 408.596 297.705 408.828 297.705 409.1C297.705 409.282 297.659 409.45 297.566 409.602C297.477 409.751 297.357 409.871 297.208 409.96C297.059 410.05 296.893 410.094 296.711 410.094ZM299.697 410V402.364H301.133V403.577H301.213C301.352 403.166 301.597 402.843 301.949 402.607C302.303 402.369 302.704 402.249 303.152 402.249C303.245 402.249 303.354 402.253 303.48 402.259C303.609 402.266 303.71 402.274 303.783 402.284V403.706C303.724 403.689 303.617 403.671 303.465 403.651C303.313 403.628 303.16 403.616 303.008 403.616C302.656 403.616 302.343 403.691 302.068 403.84C301.796 403.986 301.581 404.19 301.422 404.452C301.263 404.71 301.183 405.005 301.183 405.337V410H299.697ZM309.907 406.833V402.364H311.398V410H309.937V408.678H309.857C309.682 409.085 309.4 409.425 309.012 409.697C308.628 409.965 308.149 410.099 307.575 410.099C307.085 410.099 306.651 409.992 306.273 409.776C305.898 409.558 305.603 409.234 305.388 408.807C305.176 408.379 305.07 407.851 305.07 407.221V402.364H306.556V407.042C306.556 407.562 306.7 407.977 306.989 408.285C307.277 408.593 307.652 408.747 308.112 408.747C308.391 408.747 308.667 408.678 308.942 408.538C309.221 408.399 309.451 408.189 309.634 407.907C309.819 407.625 309.91 407.267 309.907 406.833ZM315.181 396.537V413.281H314.186V396.537H315.181Z" fill="black"/>
<path fill-rule="evenodd" clip-rule="evenodd" d="M582 424H186V423H582V424Z" fill="#E8E8E8"/>
<path d="M186.881 389H191.327V388.219H187.761V385.747H191.043V384.966H187.761V382.509H191.27V381.727H186.881V389ZM195.869 385.491H192.687V386.273H195.869V385.491ZM197.343 389H198.181V385.591C198.181 384.792 198.764 384.227 199.417 384.227C200.053 384.227 200.497 384.643 200.497 385.264V389H201.349V385.449C201.349 384.746 201.789 384.227 202.556 384.227C203.153 384.227 203.664 384.543 203.664 385.349V389H204.502V385.349C204.502 384.067 203.813 383.474 202.84 383.474C202.059 383.474 201.487 383.833 201.207 384.398H201.15C200.88 383.815 200.404 383.474 199.687 383.474C198.977 383.474 198.451 383.815 198.224 384.398H198.153V383.545H197.343V389ZM207.64 389.128C208.591 389.128 209.089 388.616 209.259 388.261H209.302V389H210.14V385.406C210.14 383.673 208.819 383.474 208.123 383.474C207.299 383.474 206.361 383.759 205.935 384.753L206.731 385.037C206.915 384.639 207.352 384.213 208.151 384.213C208.922 384.213 209.302 384.621 209.302 385.321V385.349C209.302 385.754 208.89 385.719 207.895 385.847C206.883 385.978 205.779 386.202 205.779 387.452C205.779 388.517 206.603 389.128 207.64 389.128ZM207.768 388.375C207.1 388.375 206.617 388.077 206.617 387.494C206.617 386.855 207.199 386.656 207.853 386.571C208.208 386.528 209.16 386.429 209.302 386.259V387.026C209.302 387.707 208.762 388.375 207.768 388.375ZM211.669 389H212.507V383.545H211.669V389ZM212.096 382.636C212.422 382.636 212.692 382.381 212.692 382.068C212.692 381.756 212.422 381.5 212.096 381.5C211.769 381.5 211.499 381.756 211.499 382.068C211.499 382.381 211.769 382.636 212.096 382.636ZM214.881 381.727H214.042V389H214.881V381.727Z" fill="#A0A0A0"/>
<rect x="186" y="714" width="396" height="45" rx="3" fill="#3456F3"/>
<path d="M363.365 741H367.267C369.634 741 370.703 739.822 370.703 738.261C370.703 736.685 369.599 735.795 368.59 735.74V735.641C369.525 735.402 370.305 734.766 370.305 733.493C370.305 731.987 369.261 730.818 367.093 730.818H363.365V741ZM364.901 739.683V736.421H367.173C368.406 736.421 369.176 737.217 369.176 738.186C369.176 739.041 368.595 739.683 367.118 739.683H364.901ZM364.901 735.223V732.126H366.999C368.217 732.126 368.799 732.767 368.799 733.612C368.799 734.597 367.993 735.223 366.959 735.223H364.901ZM375.622 741.154C377.775 741.154 379.182 739.578 379.182 737.217C379.182 734.84 377.775 733.264 375.622 733.264C373.469 733.264 372.062 734.84 372.062 737.217C372.062 739.578 373.469 741.154 375.622 741.154ZM375.627 739.906C374.22 739.906 373.564 738.678 373.564 737.212C373.564 735.75 374.22 734.507 375.627 734.507C377.024 734.507 377.68 735.75 377.68 737.212C377.68 738.678 377.024 739.906 375.627 739.906ZM382.298 738.917V733.364H380.841V741H382.457L385.808 735.442V741H387.264V733.364H385.664L382.298 738.917ZM385.027 730.778C385.027 731.281 384.749 731.723 384.053 731.723C383.347 731.723 383.083 731.276 383.083 730.778H381.865C381.865 731.897 382.715 732.668 384.053 732.668C385.4 732.668 386.25 731.897 386.25 730.778H385.027ZM388.316 734.646H390.817V741H392.268V734.646H394.759V733.364H388.316V734.646ZM397.788 738.917V733.364H396.331V741H397.947L401.298 735.442V741H402.755V733.364H401.154L397.788 738.917Z" fill="white"/>
<path d="M243.535 789H249.759V787.906H244.768V784.446H249.361V783.352H244.768V779.912H249.68V778.818H243.535V789ZM262.163 787.906H261.03V781.364H259.856V787.906H256.973V781.364H255.8V787.906H252.916V781.364H251.743V789H260.811V791.188H262.024L262.163 787.906ZM266.989 789.159C268.541 789.159 269.674 788.384 270.032 787.23L268.899 786.912C268.6 787.707 267.909 788.105 266.989 788.105C265.612 788.105 264.663 787.215 264.608 785.58H270.151V785.082C270.151 782.239 268.461 781.264 266.87 781.264C264.802 781.264 263.43 782.895 263.43 785.241C263.43 787.588 264.782 789.159 266.989 789.159ZM264.608 784.565C264.688 783.377 265.528 782.318 266.87 782.318C268.143 782.318 268.958 783.273 268.958 784.565H264.608ZM265.379 780.091C265.836 780.091 266.174 779.713 266.174 779.295C266.174 778.838 265.836 778.5 265.379 778.5C264.961 778.5 264.583 778.838 264.583 779.295C264.583 779.713 264.961 780.091 265.379 780.091ZM268.242 780.091C268.7 780.091 269.038 779.713 269.038 779.295C269.038 778.838 268.7 778.5 268.242 778.5C267.825 778.5 267.447 778.838 267.447 779.295C267.447 779.713 267.825 780.091 268.242 780.091ZM277.047 781.364H275.874V789H277.047V785.739H280.706V789H281.879V781.364H280.706V784.645H277.047V781.364ZM287.224 789.159C288.775 789.159 289.908 788.384 290.266 787.23L289.133 786.912C288.835 787.707 288.144 788.105 287.224 788.105C285.847 788.105 284.897 787.215 284.842 785.58H290.386V785.082C290.386 782.239 288.695 781.264 287.104 781.264C285.036 781.264 283.664 782.895 283.664 785.241C283.664 787.588 285.016 789.159 287.224 789.159ZM284.842 784.565C284.922 783.377 285.762 782.318 287.104 782.318C288.377 782.318 289.193 783.273 289.193 784.565H284.842ZM295.631 787.051C295.671 788.304 296.869 789.159 298.494 789.159C300.165 789.159 301.378 788.264 301.378 786.872C301.378 785.918 300.806 785.142 299.946 785.082V785.003C300.672 784.779 301.219 784.252 301.219 783.392C301.219 782.184 300.185 781.264 298.574 781.264C296.983 781.264 295.85 782.139 295.81 783.372H297.043C297.078 782.741 297.739 782.298 298.634 782.298C299.524 782.298 300.026 782.751 300.026 783.432C300.026 784.068 299.588 784.545 298.653 784.545H297.341V785.599H298.653C299.588 785.599 300.185 786.112 300.185 786.872C300.185 787.742 299.414 788.105 298.475 788.105C297.555 788.105 296.938 787.742 296.884 787.051H295.631ZM305.273 789.179C306.606 789.179 307.302 788.463 307.54 787.966H307.6V789H308.773V783.969C308.773 781.543 306.924 781.264 305.949 781.264C304.796 781.264 303.483 781.662 302.887 783.054L304 783.452C304.259 782.895 304.87 782.298 305.989 782.298C307.068 782.298 307.6 782.87 307.6 783.849V783.889C307.6 784.456 307.023 784.406 305.631 784.585C304.214 784.769 302.668 785.082 302.668 786.832C302.668 788.324 303.821 789.179 305.273 789.179ZM305.452 788.125C304.517 788.125 303.841 787.707 303.841 786.892C303.841 785.997 304.657 785.719 305.571 785.599C306.069 785.54 307.401 785.401 307.6 785.162V786.236C307.6 787.19 306.844 788.125 305.452 788.125ZM310.915 791.864H312.088V787.827H312.187C312.446 788.244 312.943 789.159 314.415 789.159C316.324 789.159 317.656 787.628 317.656 785.202C317.656 782.795 316.324 781.264 314.395 781.264C312.903 781.264 312.446 782.179 312.187 782.577H312.048V781.364H310.915V791.864ZM312.068 785.182C312.068 783.472 312.824 782.318 314.256 782.318C315.747 782.318 316.483 783.571 316.483 785.182C316.483 786.812 315.727 788.105 314.256 788.105C312.844 788.105 312.068 786.912 312.068 785.182ZM322.648 789.159C324.199 789.159 325.332 788.384 325.69 787.23L324.557 786.912C324.258 787.707 323.567 788.105 322.648 788.105C321.271 788.105 320.321 787.215 320.266 785.58H325.81V785.082C325.81 782.239 324.119 781.264 322.528 781.264C320.46 781.264 319.088 782.895 319.088 785.241C319.088 787.588 320.44 789.159 322.648 789.159ZM320.266 784.565C320.346 783.377 321.186 782.318 322.528 782.318C323.801 782.318 324.616 783.273 324.616 784.565H320.266ZM332.307 781.364H327.594V789H328.768V782.457H332.307V781.364ZM335.193 787.27V781.364H334.02V789H335.392L339.051 783.094V789H340.225V781.364H338.872L335.193 787.27ZM345.476 789.159C347.166 789.159 348.28 788.125 348.479 786.773H347.305C347.087 787.608 346.391 788.105 345.476 788.105C344.084 788.105 343.189 786.952 343.189 785.182C343.189 783.452 344.104 782.318 345.476 782.318C346.51 782.318 347.127 782.955 347.305 783.651H348.479C348.28 782.219 347.067 781.264 345.456 781.264C343.388 781.264 342.016 782.895 342.016 785.222C342.016 787.509 343.328 789.159 345.476 789.159ZM349.592 782.457H352.118V789H353.291V782.457H355.797V781.364H349.592V782.457ZM357.508 791.864H358.682V787.827H358.781C359.04 788.244 359.537 789.159 361.008 789.159C362.918 789.159 364.25 787.628 364.25 785.202C364.25 782.795 362.918 781.264 360.989 781.264C359.497 781.264 359.04 782.179 358.781 782.577H358.642V781.364H357.508V791.864ZM358.662 785.182C358.662 783.472 359.418 782.318 360.849 782.318C362.341 782.318 363.077 783.571 363.077 785.182C363.077 786.812 362.321 788.105 360.849 788.105C359.437 788.105 358.662 786.912 358.662 785.182ZM367.213 787.27V781.364H366.04V789H367.412L371.071 783.094V789H372.244V781.364H370.892L367.213 787.27ZM374.393 791.864H375.566V787.827H375.666C375.924 788.244 376.422 789.159 377.893 789.159C379.802 789.159 381.135 787.628 381.135 785.202C381.135 782.795 379.802 781.264 377.873 781.264C376.382 781.264 375.924 782.179 375.666 782.577H375.527V781.364H374.393V791.864ZM375.547 785.182C375.547 783.472 376.302 782.318 377.734 782.318C379.226 782.318 379.961 783.571 379.961 785.182C379.961 786.812 379.206 788.105 377.734 788.105C376.322 788.105 375.547 786.912 375.547 785.182ZM386.027 789.159C388.095 789.159 389.487 787.588 389.487 785.222C389.487 782.835 388.095 781.264 386.027 781.264C383.959 781.264 382.566 782.835 382.566 785.222C382.566 787.588 383.959 789.159 386.027 789.159ZM386.027 788.105C384.456 788.105 383.74 786.753 383.74 785.222C383.74 783.69 384.456 782.318 386.027 782.318C387.598 782.318 388.314 783.69 388.314 785.222C388.314 786.753 387.598 788.105 386.027 788.105ZM391.278 789H394.877C396.429 789 397.363 788.125 397.363 786.952C397.363 785.754 396.453 785.107 395.613 784.983C396.473 784.804 397.085 784.322 397.085 783.392C397.085 782.174 396.041 781.364 394.4 781.364H391.278V789ZM392.392 787.926V785.58H394.877C395.683 785.58 396.17 786.062 396.17 786.852C396.17 787.518 395.683 787.926 394.877 787.926H392.392ZM392.392 784.565V782.438H394.4C395.34 782.438 395.911 782.83 395.911 783.472C395.911 784.153 395.34 784.565 394.4 784.565H392.392ZM401.386 789.179C402.719 789.179 403.415 788.463 403.653 787.966H403.713V789H404.886V783.969C404.886 781.543 403.037 781.264 402.063 781.264C400.909 781.264 399.597 781.662 399 783.054L400.114 783.452C400.372 782.895 400.984 782.298 402.102 782.298C403.181 782.298 403.713 782.87 403.713 783.849V783.889C403.713 784.456 403.136 784.406 401.744 784.585C400.328 784.769 398.781 785.082 398.781 786.832C398.781 788.324 399.935 789.179 401.386 789.179ZM401.565 788.125C400.631 788.125 399.955 787.707 399.955 786.892C399.955 785.997 400.77 785.719 401.685 785.599C402.182 785.54 403.514 785.401 403.713 785.162V786.236C403.713 787.19 402.957 788.125 401.565 788.125ZM408.201 781.364H407.028V789H408.201V785.739H411.86V789H413.034V781.364H411.86V784.645H408.201V781.364ZM416.35 784.128V781.364H415.176V789H418.378C420.168 789 421.142 787.906 421.142 786.534C421.142 785.142 420.168 784.128 418.378 784.128H416.35ZM422.355 789H423.529V781.364H422.355V789ZM416.35 785.222H418.378C419.308 785.222 419.969 785.788 419.969 786.594C419.969 787.364 419.308 787.906 418.378 787.906H416.35V785.222ZM427.208 786.136H428.401V786.077C428.421 784.844 428.739 784.307 429.614 783.76C430.489 783.228 431.006 782.462 431.006 781.364C431.006 779.812 429.872 778.679 428.122 778.679C426.512 778.679 425.234 779.673 425.159 781.364H426.412C426.487 780.19 427.307 779.713 428.122 779.713C429.057 779.713 429.813 780.33 429.813 781.304C429.813 782.094 429.36 782.661 428.779 783.014C427.804 783.606 427.223 784.183 427.208 786.077V786.136ZM427.844 789.08C428.336 789.08 428.739 788.677 428.739 788.185C428.739 787.692 428.336 787.29 427.844 787.29C427.352 787.29 426.949 787.692 426.949 788.185C426.949 788.677 427.352 789.08 427.844 789.08Z" fill="#A0A0A0"/>
<path d="M439.539 789H440.772V785.281H442.999C445.37 785.281 446.439 783.839 446.439 782.04C446.439 780.24 445.37 778.818 442.979 778.818H439.539V789ZM440.772 784.188V779.912H442.939C444.595 779.912 445.226 780.817 445.226 782.04C445.226 783.263 444.595 784.188 442.959 784.188H440.772ZM451.386 789.159C452.937 789.159 454.071 788.384 454.429 787.23L453.295 786.912C452.997 787.707 452.306 788.105 451.386 788.105C450.009 788.105 449.059 787.215 449.005 785.58H454.548V785.082C454.548 782.239 452.858 781.264 451.267 781.264C449.198 781.264 447.826 782.895 447.826 785.241C447.826 787.588 449.179 789.159 451.386 789.159ZM449.005 784.565C449.084 783.377 449.924 782.318 451.267 782.318C452.539 782.318 453.355 783.273 453.355 784.565H449.005ZM461.046 781.364H456.333V789H457.506V782.457H461.046V781.364ZM463.932 787.27V781.364H462.758V789H464.131L467.79 783.094V789H468.963V781.364H467.611L463.932 787.27ZM474.214 789.159C475.905 789.159 477.018 788.125 477.217 786.773H476.044C475.825 787.608 475.129 788.105 474.214 788.105C472.822 788.105 471.927 786.952 471.927 785.182C471.927 783.452 472.842 782.318 474.214 782.318C475.248 782.318 475.865 782.955 476.044 783.651H477.217C477.018 782.219 475.805 781.264 474.194 781.264C472.126 781.264 470.754 782.895 470.754 785.222C470.754 787.509 472.066 789.159 474.214 789.159ZM478.331 782.457H480.856V789H482.03V782.457H484.535V781.364H478.331V782.457ZM486.247 791.864H487.42V787.827H487.519C487.778 788.244 488.275 789.159 489.747 789.159C491.656 789.159 492.988 787.628 492.988 785.202C492.988 782.795 491.656 781.264 489.727 781.264C488.235 781.264 487.778 782.179 487.519 782.577H487.38V781.364H486.247V791.864ZM487.4 785.182C487.4 783.472 488.156 782.318 489.588 782.318C491.079 782.318 491.815 783.571 491.815 785.182C491.815 786.812 491.059 788.105 489.588 788.105C488.176 788.105 487.4 786.912 487.4 785.182ZM497.025 789.179C498.358 789.179 499.054 788.463 499.292 787.966H499.352V789H500.525V783.969C500.525 781.543 498.676 781.264 497.701 781.264C496.548 781.264 495.235 781.662 494.639 783.054L495.752 783.452C496.011 782.895 496.622 782.298 497.741 782.298C498.82 782.298 499.352 782.87 499.352 783.849V783.889C499.352 784.456 498.775 784.406 497.383 784.585C495.966 784.769 494.42 785.082 494.42 786.832C494.42 788.324 495.573 789.179 497.025 789.179ZM497.204 788.125C496.269 788.125 495.593 787.707 495.593 786.892C495.593 785.997 496.409 785.719 497.323 785.599C497.821 785.54 499.153 785.401 499.352 785.162V786.236C499.352 787.19 498.596 788.125 497.204 788.125ZM508.672 781.364H507.499V787.906H503.84V781.364H502.667V789H508.672V791.466H509.846V787.906H508.672V781.364ZM512.727 787.27V781.364H511.553V789H512.926L516.585 783.094V789H517.758V781.364H516.406L512.727 787.27ZM524.501 789H525.614V781.364H522.472C520.827 781.364 519.827 782.224 519.827 783.631C519.827 784.68 520.354 785.425 521.274 785.739L519.41 789H520.682L522.452 785.898H524.501V789ZM524.501 784.804H522.333C521.503 784.804 521.001 784.362 521.001 783.631C521.001 782.89 521.557 782.438 522.472 782.438H524.501V784.804Z" fill="#3456F3"/>
</g>
<defs>
<clipPath id="clip0_1_2184">
<rect width="768" height="1024" fill="white"/>
</clipPath>
</defs>
</svg>
