<svg width="1280" height="700" viewBox="0 0 1280 700" fill="none" xmlns="http://www.w3.org/2000/svg">
<g clip-path="url(#clip0_1_1900)">
<rect width="1280" height="700" fill="#FAFAFA"/>
<path d="M442.597 175.219H445.119V171H456.838V175.193H459.361V168.767H457.384V153.545H446.619L446.21 160.918C445.946 165.776 444.915 167.778 443.747 168.767H442.597V175.219ZM446.849 168.767C447.847 167.173 448.52 164.608 448.733 160.918L449.006 155.812H454.861V168.767H446.849ZM467.555 171.264C471.246 171.264 473.658 168.562 473.658 164.514C473.658 160.44 471.246 157.739 467.555 157.739C463.865 157.739 461.453 160.44 461.453 164.514C461.453 168.562 463.865 171.264 467.555 171.264ZM467.564 169.125C465.152 169.125 464.027 167.02 464.027 164.506C464.027 162 465.152 159.869 467.564 159.869C469.959 159.869 471.084 162 471.084 164.506C471.084 167.02 469.959 169.125 467.564 169.125ZM486.602 153.034C485.962 153.545 484.991 153.545 483.636 153.537C483.235 153.537 482.8 153.537 482.323 153.545C478.079 153.631 475.931 156.648 475.931 162.631V163.926C475.931 168.733 478.317 171.264 481.974 171.264C485.63 171.264 487.999 168.724 487.999 164.651C487.999 160.628 485.673 158.403 482.519 158.403C480.619 158.403 479.033 159.213 478.181 160.832H478.019C478.309 157.517 479.553 155.872 482.383 155.787C484.897 155.71 486.491 155.719 487.658 154.645L486.602 153.034ZM481.982 169.125C479.817 169.125 478.496 167.395 478.496 164.693C478.531 162.043 479.835 160.526 481.957 160.526C484.113 160.526 485.425 162.043 485.425 164.693C485.425 167.403 484.113 169.125 481.982 169.125ZM490.846 175.909H493.394V168.963H493.548C494.008 169.798 494.945 171.256 497.332 171.256C500.502 171.256 502.803 168.716 502.803 164.48C502.803 160.236 500.468 157.739 497.306 157.739C494.877 157.739 493.999 159.222 493.548 160.031H493.335V157.909H490.846V175.909ZM493.343 164.455C493.343 161.719 494.536 159.903 496.761 159.903C499.07 159.903 500.229 161.855 500.229 164.455C500.229 167.08 499.036 169.082 496.761 169.082C494.57 169.082 493.343 167.207 493.343 164.455ZM511.173 171.264C514.863 171.264 517.275 168.562 517.275 164.514C517.275 160.44 514.863 157.739 511.173 157.739C507.482 157.739 505.07 160.44 505.07 164.514C505.07 168.562 507.482 171.264 511.173 171.264ZM511.181 169.125C508.769 169.125 507.644 167.02 507.644 164.506C507.644 162 508.769 159.869 511.181 159.869C513.576 159.869 514.701 162 514.701 164.506C514.701 167.02 513.576 169.125 511.181 169.125ZM526.471 171H528.951V160.108H534.653V171H537.15V157.909H526.471V171ZM546.071 171.264C549.761 171.264 552.173 168.562 552.173 164.514C552.173 160.44 549.761 157.739 546.071 157.739C542.381 157.739 539.969 160.44 539.969 164.514C539.969 168.562 542.381 171.264 546.071 171.264ZM546.08 169.125C543.668 169.125 542.543 167.02 542.543 164.506C542.543 162 543.668 159.869 546.08 159.869C548.474 159.869 549.599 162 549.599 164.506C549.599 167.02 548.474 169.125 546.08 169.125ZM553.643 171H556.669L560.777 165.545H561.629V171H564.178V165.545H565.03L569.112 171H572.138L567.092 164.301L572.078 157.909H569.112L565.064 163.347H564.178V157.909H561.629V163.347H560.717L556.669 157.909H553.703L558.714 164.301L553.643 171ZM578.515 171.29C580.68 171.29 581.898 170.19 582.384 169.21H582.487V171H584.975V162.307C584.975 158.497 581.975 157.739 579.896 157.739C577.526 157.739 575.344 158.693 574.492 161.08L576.887 161.625C577.262 160.696 578.217 159.801 579.93 159.801C581.575 159.801 582.418 160.662 582.418 162.145V162.205C582.418 163.134 581.464 163.116 579.112 163.389C576.631 163.679 574.092 164.327 574.092 167.301C574.092 169.875 576.026 171.29 578.515 171.29ZM579.069 169.244C577.629 169.244 576.589 168.597 576.589 167.335C576.589 165.972 577.799 165.486 579.273 165.29C580.1 165.179 582.06 164.957 582.427 164.591V166.278C582.427 167.83 581.191 169.244 579.069 169.244ZM587.338 171H588.156C591.011 171 592.06 168.886 592.264 164.557L592.469 160.108H596.747V171H599.244V157.909H590.108L589.878 163.705C589.716 167.744 589.256 168.793 587.798 168.793H587.33L587.338 171ZM608.157 171.264C611.847 171.264 614.259 168.562 614.259 164.514C614.259 160.44 611.847 157.739 608.157 157.739C604.467 157.739 602.055 160.44 602.055 164.514C602.055 168.562 604.467 171.264 608.157 171.264ZM608.165 169.125C605.754 169.125 604.629 167.02 604.629 164.506C604.629 162 605.754 159.869 608.165 159.869C610.56 159.869 611.685 162 611.685 164.506C611.685 167.02 610.56 169.125 608.165 169.125ZM617.104 171H623.359C626.223 171 627.902 169.551 627.902 167.472C627.902 165.528 626.411 164.335 624.663 164.131C626.274 163.824 627.339 162.938 627.339 161.403C627.339 159.256 625.482 157.909 622.533 157.909H617.104V171ZM619.499 168.869V165.23H623.359C624.621 165.23 625.379 165.972 625.379 167.19C625.379 168.23 624.621 168.869 623.359 168.869H619.499ZM619.499 163.364V160.065H622.533C623.982 160.065 624.859 160.67 624.859 161.676C624.859 162.724 623.99 163.364 622.558 163.364H619.499ZM634.507 171.29C636.672 171.29 637.891 170.19 638.376 169.21H638.479V171H640.967V162.307C640.967 158.497 637.967 157.739 635.888 157.739C633.518 157.739 631.337 158.693 630.484 161.08L632.879 161.625C633.254 160.696 634.209 159.801 635.922 159.801C637.567 159.801 638.411 160.662 638.411 162.145V162.205C638.411 163.134 637.456 163.116 635.104 163.389C632.624 163.679 630.084 164.327 630.084 167.301C630.084 169.875 632.018 171.29 634.507 171.29ZM635.061 169.244C633.621 169.244 632.581 168.597 632.581 167.335C632.581 165.972 633.791 165.486 635.266 165.29C636.092 165.179 638.053 164.957 638.419 164.591V166.278C638.419 167.83 637.183 169.244 635.061 169.244ZM642.738 160.108H647.025V171H649.513V160.108H653.783V157.909H642.738V160.108ZM658.976 162.409V157.909H656.479V171H662.197C665.402 171 667.192 169.142 667.192 166.679C667.192 164.165 665.402 162.409 662.197 162.409H658.976ZM658.976 164.608H662.197C663.663 164.608 664.712 165.494 664.712 166.756C664.712 167.949 663.663 168.801 662.197 168.801H658.976V164.608ZM673.262 153.545H670.458L670.68 165.98H673.04L673.262 153.545ZM671.856 171.162C672.785 171.162 673.56 170.403 673.56 169.457C673.56 168.528 672.785 167.761 671.856 167.761C670.918 167.761 670.151 168.528 670.151 169.457C670.151 170.403 670.918 171.162 671.856 171.162Z" fill="black"/>
<path d="M442 82.6667C442 78.2329 442 76.016 442.863 74.3226C443.622 72.833 444.833 71.6219 446.323 70.8629C448.016 70 450.233 70 454.667 70H467.333C471.767 70 473.984 70 475.677 70.8629C477.167 71.6219 478.378 72.833 479.137 74.3226C480 76.016 480 78.2329 480 82.6667V95.3333C480 99.7671 480 101.984 479.137 103.677C478.378 105.167 477.167 106.378 475.677 107.137C473.984 108 471.767 108 467.333 108H454.667C450.233 108 448.016 108 446.323 107.137C444.833 106.378 443.622 105.167 442.863 103.677C442 101.984 442 99.7671 442 95.3333V82.6667Z" fill="#3456F3"/>
<circle cx="461" cy="89" r="11" fill="white"/>
<path fill-rule="evenodd" clip-rule="evenodd" d="M457.154 89C457.154 91.1242 458.876 92.8462 461 92.8462C463.124 92.8462 464.846 91.1242 464.846 89H467C467 92.3137 464.314 95 461 95C457.686 95 455 92.3137 455 89H457.154Z" fill="#3456F3"/>
<rect y="217" width="1280" height="266" fill="#FAFAFA"/>
<path d="M442.999 319.864V309.364H444.451V310.602H444.575C444.661 310.442 444.786 310.259 444.948 310.05C445.111 309.841 445.336 309.659 445.624 309.503C445.913 309.344 446.294 309.264 446.768 309.264C447.384 309.264 447.934 309.42 448.418 309.732C448.902 310.043 449.282 310.492 449.557 311.079C449.835 311.665 449.974 312.371 449.974 313.197C449.974 314.022 449.837 314.73 449.562 315.32C449.287 315.906 448.909 316.359 448.428 316.677C447.948 316.992 447.399 317.149 446.783 317.149C446.319 317.149 445.939 317.071 445.644 316.915C445.353 316.76 445.124 316.577 444.958 316.369C444.792 316.16 444.665 315.974 444.575 315.812H444.486V319.864H442.999ZM444.456 313.182C444.456 313.719 444.534 314.189 444.69 314.594C444.845 314.998 445.071 315.315 445.366 315.543C445.661 315.769 446.022 315.881 446.45 315.881C446.894 315.881 447.265 315.764 447.563 315.528C447.862 315.29 448.087 314.967 448.239 314.559C448.395 314.151 448.473 313.692 448.473 313.182C448.473 312.678 448.397 312.226 448.244 311.825C448.095 311.424 447.87 311.107 447.568 310.875C447.27 310.643 446.897 310.527 446.45 310.527C446.019 310.527 445.654 310.638 445.356 310.86C445.061 311.082 444.837 311.392 444.685 311.79C444.532 312.187 444.456 312.652 444.456 313.182ZM454.857 317.154C454.141 317.154 453.516 316.99 452.982 316.662C452.449 316.334 452.034 315.875 451.739 315.285C451.444 314.695 451.297 314.005 451.297 313.217C451.297 312.424 451.444 311.732 451.739 311.138C452.034 310.545 452.449 310.085 452.982 309.756C453.516 309.428 454.141 309.264 454.857 309.264C455.572 309.264 456.197 309.428 456.731 309.756C457.264 310.085 457.679 310.545 457.974 311.138C458.269 311.732 458.416 312.424 458.416 313.217C458.416 314.005 458.269 314.695 457.974 315.285C457.679 315.875 457.264 316.334 456.731 316.662C456.197 316.99 455.572 317.154 454.857 317.154ZM454.862 315.906C455.326 315.906 455.71 315.784 456.015 315.538C456.32 315.293 456.545 314.967 456.691 314.559C456.84 314.151 456.915 313.702 456.915 313.212C456.915 312.724 456.84 312.277 456.691 311.869C456.545 311.458 456.32 311.129 456.015 310.88C455.71 310.631 455.326 310.507 454.862 310.507C454.394 310.507 454.006 310.631 453.698 310.88C453.393 311.129 453.166 311.458 453.017 311.869C452.871 312.277 452.798 312.724 452.798 313.212C452.798 313.702 452.871 314.151 453.017 314.559C453.166 314.967 453.393 315.293 453.698 315.538C454.006 315.784 454.394 315.906 454.862 315.906ZM463.292 317.154C462.553 317.154 461.917 316.987 461.383 316.652C460.853 316.314 460.445 315.848 460.16 315.255C459.875 314.662 459.732 313.982 459.732 313.217C459.732 312.441 459.878 311.757 460.17 311.163C460.462 310.567 460.873 310.101 461.403 309.766C461.933 309.432 462.558 309.264 463.277 309.264C463.857 309.264 464.374 309.372 464.828 309.587C465.282 309.799 465.649 310.098 465.927 310.482C466.209 310.867 466.376 311.316 466.429 311.83H464.982C464.903 311.472 464.721 311.163 464.436 310.905C464.154 310.646 463.776 310.517 463.302 310.517C462.888 310.517 462.525 310.626 462.213 310.845C461.905 311.061 461.665 311.369 461.492 311.77C461.32 312.168 461.234 312.638 461.234 313.182C461.234 313.739 461.318 314.219 461.487 314.624C461.656 315.028 461.895 315.341 462.203 315.563C462.515 315.785 462.881 315.896 463.302 315.896C463.584 315.896 463.839 315.845 464.068 315.742C464.3 315.636 464.494 315.485 464.649 315.29C464.808 315.094 464.919 314.859 464.982 314.584H466.429C466.376 315.078 466.215 315.518 465.947 315.906C465.678 316.294 465.319 316.599 464.868 316.821C464.421 317.043 463.895 317.154 463.292 317.154ZM469.505 312.466V317H468.019V306.818H469.485V310.607H469.58C469.759 310.196 470.032 309.869 470.4 309.627C470.768 309.385 471.249 309.264 471.842 309.264C472.366 309.264 472.823 309.372 473.214 309.587C473.609 309.803 473.913 310.124 474.129 310.552C474.348 310.976 474.457 311.506 474.457 312.143V317H472.971V312.322C472.971 311.762 472.826 311.327 472.538 311.019C472.25 310.708 471.849 310.552 471.335 310.552C470.984 310.552 470.669 310.626 470.39 310.776C470.115 310.925 469.898 311.143 469.739 311.432C469.583 311.717 469.505 312.062 469.505 312.466ZM480.005 309.364V310.557H475.834V309.364H480.005ZM476.953 307.534H478.439V314.758C478.439 315.046 478.482 315.263 478.569 315.409C478.655 315.552 478.766 315.649 478.902 315.702C479.041 315.752 479.192 315.777 479.354 315.777C479.473 315.777 479.578 315.769 479.667 315.752C479.757 315.736 479.826 315.722 479.876 315.712L480.145 316.94C480.058 316.973 479.936 317.007 479.777 317.04C479.618 317.076 479.419 317.096 479.18 317.099C478.789 317.106 478.424 317.036 478.086 316.891C477.748 316.745 477.475 316.519 477.266 316.214C477.057 315.91 476.953 315.527 476.953 315.066V307.534ZM483.872 317.169C483.388 317.169 482.951 317.08 482.559 316.901C482.168 316.718 481.858 316.455 481.63 316.11C481.404 315.765 481.292 315.343 481.292 314.842C481.292 314.411 481.375 314.057 481.54 313.778C481.706 313.5 481.93 313.28 482.211 313.117C482.493 312.955 482.808 312.832 483.156 312.749C483.504 312.666 483.859 312.603 484.22 312.56C484.677 312.507 485.049 312.464 485.334 312.431C485.619 312.395 485.826 312.337 485.955 312.257C486.084 312.178 486.149 312.048 486.149 311.869V311.835C486.149 311.4 486.026 311.064 485.781 310.825C485.539 310.587 485.178 310.467 484.697 310.467C484.197 310.467 483.802 310.578 483.514 310.8C483.229 311.019 483.032 311.263 482.922 311.531L481.525 311.213C481.691 310.749 481.933 310.375 482.251 310.089C482.573 309.801 482.942 309.592 483.36 309.463C483.778 309.33 484.217 309.264 484.677 309.264C484.982 309.264 485.305 309.301 485.647 309.374C485.992 309.443 486.313 309.572 486.611 309.761C486.913 309.95 487.16 310.22 487.352 310.572C487.544 310.92 487.64 311.372 487.64 311.929V317H486.189V315.956H486.129C486.033 316.148 485.889 316.337 485.697 316.523C485.504 316.708 485.257 316.862 484.956 316.985C484.654 317.108 484.293 317.169 483.872 317.169ZM484.195 315.976C484.606 315.976 484.957 315.895 485.249 315.732C485.544 315.57 485.768 315.358 485.92 315.096C486.076 314.831 486.154 314.547 486.154 314.246V313.261C486.101 313.314 485.998 313.364 485.846 313.411C485.697 313.454 485.526 313.492 485.334 313.525C485.141 313.555 484.954 313.583 484.772 313.609C484.59 313.633 484.437 313.652 484.314 313.669C484.026 313.705 483.763 313.767 483.524 313.853C483.289 313.939 483.1 314.063 482.957 314.226C482.818 314.385 482.748 314.597 482.748 314.862C482.748 315.23 482.884 315.509 483.156 315.697C483.428 315.883 483.774 315.976 484.195 315.976ZM495.75 319.769C494.723 319.769 493.811 319.628 493.016 319.347C492.224 319.068 491.556 318.657 491.012 318.114C490.469 317.573 490.056 316.911 489.775 316.125C489.493 315.339 489.352 314.443 489.352 313.435C489.352 312.454 489.494 311.573 489.779 310.79C490.065 310.008 490.479 309.342 491.022 308.792C491.569 308.238 492.234 307.816 493.016 307.524C493.798 307.232 494.686 307.087 495.681 307.087C496.632 307.087 497.471 307.236 498.196 307.534C498.922 307.832 499.532 308.242 500.026 308.762C500.523 309.282 500.898 309.879 501.15 310.552C501.401 311.225 501.527 311.936 501.527 312.685C501.527 313.208 501.494 313.72 501.428 314.221C501.362 314.718 501.239 315.169 501.06 315.573C500.884 315.974 500.629 316.296 500.294 316.538C499.963 316.776 499.532 316.901 499.002 316.911C498.72 316.92 498.447 316.887 498.181 316.811C497.916 316.735 497.691 316.612 497.505 316.443C497.32 316.271 497.207 316.052 497.167 315.787H497.108C497.028 315.982 496.895 316.165 496.71 316.334C496.524 316.5 496.287 316.632 495.999 316.732C495.714 316.828 495.382 316.867 495.005 316.851C494.587 316.834 494.211 316.74 493.876 316.567C493.541 316.395 493.255 316.156 493.016 315.852C492.781 315.547 492.6 315.185 492.474 314.768C492.348 314.35 492.285 313.886 492.285 313.376C492.285 312.885 492.356 312.446 492.499 312.058C492.641 311.667 492.835 311.331 493.081 311.049C493.329 310.764 493.614 310.539 493.936 310.373C494.257 310.207 494.597 310.103 494.955 310.06C495.303 310.02 495.623 310.03 495.914 310.089C496.206 310.149 496.448 310.24 496.64 310.363C496.836 310.486 496.958 310.62 497.008 310.766H497.073V310.209H498.296V314.822C498.296 315.084 498.364 315.306 498.5 315.489C498.639 315.671 498.836 315.762 499.091 315.762C499.393 315.762 499.628 315.651 499.797 315.429C499.97 315.207 500.091 314.866 500.16 314.405C500.233 313.944 500.27 313.354 500.27 312.635C500.27 312.131 500.202 311.657 500.066 311.213C499.933 310.766 499.736 310.361 499.474 310C499.216 309.635 498.897 309.322 498.52 309.06C498.142 308.799 497.711 308.596 497.227 308.454C496.746 308.311 496.214 308.24 495.631 308.24C494.839 308.24 494.135 308.363 493.518 308.608C492.902 308.85 492.381 309.2 491.957 309.657C491.536 310.114 491.216 310.663 490.998 311.303C490.782 311.939 490.674 312.653 490.674 313.445C490.674 314.271 490.785 315.003 491.007 315.643C491.23 316.279 491.558 316.816 491.992 317.254C492.426 317.691 492.963 318.022 493.603 318.248C494.242 318.477 494.98 318.591 495.815 318.591C496.186 318.591 496.551 318.558 496.909 318.491C497.267 318.429 497.585 318.356 497.863 318.273C498.145 318.193 498.355 318.129 498.495 318.079L498.843 319.168C498.637 319.264 498.364 319.358 498.022 319.451C497.684 319.544 497.316 319.62 496.919 319.68C496.524 319.739 496.135 319.769 495.75 319.769ZM495.293 315.633C495.724 315.633 496.07 315.547 496.332 315.374C496.597 315.202 496.788 314.945 496.904 314.604C497.023 314.259 497.083 313.828 497.083 313.311C497.079 312.807 497.015 312.406 496.889 312.108C496.766 311.806 496.574 311.591 496.312 311.462C496.054 311.329 495.721 311.263 495.313 311.263C494.938 311.263 494.618 311.354 494.353 311.536C494.092 311.719 493.891 311.965 493.752 312.277C493.616 312.589 493.546 312.935 493.543 313.316C493.546 313.717 493.603 314.095 493.712 314.45C493.825 314.801 494.007 315.086 494.259 315.305C494.514 315.523 494.859 315.633 495.293 315.633ZM504.109 319.864C503.887 319.864 503.685 319.845 503.502 319.809C503.32 319.776 503.184 319.739 503.095 319.7L503.453 318.482C503.724 318.554 503.966 318.586 504.178 318.576C504.391 318.566 504.578 318.487 504.74 318.337C504.906 318.188 505.052 317.945 505.178 317.607L505.362 317.099L502.568 309.364H504.159L506.093 315.29H506.172L508.106 309.364H509.702L506.555 318.019C506.409 318.417 506.223 318.753 505.998 319.028C505.773 319.307 505.504 319.516 505.193 319.655C504.881 319.794 504.52 319.864 504.109 319.864ZM513.102 317.169C512.619 317.169 512.181 317.08 511.79 316.901C511.399 316.718 511.089 316.455 510.86 316.11C510.635 315.765 510.522 315.343 510.522 314.842C510.522 314.411 510.605 314.057 510.771 313.778C510.936 313.5 511.16 313.28 511.442 313.117C511.724 312.955 512.039 312.832 512.387 312.749C512.735 312.666 513.089 312.603 513.45 312.56C513.908 312.507 514.279 312.464 514.564 312.431C514.849 312.395 515.056 312.337 515.186 312.257C515.315 312.178 515.379 312.048 515.379 311.869V311.835C515.379 311.4 515.257 311.064 515.012 310.825C514.77 310.587 514.408 310.467 513.928 310.467C513.427 310.467 513.033 310.578 512.744 310.8C512.459 311.019 512.262 311.263 512.153 311.531L510.756 311.213C510.922 310.749 511.164 310.375 511.482 310.089C511.803 309.801 512.173 309.592 512.59 309.463C513.008 309.33 513.447 309.264 513.908 309.264C514.213 309.264 514.536 309.301 514.877 309.374C515.222 309.443 515.544 309.572 515.842 309.761C516.143 309.95 516.39 310.22 516.583 310.572C516.775 310.92 516.871 311.372 516.871 311.929V317H515.419V315.956H515.36C515.263 316.148 515.119 316.337 514.927 316.523C514.735 316.708 514.488 316.862 514.186 316.985C513.885 317.108 513.523 317.169 513.102 317.169ZM513.426 315.976C513.837 315.976 514.188 315.895 514.48 315.732C514.775 315.57 514.998 315.358 515.151 315.096C515.307 314.831 515.384 314.547 515.384 314.246V313.261C515.331 313.314 515.229 313.364 515.076 313.411C514.927 313.454 514.756 313.492 514.564 313.525C514.372 313.555 514.185 313.583 514.002 313.609C513.82 313.633 513.668 313.652 513.545 313.669C513.257 313.705 512.993 313.767 512.754 313.853C512.519 313.939 512.33 314.063 512.188 314.226C512.048 314.385 511.979 314.597 511.979 314.862C511.979 315.23 512.115 315.509 512.387 315.697C512.658 315.883 513.005 315.976 513.426 315.976ZM520.337 312.466V317H518.851V309.364H520.278V310.607H520.372C520.548 310.202 520.823 309.877 521.197 309.632C521.575 309.387 522.051 309.264 522.624 309.264C523.145 309.264 523.6 309.374 523.991 309.592C524.383 309.808 524.686 310.129 524.901 310.557C525.117 310.984 525.224 311.513 525.224 312.143V317H523.738V312.322C523.738 311.768 523.594 311.336 523.305 311.024C523.017 310.709 522.621 310.552 522.117 310.552C521.772 310.552 521.466 310.626 521.197 310.776C520.932 310.925 520.722 311.143 520.566 311.432C520.414 311.717 520.337 312.062 520.337 312.466ZM530.077 317.149C529.46 317.149 528.91 316.992 528.426 316.677C527.946 316.359 527.568 315.906 527.293 315.32C527.021 314.73 526.885 314.022 526.885 313.197C526.885 312.371 527.022 311.665 527.298 311.079C527.576 310.492 527.957 310.043 528.441 309.732C528.925 309.42 529.473 309.264 530.087 309.264C530.561 309.264 530.942 309.344 531.23 309.503C531.522 309.659 531.747 309.841 531.906 310.05C532.069 310.259 532.195 310.442 532.284 310.602H532.374V306.818H533.86V317H532.408V315.812H532.284C532.195 315.974 532.065 316.16 531.896 316.369C531.731 316.577 531.502 316.76 531.21 316.915C530.919 317.071 530.541 317.149 530.077 317.149ZM530.405 315.881C530.832 315.881 531.194 315.769 531.489 315.543C531.787 315.315 532.012 314.998 532.165 314.594C532.321 314.189 532.398 313.719 532.398 313.182C532.398 312.652 532.322 312.187 532.17 311.79C532.017 311.392 531.794 311.082 531.499 310.86C531.204 310.638 530.839 310.527 530.405 310.527C529.957 310.527 529.585 310.643 529.286 310.875C528.988 311.107 528.763 311.424 528.61 311.825C528.461 312.226 528.386 312.678 528.386 313.182C528.386 313.692 528.463 314.151 528.615 314.559C528.768 314.967 528.993 315.29 529.291 315.528C529.593 315.764 529.964 315.881 530.405 315.881ZM539.273 317.154C538.521 317.154 537.873 316.993 537.329 316.672C536.789 316.347 536.371 315.891 536.076 315.305C535.785 314.715 535.639 314.024 535.639 313.232C535.639 312.449 535.785 311.76 536.076 311.163C536.371 310.567 536.782 310.101 537.309 309.766C537.839 309.432 538.459 309.264 539.169 309.264C539.599 309.264 540.017 309.335 540.421 309.478C540.826 309.621 541.189 309.844 541.51 310.149C541.832 310.454 542.085 310.85 542.271 311.337C542.456 311.821 542.549 312.41 542.549 313.102V313.629H536.479V312.516H541.093C541.093 312.125 541.013 311.778 540.854 311.477C540.695 311.172 540.471 310.931 540.183 310.756C539.898 310.58 539.563 310.492 539.178 310.492C538.761 310.492 538.396 310.595 538.085 310.8C537.776 311.003 537.538 311.268 537.369 311.596C537.203 311.921 537.12 312.274 537.12 312.655V313.525C537.12 314.035 537.21 314.469 537.389 314.827C537.571 315.185 537.825 315.459 538.149 315.648C538.474 315.833 538.854 315.926 539.288 315.926C539.57 315.926 539.826 315.886 540.058 315.807C540.29 315.724 540.491 315.601 540.66 315.439C540.829 315.277 540.958 315.076 541.048 314.837L542.455 315.091C542.342 315.505 542.14 315.868 541.848 316.18C541.56 316.488 541.197 316.728 540.759 316.901C540.325 317.07 539.83 317.154 539.273 317.154ZM545.194 309.364L546.879 312.337L548.58 309.364H550.205L547.824 313.182L550.225 317H548.6L546.879 314.146L545.164 317H543.534L545.91 313.182L543.563 309.364H545.194ZM552.711 317.094C552.439 317.094 552.206 316.998 552.01 316.806C551.815 316.611 551.717 316.375 551.717 316.1C551.717 315.828 551.815 315.596 552.01 315.404C552.206 315.209 552.439 315.111 552.711 315.111C552.983 315.111 553.217 315.209 553.412 315.404C553.608 315.596 553.705 315.828 553.705 316.1C553.705 316.282 553.659 316.45 553.566 316.602C553.477 316.751 553.357 316.871 553.208 316.96C553.059 317.05 552.893 317.094 552.711 317.094ZM555.697 317V309.364H557.133V310.577H557.213C557.352 310.166 557.597 309.843 557.949 309.607C558.303 309.369 558.704 309.249 559.152 309.249C559.245 309.249 559.354 309.253 559.48 309.259C559.609 309.266 559.71 309.274 559.783 309.284V310.706C559.724 310.689 559.617 310.671 559.465 310.651C559.313 310.628 559.16 310.616 559.008 310.616C558.656 310.616 558.343 310.691 558.068 310.84C557.796 310.986 557.581 311.19 557.422 311.452C557.263 311.71 557.183 312.005 557.183 312.337V317H555.697ZM565.907 313.833V309.364H567.398V317H565.937V315.678H565.857C565.682 316.085 565.4 316.425 565.012 316.697C564.628 316.965 564.149 317.099 563.575 317.099C563.085 317.099 562.651 316.992 562.273 316.776C561.898 316.558 561.603 316.234 561.388 315.807C561.176 315.379 561.07 314.851 561.07 314.221V309.364H562.556V314.042C562.556 314.562 562.7 314.977 562.989 315.285C563.277 315.593 563.652 315.747 564.112 315.747C564.391 315.747 564.667 315.678 564.942 315.538C565.221 315.399 565.451 315.189 565.634 314.907C565.819 314.625 565.91 314.267 565.907 313.833ZM571.181 303.537V320.281H570.186V303.537H571.181Z" fill="black"/>
<path fill-rule="evenodd" clip-rule="evenodd" d="M838 331H442V330H838V331Z" fill="#3456F3"/>
<path d="M442.881 296H447.327V295.219H443.761V292.747H447.043V291.966H443.761V289.509H447.27V288.727H442.881V296ZM451.869 292.491H448.687V293.273H451.869V292.491ZM453.343 296H454.181V292.591C454.181 291.792 454.764 291.227 455.417 291.227C456.053 291.227 456.497 291.643 456.497 292.264V296H457.349V292.449C457.349 291.746 457.789 291.227 458.556 291.227C459.153 291.227 459.664 291.543 459.664 292.349V296H460.502V292.349C460.502 291.067 459.813 290.474 458.84 290.474C458.059 290.474 457.487 290.833 457.207 291.398H457.15C456.88 290.815 456.404 290.474 455.687 290.474C454.977 290.474 454.451 290.815 454.224 291.398H454.153V290.545H453.343V296ZM463.64 296.128C464.591 296.128 465.089 295.616 465.259 295.261H465.302V296H466.14V292.406C466.14 290.673 464.819 290.474 464.123 290.474C463.299 290.474 462.361 290.759 461.935 291.753L462.731 292.037C462.915 291.639 463.352 291.213 464.151 291.213C464.922 291.213 465.302 291.621 465.302 292.321V292.349C465.302 292.754 464.89 292.719 463.895 292.847C462.883 292.978 461.779 293.202 461.779 294.452C461.779 295.517 462.603 296.128 463.64 296.128ZM463.768 295.375C463.1 295.375 462.617 295.077 462.617 294.494C462.617 293.855 463.199 293.656 463.853 293.571C464.208 293.528 465.16 293.429 465.302 293.259V294.026C465.302 294.707 464.762 295.375 463.768 295.375ZM467.669 296H468.507V290.545H467.669V296ZM468.096 289.636C468.422 289.636 468.692 289.381 468.692 289.068C468.692 288.756 468.422 288.5 468.096 288.5C467.769 288.5 467.499 288.756 467.499 289.068C467.499 289.381 467.769 289.636 468.096 289.636ZM470.881 288.727H470.042V296H470.881V288.727Z" fill="#A0A0A0"/>
<path d="M443.233 248H446.912C449.318 248 450.312 246.827 450.312 245.295C450.312 243.685 449.199 242.81 448.264 242.75V242.651C449.139 242.412 449.915 241.835 449.915 240.523C449.915 239.031 448.92 237.818 446.793 237.818H443.233V248ZM444.466 246.906V243.366H446.972C448.304 243.366 449.139 244.261 449.139 245.295C449.139 246.19 448.523 246.906 446.912 246.906H444.466ZM444.466 242.293V238.912H446.793C448.145 238.912 448.741 239.628 448.741 240.523C448.741 241.597 447.866 242.293 446.753 242.293H444.466ZM453.353 246.27V240.364H452.179V248H453.551L457.211 242.094V248H458.384V240.364H457.032L453.353 246.27ZM459.494 241.457H462.019V248H463.193V241.457H465.698V240.364H459.494V241.457ZM469.26 248.179C470.593 248.179 471.289 247.463 471.528 246.966H471.587V248H472.76V242.969C472.76 240.543 470.911 240.264 469.937 240.264C468.783 240.264 467.471 240.662 466.874 242.054L467.988 242.452C468.246 241.895 468.858 241.298 469.976 241.298C471.055 241.298 471.587 241.87 471.587 242.849V242.889C471.587 243.456 471.01 243.406 469.618 243.585C468.202 243.769 466.655 244.082 466.655 245.832C466.655 247.324 467.809 248.179 469.26 248.179ZM469.439 247.125C468.505 247.125 467.829 246.707 467.829 245.892C467.829 244.997 468.644 244.719 469.559 244.599C470.056 244.54 471.388 244.401 471.587 244.162V245.236C471.587 246.19 470.831 247.125 469.439 247.125ZM474.226 248H474.624C476.314 248 476.801 246.688 476.911 244.182L477.03 241.457H479.834V248H481.007V240.364H475.916L475.777 243.744C475.678 246.31 475.419 246.906 474.504 246.906H474.226V248ZM484.333 246.27V240.364H483.16V248H484.532L488.191 242.094V248H489.364V240.364H488.012L484.333 246.27ZM492.687 246.27V240.364H491.513V248H492.885L496.545 242.094V248H497.718V240.364H496.366L492.687 246.27ZM495.59 237.818C495.59 238.335 495.312 238.793 494.616 238.793C493.92 238.793 493.661 238.335 493.661 237.818H492.567C492.567 238.892 493.363 239.648 494.616 239.648C495.888 239.648 496.684 238.892 496.684 237.818H495.59Z" fill="black"/>
<path fill-rule="evenodd" clip-rule="evenodd" d="M838 262H442V261H838V262Z" fill="#E8E8E8"/>
<path d="M442.881 219.727V227H443.733L447.696 221.29H447.767V227H448.648V219.727H447.795L443.818 225.452H443.747V219.727H442.881ZM453.279 225.864L451.404 221.545H450.296V227H451.134V222.749L452.938 227H453.62L455.424 222.827V227H456.262V221.545H455.183L453.279 225.864ZM461.078 227H461.873V221.545H459.629C458.453 221.545 457.74 222.16 457.74 223.165C457.74 223.914 458.116 224.447 458.773 224.67L457.441 227H458.35L459.615 224.784H461.078V227ZM461.078 224.003H459.529C458.936 224.003 458.578 223.687 458.578 223.165C458.578 222.636 458.975 222.312 459.629 222.312H461.078V224.003Z" fill="#A0A0A0"/>
<path d="M445.938 384.131C445.536 384.131 445.17 384.033 444.839 383.837C444.507 383.638 444.242 383.373 444.043 383.042C443.848 382.71 443.75 382.344 443.75 381.943C443.75 381.539 443.848 381.173 444.043 380.844C444.242 380.513 444.507 380.25 444.839 380.054C445.17 379.855 445.536 379.756 445.938 379.756C446.342 379.756 446.708 379.855 447.036 380.054C447.368 380.25 447.631 380.513 447.827 380.844C448.026 381.173 448.125 381.539 448.125 381.943C448.125 382.344 448.026 382.71 447.827 383.042C447.631 383.373 447.368 383.638 447.036 383.837C446.708 384.033 446.342 384.131 445.938 384.131ZM453.812 384.131C453.411 384.131 453.045 384.033 452.714 383.837C452.382 383.638 452.117 383.373 451.918 383.042C451.723 382.71 451.625 382.344 451.625 381.943C451.625 381.539 451.723 381.173 451.918 380.844C452.117 380.513 452.382 380.25 452.714 380.054C453.045 379.855 453.411 379.756 453.812 379.756C454.217 379.756 454.583 379.855 454.911 380.054C455.243 380.25 455.506 380.513 455.702 380.844C455.901 381.173 456 381.539 456 381.943C456 382.344 455.901 382.71 455.702 383.042C455.506 383.373 455.243 383.638 454.911 383.837C454.583 384.033 454.217 384.131 453.812 384.131ZM461.688 384.131C461.286 384.131 460.92 384.033 460.589 383.837C460.257 383.638 459.992 383.373 459.793 383.042C459.598 382.71 459.5 382.344 459.5 381.943C459.5 381.539 459.598 381.173 459.793 380.844C459.992 380.513 460.257 380.25 460.589 380.054C460.92 379.855 461.286 379.756 461.688 379.756C462.092 379.756 462.458 379.855 462.786 380.054C463.118 380.25 463.381 380.513 463.577 380.844C463.776 381.173 463.875 381.539 463.875 381.943C463.875 382.344 463.776 382.71 463.577 383.042C463.381 383.373 463.118 383.638 462.786 383.837C462.458 384.033 462.092 384.131 461.688 384.131ZM469.562 384.131C469.161 384.131 468.795 384.033 468.464 383.837C468.132 383.638 467.867 383.373 467.668 383.042C467.473 382.71 467.375 382.344 467.375 381.943C467.375 381.539 467.473 381.173 467.668 380.844C467.867 380.513 468.132 380.25 468.464 380.054C468.795 379.855 469.161 379.756 469.562 379.756C469.967 379.756 470.333 379.855 470.661 380.054C470.993 380.25 471.256 380.513 471.452 380.844C471.651 381.173 471.75 381.539 471.75 381.943C471.75 382.344 471.651 382.71 471.452 383.042C471.256 383.373 470.993 383.638 470.661 383.837C470.333 384.033 469.967 384.131 469.562 384.131ZM477.438 384.131C477.036 384.131 476.67 384.033 476.339 383.837C476.007 383.638 475.742 383.373 475.543 383.042C475.348 382.71 475.25 382.344 475.25 381.943C475.25 381.539 475.348 381.173 475.543 380.844C475.742 380.513 476.007 380.25 476.339 380.054C476.67 379.855 477.036 379.756 477.438 379.756C477.842 379.756 478.208 379.855 478.536 380.054C478.868 380.25 479.131 380.513 479.327 380.844C479.526 381.173 479.625 381.539 479.625 381.943C479.625 382.344 479.526 382.71 479.327 383.042C479.131 383.373 478.868 383.638 478.536 383.837C478.208 384.033 477.842 384.131 477.438 384.131ZM485.312 384.131C484.911 384.131 484.545 384.033 484.214 383.837C483.882 383.638 483.617 383.373 483.418 383.042C483.223 382.71 483.125 382.344 483.125 381.943C483.125 381.539 483.223 381.173 483.418 380.844C483.617 380.513 483.882 380.25 484.214 380.054C484.545 379.855 484.911 379.756 485.312 379.756C485.717 379.756 486.083 379.855 486.411 380.054C486.743 380.25 487.006 380.513 487.202 380.844C487.401 381.173 487.5 381.539 487.5 381.943C487.5 382.344 487.401 382.71 487.202 383.042C487.006 383.373 486.743 383.638 486.411 383.837C486.083 384.033 485.717 384.131 485.312 384.131ZM493.188 384.131C492.786 384.131 492.42 384.033 492.089 383.837C491.757 383.638 491.492 383.373 491.293 383.042C491.098 382.71 491 382.344 491 381.943C491 381.539 491.098 381.173 491.293 380.844C491.492 380.513 491.757 380.25 492.089 380.054C492.42 379.855 492.786 379.756 493.188 379.756C493.592 379.756 493.958 379.855 494.286 380.054C494.618 380.25 494.881 380.513 495.077 380.844C495.276 381.173 495.375 381.539 495.375 381.943C495.375 382.344 495.276 382.71 495.077 383.042C494.881 383.373 494.618 383.638 494.286 383.837C493.958 384.033 493.592 384.131 493.188 384.131ZM501.062 384.131C500.661 384.131 500.295 384.033 499.964 383.837C499.632 383.638 499.367 383.373 499.168 383.042C498.973 382.71 498.875 382.344 498.875 381.943C498.875 381.539 498.973 381.173 499.168 380.844C499.367 380.513 499.632 380.25 499.964 380.054C500.295 379.855 500.661 379.756 501.062 379.756C501.467 379.756 501.833 379.855 502.161 380.054C502.493 380.25 502.756 380.513 502.952 380.844C503.151 381.173 503.25 381.539 503.25 381.943C503.25 382.344 503.151 382.71 502.952 383.042C502.756 383.373 502.493 383.638 502.161 383.837C501.833 384.033 501.467 384.131 501.062 384.131ZM508.938 384.131C508.536 384.131 508.17 384.033 507.839 383.837C507.507 383.638 507.242 383.373 507.043 383.042C506.848 382.71 506.75 382.344 506.75 381.943C506.75 381.539 506.848 381.173 507.043 380.844C507.242 380.513 507.507 380.25 507.839 380.054C508.17 379.855 508.536 379.756 508.938 379.756C509.342 379.756 509.708 379.855 510.036 380.054C510.368 380.25 510.631 380.513 510.827 380.844C511.026 381.173 511.125 381.539 511.125 381.943C511.125 382.344 511.026 382.71 510.827 383.042C510.631 383.373 510.368 383.638 510.036 383.837C509.708 384.033 509.342 384.131 508.938 384.131ZM516.812 384.131C516.411 384.131 516.045 384.033 515.714 383.837C515.382 383.638 515.117 383.373 514.918 383.042C514.723 382.71 514.625 382.344 514.625 381.943C514.625 381.539 514.723 381.173 514.918 380.844C515.117 380.513 515.382 380.25 515.714 380.054C516.045 379.855 516.411 379.756 516.812 379.756C517.217 379.756 517.583 379.855 517.911 380.054C518.243 380.25 518.506 380.513 518.702 380.844C518.901 381.173 519 381.539 519 381.943C519 382.344 518.901 382.71 518.702 383.042C518.506 383.373 518.243 383.638 517.911 383.837C517.583 384.033 517.217 384.131 516.812 384.131ZM524.688 384.131C524.286 384.131 523.92 384.033 523.589 383.837C523.257 383.638 522.992 383.373 522.793 383.042C522.598 382.71 522.5 382.344 522.5 381.943C522.5 381.539 522.598 381.173 522.793 380.844C522.992 380.513 523.257 380.25 523.589 380.054C523.92 379.855 524.286 379.756 524.688 379.756C525.092 379.756 525.458 379.855 525.786 380.054C526.118 380.25 526.381 380.513 526.577 380.844C526.776 381.173 526.875 381.539 526.875 381.943C526.875 382.344 526.776 382.71 526.577 383.042C526.381 383.373 526.118 383.638 525.786 383.837C525.458 384.033 525.092 384.131 524.688 384.131ZM532.562 384.131C532.161 384.131 531.795 384.033 531.464 383.837C531.132 383.638 530.867 383.373 530.668 383.042C530.473 382.71 530.375 382.344 530.375 381.943C530.375 381.539 530.473 381.173 530.668 380.844C530.867 380.513 531.132 380.25 531.464 380.054C531.795 379.855 532.161 379.756 532.562 379.756C532.967 379.756 533.333 379.855 533.661 380.054C533.993 380.25 534.256 380.513 534.452 380.844C534.651 381.173 534.75 381.539 534.75 381.943C534.75 382.344 534.651 382.71 534.452 383.042C534.256 383.373 533.993 383.638 533.661 383.837C533.333 384.033 532.967 384.131 532.562 384.131ZM540.438 384.131C540.036 384.131 539.67 384.033 539.339 383.837C539.007 383.638 538.742 383.373 538.543 383.042C538.348 382.71 538.25 382.344 538.25 381.943C538.25 381.539 538.348 381.173 538.543 380.844C538.742 380.513 539.007 380.25 539.339 380.054C539.67 379.855 540.036 379.756 540.438 379.756C540.842 379.756 541.208 379.855 541.536 380.054C541.868 380.25 542.131 380.513 542.327 380.844C542.526 381.173 542.625 381.539 542.625 381.943C542.625 382.344 542.526 382.71 542.327 383.042C542.131 383.373 541.868 383.638 541.536 383.837C541.208 384.033 540.842 384.131 540.438 384.131ZM548.312 384.131C547.911 384.131 547.545 384.033 547.214 383.837C546.882 383.638 546.617 383.373 546.418 383.042C546.223 382.71 546.125 382.344 546.125 381.943C546.125 381.539 546.223 381.173 546.418 380.844C546.617 380.513 546.882 380.25 547.214 380.054C547.545 379.855 547.911 379.756 548.312 379.756C548.717 379.756 549.083 379.855 549.411 380.054C549.743 380.25 550.006 380.513 550.202 380.844C550.401 381.173 550.5 381.539 550.5 381.943C550.5 382.344 550.401 382.71 550.202 383.042C550.006 383.373 549.743 383.638 549.411 383.837C549.083 384.033 548.717 384.131 548.312 384.131Z" fill="#EE3465"/>
<path fill-rule="evenodd" clip-rule="evenodd" d="M838 400H442V399H838V400Z" fill="#E8E8E8"/>
<path d="M448.321 357.727H442.895V365H443.776V358.509H447.44V365H448.321V357.727ZM451.589 365.128C452.541 365.128 453.038 364.616 453.208 364.261H453.251V365H454.089V361.406C454.089 359.673 452.768 359.474 452.072 359.474C451.248 359.474 450.311 359.759 449.884 360.753L450.68 361.037C450.865 360.639 451.301 360.213 452.1 360.213C452.871 360.213 453.251 360.621 453.251 361.321V361.349C453.251 361.754 452.839 361.719 451.845 361.847C450.833 361.978 449.728 362.202 449.728 363.452C449.728 364.517 450.552 365.128 451.589 365.128ZM451.717 364.375C451.049 364.375 450.566 364.077 450.566 363.494C450.566 362.855 451.149 362.656 451.802 362.571C452.157 362.528 453.109 362.429 453.251 362.259V363.026C453.251 363.707 452.711 364.375 451.717 364.375ZM455.619 367.045H456.457V364.162H456.528C456.712 364.46 457.067 365.114 458.119 365.114C459.482 365.114 460.434 364.02 460.434 362.287C460.434 360.568 459.482 359.474 458.104 359.474C457.039 359.474 456.712 360.128 456.528 360.412H456.428V359.545H455.619V367.045ZM456.442 362.273C456.442 361.051 456.982 360.227 458.005 360.227C459.07 360.227 459.596 361.122 459.596 362.273C459.596 363.438 459.056 364.361 458.005 364.361C456.996 364.361 456.442 363.509 456.442 362.273ZM463.928 365.114C465.406 365.114 466.4 363.991 466.4 362.301C466.4 360.597 465.406 359.474 463.928 359.474C462.451 359.474 461.457 360.597 461.457 362.301C461.457 363.991 462.451 365.114 463.928 365.114ZM463.928 364.361C462.806 364.361 462.295 363.395 462.295 362.301C462.295 361.207 462.806 360.227 463.928 360.227C465.05 360.227 465.562 361.207 465.562 362.301C465.562 363.395 465.05 364.361 463.928 364.361ZM467.196 365H467.48C468.688 365 469.036 364.062 469.114 362.273L469.199 360.327H471.202V365H472.04V359.545H468.404L468.304 361.96C468.233 363.793 468.048 364.219 467.395 364.219H467.196V365ZM474.416 361.52V359.545H473.578V365H475.865C477.143 365 477.839 364.219 477.839 363.239C477.839 362.244 477.143 361.52 475.865 361.52H474.416ZM474.416 362.301H475.865C476.529 362.301 477.001 362.706 477.001 363.281C477.001 363.832 476.529 364.219 475.865 364.219H474.416V362.301Z" fill="#A0A0A0"/>
<path d="M442.952 408.727H443.832V411.156C443.832 411.516 443.895 411.799 444.021 412.005C444.146 412.209 444.324 412.353 444.553 412.438C444.783 412.521 445.054 412.562 445.366 412.562C445.563 412.562 445.754 412.555 445.938 412.541C446.123 412.525 446.303 412.502 446.478 412.474C446.656 412.445 446.828 412.411 446.996 412.371C447.167 412.33 447.334 412.286 447.497 412.236V413.031C447.339 413.081 447.181 413.126 447.025 413.166C446.871 413.206 446.71 413.241 446.542 413.269C446.376 413.298 446.197 413.32 446.006 413.337C445.814 413.351 445.601 413.358 445.366 413.358C444.865 413.358 444.433 413.286 444.07 413.141C443.71 412.997 443.433 412.764 443.239 412.442C443.048 412.12 442.952 411.691 442.952 411.156V408.727ZM447.384 408.727H448.264V416H447.384V408.727ZM449.603 411.327V410.545H454.035V411.327H452.245V416H451.407V411.327H449.603ZM457.19 416.114C456.698 416.114 456.266 415.996 455.894 415.762C455.525 415.528 455.236 415.2 455.027 414.778C454.821 414.357 454.718 413.865 454.718 413.301C454.718 412.733 454.821 412.237 455.027 411.813C455.236 411.389 455.525 411.06 455.894 410.826C456.266 410.592 456.698 410.474 457.19 410.474C457.682 410.474 458.113 410.592 458.483 410.826C458.854 411.06 459.143 411.389 459.349 411.813C459.557 412.237 459.662 412.733 459.662 413.301C459.662 413.865 459.557 414.357 459.349 414.778C459.143 415.2 458.854 415.528 458.483 415.762C458.113 415.996 457.682 416.114 457.19 416.114ZM457.19 415.361C457.564 415.361 457.872 415.265 458.113 415.073C458.355 414.881 458.533 414.629 458.65 414.317C458.766 414.004 458.824 413.666 458.824 413.301C458.824 412.937 458.766 412.597 458.65 412.282C458.533 411.967 458.355 411.713 458.113 411.518C457.872 411.324 457.564 411.227 457.19 411.227C456.816 411.227 456.508 411.324 456.267 411.518C456.025 411.713 455.846 411.967 455.73 412.282C455.614 412.597 455.556 412.937 455.556 413.301C455.556 413.666 455.614 414.004 455.73 414.317C455.846 414.629 456.025 414.881 456.267 415.073C456.508 415.265 456.816 415.361 457.19 415.361ZM464.066 412.491V413.273H460.884V412.491H464.066ZM464.945 411.327V410.545H469.377V411.327H467.587V416H466.749V411.327H464.945ZM472.532 416.114C472.039 416.114 471.607 415.996 471.236 415.762C470.866 415.528 470.577 415.2 470.369 414.778C470.163 414.357 470.06 413.865 470.06 413.301C470.06 412.733 470.163 412.237 470.369 411.813C470.577 411.389 470.866 411.06 471.236 410.826C471.607 410.592 472.039 410.474 472.532 410.474C473.024 410.474 473.455 410.592 473.824 410.826C474.196 411.06 474.485 411.389 474.691 411.813C474.899 412.237 475.003 412.733 475.003 413.301C475.003 413.865 474.899 414.357 474.691 414.778C474.485 415.2 474.196 415.528 473.824 415.762C473.455 415.996 473.024 416.114 472.532 416.114ZM472.532 415.361C472.906 415.361 473.214 415.265 473.455 415.073C473.697 414.881 473.875 414.629 473.991 414.317C474.107 414.004 474.165 413.666 474.165 413.301C474.165 412.937 474.107 412.597 473.991 412.282C473.875 411.967 473.697 411.713 473.455 411.518C473.214 411.324 472.906 411.227 472.532 411.227C472.158 411.227 471.85 411.324 471.608 411.518C471.367 411.713 471.188 411.967 471.072 412.282C470.956 412.597 470.898 412.937 470.898 413.301C470.898 413.666 470.956 414.004 471.072 414.317C471.188 414.629 471.367 414.881 471.608 415.073C471.85 415.265 472.158 415.361 472.532 415.361ZM479.095 416V410.545H483.385V416H482.547V411.327H479.933V416H479.095ZM487.131 416.114C486.639 416.114 486.207 415.996 485.835 415.762C485.466 415.528 485.177 415.2 484.969 414.778C484.763 414.357 484.66 413.865 484.66 413.301C484.66 412.733 484.763 412.237 484.969 411.813C485.177 411.389 485.466 411.06 485.835 410.826C486.207 410.592 486.639 410.474 487.131 410.474C487.624 410.474 488.055 410.592 488.424 410.826C488.796 411.06 489.085 411.389 489.29 411.813C489.499 412.237 489.603 412.733 489.603 413.301C489.603 413.865 489.499 414.357 489.29 414.778C489.085 415.2 488.796 415.528 488.424 415.762C488.055 415.996 487.624 416.114 487.131 416.114ZM487.131 415.361C487.505 415.361 487.813 415.265 488.055 415.073C488.296 414.881 488.475 414.629 488.591 414.317C488.707 414.004 488.765 413.666 488.765 413.301C488.765 412.937 488.707 412.597 488.591 412.282C488.475 411.967 488.296 411.713 488.055 411.518C487.813 411.324 487.505 411.227 487.131 411.227C486.757 411.227 486.45 411.324 486.208 411.518C485.967 411.713 485.788 411.967 485.672 412.282C485.556 412.597 485.498 412.937 485.498 413.301C485.498 413.666 485.556 414.004 485.672 414.317C485.788 414.629 485.967 414.881 486.208 415.073C486.45 415.265 486.757 415.361 487.131 415.361ZM490.882 410.545H491.72V415.219H493.78V410.545H494.618V415.219H496.678V410.545H497.516V416H490.882V410.545ZM498.563 416V415.219H498.762C498.926 415.219 499.062 415.187 499.171 415.123C499.28 415.057 499.367 414.942 499.433 414.778C499.502 414.613 499.554 414.383 499.59 414.089C499.628 413.794 499.655 413.417 499.671 412.96L499.771 410.545H503.407V416H502.569V411.327H500.566L500.481 413.273C500.462 413.72 500.422 414.114 500.36 414.455C500.301 414.794 500.21 415.078 500.087 415.308C499.966 415.537 499.805 415.71 499.604 415.826C499.403 415.942 499.151 416 498.847 416H498.563ZM507.161 416.114C506.668 416.114 506.236 415.996 505.865 415.762C505.495 415.528 505.206 415.2 504.998 414.778C504.792 414.357 504.689 413.865 504.689 413.301C504.689 412.733 504.792 412.237 504.998 411.813C505.206 411.389 505.495 411.06 505.865 410.826C506.236 410.592 506.668 410.474 507.161 410.474C507.653 410.474 508.084 410.592 508.453 410.826C508.825 411.06 509.114 411.389 509.32 411.813C509.528 412.237 509.632 412.733 509.632 413.301C509.632 413.865 509.528 414.357 509.32 414.778C509.114 415.2 508.825 415.528 508.453 415.762C508.084 415.996 507.653 416.114 507.161 416.114ZM507.161 415.361C507.535 415.361 507.843 415.265 508.084 415.073C508.325 414.881 508.504 414.629 508.62 414.317C508.736 414.004 508.794 413.666 508.794 413.301C508.794 412.937 508.736 412.597 508.62 412.282C508.504 411.967 508.325 411.713 508.084 411.518C507.843 411.324 507.535 411.227 507.161 411.227C506.787 411.227 506.479 411.324 506.237 411.518C505.996 411.713 505.817 411.967 505.701 412.282C505.585 412.597 505.527 412.937 505.527 413.301C505.527 413.666 505.585 414.004 505.701 414.317C505.817 414.629 505.996 414.881 506.237 415.073C506.479 415.265 506.787 415.361 507.161 415.361ZM517.375 412.889V413.67H514.363V412.889H517.375ZM514.562 410.545V416H513.724V410.545H514.562ZM518.014 410.545V416H517.176V410.545H518.014ZM521.831 416.114C521.306 416.114 520.852 415.998 520.471 415.766C520.092 415.531 519.8 415.205 519.594 414.786C519.391 414.364 519.289 413.874 519.289 413.315C519.289 412.757 519.391 412.264 519.594 411.838C519.8 411.41 520.087 411.076 520.453 410.837C520.823 410.595 521.254 410.474 521.746 410.474C522.03 410.474 522.311 410.522 522.588 410.616C522.865 410.711 523.117 410.865 523.344 411.078C523.571 411.289 523.752 411.568 523.887 411.916C524.022 412.264 524.09 412.693 524.09 413.202V413.557H519.885V412.832H523.238C523.238 412.525 523.176 412.25 523.053 412.009C522.932 411.767 522.759 411.576 522.534 411.437C522.312 411.297 522.049 411.227 521.746 411.227C521.412 411.227 521.123 411.31 520.88 411.476C520.638 411.639 520.452 411.852 520.322 412.115C520.192 412.378 520.127 412.66 520.127 412.96V413.443C520.127 413.855 520.198 414.204 520.34 414.491C520.484 414.775 520.684 414.991 520.94 415.141C521.196 415.287 521.493 415.361 521.831 415.361C522.051 415.361 522.25 415.33 522.428 415.268C522.608 415.205 522.763 415.11 522.893 414.984C523.023 414.857 523.124 414.698 523.195 414.509L524.005 414.736C523.919 415.01 523.776 415.252 523.575 415.46C523.374 415.666 523.125 415.827 522.829 415.943C522.533 416.057 522.201 416.114 521.831 416.114ZM527.865 411.327V410.545H532.297V411.327H530.507V416H529.669V411.327H527.865ZM534.841 416.128C534.495 416.128 534.182 416.063 533.9 415.933C533.618 415.8 533.394 415.609 533.229 415.361C533.063 415.11 532.98 414.807 532.98 414.452C532.98 414.139 533.042 413.886 533.165 413.692C533.288 413.495 533.452 413.341 533.658 413.23C533.864 413.119 534.092 413.036 534.34 412.982C534.591 412.925 534.843 412.88 535.097 412.847C535.428 412.804 535.697 412.772 535.903 412.751C536.111 412.727 536.263 412.688 536.357 412.634C536.454 412.579 536.503 412.484 536.503 412.349V412.321C536.503 411.971 536.407 411.698 536.215 411.504C536.026 411.31 535.738 411.213 535.352 411.213C534.952 411.213 534.638 411.301 534.411 411.476C534.184 411.651 534.024 411.838 533.932 412.037L533.136 411.753C533.278 411.421 533.468 411.163 533.705 410.979C533.944 410.792 534.204 410.661 534.486 410.588C534.77 410.512 535.049 410.474 535.324 410.474C535.499 410.474 535.7 410.496 535.928 410.538C536.157 410.579 536.379 410.663 536.592 410.79C536.807 410.918 536.986 411.111 537.128 411.369C537.27 411.627 537.341 411.973 537.341 412.406V416H536.503V415.261H536.46C536.403 415.38 536.309 415.506 536.176 415.641C536.044 415.776 535.867 415.891 535.647 415.986C535.427 416.08 535.158 416.128 534.841 416.128ZM534.969 415.375C535.3 415.375 535.58 415.31 535.807 415.18C536.036 415.049 536.209 414.881 536.325 414.675C536.444 414.469 536.503 414.253 536.503 414.026V413.259C536.467 413.301 536.389 413.34 536.268 413.376C536.15 413.409 536.013 413.438 535.857 413.464C535.703 413.488 535.552 413.509 535.406 413.528C535.261 413.545 535.144 413.559 535.054 413.571C534.836 413.599 534.633 413.646 534.443 413.71C534.256 413.771 534.105 413.865 533.989 413.99C533.875 414.113 533.818 414.281 533.818 414.494C533.818 414.786 533.926 415.006 534.141 415.155C534.359 415.302 534.635 415.375 534.969 415.375ZM538.871 416V410.545H539.709V412.918H540.263L542.223 410.545H543.302L541.101 413.173L543.331 416H542.251L540.461 413.699H539.709V416H538.871ZM544.852 416.057C544.677 416.057 544.527 415.994 544.401 415.869C544.276 415.743 544.213 415.593 544.213 415.418C544.213 415.242 544.276 415.092 544.401 414.967C544.527 414.841 544.677 414.778 544.852 414.778C545.028 414.778 545.178 414.841 545.303 414.967C545.429 415.092 545.492 415.242 545.492 415.418C545.492 415.534 545.462 415.64 545.403 415.737C545.346 415.834 545.269 415.912 545.172 415.972C545.077 416.028 544.971 416.057 544.852 416.057ZM547.606 416.057C547.431 416.057 547.281 415.994 547.155 415.869C547.03 415.743 546.967 415.593 546.967 415.418C546.967 415.242 547.03 415.092 547.155 414.967C547.281 414.841 547.431 414.778 547.606 414.778C547.782 414.778 547.932 414.841 548.057 414.967C548.183 415.092 548.246 415.242 548.246 415.418C548.246 415.534 548.216 415.64 548.157 415.737C548.1 415.834 548.023 415.912 547.926 415.972C547.831 416.028 547.725 416.057 547.606 416.057ZM550.36 416.057C550.185 416.057 550.035 415.994 549.909 415.869C549.784 415.743 549.721 415.593 549.721 415.418C549.721 415.242 549.784 415.092 549.909 414.967C550.035 414.841 550.185 414.778 550.36 414.778C550.535 414.778 550.686 414.841 550.811 414.967C550.937 415.092 550.999 415.242 550.999 415.418C550.999 415.534 550.97 415.64 550.911 415.737C550.854 415.834 550.777 415.912 550.68 415.972C550.585 416.028 550.479 416.057 550.36 416.057Z" fill="#EE3465"/>
<rect x="442" y="552" width="396" height="45" rx="3" fill="#3456F3"/>
<path d="M571.022 579.139C573.1 579.139 574.627 577.896 574.622 576.206C574.627 574.918 573.846 573.994 572.494 573.785V573.705C573.558 573.432 574.249 572.597 574.244 571.453C574.249 569.957 573.021 568.679 571.062 568.679C569.193 568.679 567.691 569.808 567.642 571.463H569.128C569.163 570.528 570.043 569.962 571.042 569.962C572.081 569.962 572.762 570.593 572.757 571.533C572.762 572.517 571.972 573.163 570.843 573.163H569.983V574.416H570.843C572.255 574.416 573.07 575.132 573.07 576.156C573.07 577.146 572.21 577.817 571.012 577.817C569.909 577.817 569.048 577.25 568.989 576.345H567.428C567.492 578.006 568.964 579.139 571.022 579.139ZM578.743 579.169C580.006 579.169 580.717 578.528 581 577.956H581.06V579H582.512V573.929C582.512 571.707 580.762 571.264 579.548 571.264C578.166 571.264 576.894 571.821 576.396 573.213L577.794 573.531C578.012 572.989 578.569 572.467 579.568 572.467C580.528 572.467 581.02 572.969 581.02 573.835V573.869C581.02 574.411 580.463 574.401 579.091 574.56C577.644 574.729 576.163 575.107 576.163 576.842C576.163 578.344 577.291 579.169 578.743 579.169ZM579.066 577.976C578.226 577.976 577.619 577.598 577.619 576.862C577.619 576.067 578.325 575.783 579.186 575.669C579.668 575.604 580.811 575.475 581.025 575.261V576.246C581.025 577.151 580.304 577.976 579.066 577.976ZM584.491 581.864H585.978V577.812H586.067C586.336 578.299 586.883 579.149 588.275 579.149C590.124 579.149 591.467 577.668 591.467 575.197C591.467 572.721 590.104 571.264 588.26 571.264C586.843 571.264 586.331 572.129 586.067 572.602H585.943V571.364H584.491V581.864ZM585.948 575.182C585.948 573.586 586.644 572.527 587.942 572.527C589.289 572.527 589.965 573.665 589.965 575.182C589.965 576.713 589.269 577.881 587.942 577.881C586.664 577.881 585.948 576.788 585.948 575.182ZM596.423 579.154C598.089 579.154 599.267 578.334 599.605 577.091L598.198 576.837C597.93 577.558 597.283 577.926 596.438 577.926C595.165 577.926 594.31 577.101 594.271 575.629H599.7V575.102C599.7 572.343 598.049 571.264 596.319 571.264C594.191 571.264 592.789 572.885 592.789 575.232C592.789 577.603 594.171 579.154 596.423 579.154ZM594.276 574.516C594.335 573.432 595.121 572.492 596.329 572.492C597.482 572.492 598.238 573.347 598.243 574.516H594.276ZM606.231 571.364H601.349V579H602.816V572.646H606.231V571.364ZM609.259 576.917V571.364H607.802V579H609.418L612.769 573.442V579H614.225V571.364H612.624L609.259 576.917ZM619.441 579.154C621.245 579.154 622.414 578.07 622.578 576.584H621.131C620.942 577.409 620.301 577.896 619.45 577.896C618.193 577.896 617.382 576.847 617.382 575.182C617.382 573.546 618.208 572.517 619.45 572.517C620.395 572.517 620.972 573.114 621.131 573.83H622.578C622.419 572.288 621.161 571.264 619.426 571.264C617.273 571.264 615.881 572.885 615.881 575.217C615.881 577.518 617.223 579.154 619.441 579.154ZM623.589 572.646H626.09V579H627.542V572.646H630.032V571.364H623.589V572.646ZM631.605 581.864H633.091V577.812H633.181C633.449 578.299 633.996 579.149 635.388 579.149C637.238 579.149 638.58 577.668 638.58 575.197C638.58 572.721 637.218 571.264 635.373 571.264C633.956 571.264 633.444 572.129 633.181 572.602H633.056V571.364H631.605V581.864ZM633.061 575.182C633.061 573.586 633.757 572.527 635.055 572.527C636.402 572.527 637.078 573.665 637.078 575.182C637.078 576.713 636.382 577.881 635.055 577.881C633.777 577.881 633.061 576.788 633.061 575.182ZM641.702 576.917V571.364H640.245V579H641.861L645.212 573.442V579H646.669V571.364H645.068L641.702 576.917ZM648.667 581.864H650.154V577.812H650.243C650.512 578.299 651.059 579.149 652.451 579.149C654.3 579.149 655.642 577.668 655.642 575.197C655.642 572.721 654.28 571.264 652.436 571.264C651.019 571.264 650.507 572.129 650.243 572.602H650.119V571.364H648.667V581.864ZM650.124 575.182C650.124 573.586 650.82 572.527 652.118 572.527C653.465 572.527 654.141 573.665 654.141 575.182C654.141 576.713 653.445 577.881 652.118 577.881C650.84 577.881 650.124 576.788 650.124 575.182ZM660.525 579.154C662.677 579.154 664.084 577.578 664.084 575.217C664.084 572.84 662.677 571.264 660.525 571.264C658.372 571.264 656.965 572.84 656.965 575.217C656.965 577.578 658.372 579.154 660.525 579.154ZM660.529 577.906C659.123 577.906 658.466 576.678 658.466 575.212C658.466 573.75 659.123 572.507 660.529 572.507C661.926 572.507 662.583 573.75 662.583 575.212C662.583 576.678 661.926 577.906 660.529 577.906ZM665.743 579H669.393C671.063 579 672.042 578.155 672.042 576.942C672.042 575.808 671.172 575.112 670.153 574.993C671.093 574.814 671.714 574.297 671.714 573.402C671.714 572.149 670.631 571.364 668.91 571.364H665.743V579ZM667.14 577.757V575.634H669.393C670.128 575.634 670.571 576.067 670.571 576.778C670.571 577.384 670.128 577.757 669.393 577.757H667.14ZM667.14 574.545V572.621H668.91C669.756 572.621 670.268 572.974 670.268 573.561C670.268 574.173 669.76 574.545 668.925 574.545H667.14ZM675.895 579.169C677.158 579.169 677.869 578.528 678.153 577.956H678.212V579H679.664V573.929C679.664 571.707 677.914 571.264 676.701 571.264C675.319 571.264 674.046 571.821 673.549 573.213L674.946 573.531C675.165 572.989 675.721 572.467 676.721 572.467C677.68 572.467 678.172 572.969 678.172 573.835V573.869C678.172 574.411 677.616 574.401 676.243 574.56C674.797 574.729 673.315 575.107 673.315 576.842C673.315 578.344 674.444 579.169 675.895 579.169ZM676.219 577.976C675.378 577.976 674.772 577.598 674.772 576.862C674.772 576.067 675.478 575.783 676.338 575.669C676.82 575.604 677.964 575.475 678.177 575.261V576.246C678.177 577.151 677.456 577.976 676.219 577.976ZM680.697 572.646H683.197V579H684.649V572.646H687.14V571.364H680.697V572.646ZM690.169 573.989V571.364H688.712V579H692.048C693.917 579 694.961 577.916 694.961 576.479C694.961 575.013 693.917 573.989 692.048 573.989H690.169ZM690.169 575.271H692.048C692.903 575.271 693.515 575.788 693.515 576.524C693.515 577.22 692.903 577.717 692.048 577.717H690.169V575.271ZM699.845 579.154C701.65 579.154 702.818 578.07 702.982 576.584H701.535C701.346 577.409 700.705 577.896 699.855 577.896C698.597 577.896 697.787 576.847 697.787 575.182C697.787 573.546 698.612 572.517 699.855 572.517C700.799 572.517 701.376 573.114 701.535 573.83H702.982C702.823 572.288 701.565 571.264 699.83 571.264C697.677 571.264 696.285 572.885 696.285 575.217C696.285 577.518 697.627 579.154 699.845 579.154ZM709.126 579H710.523V571.364H707.296C705.536 571.364 704.462 572.273 704.462 573.71C704.462 574.714 704.989 575.455 705.899 575.798L704.114 579H705.635L707.301 576.012H709.126V579ZM709.126 574.809H707.197C706.386 574.809 705.914 574.381 705.919 573.73C705.914 573.074 706.426 572.631 707.296 572.631H709.126V574.809Z" fill="white"/>
<path d="M532.894 627.139H533.55C535.101 627.139 535.559 626.304 535.976 625.349L539.496 616.818H538.184L535.618 623.142L532.814 616.818H531.482L535.002 624.614L534.843 624.991C534.624 625.489 534.266 625.986 533.53 625.986H532.894V627.139ZM540.457 627H541.869L544.474 623.719H545.071V627H546.244V623.719H546.84L549.426 627H550.838L547.755 623.122L550.798 619.364H549.406L546.86 622.625H546.244V619.364H545.071V622.625H544.434L541.889 619.364H540.497L543.559 623.122L540.457 627ZM555.402 627.159C556.953 627.159 558.086 626.384 558.444 625.23L557.311 624.912C557.012 625.707 556.321 626.105 555.402 626.105C554.024 626.105 553.075 625.215 553.02 623.58H558.563V623.082C558.563 620.239 556.873 619.264 555.282 619.264C553.214 619.264 551.842 620.895 551.842 623.241C551.842 625.588 553.194 627.159 555.402 627.159ZM553.02 622.565C553.1 621.377 553.94 620.318 555.282 620.318C556.555 620.318 557.37 621.273 557.37 622.565H553.02ZM563.809 625.051C563.848 626.304 565.046 627.159 566.672 627.159C568.343 627.159 569.556 626.264 569.556 624.872C569.556 623.918 568.984 623.142 568.124 623.082V623.003C568.85 622.779 569.397 622.252 569.397 621.392C569.397 620.184 568.362 619.264 566.752 619.264C565.161 619.264 564.027 620.139 563.987 621.372H565.22C565.255 620.741 565.916 620.298 566.811 620.298C567.701 620.298 568.203 620.751 568.203 621.432C568.203 622.068 567.766 622.545 566.831 622.545H565.519V623.599H566.831C567.766 623.599 568.362 624.112 568.362 624.872C568.362 625.742 567.592 626.105 566.652 626.105C565.733 626.105 565.116 625.742 565.061 625.051H563.809ZM573.451 627.179C574.783 627.179 575.479 626.463 575.718 625.966H575.778V627H576.951V621.969C576.951 619.543 575.101 619.264 574.127 619.264C572.974 619.264 571.661 619.662 571.065 621.054L572.178 621.452C572.437 620.895 573.048 620.298 574.167 620.298C575.246 620.298 575.778 620.87 575.778 621.849V621.889C575.778 622.456 575.201 622.406 573.809 622.585C572.392 622.769 570.846 623.082 570.846 624.832C570.846 626.324 571.999 627.179 573.451 627.179ZM573.63 626.125C572.695 626.125 572.019 625.707 572.019 624.892C572.019 623.997 572.834 623.719 573.749 623.599C574.246 623.54 575.579 623.401 575.778 623.162V624.236C575.778 625.19 575.022 626.125 573.63 626.125ZM579.092 629.864H580.266V625.827H580.365C580.624 626.244 581.121 627.159 582.592 627.159C584.502 627.159 585.834 625.628 585.834 623.202C585.834 620.795 584.502 619.264 582.573 619.264C581.081 619.264 580.624 620.179 580.365 620.577H580.226V619.364H579.092V629.864ZM580.246 623.182C580.246 621.472 581.002 620.318 582.433 620.318C583.925 620.318 584.661 621.571 584.661 623.182C584.661 624.812 583.905 626.105 582.433 626.105C581.021 626.105 580.246 624.912 580.246 623.182ZM590.825 627.159C592.377 627.159 593.51 626.384 593.868 625.23L592.734 624.912C592.436 625.707 591.745 626.105 590.825 626.105C589.448 626.105 588.499 625.215 588.444 623.58H593.987V623.082C593.987 620.239 592.297 619.264 590.706 619.264C588.638 619.264 587.266 620.895 587.266 623.241C587.266 625.588 588.618 627.159 590.825 627.159ZM588.444 622.565C588.524 621.377 589.364 620.318 590.706 620.318C591.979 620.318 592.794 621.273 592.794 622.565H588.444ZM600.485 619.364H595.772V627H596.945V620.457H600.485V619.364ZM603.371 625.27V619.364H602.198V627H603.57L607.229 621.094V627H608.402V619.364H607.05L603.371 625.27ZM613.654 627.159C615.344 627.159 616.458 626.125 616.657 624.773H615.483C615.264 625.608 614.568 626.105 613.654 626.105C612.262 626.105 611.367 624.952 611.367 623.182C611.367 621.452 612.282 620.318 613.654 620.318C614.688 620.318 615.304 620.955 615.483 621.651H616.657C616.458 620.219 615.245 619.264 613.634 619.264C611.566 619.264 610.193 620.895 610.193 623.222C610.193 625.509 611.506 627.159 613.654 627.159ZM617.77 620.457H620.296V627H621.469V620.457H623.975V619.364H617.77V620.457ZM625.686 629.864H626.859V625.827H626.959C627.217 626.244 627.715 627.159 629.186 627.159C631.095 627.159 632.428 625.628 632.428 623.202C632.428 620.795 631.095 619.264 629.166 619.264C627.675 619.264 627.217 620.179 626.959 620.577H626.82V619.364H625.686V629.864ZM626.84 623.182C626.84 621.472 627.595 620.318 629.027 620.318C630.519 620.318 631.254 621.571 631.254 623.182C631.254 624.812 630.499 626.105 629.027 626.105C627.615 626.105 626.84 624.912 626.84 623.182ZM635.391 625.27V619.364H634.217V627H635.59L639.249 621.094V627H640.422V619.364H639.07L635.391 625.27ZM642.571 629.864H643.744V625.827H643.844C644.102 626.244 644.599 627.159 646.071 627.159C647.98 627.159 649.312 625.628 649.312 623.202C649.312 620.795 647.98 619.264 646.051 619.264C644.56 619.264 644.102 620.179 643.844 620.577H643.704V619.364H642.571V629.864ZM643.724 623.182C643.724 621.472 644.48 620.318 645.912 620.318C647.403 620.318 648.139 621.571 648.139 623.182C648.139 624.812 647.383 626.105 645.912 626.105C644.5 626.105 643.724 624.912 643.724 623.182ZM654.204 627.159C656.273 627.159 657.665 625.588 657.665 623.222C657.665 620.835 656.273 619.264 654.204 619.264C652.136 619.264 650.744 620.835 650.744 623.222C650.744 625.588 652.136 627.159 654.204 627.159ZM654.204 626.105C652.633 626.105 651.918 624.753 651.918 623.222C651.918 621.69 652.633 620.318 654.204 620.318C655.775 620.318 656.491 621.69 656.491 623.222C656.491 624.753 655.775 626.105 654.204 626.105ZM659.456 627H663.055C664.606 627 665.541 626.125 665.541 624.952C665.541 623.754 664.631 623.107 663.791 622.983C664.651 622.804 665.263 622.322 665.263 621.392C665.263 620.174 664.218 619.364 662.578 619.364H659.456V627ZM660.569 625.926V623.58H663.055C663.861 623.58 664.348 624.062 664.348 624.852C664.348 625.518 663.861 625.926 663.055 625.926H660.569ZM660.569 622.565V620.438H662.578C663.517 620.438 664.089 620.83 664.089 621.472C664.089 622.153 663.517 622.565 662.578 622.565H660.569ZM669.564 627.179C670.897 627.179 671.593 626.463 671.831 625.966H671.891V627H673.064V621.969C673.064 619.543 671.215 619.264 670.24 619.264C669.087 619.264 667.774 619.662 667.178 621.054L668.291 621.452C668.55 620.895 669.161 620.298 670.28 620.298C671.359 620.298 671.891 620.87 671.891 621.849V621.889C671.891 622.456 671.314 622.406 669.922 622.585C668.505 622.769 666.959 623.082 666.959 624.832C666.959 626.324 668.112 627.179 669.564 627.179ZM669.743 626.125C668.809 626.125 668.132 625.707 668.132 624.892C668.132 623.997 668.948 623.719 669.862 623.599C670.36 623.54 671.692 623.401 671.891 623.162V624.236C671.891 625.19 671.135 626.125 669.743 626.125ZM676.379 619.364H675.206V627H676.379V623.739H680.038V627H681.211V619.364H680.038V622.645H676.379V619.364ZM684.527 622.128V619.364H683.354V627H686.556C688.346 627 689.32 625.906 689.32 624.534C689.32 623.142 688.346 622.128 686.556 622.128H684.527ZM690.533 627H691.706V619.364H690.533V627ZM684.527 623.222H686.556C687.486 623.222 688.147 623.788 688.147 624.594C688.147 625.364 687.486 625.906 686.556 625.906H684.527V623.222ZM695.385 624.136H696.579V624.077C696.598 622.844 696.917 622.307 697.792 621.76C698.667 621.228 699.184 620.462 699.184 619.364C699.184 617.812 698.05 616.679 696.3 616.679C694.689 616.679 693.412 617.673 693.337 619.364H694.59C694.665 618.19 695.485 617.713 696.3 617.713C697.235 617.713 697.991 618.33 697.991 619.304C697.991 620.094 697.538 620.661 696.956 621.014C695.982 621.606 695.4 622.183 695.385 624.077V624.136ZM696.022 627.08C696.514 627.08 696.917 626.677 696.917 626.185C696.917 625.692 696.514 625.29 696.022 625.29C695.53 625.29 695.127 625.692 695.127 626.185C695.127 626.677 695.53 627.08 696.022 627.08Z" fill="#A0A0A0"/>
<path d="M707.711 627H711.39C713.797 627 714.791 625.827 714.791 624.295C714.791 622.685 713.677 621.81 712.743 621.75V621.651C713.618 621.412 714.393 620.835 714.393 619.523C714.393 618.031 713.399 616.818 711.271 616.818H707.711V627ZM708.944 625.906V622.366H711.45C712.782 622.366 713.618 623.261 713.618 624.295C713.618 625.19 713.001 625.906 711.39 625.906H708.944ZM708.944 621.293V617.912H711.271C712.623 617.912 713.22 618.628 713.22 619.523C713.22 620.597 712.345 621.293 711.231 621.293H708.944ZM719.76 627.159C721.828 627.159 723.22 625.588 723.22 623.222C723.22 620.835 721.828 619.264 719.76 619.264C717.692 619.264 716.3 620.835 716.3 623.222C716.3 625.588 717.692 627.159 719.76 627.159ZM719.76 626.105C718.189 626.105 717.473 624.753 717.473 623.222C717.473 621.69 718.189 620.318 719.76 620.318C721.331 620.318 722.047 621.69 722.047 623.222C722.047 624.753 721.331 626.105 719.76 626.105ZM726.185 625.27V619.364H725.011V627H726.384L730.043 621.094V627H731.216V619.364H729.864L726.185 625.27ZM729.088 616.818C729.088 617.335 728.81 617.793 728.114 617.793C727.418 617.793 727.159 617.335 727.159 616.818H726.065C726.065 617.892 726.861 618.648 728.114 618.648C729.386 618.648 730.182 617.892 730.182 616.818H729.088ZM732.326 620.457H734.851V627H736.025V620.457H738.53V619.364H732.326V620.457ZM741.415 625.27V619.364H740.242V627H741.614L745.273 621.094V627H746.446V619.364H745.094L741.415 625.27Z" fill="#3456F3"/>
</g>
<defs>
<clipPath id="clip0_1_1900">
<rect width="1280" height="700" fill="white"/>
</clipPath>
</defs>
</svg>
