<svg width="320" height="780" viewBox="0 0 320 780" fill="none" xmlns="http://www.w3.org/2000/svg">
<g clip-path="url(#clip0_1_2412)">
<rect width="320" height="780" fill="#FAFAFA"/>
<path d="M82.0075 167H84.641V160.864H88.2205C92.2688 160.864 94.2717 158.418 94.2717 155.196C94.2717 151.983 92.2859 149.545 88.229 149.545H82.0075V167ZM84.641 158.631V151.804H87.9478C90.5558 151.804 91.6211 153.219 91.6211 155.196C91.6211 157.173 90.5558 158.631 87.9819 158.631H84.641ZM100.847 167.29C103.012 167.29 104.23 166.19 104.716 165.21H104.819V167H107.307V158.307C107.307 154.497 104.307 153.739 102.228 153.739C99.8583 153.739 97.6765 154.693 96.8242 157.08L99.2191 157.625C99.5941 156.696 100.549 155.801 102.262 155.801C103.907 155.801 104.75 156.662 104.75 158.145V158.205C104.75 159.134 103.796 159.116 101.444 159.389C98.9634 159.679 96.4237 160.327 96.4237 163.301C96.4237 165.875 98.3583 167.29 100.847 167.29ZM101.401 165.244C99.9606 165.244 98.9208 164.597 98.9208 163.335C98.9208 161.972 100.131 161.486 101.605 161.29C102.432 161.179 104.392 160.957 104.759 160.591V162.278C104.759 163.83 103.523 165.244 101.401 165.244ZM109.423 170.776H111.946V167H121.074V170.776H123.562V164.793H121.551V153.909H112.653L112.244 158.793C111.971 162.091 111.571 163.812 110.488 164.793H109.423V170.776ZM113.216 164.793C114.085 163.574 114.409 161.545 114.664 158.793L114.937 156.091H119.062V164.793H113.216ZM128.55 158.409V153.909H126.053V167H131.772C134.976 167 136.766 165.142 136.766 162.679C136.766 160.165 134.976 158.409 131.772 158.409H128.55ZM138.624 167H141.172V153.909H138.624V167ZM128.55 160.608H131.772C133.238 160.608 134.286 161.494 134.286 162.756C134.286 163.949 133.238 164.801 131.772 164.801H128.55V160.608ZM150.944 167H157.199C160.063 167 161.742 165.551 161.742 163.472C161.742 161.528 160.25 160.335 158.503 160.131C160.114 159.824 161.179 158.938 161.179 157.403C161.179 155.256 159.321 153.909 156.373 153.909H150.944V167ZM153.338 164.869V161.23H157.199C158.461 161.23 159.219 161.972 159.219 163.19C159.219 164.23 158.461 164.869 157.199 164.869H153.338ZM153.338 159.364V156.065H156.373C157.821 156.065 158.699 156.67 158.699 157.676C158.699 158.724 157.83 159.364 156.398 159.364H153.338ZM167.034 163.429V153.909H164.537V167H167.307L173.051 157.472V167H175.549V153.909H172.804L167.034 163.429ZM177.696 170.776H180.219V167H189.347V170.776H191.836V164.793H189.824V153.909H180.926L180.517 158.793C180.245 162.091 179.844 163.812 178.762 164.793H177.696V170.776ZM181.489 164.793C182.358 163.574 182.682 161.545 182.938 158.793L183.211 156.091H187.336V164.793H181.489ZM199.968 167.264C202.824 167.264 204.843 165.858 205.423 163.727L203.011 163.293C202.551 164.528 201.443 165.159 199.994 165.159C197.812 165.159 196.346 163.744 196.278 161.222H205.585V160.318C205.585 155.588 202.755 153.739 199.789 153.739C196.142 153.739 193.738 156.517 193.738 160.54C193.738 164.605 196.108 167.264 199.968 167.264ZM196.287 159.312C196.389 157.455 197.735 155.844 199.806 155.844C201.784 155.844 203.079 157.31 203.088 159.312H196.287ZM207.257 156.108H211.544V167H214.033V156.108H218.303V153.909H207.257V156.108ZM223.495 158.409V153.909H220.998V167H226.717C229.922 167 231.711 165.142 231.711 162.679C231.711 160.165 229.922 158.409 226.717 158.409H223.495ZM223.495 160.608H226.717C228.183 160.608 229.231 161.494 229.231 162.756C229.231 163.949 228.183 164.801 226.717 164.801H223.495V160.608ZM237.782 149.545H234.978L235.199 161.98H237.56L237.782 149.545ZM236.375 167.162C237.304 167.162 238.08 166.403 238.08 165.457C238.08 164.528 237.304 163.761 236.375 163.761C235.438 163.761 234.671 164.528 234.671 165.457C234.671 166.403 235.438 167.162 236.375 167.162Z" fill="black"/>
<path d="M141 68.6667C141 64.2329 141 62.016 141.863 60.3226C142.622 58.833 143.833 57.6219 145.323 56.8629C147.016 56 149.233 56 153.667 56H166.333C170.767 56 172.984 56 174.677 56.8629C176.167 57.6219 177.378 58.833 178.137 60.3226C179 62.016 179 64.2329 179 68.6667V81.3333C179 85.7671 179 87.984 178.137 89.6774C177.378 91.167 176.167 92.3781 174.677 93.1371C172.984 94 170.767 94 166.333 94H153.667C149.233 94 147.016 94 145.323 93.1371C143.833 92.3781 142.622 91.167 141.863 89.6774C141 87.984 141 85.7671 141 81.3333V68.6667Z" fill="#3456F3"/>
<circle cx="160" cy="75" r="11" fill="white"/>
<path fill-rule="evenodd" clip-rule="evenodd" d="M156.154 75C156.154 77.1242 157.876 78.8462 160 78.8462C162.124 78.8462 163.846 77.1242 163.846 75H166C166 78.3137 163.314 81 160 81C156.686 81 154 78.3137 154 75H156.154Z" fill="#3456F3"/>
<rect y="253" width="320" height="156" fill="#FAFAFA"/>
<path fill-rule="evenodd" clip-rule="evenodd" d="M290 367H30V366H290V367Z" fill="#E8E8E8"/>
<path d="M36.321 324.727H30.8949V332H31.7756V325.509H35.4403V332H36.321V324.727ZM39.589 332.128C40.5407 332.128 41.0378 331.616 41.2083 331.261H41.2509V332H42.089V328.406C42.089 326.673 40.7679 326.474 40.0719 326.474C39.248 326.474 38.3105 326.759 37.8844 327.753L38.6799 328.037C38.8645 327.639 39.3013 327.213 40.1003 327.213C40.8709 327.213 41.2509 327.621 41.2509 328.321V328.349C41.2509 328.754 40.839 328.719 39.8446 328.847C38.8326 328.978 37.7282 329.202 37.7282 330.452C37.7282 331.517 38.552 332.128 39.589 332.128ZM39.7168 331.375C39.0492 331.375 38.5662 331.077 38.5662 330.494C38.5662 329.855 39.1486 329.656 39.802 329.571C40.1571 329.528 41.1088 329.429 41.2509 329.259V330.026C41.2509 330.707 40.7111 331.375 39.7168 331.375ZM43.6186 334.045H44.4567V331.162H44.5277C44.7124 331.46 45.0675 332.114 46.1186 332.114C47.4822 332.114 48.4339 331.02 48.4339 329.287C48.4339 327.568 47.4822 326.474 46.1044 326.474C45.0391 326.474 44.7124 327.128 44.5277 327.412H44.4283V326.545H43.6186V334.045ZM44.4425 329.273C44.4425 328.051 44.9822 327.227 46.005 327.227C47.0703 327.227 47.5959 328.122 47.5959 329.273C47.5959 330.438 47.0561 331.361 46.005 331.361C44.9964 331.361 44.4425 330.509 44.4425 329.273ZM51.9283 332.114C53.4055 332.114 54.3999 330.991 54.3999 329.301C54.3999 327.597 53.4055 326.474 51.9283 326.474C50.451 326.474 49.4567 327.597 49.4567 329.301C49.4567 330.991 50.451 332.114 51.9283 332.114ZM51.9283 331.361C50.8061 331.361 50.2947 330.395 50.2947 329.301C50.2947 328.207 50.8061 327.227 51.9283 327.227C53.0504 327.227 53.5618 328.207 53.5618 329.301C53.5618 330.395 53.0504 331.361 51.9283 331.361ZM55.1962 332H55.4803C56.6877 332 57.0357 331.062 57.1138 329.273L57.199 327.327H59.2019V332H60.04V326.545H56.4036L56.3042 328.96C56.2331 330.793 56.0485 331.219 55.3951 331.219H55.1962V332ZM62.4157 328.52V326.545H61.5776V332H63.8645C65.1429 332 65.839 331.219 65.839 330.239C65.839 329.244 65.1429 328.52 63.8645 328.52H62.4157ZM62.4157 329.301H63.8645C64.5286 329.301 65.0009 329.706 65.0009 330.281C65.0009 330.832 64.5286 331.219 63.8645 331.219H62.4157V329.301Z" fill="#A0A0A0"/>
<path d="M30.9993 286.864V276.364H32.451V277.602H32.5753C32.6615 277.442 32.7857 277.259 32.9482 277.05C33.1106 276.841 33.3359 276.659 33.6243 276.503C33.9126 276.344 34.2938 276.264 34.7678 276.264C35.3842 276.264 35.9344 276.42 36.4183 276.732C36.9022 277.043 37.2817 277.492 37.5568 278.079C37.8352 278.665 37.9744 279.371 37.9744 280.197C37.9744 281.022 37.8369 281.73 37.5618 282.32C37.2867 282.906 36.9089 283.359 36.4283 283.677C35.9477 283.992 35.3991 284.149 34.7827 284.149C34.3187 284.149 33.9392 284.071 33.6442 283.915C33.3525 283.76 33.1238 283.577 32.9581 283.369C32.7924 283.16 32.6648 282.974 32.5753 282.812H32.4858V286.864H30.9993ZM32.456 280.182C32.456 280.719 32.5339 281.189 32.6896 281.594C32.8454 281.998 33.0708 282.315 33.3658 282.543C33.6607 282.769 34.022 282.881 34.4496 282.881C34.8937 282.881 35.2649 282.764 35.5632 282.528C35.8615 282.29 36.0869 281.967 36.2393 281.559C36.3951 281.151 36.473 280.692 36.473 280.182C36.473 279.678 36.3968 279.226 36.2443 278.825C36.0952 278.424 35.8698 278.107 35.5682 277.875C35.2699 277.643 34.897 277.527 34.4496 277.527C34.0187 277.527 33.6541 277.638 33.3558 277.86C33.0608 278.082 32.8371 278.392 32.6847 278.79C32.5322 279.187 32.456 279.652 32.456 280.182ZM42.8565 284.154C42.1406 284.154 41.5159 283.99 40.9822 283.662C40.4486 283.334 40.0343 282.875 39.7393 282.285C39.4444 281.695 39.2969 281.005 39.2969 280.217C39.2969 279.424 39.4444 278.732 39.7393 278.138C40.0343 277.545 40.4486 277.085 40.9822 276.756C41.5159 276.428 42.1406 276.264 42.8565 276.264C43.5724 276.264 44.1972 276.428 44.7308 276.756C45.2644 277.085 45.6787 277.545 45.9737 278.138C46.2687 278.732 46.4162 279.424 46.4162 280.217C46.4162 281.005 46.2687 281.695 45.9737 282.285C45.6787 282.875 45.2644 283.334 44.7308 283.662C44.1972 283.99 43.5724 284.154 42.8565 284.154ZM42.8615 282.906C43.3255 282.906 43.71 282.784 44.0149 282.538C44.3198 282.293 44.5452 281.967 44.6911 281.559C44.8402 281.151 44.9148 280.702 44.9148 280.212C44.9148 279.724 44.8402 279.277 44.6911 278.869C44.5452 278.458 44.3198 278.129 44.0149 277.88C43.71 277.631 43.3255 277.507 42.8615 277.507C42.3942 277.507 42.0064 277.631 41.6982 277.88C41.3932 278.129 41.1662 278.458 41.017 278.869C40.8712 279.277 40.7983 279.724 40.7983 280.212C40.7983 280.702 40.8712 281.151 41.017 281.559C41.1662 281.967 41.3932 282.293 41.6982 282.538C42.0064 282.784 42.3942 282.906 42.8615 282.906ZM51.2921 284.154C50.553 284.154 49.9166 283.987 49.383 283.652C48.8527 283.314 48.445 282.848 48.16 282.255C47.8749 281.662 47.7324 280.982 47.7324 280.217C47.7324 279.441 47.8783 278.757 48.1699 278.163C48.4616 277.567 48.8726 277.101 49.4029 276.766C49.9332 276.432 50.5579 276.264 51.2772 276.264C51.8572 276.264 52.3742 276.372 52.8283 276.587C53.2824 276.799 53.6486 277.098 53.927 277.482C54.2087 277.867 54.3761 278.316 54.4292 278.83H52.9824C52.9029 278.472 52.7206 278.163 52.4355 277.905C52.1538 277.646 51.776 277.517 51.302 277.517C50.8877 277.517 50.5248 277.626 50.2132 277.845C49.905 278.061 49.6647 278.369 49.4924 278.77C49.32 279.168 49.2338 279.638 49.2338 280.182C49.2338 280.739 49.3184 281.219 49.4874 281.624C49.6564 282.028 49.8951 282.341 50.2033 282.563C50.5149 282.785 50.8811 282.896 51.302 282.896C51.5837 282.896 51.839 282.845 52.0676 282.742C52.2997 282.636 52.4935 282.485 52.6493 282.29C52.8084 282.094 52.9194 281.859 52.9824 281.584H54.4292C54.3761 282.078 54.2154 282.518 53.9469 282.906C53.6784 283.294 53.3188 283.599 52.8681 283.821C52.4206 284.043 51.8953 284.154 51.2921 284.154ZM57.5053 279.466V284H56.0188V273.818H57.4854V277.607H57.5799C57.7589 277.196 58.0323 276.869 58.4002 276.627C58.7681 276.385 59.2487 276.264 59.842 276.264C60.3656 276.264 60.823 276.372 61.2141 276.587C61.6085 276.803 61.9135 277.124 62.1289 277.552C62.3477 277.976 62.457 278.506 62.457 279.143V284H60.9705V279.322C60.9705 278.762 60.8263 278.327 60.538 278.019C60.2496 277.708 59.8486 277.552 59.3349 277.552C58.9835 277.552 58.6687 277.626 58.3903 277.776C58.1152 277.925 57.8981 278.143 57.739 278.432C57.5832 278.717 57.5053 279.062 57.5053 279.466ZM68.0053 276.364V277.557H63.8342V276.364H68.0053ZM64.9528 274.534H66.4393V281.758C66.4393 282.046 66.4824 282.263 66.5685 282.409C66.6547 282.552 66.7657 282.649 66.9016 282.702C67.0408 282.752 67.1916 282.777 67.354 282.777C67.4734 282.777 67.5778 282.769 67.6673 282.752C67.7567 282.736 67.8263 282.722 67.8761 282.712L68.1445 283.94C68.0584 283.973 67.9357 284.007 67.7766 284.04C67.6175 284.076 67.4187 284.096 67.18 284.099C66.7889 284.106 66.4244 284.036 66.0863 283.891C65.7482 283.745 65.4748 283.519 65.266 283.214C65.0572 282.91 64.9528 282.527 64.9528 282.066V274.534ZM71.872 284.169C71.3881 284.169 70.9506 284.08 70.5595 283.901C70.1684 283.718 69.8585 283.455 69.6298 283.11C69.4044 282.765 69.2917 282.343 69.2917 281.842C69.2917 281.411 69.3746 281.057 69.5403 280.778C69.706 280.5 69.9297 280.28 70.2115 280.117C70.4932 279.955 70.8081 279.832 71.1561 279.749C71.5041 279.666 71.8587 279.603 72.22 279.56C72.6774 279.507 73.0486 279.464 73.3336 279.431C73.6187 279.395 73.8258 279.337 73.9551 279.257C74.0843 279.178 74.149 279.048 74.149 278.869V278.835C74.149 278.4 74.0263 278.064 73.7811 277.825C73.5391 277.587 73.1779 277.467 72.6973 277.467C72.1968 277.467 71.8024 277.578 71.514 277.8C71.229 278.019 71.0318 278.263 70.9224 278.531L69.5254 278.213C69.6911 277.749 69.9331 277.375 70.2512 277.089C70.5727 276.801 70.9423 276.592 71.3599 276.463C71.7775 276.33 72.2167 276.264 72.6774 276.264C72.9823 276.264 73.3055 276.301 73.6468 276.374C73.9915 276.443 74.313 276.572 74.6113 276.761C74.9129 276.95 75.1599 277.22 75.3521 277.572C75.5443 277.92 75.6404 278.372 75.6404 278.929V284H74.1887V282.956H74.1291C74.033 283.148 73.8888 283.337 73.6966 283.523C73.5043 283.708 73.2574 283.862 72.9558 283.985C72.6542 284.108 72.2929 284.169 71.872 284.169ZM72.1951 282.976C72.6061 282.976 72.9574 282.895 73.2491 282.732C73.5441 282.57 73.7678 282.358 73.9203 282.096C74.0761 281.831 74.1539 281.547 74.1539 281.246V280.261C74.1009 280.314 73.9982 280.364 73.8457 280.411C73.6966 280.454 73.5259 280.492 73.3336 280.525C73.1414 280.555 72.9541 280.583 72.7718 280.609C72.5895 280.633 72.4371 280.652 72.3145 280.669C72.0261 280.705 71.7626 280.767 71.524 280.853C71.2886 280.939 71.0997 281.063 70.9572 281.226C70.818 281.385 70.7484 281.597 70.7484 281.862C70.7484 282.23 70.8843 282.509 71.1561 282.697C71.4279 282.883 71.7742 282.976 72.1951 282.976ZM83.7504 286.769C82.7229 286.769 81.8114 286.628 81.016 286.347C80.2238 286.068 79.556 285.657 79.0124 285.114C78.4689 284.573 78.0562 283.911 77.7745 283.125C77.4928 282.339 77.3519 281.443 77.3519 280.435C77.3519 279.454 77.4944 278.573 77.7795 277.79C78.0645 277.008 78.4788 276.342 79.0224 275.792C79.5692 275.238 80.2338 274.816 81.016 274.524C81.7982 274.232 82.6864 274.087 83.6808 274.087C84.632 274.087 85.4705 274.236 86.1964 274.534C86.9222 274.832 87.5321 275.242 88.0259 275.762C88.5231 276.282 88.8976 276.879 89.1495 277.552C89.4014 278.225 89.5273 278.936 89.5273 279.685C89.5273 280.208 89.4942 280.72 89.4279 281.221C89.3616 281.718 89.239 282.169 89.06 282.573C88.8844 282.974 88.6291 283.296 88.2944 283.538C87.963 283.776 87.5321 283.901 87.0018 283.911C86.7201 283.92 86.4466 283.887 86.1815 283.811C85.9163 283.735 85.6909 283.612 85.5053 283.443C85.3197 283.271 85.207 283.052 85.1673 282.787H85.1076C85.0281 282.982 84.8955 283.165 84.7099 283.334C84.5243 283.5 84.2873 283.632 83.9989 283.732C83.7139 283.828 83.3825 283.867 83.0046 283.851C82.587 283.834 82.2108 283.74 81.8761 283.567C81.5413 283.395 81.2546 283.156 81.016 282.852C80.7807 282.547 80.6 282.185 80.4741 281.768C80.3481 281.35 80.2852 280.886 80.2852 280.376C80.2852 279.885 80.3564 279.446 80.4989 279.058C80.6415 278.667 80.8353 278.331 81.0806 278.049C81.3292 277.764 81.6142 277.539 81.9357 277.373C82.2572 277.207 82.5969 277.103 82.9549 277.06C83.3029 277.02 83.6228 277.03 83.9144 277.089C84.2061 277.149 84.448 277.24 84.6403 277.363C84.8358 277.486 84.9585 277.62 85.0082 277.766H85.0728V277.209H86.2958V281.822C86.2958 282.084 86.3638 282.306 86.4996 282.489C86.6388 282.671 86.8361 282.762 87.0913 282.762C87.3929 282.762 87.6282 282.651 87.7972 282.429C87.9696 282.207 88.0906 281.866 88.1602 281.405C88.2331 280.944 88.2695 280.354 88.2695 279.635C88.2695 279.131 88.2016 278.657 88.0657 278.213C87.9331 277.766 87.7359 277.361 87.4741 277C87.2156 276.635 86.8974 276.322 86.5195 276.06C86.1417 275.799 85.7108 275.596 85.2269 275.454C84.7463 275.311 84.2144 275.24 83.631 275.24C82.8389 275.24 82.1346 275.363 81.5181 275.608C80.9016 275.85 80.3813 276.2 79.957 276.657C79.5361 277.114 79.2163 277.663 78.9975 278.303C78.7821 278.939 78.6744 279.653 78.6744 280.445C78.6744 281.271 78.7854 282.003 79.0075 282.643C79.2295 283.279 79.5576 283.816 79.9918 284.254C80.426 284.691 80.9629 285.022 81.6026 285.248C82.2423 285.477 82.9798 285.591 83.815 285.591C84.1862 285.591 84.5508 285.558 84.9087 285.491C85.2667 285.429 85.5849 285.356 85.8633 285.273C86.145 285.193 86.3555 285.129 86.4947 285.079L86.8427 286.168C86.6372 286.264 86.3638 286.358 86.0224 286.451C85.6843 286.544 85.3164 286.62 84.9187 286.68C84.5243 286.739 84.1348 286.769 83.7504 286.769ZM83.293 282.633C83.7238 282.633 84.0702 282.547 84.332 282.374C84.5972 282.202 84.7878 281.945 84.9038 281.604C85.0231 281.259 85.0827 280.828 85.0827 280.311C85.0794 279.807 85.0148 279.406 84.8888 279.108C84.7662 278.806 84.574 278.591 84.3121 278.462C84.0536 278.329 83.7205 278.263 83.3129 278.263C82.9383 278.263 82.6185 278.354 82.3533 278.536C82.0915 278.719 81.891 278.965 81.7518 279.277C81.6159 279.589 81.5463 279.935 81.543 280.316C81.5463 280.717 81.6026 281.095 81.712 281.45C81.8247 281.801 82.007 282.086 82.2589 282.305C82.5141 282.523 82.8588 282.633 83.293 282.633ZM92.1088 286.864C91.8868 286.864 91.6846 286.845 91.5023 286.809C91.32 286.776 91.1841 286.739 91.0946 286.7L91.4526 285.482C91.7244 285.554 91.9663 285.586 92.1784 285.576C92.3906 285.566 92.5778 285.487 92.7402 285.337C92.906 285.188 93.0518 284.945 93.1777 284.607L93.3617 284.099L90.5676 276.364H92.1586L94.0925 282.29H94.1721L96.106 276.364H97.7019L94.5549 285.019C94.409 285.417 94.2234 285.753 93.998 286.028C93.7727 286.307 93.5042 286.516 93.1926 286.655C92.8811 286.794 92.5198 286.864 92.1088 286.864ZM101.102 284.169C100.619 284.169 100.181 284.08 99.79 283.901C99.3989 283.718 99.089 283.455 98.8603 283.11C98.6349 282.765 98.5222 282.343 98.5222 281.842C98.5222 281.411 98.6051 281.057 98.7708 280.778C98.9365 280.5 99.1602 280.28 99.4419 280.117C99.7237 279.955 100.039 279.832 100.387 279.749C100.735 279.666 101.089 279.603 101.45 279.56C101.908 279.507 102.279 279.464 102.564 279.431C102.849 279.395 103.056 279.337 103.186 279.257C103.315 279.178 103.379 279.048 103.379 278.869V278.835C103.379 278.4 103.257 278.064 103.012 277.825C102.77 277.587 102.408 277.467 101.928 277.467C101.427 277.467 101.033 277.578 100.744 277.8C100.459 278.019 100.262 278.263 100.153 278.531L98.7559 278.213C98.9216 277.749 99.1635 277.375 99.4817 277.089C99.8032 276.801 100.173 276.592 100.59 276.463C101.008 276.33 101.447 276.264 101.908 276.264C102.213 276.264 102.536 276.301 102.877 276.374C103.222 276.443 103.544 276.572 103.842 276.761C104.143 276.95 104.39 277.22 104.583 277.572C104.775 277.92 104.871 278.372 104.871 278.929V284H103.419V282.956H103.36C103.263 283.148 103.119 283.337 102.927 283.523C102.735 283.708 102.488 283.862 102.186 283.985C101.885 284.108 101.523 284.169 101.102 284.169ZM101.426 282.976C101.837 282.976 102.188 282.895 102.48 282.732C102.775 282.57 102.998 282.358 103.151 282.096C103.307 281.831 103.384 281.547 103.384 281.246V280.261C103.331 280.314 103.229 280.364 103.076 280.411C102.927 280.454 102.756 280.492 102.564 280.525C102.372 280.555 102.185 280.583 102.002 280.609C101.82 280.633 101.668 280.652 101.545 280.669C101.257 280.705 100.993 280.767 100.754 280.853C100.519 280.939 100.33 281.063 100.188 281.226C100.048 281.385 99.9789 281.597 99.9789 281.862C99.9789 282.23 100.115 282.509 100.387 282.697C100.658 282.883 101.005 282.976 101.426 282.976ZM108.337 279.466V284H106.851V276.364H108.278V277.607H108.372C108.548 277.202 108.823 276.877 109.197 276.632C109.575 276.387 110.051 276.264 110.624 276.264C111.145 276.264 111.6 276.374 111.991 276.592C112.383 276.808 112.686 277.129 112.901 277.557C113.117 277.984 113.224 278.513 113.224 279.143V284H111.738V279.322C111.738 278.768 111.594 278.336 111.305 278.024C111.017 277.709 110.621 277.552 110.117 277.552C109.772 277.552 109.466 277.626 109.197 277.776C108.932 277.925 108.722 278.143 108.566 278.432C108.414 278.717 108.337 279.062 108.337 279.466ZM118.077 284.149C117.46 284.149 116.91 283.992 116.426 283.677C115.946 283.359 115.568 282.906 115.293 282.32C115.021 281.73 114.885 281.022 114.885 280.197C114.885 279.371 115.022 278.665 115.298 278.079C115.576 277.492 115.957 277.043 116.441 276.732C116.925 276.42 117.473 276.264 118.087 276.264C118.561 276.264 118.942 276.344 119.23 276.503C119.522 276.659 119.747 276.841 119.906 277.05C120.069 277.259 120.195 277.442 120.284 277.602H120.374V273.818H121.86V284H120.408V282.812H120.284C120.195 282.974 120.065 283.16 119.896 283.369C119.731 283.577 119.502 283.76 119.21 283.915C118.919 284.071 118.541 284.149 118.077 284.149ZM118.405 282.881C118.832 282.881 119.194 282.769 119.489 282.543C119.787 282.315 120.012 281.998 120.165 281.594C120.321 281.189 120.398 280.719 120.398 280.182C120.398 279.652 120.322 279.187 120.17 278.79C120.017 278.392 119.794 278.082 119.499 277.86C119.204 277.638 118.839 277.527 118.405 277.527C117.957 277.527 117.585 277.643 117.286 277.875C116.988 278.107 116.763 278.424 116.61 278.825C116.461 279.226 116.386 279.678 116.386 280.182C116.386 280.692 116.463 281.151 116.615 281.559C116.768 281.967 116.993 282.29 117.291 282.528C117.593 282.764 117.964 282.881 118.405 282.881ZM127.273 284.154C126.521 284.154 125.873 283.993 125.329 283.672C124.789 283.347 124.371 282.891 124.076 282.305C123.785 281.715 123.639 281.024 123.639 280.232C123.639 279.449 123.785 278.76 124.076 278.163C124.371 277.567 124.782 277.101 125.309 276.766C125.839 276.432 126.459 276.264 127.169 276.264C127.599 276.264 128.017 276.335 128.421 276.478C128.826 276.621 129.189 276.844 129.51 277.149C129.832 277.454 130.085 277.85 130.271 278.337C130.456 278.821 130.549 279.41 130.549 280.102V280.629H124.479V279.516H129.093C129.093 279.125 129.013 278.778 128.854 278.477C128.695 278.172 128.471 277.931 128.183 277.756C127.898 277.58 127.563 277.492 127.178 277.492C126.761 277.492 126.396 277.595 126.085 277.8C125.776 278.003 125.538 278.268 125.369 278.596C125.203 278.921 125.12 279.274 125.12 279.655V280.525C125.12 281.035 125.21 281.469 125.389 281.827C125.571 282.185 125.825 282.459 126.149 282.648C126.474 282.833 126.854 282.926 127.288 282.926C127.57 282.926 127.826 282.886 128.058 282.807C128.29 282.724 128.491 282.601 128.66 282.439C128.829 282.277 128.958 282.076 129.048 281.837L130.455 282.091C130.342 282.505 130.14 282.868 129.848 283.18C129.56 283.488 129.197 283.728 128.759 283.901C128.325 284.07 127.83 284.154 127.273 284.154ZM133.194 276.364L134.879 279.337L136.58 276.364H138.205L135.824 280.182L138.225 284H136.6L134.879 281.146L133.164 284H131.534L133.91 280.182L131.563 276.364H133.194ZM140.711 284.094C140.439 284.094 140.206 283.998 140.01 283.806C139.815 283.611 139.717 283.375 139.717 283.1C139.717 282.828 139.815 282.596 140.01 282.404C140.206 282.209 140.439 282.111 140.711 282.111C140.983 282.111 141.217 282.209 141.412 282.404C141.608 282.596 141.705 282.828 141.705 283.1C141.705 283.282 141.659 283.45 141.566 283.602C141.477 283.751 141.357 283.871 141.208 283.96C141.059 284.05 140.893 284.094 140.711 284.094ZM143.697 284V276.364H145.133V277.577H145.213C145.352 277.166 145.597 276.843 145.949 276.607C146.303 276.369 146.704 276.249 147.152 276.249C147.245 276.249 147.354 276.253 147.48 276.259C147.609 276.266 147.71 276.274 147.783 276.284V277.706C147.724 277.689 147.617 277.671 147.465 277.651C147.313 277.628 147.16 277.616 147.008 277.616C146.656 277.616 146.343 277.691 146.068 277.84C145.796 277.986 145.581 278.19 145.422 278.452C145.263 278.71 145.183 279.005 145.183 279.337V284H143.697ZM153.907 280.833V276.364H155.398V284H153.937V282.678H153.857C153.682 283.085 153.4 283.425 153.012 283.697C152.628 283.965 152.149 284.099 151.575 284.099C151.085 284.099 150.651 283.992 150.273 283.776C149.898 283.558 149.603 283.234 149.388 282.807C149.176 282.379 149.07 281.851 149.07 281.221V276.364H150.556V281.042C150.556 281.562 150.7 281.977 150.989 282.285C151.277 282.593 151.652 282.747 152.112 282.747C152.391 282.747 152.667 282.678 152.942 282.538C153.221 282.399 153.451 282.189 153.634 281.907C153.819 281.625 153.91 281.267 153.907 280.833ZM159.181 270.537V287.281H158.186V270.537H159.181Z" fill="black"/>
<path fill-rule="evenodd" clip-rule="evenodd" d="M290 298H30V297H290V298Z" fill="#E8E8E8"/>
<path d="M30.8807 263H35.3267V262.219H31.7614V259.747H35.0426V258.966H31.7614V256.509H35.2699V255.727H30.8807V263ZM39.8686 259.491H36.6868V260.273H39.8686V259.491ZM41.3432 263H42.1813V259.591C42.1813 258.792 42.7637 258.227 43.4171 258.227C44.0527 258.227 44.4966 258.643 44.4966 259.264V263H45.3489V259.449C45.3489 258.746 45.7892 258.227 46.5563 258.227C47.1529 258.227 47.6642 258.543 47.6642 259.349V263H48.5023V259.349C48.5023 258.067 47.8134 257.474 46.8404 257.474C46.0591 257.474 45.4874 257.833 45.2069 258.398H45.15C44.8801 257.815 44.4043 257.474 43.687 257.474C42.9767 257.474 42.4512 257.815 42.2239 258.398H42.1529V257.545H41.3432V263ZM51.6397 263.128C52.5914 263.128 53.0886 262.616 53.2591 262.261H53.3017V263H54.1397V259.406C54.1397 257.673 52.8187 257.474 52.1227 257.474C51.2988 257.474 50.3613 257.759 49.9352 258.753L50.7306 259.037C50.9153 258.639 51.3521 258.213 52.1511 258.213C52.9217 258.213 53.3017 258.621 53.3017 259.321V259.349C53.3017 259.754 52.8897 259.719 51.8954 259.847C50.8833 259.978 49.7789 260.202 49.7789 261.452C49.7789 262.517 50.6028 263.128 51.6397 263.128ZM51.7676 262.375C51.1 262.375 50.617 262.077 50.617 261.494C50.617 260.855 51.1994 260.656 51.8528 260.571C52.2079 260.528 53.1596 260.429 53.3017 260.259V261.026C53.3017 261.707 52.7619 262.375 51.7676 262.375ZM55.6694 263H56.5075V257.545H55.6694V263ZM56.0955 256.636C56.4222 256.636 56.6921 256.381 56.6921 256.068C56.6921 255.756 56.4222 255.5 56.0955 255.5C55.7688 255.5 55.4989 255.756 55.4989 256.068C55.4989 256.381 55.7688 256.636 56.0955 256.636ZM58.8805 255.727H58.0424V263H58.8805V255.727Z" fill="#A0A0A0"/>
<path d="M208.176 747H209.233V743.812H211.142C213.175 743.812 214.091 742.577 214.091 741.034C214.091 739.491 213.175 738.273 211.125 738.273H208.176V747ZM209.233 742.875V739.21H211.091C212.51 739.21 213.051 739.986 213.051 741.034C213.051 742.082 212.51 742.875 211.108 742.875H209.233ZM218.331 747.136C219.66 747.136 220.632 746.472 220.939 745.483L219.967 745.21C219.711 745.892 219.119 746.233 218.331 746.233C217.15 746.233 216.336 745.47 216.29 744.068H221.041V743.642C221.041 741.205 219.592 740.369 218.229 740.369C216.456 740.369 215.28 741.767 215.28 743.778C215.28 745.79 216.439 747.136 218.331 747.136ZM216.29 743.199C216.358 742.18 217.078 741.273 218.229 741.273C219.319 741.273 220.018 742.091 220.018 743.199H216.29ZM226.611 740.455H222.571V747H223.577V741.392H226.611V740.455ZM229.084 745.517V740.455H228.079V747H229.255L232.391 741.938V747H233.397V740.455H232.238L229.084 745.517ZM237.898 747.136C239.347 747.136 240.301 746.25 240.472 745.091H239.466C239.279 745.807 238.682 746.233 237.898 746.233C236.705 746.233 235.938 745.244 235.938 743.727C235.938 742.244 236.722 741.273 237.898 741.273C238.784 741.273 239.313 741.818 239.466 742.415H240.472C240.301 741.188 239.262 740.369 237.881 740.369C236.108 740.369 234.932 741.767 234.932 743.761C234.932 745.722 236.057 747.136 237.898 747.136ZM241.426 741.392H243.591V747H244.597V741.392H246.744V740.455H241.426V741.392ZM248.211 749.455H249.217V745.994H249.302C249.524 746.352 249.95 747.136 251.211 747.136C252.848 747.136 253.99 745.824 253.99 743.744C253.99 741.682 252.848 740.369 251.194 740.369C249.916 740.369 249.524 741.153 249.302 741.494H249.183V740.455H248.211V749.455ZM249.2 743.727C249.2 742.261 249.848 741.273 251.075 741.273C252.354 741.273 252.984 742.347 252.984 743.727C252.984 745.125 252.336 746.233 251.075 746.233C249.865 746.233 249.2 745.21 249.2 743.727ZM257.45 747.153C258.592 747.153 259.189 746.54 259.393 746.114H259.444V747H260.45V742.688C260.45 740.608 258.865 740.369 258.03 740.369C257.041 740.369 255.916 740.71 255.405 741.903L256.359 742.244C256.581 741.767 257.105 741.256 258.064 741.256C258.988 741.256 259.444 741.746 259.444 742.585V742.619C259.444 743.105 258.95 743.062 257.757 743.216C256.542 743.374 255.217 743.642 255.217 745.142C255.217 746.42 256.206 747.153 257.45 747.153ZM257.604 746.25C256.802 746.25 256.223 745.892 256.223 745.193C256.223 744.426 256.922 744.188 257.706 744.085C258.132 744.034 259.274 743.915 259.444 743.71V744.631C259.444 745.449 258.797 746.25 257.604 746.25ZM267.433 740.455H266.428V746.062H263.291V740.455H262.286V747H267.433V749.114H268.439V746.062H267.433V740.455ZM270.909 745.517V740.455H269.903V747H271.079L274.215 741.938V747H275.221V740.455H274.062L270.909 745.517ZM281.001 747H281.955V740.455H279.262C277.851 740.455 276.995 741.192 276.995 742.398C276.995 743.297 277.447 743.936 278.235 744.205L276.637 747H277.728L279.245 744.341H281.001V747ZM281.001 743.403H279.143C278.431 743.403 278.001 743.024 278.001 742.398C278.001 741.763 278.478 741.375 279.262 741.375H281.001V743.403Z" fill="#3456F3"/>
<rect x="30" y="676" width="260" height="45" rx="3" fill="#3456F3"/>
<path d="M142.17 703H145.515C147.543 703 148.46 701.99 148.46 700.652C148.46 699.301 147.513 698.538 146.648 698.491V698.406C147.45 698.202 148.119 697.656 148.119 696.565C148.119 695.274 147.224 694.273 145.366 694.273H142.17V703ZM143.487 701.871V699.075H145.434C146.491 699.075 147.151 699.757 147.151 700.588C147.151 701.321 146.653 701.871 145.387 701.871H143.487ZM143.487 698.048V695.393H145.285C146.329 695.393 146.827 695.943 146.827 696.668C146.827 697.511 146.137 698.048 145.251 698.048H143.487ZM152.676 703.132C154.521 703.132 155.727 701.781 155.727 699.757C155.727 697.72 154.521 696.369 152.676 696.369C150.831 696.369 149.625 697.72 149.625 699.757C149.625 701.781 150.831 703.132 152.676 703.132ZM152.68 702.062C151.474 702.062 150.912 701.01 150.912 699.753C150.912 698.5 151.474 697.435 152.68 697.435C153.878 697.435 154.44 698.5 154.44 699.753C154.44 701.01 153.878 702.062 152.68 702.062ZM158.398 701.214V696.455H157.15V703H158.534L161.407 698.236V703H162.655V696.455H161.283L158.398 701.214ZM160.738 694.239C160.738 694.669 160.499 695.048 159.902 695.048C159.297 695.048 159.071 694.665 159.071 694.239H158.027C158.027 695.197 158.756 695.858 159.902 695.858C161.057 695.858 161.786 695.197 161.786 694.239H160.738ZM163.556 697.554H165.7V703H166.944V697.554H169.079V696.455H163.556V697.554ZM171.675 701.214V696.455H170.427V703H171.812L174.684 698.236V703H175.933V696.455H174.56L171.675 701.214Z" fill="white"/>
<path d="M38.3869 747H43.7221V746.062H39.4437V743.097H43.3812V742.159H39.4437V739.21H43.6539V738.273H38.3869V747ZM54.3542 746.062H53.3826V740.455H52.377V746.062H49.9054V740.455H48.8997V746.062H46.4281V740.455H45.4224V747H53.1951V748.875H54.2349L54.3542 746.062ZM58.4909 747.136C59.8205 747.136 60.7921 746.472 61.0989 745.483L60.1273 745.21C59.8716 745.892 59.2793 746.233 58.4909 746.233C57.3105 746.233 56.4966 745.47 56.4498 744.068H61.2012V743.642C61.2012 741.205 59.7523 740.369 58.3887 740.369C56.6159 740.369 55.4398 741.767 55.4398 743.778C55.4398 745.79 56.5989 747.136 58.4909 747.136ZM56.4498 743.199C56.5179 742.18 57.2381 741.273 58.3887 741.273C59.4796 741.273 60.1784 742.091 60.1784 743.199H56.4498ZM57.1103 739.364C57.5023 739.364 57.7921 739.04 57.7921 738.682C57.7921 738.29 57.5023 738 57.1103 738C56.7523 738 56.4284 738.29 56.4284 738.682C56.4284 739.04 56.7523 739.364 57.1103 739.364ZM59.5648 739.364C59.9569 739.364 60.2466 739.04 60.2466 738.682C60.2466 738.29 59.9569 738 59.5648 738C59.2069 738 58.883 738.29 58.883 738.682C58.883 739.04 59.2069 739.364 59.5648 739.364ZM67.1117 740.455H66.106V747H67.1117V744.205H70.248V747H71.2537V740.455H70.248V743.267H67.1117V740.455ZM75.8347 747.136C77.1642 747.136 78.1358 746.472 78.4426 745.483L77.4711 745.21C77.2154 745.892 76.623 746.233 75.8347 746.233C74.6543 746.233 73.8404 745.47 73.7935 744.068H78.5449V743.642C78.5449 741.205 77.0961 740.369 75.7324 740.369C73.9597 740.369 72.7836 741.767 72.7836 743.778C72.7836 745.79 73.9426 747.136 75.8347 747.136ZM73.7935 743.199C73.8617 742.18 74.5819 741.273 75.7324 741.273C76.8233 741.273 77.5222 742.091 77.5222 743.199H73.7935ZM83.0407 745.33C83.0748 746.403 84.1017 747.136 85.4952 747.136C86.927 747.136 87.9668 746.369 87.9668 745.176C87.9668 744.358 87.4767 743.693 86.7395 743.642V743.574C87.3617 743.382 87.8304 742.93 87.8304 742.193C87.8304 741.158 86.9441 740.369 85.5634 740.369C84.1998 740.369 83.2282 741.119 83.1941 742.176H84.2509C84.2807 741.635 84.8475 741.256 85.6145 741.256C86.3773 741.256 86.8077 741.643 86.8077 742.227C86.8077 742.773 86.4327 743.182 85.6316 743.182H84.5066V744.085H85.6316C86.4327 744.085 86.9441 744.524 86.9441 745.176C86.9441 745.922 86.2836 746.233 85.4782 746.233C84.6898 746.233 84.1614 745.922 84.1145 745.33H83.0407ZM91.3056 747.153C92.4476 747.153 93.0442 746.54 93.2488 746.114H93.2999V747H94.3056V742.688C94.3056 740.608 92.7203 740.369 91.8851 740.369C90.8965 740.369 89.7715 740.71 89.2601 741.903L90.2147 742.244C90.4363 741.767 90.9604 741.256 91.9192 741.256C92.8439 741.256 93.2999 741.746 93.2999 742.585V742.619C93.2999 743.105 92.8056 743.062 91.6124 743.216C90.3979 743.374 89.0726 743.642 89.0726 745.142C89.0726 746.42 90.0613 747.153 91.3056 747.153ZM91.459 746.25C90.6578 746.25 90.0783 745.892 90.0783 745.193C90.0783 744.426 90.7772 744.188 91.5613 744.085C91.9874 744.034 93.1294 743.915 93.2999 743.71V744.631C93.2999 745.449 92.6522 746.25 91.459 746.25ZM96.1412 749.455H97.1468V745.994H97.2321C97.4537 746.352 97.8798 747.136 99.1412 747.136C100.778 747.136 101.92 745.824 101.92 743.744C101.92 741.682 100.778 740.369 99.1241 740.369C97.8457 740.369 97.4537 741.153 97.2321 741.494H97.1127V740.455H96.1412V749.455ZM97.1298 743.727C97.1298 742.261 97.7775 741.273 99.0048 741.273C100.283 741.273 100.914 742.347 100.914 743.727C100.914 745.125 100.266 746.233 99.0048 746.233C97.7946 746.233 97.1298 745.21 97.1298 743.727ZM106.198 747.136C107.528 747.136 108.499 746.472 108.806 745.483L107.834 745.21C107.579 745.892 106.986 746.233 106.198 746.233C105.018 746.233 104.204 745.47 104.157 744.068H108.908V743.642C108.908 741.205 107.459 740.369 106.096 740.369C104.323 740.369 103.147 741.767 103.147 743.778C103.147 745.79 104.306 747.136 106.198 747.136ZM104.157 743.199C104.225 742.18 104.945 741.273 106.096 741.273C107.187 741.273 107.885 742.091 107.885 743.199H104.157ZM114.478 740.455H110.438V747H111.444V741.392H114.478V740.455ZM116.952 745.517V740.455H115.946V747H117.122L120.258 741.938V747H121.264V740.455H120.105L116.952 745.517ZM125.765 747.136C127.214 747.136 128.169 746.25 128.339 745.091H127.333C127.146 745.807 126.549 746.233 125.765 746.233C124.572 746.233 123.805 745.244 123.805 743.727C123.805 742.244 124.589 741.273 125.765 741.273C126.651 741.273 127.18 741.818 127.333 742.415H128.339C128.169 741.188 127.129 740.369 125.748 740.369C123.975 740.369 122.799 741.767 122.799 743.761C122.799 745.722 123.924 747.136 125.765 747.136ZM129.294 741.392H131.458V747H132.464V741.392H134.612V740.455H129.294V741.392ZM136.079 749.455H137.084V745.994H137.17C137.391 746.352 137.817 747.136 139.079 747.136C140.715 747.136 141.857 745.824 141.857 743.744C141.857 741.682 140.715 740.369 139.062 740.369C137.783 740.369 137.391 741.153 137.17 741.494H137.05V740.455H136.079V749.455ZM137.067 743.727C137.067 742.261 137.715 741.273 138.942 741.273C140.221 741.273 140.851 742.347 140.851 743.727C140.851 745.125 140.204 746.233 138.942 746.233C137.732 746.233 137.067 745.21 137.067 743.727ZM144.397 745.517V740.455H143.391V747H144.567L147.704 741.938V747H148.709V740.455H147.55L144.397 745.517ZM150.551 749.455H151.557V745.994H151.642C151.864 746.352 152.29 747.136 153.551 747.136C155.188 747.136 156.33 745.824 156.33 743.744C156.33 741.682 155.188 740.369 153.534 740.369C152.256 740.369 151.864 741.153 151.642 741.494H151.523V740.455H150.551V749.455ZM151.54 743.727C151.54 742.261 152.188 741.273 153.415 741.273C154.693 741.273 155.324 742.347 155.324 743.727C155.324 745.125 154.676 746.233 153.415 746.233C152.205 746.233 151.54 745.21 151.54 743.727ZM160.523 747.136C162.296 747.136 163.489 745.79 163.489 743.761C163.489 741.716 162.296 740.369 160.523 740.369C158.75 740.369 157.557 741.716 157.557 743.761C157.557 745.79 158.75 747.136 160.523 747.136ZM160.523 746.233C159.176 746.233 158.563 745.074 158.563 743.761C158.563 742.449 159.176 741.273 160.523 741.273C161.869 741.273 162.483 742.449 162.483 743.761C162.483 745.074 161.869 746.233 160.523 746.233ZM165.024 747H168.109C169.439 747 170.24 746.25 170.24 745.244C170.24 744.217 169.46 743.663 168.74 743.557C169.477 743.403 170.001 742.99 170.001 742.193C170.001 741.149 169.106 740.455 167.7 740.455H165.024V747ZM165.979 746.08V744.068H168.109C168.8 744.068 169.217 744.482 169.217 745.159C169.217 745.73 168.8 746.08 168.109 746.08H165.979ZM165.979 743.199V741.375H167.7C168.506 741.375 168.996 741.712 168.996 742.261C168.996 742.845 168.506 743.199 167.7 743.199H165.979ZM173.688 747.153C174.83 747.153 175.427 746.54 175.632 746.114H175.683V747H176.688V742.688C176.688 740.608 175.103 740.369 174.268 740.369C173.279 740.369 172.154 740.71 171.643 741.903L172.597 742.244C172.819 741.767 173.343 741.256 174.302 741.256C175.227 741.256 175.683 741.746 175.683 742.585V742.619C175.683 743.105 175.188 743.062 173.995 743.216C172.781 743.374 171.455 743.642 171.455 745.142C171.455 746.42 172.444 747.153 173.688 747.153ZM173.842 746.25C173.041 746.25 172.461 745.892 172.461 745.193C172.461 744.426 173.16 744.188 173.944 744.085C174.37 744.034 175.512 743.915 175.683 743.71V744.631C175.683 745.449 175.035 746.25 173.842 746.25ZM179.53 740.455H178.524V747H179.53V744.205H182.666V747H183.672V740.455H182.666V743.267H179.53V740.455ZM186.514 742.824V740.455H185.508V747H188.253C189.787 747 190.622 746.062 190.622 744.886C190.622 743.693 189.787 742.824 188.253 742.824H186.514ZM191.662 747H192.667V740.455H191.662V747ZM186.514 743.761H188.253C189.05 743.761 189.616 744.247 189.616 744.938C189.616 745.598 189.05 746.062 188.253 746.062H186.514V743.761ZM195.821 744.545H196.844V744.494C196.861 743.438 197.133 742.977 197.883 742.509C198.633 742.053 199.077 741.396 199.077 740.455C199.077 739.125 198.105 738.153 196.605 738.153C195.224 738.153 194.129 739.006 194.065 740.455H195.139C195.203 739.449 195.906 739.04 196.605 739.04C197.406 739.04 198.054 739.568 198.054 740.403C198.054 741.081 197.666 741.567 197.167 741.869C196.332 742.376 195.834 742.871 195.821 744.494V744.545ZM196.366 747.068C196.788 747.068 197.133 746.723 197.133 746.301C197.133 745.879 196.788 745.534 196.366 745.534C195.944 745.534 195.599 745.879 195.599 746.301C195.599 746.723 195.944 747.068 196.366 747.068Z" fill="#A0A0A0"/>
</g>
<defs>
<clipPath id="clip0_1_2412">
<rect width="320" height="780" fill="white"/>
</clipPath>
</defs>
</svg>
