<svg width="768" height="1024" viewBox="0 0 768 1024" fill="none" xmlns="http://www.w3.org/2000/svg">
<g clip-path="url(#clip0_1_2142)">
<rect width="768" height="1024" fill="#FAFAFA"/>
<rect width="768" height="74" fill="#FAFAFA"/>
<path fill-rule="evenodd" clip-rule="evenodd" d="M730 29L702 29V26L730 26V29Z" fill="black"/>
<path fill-rule="evenodd" clip-rule="evenodd" d="M730 39L702 39V36L730 36V39Z" fill="black"/>
<path fill-rule="evenodd" clip-rule="evenodd" d="M730 49L702 49V46L730 46V49Z" fill="black"/>
<path d="M30 30.6667C30 26.2329 30 24.016 30.8629 22.3226C31.6219 20.833 32.833 19.6219 34.3226 18.8629C36.016 18 38.2329 18 42.6667 18H55.3333C59.7671 18 61.984 18 63.6774 18.8629C65.167 19.6219 66.3781 20.833 67.1371 22.3226C68 24.016 68 26.2329 68 30.6667V43.3333C68 47.7671 68 49.984 67.1371 51.6774C66.3781 53.167 65.167 54.3781 63.6774 55.1371C61.984 56 59.7671 56 55.3333 56H42.6667C38.2329 56 36.016 56 34.3226 55.1371C32.833 54.3781 31.6219 53.167 30.8629 51.6774C30 49.984 30 47.7671 30 43.3333V30.6667Z" fill="#3456F3"/>
<circle cx="49" cy="37" r="11" fill="white"/>
<path fill-rule="evenodd" clip-rule="evenodd" d="M45.1538 37C45.1538 39.1242 46.8758 40.8462 49 40.8462C51.1242 40.8462 52.8462 39.1242 52.8462 37H55C55 40.3137 52.3137 43 49 43C45.6863 43 43 40.3137 43 37H45.1538Z" fill="#3456F3"/>
<path d="M296.75 315.545H283.284V333H285.909V317.795H294.125V333H296.75V315.545ZM300.572 337.909H303.121V330.963H303.274C303.734 331.798 304.672 333.256 307.058 333.256C310.229 333.256 312.53 330.716 312.53 326.48C312.53 322.236 310.195 319.739 307.033 319.739C304.604 319.739 303.726 321.222 303.274 322.031H303.061V319.909H300.572V337.909ZM303.07 326.455C303.07 323.719 304.263 321.903 306.487 321.903C308.797 321.903 309.956 323.855 309.956 326.455C309.956 329.08 308.763 331.082 306.487 331.082C304.297 331.082 303.07 329.207 303.07 326.455ZM317.882 329.429V319.909H315.385V333H318.155L323.899 323.472V333H326.396V319.909H323.652L317.882 329.429ZM329.822 333H336.078C338.942 333 340.621 331.551 340.621 329.472C340.621 327.528 339.129 326.335 337.382 326.131C338.993 325.824 340.058 324.938 340.058 323.403C340.058 321.256 338.2 319.909 335.251 319.909H329.822V333ZM332.217 330.869V327.23H336.078C337.339 327.23 338.098 327.972 338.098 329.19C338.098 330.23 337.339 330.869 336.078 330.869H332.217ZM332.217 325.364V322.065H335.251C336.7 322.065 337.578 322.67 337.578 323.676C337.578 324.724 336.709 325.364 335.277 325.364H332.217ZM349.058 333.264C351.913 333.264 353.933 331.858 354.513 329.727L352.101 329.293C351.641 330.528 350.533 331.159 349.084 331.159C346.902 331.159 345.436 329.744 345.368 327.222H354.675V326.318C354.675 321.588 351.845 319.739 348.879 319.739C345.232 319.739 342.828 322.517 342.828 326.54C342.828 330.605 345.197 333.264 349.058 333.264ZM345.376 325.312C345.479 323.455 346.825 321.844 348.896 321.844C350.874 321.844 352.169 323.31 352.178 325.312H345.376ZM356.347 322.108H360.634V333H363.123V322.108H367.393V319.909H356.347V322.108ZM371.341 330.614H368.886L368.801 331.568C368.605 333.878 368.06 336.205 367.83 337.261H369.636C370.045 336.145 370.949 333.588 371.213 331.543L371.341 330.614ZM381.214 333H387.905C391.962 333 393.794 330.98 393.794 328.304C393.794 325.602 391.902 324.077 390.172 323.983V323.812C391.774 323.403 393.112 322.312 393.112 320.131C393.112 317.548 391.322 315.545 387.607 315.545H381.214V333ZM383.848 330.741V325.151H387.743C389.857 325.151 391.178 326.514 391.178 328.176C391.178 329.642 390.18 330.741 387.649 330.741H383.848ZM383.848 323.097V317.787H387.445C389.533 317.787 390.53 318.886 390.53 320.335C390.53 322.023 389.149 323.097 387.376 323.097H383.848ZM399.21 329.429V319.909H396.713V333H399.483L405.227 323.472V333H407.724V319.909H404.98L399.21 329.429ZM409.527 322.108H413.814V333H416.303V322.108H420.572V319.909H409.527V322.108ZM426.468 333.29C428.633 333.29 429.852 332.19 430.337 331.21H430.44V333H432.928V324.307C432.928 320.497 429.928 319.739 427.849 319.739C425.479 319.739 423.298 320.693 422.445 323.08L424.84 323.625C425.215 322.696 426.17 321.801 427.883 321.801C429.528 321.801 430.371 322.662 430.371 324.145V324.205C430.371 325.134 429.417 325.116 427.065 325.389C424.585 325.679 422.045 326.327 422.045 329.301C422.045 331.875 423.979 333.29 426.468 333.29ZM427.022 331.244C425.582 331.244 424.542 330.597 424.542 329.335C424.542 327.972 425.752 327.486 427.227 327.29C428.053 327.179 430.013 326.957 430.38 326.591V328.278C430.38 329.83 429.144 331.244 427.022 331.244ZM435.291 333H436.109C438.964 333 440.013 330.886 440.217 326.557L440.422 322.108H444.7V333H447.197V319.909H438.061L437.831 325.705C437.669 329.744 437.209 330.793 435.751 330.793H435.283L435.291 333ZM453.093 329.429V319.909H450.596V333H453.366L459.11 323.472V333H461.607V319.909H458.863L453.093 329.429ZM467.531 329.429V319.909H465.033V333H467.803L473.548 323.472V333H476.045V319.909H473.3L467.531 329.429ZM472.21 315.477C472.21 316.338 471.732 317.097 470.539 317.097C469.329 317.097 468.877 316.33 468.877 315.477H466.789C466.789 317.395 468.246 318.716 470.539 318.716C472.849 318.716 474.306 317.395 474.306 315.477H472.21ZM482.684 315.545H479.88L480.102 327.98H482.462L482.684 315.545ZM481.278 333.162C482.207 333.162 482.982 332.403 482.982 331.457C482.982 330.528 482.207 329.761 481.278 329.761C480.34 329.761 479.573 330.528 479.573 331.457C479.573 332.403 480.34 333.162 481.278 333.162Z" fill="black"/>
<path d="M179.879 494V486H184.895V487.039H181.086V489.477H184.633V490.512H181.086V492.961H184.941V494H179.879ZM189.948 490.113V491.125H186.401V490.113H189.948ZM191.505 494V488H192.626V488.977H192.7C192.825 488.646 193.03 488.388 193.313 488.203C193.597 488.016 193.937 487.922 194.333 487.922C194.734 487.922 195.07 488.016 195.341 488.203C195.614 488.391 195.816 488.648 195.946 488.977H196.009C196.152 488.656 196.38 488.401 196.692 488.211C197.005 488.018 197.377 487.922 197.81 487.922C198.354 487.922 198.798 488.092 199.142 488.434C199.488 488.775 199.661 489.289 199.661 489.977V494H198.493V490.086C198.493 489.68 198.382 489.385 198.161 489.203C197.94 489.021 197.675 488.93 197.368 488.93C196.988 488.93 196.692 489.047 196.481 489.281C196.271 489.513 196.165 489.811 196.165 490.176V494H195.001V490.012C195.001 489.686 194.899 489.424 194.696 489.227C194.493 489.029 194.229 488.93 193.903 488.93C193.682 488.93 193.478 488.988 193.29 489.105C193.105 489.22 192.955 489.38 192.841 489.586C192.729 489.792 192.673 490.03 192.673 490.301V494H191.505ZM202.973 494.133C202.592 494.133 202.249 494.063 201.941 493.922C201.634 493.779 201.391 493.572 201.211 493.301C201.034 493.03 200.945 492.698 200.945 492.305C200.945 491.966 201.01 491.687 201.141 491.469C201.271 491.25 201.447 491.077 201.668 490.949C201.889 490.822 202.137 490.725 202.41 490.66C202.684 490.595 202.962 490.546 203.246 490.512C203.605 490.47 203.897 490.436 204.121 490.41C204.345 490.382 204.508 490.336 204.609 490.273C204.711 490.211 204.762 490.109 204.762 489.969V489.941C204.762 489.6 204.665 489.336 204.473 489.148C204.283 488.961 203.999 488.867 203.621 488.867C203.228 488.867 202.918 488.954 202.691 489.129C202.467 489.301 202.313 489.492 202.227 489.703L201.129 489.453C201.259 489.089 201.449 488.794 201.699 488.57C201.952 488.344 202.242 488.18 202.57 488.078C202.898 487.974 203.243 487.922 203.605 487.922C203.845 487.922 204.099 487.951 204.367 488.008C204.638 488.062 204.891 488.164 205.125 488.312C205.362 488.461 205.556 488.673 205.707 488.949C205.858 489.223 205.934 489.578 205.934 490.016V494H204.793V493.18H204.746C204.671 493.331 204.557 493.479 204.406 493.625C204.255 493.771 204.061 493.892 203.824 493.988C203.587 494.085 203.303 494.133 202.973 494.133ZM203.227 493.195C203.549 493.195 203.826 493.132 204.055 493.004C204.286 492.876 204.462 492.71 204.582 492.504C204.704 492.296 204.766 492.073 204.766 491.836V491.062C204.724 491.104 204.643 491.143 204.523 491.18C204.406 491.214 204.272 491.243 204.121 491.27C203.97 491.293 203.823 491.315 203.68 491.336C203.536 491.354 203.417 491.37 203.32 491.383C203.094 491.411 202.887 491.46 202.699 491.527C202.514 491.595 202.366 491.693 202.254 491.82C202.145 491.945 202.09 492.112 202.09 492.32C202.09 492.609 202.197 492.828 202.41 492.977C202.624 493.122 202.896 493.195 203.227 493.195ZM207.489 494V488H208.657V494H207.489ZM208.079 487.074C207.876 487.074 207.701 487.007 207.556 486.871C207.412 486.733 207.341 486.569 207.341 486.379C207.341 486.186 207.412 486.022 207.556 485.887C207.701 485.749 207.876 485.68 208.079 485.68C208.282 485.68 208.455 485.749 208.599 485.887C208.744 486.022 208.817 486.186 208.817 486.379C208.817 486.569 208.744 486.733 208.599 486.871C208.455 487.007 208.282 487.074 208.079 487.074ZM211.396 486V494H210.229V486H211.396Z" fill="black"/>
<path d="M179.879 438H181.074V443.875H181.148L185.219 438H186.336V446H185.129V440.133H185.055L180.992 446H179.879V438ZM191.37 444.555L193.308 440H194.315L191.804 446H190.937L188.476 440H189.472L191.37 444.555ZM189.147 440V446H188.003V440H189.147ZM193.624 446V440H194.761V446H193.624ZM199.896 446V440.996H198.458C198.117 440.996 197.851 441.076 197.661 441.234C197.471 441.393 197.376 441.602 197.376 441.859C197.376 442.115 197.463 442.32 197.638 442.477C197.815 442.63 198.062 442.707 198.38 442.707H200.235V443.652H198.38C197.937 443.652 197.554 443.579 197.231 443.434C196.911 443.285 196.664 443.076 196.489 442.805C196.317 442.534 196.231 442.214 196.231 441.844C196.231 441.466 196.32 441.141 196.497 440.867C196.677 440.591 196.933 440.378 197.267 440.227C197.603 440.076 198 440 198.458 440H200.993V446H199.896ZM195.958 446L197.649 442.969H198.845L197.153 446H195.958Z" fill="black"/>
<path d="M492.337 496.25V488H493.228V488.953H493.337C493.405 488.849 493.498 488.716 493.618 488.555C493.741 488.391 493.915 488.245 494.142 488.117C494.371 487.987 494.681 487.922 495.071 487.922C495.576 487.922 496.022 488.048 496.407 488.301C496.793 488.553 497.093 488.911 497.31 489.375C497.526 489.839 497.634 490.385 497.634 491.016C497.634 491.651 497.526 492.202 497.31 492.668C497.093 493.132 496.794 493.491 496.411 493.746C496.028 493.999 495.587 494.125 495.087 494.125C494.701 494.125 494.393 494.061 494.161 493.934C493.929 493.803 493.751 493.656 493.626 493.492C493.501 493.326 493.405 493.187 493.337 493.078H493.259V496.25H492.337ZM493.243 491C493.243 491.453 493.31 491.853 493.442 492.199C493.575 492.543 493.769 492.812 494.024 493.008C494.28 493.201 494.592 493.297 494.962 493.297C495.347 493.297 495.669 493.195 495.927 492.992C496.187 492.786 496.382 492.51 496.513 492.164C496.646 491.815 496.712 491.427 496.712 491C496.712 490.578 496.647 490.198 496.517 489.859C496.389 489.518 496.195 489.249 495.935 489.051C495.677 488.85 495.353 488.75 494.962 488.75C494.587 488.75 494.272 488.845 494.017 489.035C493.761 489.223 493.569 489.486 493.438 489.824C493.308 490.16 493.243 490.552 493.243 491ZM501.478 494.125C500.936 494.125 500.461 493.996 500.052 493.738C499.646 493.48 499.328 493.12 499.099 492.656C498.872 492.193 498.759 491.651 498.759 491.031C498.759 490.406 498.872 489.861 499.099 489.395C499.328 488.928 499.646 488.566 500.052 488.309C500.461 488.051 500.936 487.922 501.478 487.922C502.019 487.922 502.493 488.051 502.899 488.309C503.308 488.566 503.626 488.928 503.853 489.395C504.082 489.861 504.196 490.406 504.196 491.031C504.196 491.651 504.082 492.193 503.853 492.656C503.626 493.12 503.308 493.48 502.899 493.738C502.493 493.996 502.019 494.125 501.478 494.125ZM501.478 493.297C501.889 493.297 502.228 493.191 502.493 492.98C502.759 492.77 502.955 492.492 503.083 492.148C503.211 491.805 503.274 491.432 503.274 491.031C503.274 490.63 503.211 490.257 503.083 489.91C502.955 489.564 502.759 489.284 502.493 489.07C502.228 488.857 501.889 488.75 501.478 488.75C501.066 488.75 500.728 488.857 500.462 489.07C500.196 489.284 500 489.564 499.872 489.91C499.744 490.257 499.681 490.63 499.681 491.031C499.681 491.432 499.744 491.805 499.872 492.148C500 492.492 500.196 492.77 500.462 492.98C500.728 493.191 501.066 493.297 501.478 493.297ZM508.041 494.125C507.479 494.125 506.994 493.992 506.588 493.727C506.182 493.461 505.869 493.095 505.65 492.629C505.432 492.163 505.322 491.63 505.322 491.031C505.322 490.422 505.434 489.884 505.658 489.418C505.885 488.949 506.2 488.583 506.604 488.32C507.01 488.055 507.484 487.922 508.025 487.922C508.447 487.922 508.827 488 509.166 488.156C509.505 488.312 509.782 488.531 509.998 488.812C510.214 489.094 510.348 489.422 510.4 489.797H509.479C509.408 489.523 509.252 489.281 509.01 489.07C508.77 488.857 508.447 488.75 508.041 488.75C507.682 488.75 507.367 488.844 507.096 489.031C506.827 489.216 506.618 489.478 506.467 489.816C506.318 490.152 506.244 490.547 506.244 491C506.244 491.464 506.317 491.867 506.463 492.211C506.611 492.555 506.82 492.822 507.088 493.012C507.359 493.202 507.676 493.297 508.041 493.297C508.281 493.297 508.498 493.255 508.693 493.172C508.889 493.089 509.054 492.969 509.189 492.812C509.325 492.656 509.421 492.469 509.479 492.25H510.4C510.348 492.604 510.219 492.923 510.014 493.207C509.811 493.488 509.541 493.712 509.205 493.879C508.872 494.043 508.484 494.125 508.041 494.125ZM512.67 490.391V494H511.748V486H512.67V488.937H512.748C512.889 488.628 513.1 488.382 513.381 488.199C513.665 488.014 514.042 487.922 514.514 487.922C514.923 487.922 515.281 488.004 515.588 488.168C515.895 488.329 516.133 488.578 516.303 488.914C516.475 489.247 516.561 489.672 516.561 490.188V494H515.639V490.25C515.639 489.773 515.515 489.405 515.268 489.145C515.023 488.882 514.683 488.75 514.248 488.75C513.946 488.75 513.675 488.814 513.436 488.941C513.199 489.069 513.011 489.255 512.873 489.5C512.738 489.745 512.67 490.042 512.67 490.391ZM520.856 488V488.781H517.747V488H520.856ZM518.653 486.562H519.575V492.281C519.575 492.542 519.613 492.737 519.688 492.867C519.767 492.995 519.866 493.081 519.985 493.125C520.108 493.167 520.237 493.187 520.372 493.187C520.474 493.187 520.557 493.182 520.622 493.172C520.687 493.159 520.739 493.148 520.778 493.141L520.966 493.969C520.903 493.992 520.816 494.016 520.704 494.039C520.592 494.065 520.45 494.078 520.278 494.078C520.018 494.078 519.763 494.022 519.513 493.91C519.265 493.798 519.06 493.628 518.896 493.398C518.734 493.169 518.653 492.88 518.653 492.531V486.562ZM524.009 494.141C523.629 494.141 523.284 494.069 522.974 493.926C522.664 493.78 522.418 493.57 522.235 493.297C522.053 493.021 521.962 492.687 521.962 492.297C521.962 491.953 522.03 491.674 522.165 491.461C522.3 491.245 522.481 491.076 522.708 490.953C522.935 490.831 523.185 490.74 523.458 490.68C523.734 490.617 524.011 490.568 524.29 490.531C524.655 490.484 524.95 490.449 525.177 490.426C525.406 490.4 525.573 490.357 525.677 490.297C525.784 490.237 525.837 490.133 525.837 489.984V489.953C525.837 489.568 525.731 489.268 525.521 489.055C525.312 488.841 524.996 488.734 524.571 488.734C524.131 488.734 523.786 488.831 523.536 489.023C523.286 489.216 523.11 489.422 523.009 489.641L522.134 489.328C522.29 488.964 522.498 488.68 522.759 488.477C523.022 488.271 523.308 488.128 523.618 488.047C523.931 487.964 524.238 487.922 524.54 487.922C524.733 487.922 524.954 487.945 525.204 487.992C525.457 488.036 525.7 488.129 525.935 488.27C526.172 488.41 526.368 488.622 526.524 488.906C526.681 489.19 526.759 489.57 526.759 490.047V494H525.837V493.187H525.79C525.728 493.318 525.623 493.457 525.478 493.605C525.332 493.754 525.138 493.88 524.896 493.984C524.653 494.089 524.358 494.141 524.009 494.141ZM524.149 493.312C524.514 493.312 524.821 493.241 525.071 493.098C525.324 492.954 525.514 492.77 525.642 492.543C525.772 492.316 525.837 492.078 525.837 491.828V490.984C525.798 491.031 525.712 491.074 525.579 491.113C525.449 491.15 525.298 491.182 525.126 491.211C524.957 491.237 524.791 491.26 524.63 491.281C524.471 491.299 524.342 491.315 524.243 491.328C524.004 491.359 523.78 491.41 523.571 491.48C523.366 491.548 523.199 491.651 523.071 491.789C522.946 491.924 522.884 492.109 522.884 492.344C522.884 492.664 523.002 492.906 523.239 493.07C523.479 493.232 523.782 493.312 524.149 493.312ZM533.051 496.109C532.254 496.109 531.549 496 530.937 495.781C530.326 495.565 529.811 495.246 529.395 494.824C528.978 494.402 528.663 493.885 528.449 493.273C528.236 492.661 528.129 491.961 528.129 491.172C528.129 490.409 528.237 489.727 528.453 489.125C528.672 488.523 528.988 488.013 529.402 487.594C529.819 487.172 530.324 486.85 530.918 486.629C531.514 486.408 532.189 486.297 532.941 486.297C533.673 486.297 534.314 486.417 534.863 486.656C535.415 486.893 535.876 487.215 536.246 487.621C536.618 488.025 536.897 488.479 537.082 488.984C537.27 489.49 537.363 490.01 537.363 490.547C537.363 490.924 537.345 491.307 537.309 491.695C537.272 492.083 537.195 492.44 537.078 492.766C536.961 493.089 536.78 493.349 536.535 493.547C536.293 493.745 535.965 493.844 535.551 493.844C535.368 493.844 535.168 493.815 534.949 493.758C534.73 493.701 534.536 493.605 534.367 493.473C534.198 493.34 534.098 493.161 534.066 492.937H534.02C533.957 493.089 533.861 493.232 533.73 493.367C533.603 493.503 533.435 493.611 533.227 493.691C533.021 493.772 532.77 493.807 532.473 493.797C532.134 493.784 531.836 493.708 531.578 493.57C531.32 493.43 531.104 493.24 530.93 493C530.758 492.758 530.628 492.478 530.539 492.16C530.453 491.84 530.41 491.495 530.41 491.125C530.41 490.773 530.462 490.452 530.566 490.16C530.671 489.868 530.815 489.613 531 489.395C531.188 489.176 531.406 489.001 531.656 488.871C531.909 488.738 532.181 488.656 532.473 488.625C532.733 488.599 532.97 488.611 533.184 488.66C533.397 488.707 533.573 488.779 533.711 488.875C533.849 488.969 533.936 489.073 533.973 489.188H534.02V488.75H534.848V492.281C534.848 492.5 534.909 492.693 535.031 492.859C535.154 493.026 535.332 493.109 535.566 493.109C535.832 493.109 536.035 493.018 536.176 492.836C536.319 492.654 536.417 492.372 536.469 491.992C536.523 491.612 536.551 491.125 536.551 490.531C536.551 490.182 536.503 489.839 536.406 489.5C536.313 489.159 536.169 488.84 535.977 488.543C535.786 488.246 535.546 487.984 535.254 487.758C534.962 487.531 534.62 487.354 534.227 487.227C533.836 487.096 533.392 487.031 532.895 487.031C532.283 487.031 531.734 487.126 531.25 487.316C530.768 487.504 530.358 487.779 530.02 488.141C529.684 488.5 529.427 488.937 529.25 489.453C529.076 489.966 528.988 490.549 528.988 491.203C528.988 491.867 529.076 492.457 529.25 492.973C529.427 493.488 529.688 493.923 530.031 494.277C530.378 494.632 530.806 494.9 531.316 495.082C531.827 495.267 532.415 495.359 533.082 495.359C533.368 495.359 533.651 495.332 533.93 495.277C534.208 495.223 534.454 495.163 534.668 495.098C534.882 495.033 535.035 494.984 535.129 494.953L535.348 495.672C535.186 495.74 534.975 495.807 534.715 495.875C534.457 495.943 534.181 495.999 533.887 496.043C533.595 496.087 533.316 496.109 533.051 496.109ZM532.598 493C532.947 493 533.229 492.93 533.445 492.789C533.661 492.648 533.819 492.436 533.918 492.152C534.017 491.868 534.066 491.51 534.066 491.078C534.066 490.641 534.012 490.299 533.902 490.055C533.793 489.81 533.632 489.638 533.418 489.539C533.204 489.44 532.941 489.391 532.629 489.391C532.332 489.391 532.078 489.469 531.867 489.625C531.659 489.779 531.499 489.984 531.387 490.242C531.277 490.497 531.223 490.776 531.223 491.078C531.223 491.411 531.267 491.725 531.355 492.02C531.444 492.311 531.589 492.548 531.789 492.73C531.99 492.91 532.259 493 532.598 493ZM539.337 496.25C539.181 496.25 539.041 496.237 538.919 496.211C538.797 496.188 538.712 496.164 538.665 496.141L538.899 495.328C539.123 495.385 539.321 495.406 539.493 495.391C539.665 495.375 539.817 495.298 539.95 495.16C540.086 495.025 540.209 494.805 540.321 494.5L540.493 494.031L538.274 488H539.274L540.931 492.781H540.993L542.649 488H543.649L541.103 494.875C540.988 495.185 540.846 495.441 540.677 495.645C540.507 495.85 540.311 496.003 540.087 496.102C539.866 496.201 539.616 496.25 539.337 496.25ZM546.449 494.141C546.069 494.141 545.724 494.069 545.414 493.926C545.104 493.78 544.858 493.57 544.676 493.297C544.493 493.021 544.402 492.687 544.402 492.297C544.402 491.953 544.47 491.674 544.605 491.461C544.741 491.245 544.922 491.076 545.148 490.953C545.375 490.831 545.625 490.74 545.898 490.68C546.174 490.617 546.452 490.568 546.73 490.531C547.095 490.484 547.391 490.449 547.617 490.426C547.846 490.4 548.013 490.357 548.117 490.297C548.224 490.237 548.277 490.133 548.277 489.984V489.953C548.277 489.568 548.172 489.268 547.961 489.055C547.753 488.841 547.436 488.734 547.012 488.734C546.572 488.734 546.227 488.831 545.977 489.023C545.727 489.216 545.551 489.422 545.449 489.641L544.574 489.328C544.73 488.964 544.939 488.68 545.199 488.477C545.462 488.271 545.749 488.128 546.059 488.047C546.371 487.964 546.678 487.922 546.98 487.922C547.173 487.922 547.395 487.945 547.645 487.992C547.897 488.036 548.141 488.129 548.375 488.27C548.612 488.41 548.809 488.622 548.965 488.906C549.121 489.19 549.199 489.57 549.199 490.047V494H548.277V493.187H548.23C548.168 493.318 548.064 493.457 547.918 493.605C547.772 493.754 547.578 493.88 547.336 493.984C547.094 494.089 546.798 494.141 546.449 494.141ZM546.59 493.312C546.954 493.312 547.262 493.241 547.512 493.098C547.764 492.954 547.954 492.77 548.082 492.543C548.212 492.316 548.277 492.078 548.277 491.828V490.984C548.238 491.031 548.152 491.074 548.02 491.113C547.889 491.15 547.738 491.182 547.566 491.211C547.397 491.237 547.232 491.26 547.07 491.281C546.911 491.299 546.783 491.315 546.684 491.328C546.444 491.359 546.22 491.41 546.012 491.48C545.806 491.548 545.639 491.651 545.512 491.789C545.387 491.924 545.324 492.109 545.324 492.344C545.324 492.664 545.443 492.906 545.68 493.07C545.919 493.232 546.223 493.312 546.59 493.312ZM551.804 490.391V494H550.882V488H551.772V488.937H551.851C551.991 488.633 552.205 488.388 552.491 488.203C552.778 488.016 553.147 487.922 553.601 487.922C554.007 487.922 554.362 488.005 554.667 488.172C554.972 488.336 555.209 488.586 555.378 488.922C555.547 489.255 555.632 489.677 555.632 490.188V494H554.71V490.25C554.71 489.779 554.588 489.411 554.343 489.148C554.098 488.883 553.762 488.75 553.335 488.75C553.041 488.75 552.778 488.814 552.546 488.941C552.317 489.069 552.136 489.255 552.003 489.5C551.87 489.745 551.804 490.042 551.804 490.391ZM559.582 494.125C559.082 494.125 558.641 493.999 558.258 493.746C557.875 493.491 557.576 493.132 557.359 492.668C557.143 492.202 557.035 491.651 557.035 491.016C557.035 490.385 557.143 489.839 557.359 489.375C557.576 488.911 557.876 488.553 558.262 488.301C558.647 488.048 559.092 487.922 559.598 487.922C559.988 487.922 560.297 487.987 560.523 488.117C560.753 488.245 560.927 488.391 561.047 488.555C561.169 488.716 561.264 488.849 561.332 488.953H561.41V486H562.332V494H561.441V493.078H561.332C561.264 493.187 561.168 493.326 561.043 493.492C560.918 493.656 560.74 493.803 560.508 493.934C560.276 494.061 559.967 494.125 559.582 494.125ZM559.707 493.297C560.077 493.297 560.389 493.201 560.645 493.008C560.9 492.812 561.094 492.543 561.227 492.199C561.359 491.853 561.426 491.453 561.426 491C561.426 490.552 561.361 490.16 561.23 489.824C561.1 489.486 560.908 489.223 560.652 489.035C560.397 488.845 560.082 488.75 559.707 488.75C559.316 488.75 558.991 488.85 558.73 489.051C558.473 489.249 558.279 489.518 558.148 489.859C558.021 490.198 557.957 490.578 557.957 491C557.957 491.427 558.022 491.815 558.152 492.164C558.285 492.51 558.48 492.786 558.738 492.992C558.999 493.195 559.322 493.297 559.707 493.297ZM566.664 494.125C566.086 494.125 565.587 493.997 565.168 493.742C564.751 493.484 564.43 493.125 564.203 492.664C563.979 492.201 563.867 491.661 563.867 491.047C563.867 490.432 563.979 489.891 564.203 489.422C564.43 488.951 564.745 488.583 565.148 488.32C565.555 488.055 566.029 487.922 566.57 487.922C566.883 487.922 567.191 487.974 567.496 488.078C567.801 488.182 568.078 488.352 568.328 488.586C568.578 488.818 568.777 489.125 568.926 489.508C569.074 489.891 569.148 490.362 569.148 490.922V491.312H564.523V490.516H568.211C568.211 490.177 568.143 489.875 568.008 489.609C567.875 489.344 567.685 489.134 567.438 488.98C567.193 488.827 566.904 488.75 566.57 488.75C566.203 488.75 565.885 488.841 565.617 489.023C565.352 489.203 565.147 489.437 565.004 489.727C564.861 490.016 564.789 490.326 564.789 490.656V491.188C564.789 491.641 564.867 492.025 565.023 492.34C565.182 492.652 565.402 492.891 565.684 493.055C565.965 493.216 566.292 493.297 566.664 493.297C566.906 493.297 567.125 493.263 567.32 493.195C567.518 493.125 567.689 493.021 567.832 492.883C567.975 492.742 568.086 492.568 568.164 492.359L569.055 492.609C568.961 492.911 568.803 493.177 568.582 493.406C568.361 493.633 568.087 493.81 567.762 493.937C567.436 494.063 567.07 494.125 566.664 494.125ZM571.077 488L572.515 490.453L573.952 488H575.015L573.077 491L575.015 494H573.952L572.515 491.672L571.077 494H570.015L571.921 491L570.015 488H571.077ZM577.002 494.063C576.809 494.063 576.644 493.993 576.506 493.855C576.368 493.717 576.299 493.552 576.299 493.359C576.299 493.167 576.368 493.001 576.506 492.863C576.644 492.725 576.809 492.656 577.002 492.656C577.195 492.656 577.36 492.725 577.498 492.863C577.636 493.001 577.705 493.167 577.705 493.359C577.705 493.487 577.673 493.604 577.607 493.711C577.545 493.818 577.46 493.904 577.354 493.969C577.249 494.031 577.132 494.063 577.002 494.063ZM579.359 494V488H580.25V488.906H580.313C580.422 488.609 580.62 488.368 580.906 488.184C581.193 487.999 581.516 487.906 581.875 487.906C581.943 487.906 582.027 487.908 582.129 487.91C582.23 487.913 582.307 487.917 582.359 487.922V488.859C582.328 488.852 582.257 488.84 582.145 488.824C582.035 488.806 581.919 488.797 581.797 488.797C581.505 488.797 581.245 488.858 581.016 488.98C580.789 489.1 580.609 489.267 580.477 489.48C580.346 489.691 580.281 489.932 580.281 490.203V494H579.359ZM587.233 491.547V488H588.155V494H587.233V492.984H587.171C587.03 493.289 586.812 493.548 586.515 493.762C586.218 493.973 585.843 494.078 585.39 494.078C585.015 494.078 584.681 493.996 584.39 493.832C584.098 493.665 583.869 493.415 583.702 493.082C583.535 492.746 583.452 492.323 583.452 491.812V488H584.374V491.75C584.374 492.187 584.496 492.536 584.741 492.797C584.989 493.057 585.304 493.187 585.687 493.187C585.916 493.187 586.149 493.129 586.386 493.012C586.625 492.895 586.826 492.715 586.987 492.473C587.151 492.23 587.233 491.922 587.233 491.547Z" fill="black"/>
<path d="M545.346 446V438H548.143C548.7 438 549.16 438.096 549.521 438.289C549.883 438.479 550.153 438.736 550.33 439.059C550.507 439.379 550.596 439.734 550.596 440.125C550.596 440.469 550.535 440.753 550.412 440.977C550.292 441.201 550.133 441.378 549.936 441.508C549.74 441.638 549.528 441.734 549.299 441.797V441.875C549.544 441.891 549.79 441.977 550.037 442.133C550.285 442.289 550.492 442.513 550.658 442.805C550.825 443.096 550.908 443.453 550.908 443.875C550.908 444.276 550.817 444.637 550.635 444.957C550.452 445.277 550.165 445.531 549.771 445.719C549.378 445.906 548.867 446 548.236 446H545.346ZM546.314 445.141H548.236C548.869 445.141 549.318 445.018 549.584 444.773C549.852 444.526 549.986 444.227 549.986 443.875C549.986 443.604 549.917 443.354 549.779 443.125C549.641 442.893 549.445 442.708 549.189 442.57C548.934 442.43 548.632 442.359 548.283 442.359H546.314V445.141ZM546.314 441.516H548.111C548.403 441.516 548.666 441.458 548.9 441.344C549.137 441.229 549.325 441.068 549.463 440.859C549.604 440.651 549.674 440.406 549.674 440.125C549.674 439.773 549.551 439.475 549.307 439.23C549.062 438.983 548.674 438.859 548.143 438.859H546.314V441.516ZM553.297 444.641L556.188 440H557.25V446H556.328V441.359L553.453 446H552.375V440H553.297V444.641ZM558.122 440.859V440H562.997V440.859H561.028V446H560.106V440.859H558.122ZM565.796 446.141C565.416 446.141 565.071 446.069 564.761 445.926C564.451 445.78 564.205 445.57 564.022 445.297C563.84 445.021 563.749 444.687 563.749 444.297C563.749 443.953 563.817 443.674 563.952 443.461C564.088 443.245 564.269 443.076 564.495 442.953C564.722 442.831 564.972 442.74 565.245 442.68C565.521 442.617 565.799 442.568 566.077 442.531C566.442 442.484 566.737 442.449 566.964 442.426C567.193 442.4 567.36 442.357 567.464 442.297C567.571 442.237 567.624 442.133 567.624 441.984V441.953C567.624 441.568 567.519 441.268 567.308 441.055C567.099 440.841 566.783 440.734 566.358 440.734C565.918 440.734 565.573 440.831 565.323 441.023C565.073 441.216 564.897 441.422 564.796 441.641L563.921 441.328C564.077 440.964 564.285 440.68 564.546 440.477C564.809 440.271 565.095 440.128 565.405 440.047C565.718 439.964 566.025 439.922 566.327 439.922C566.52 439.922 566.741 439.945 566.991 439.992C567.244 440.036 567.487 440.129 567.722 440.27C567.959 440.41 568.155 440.622 568.312 440.906C568.468 441.19 568.546 441.57 568.546 442.047V446H567.624V445.187H567.577C567.515 445.318 567.41 445.457 567.265 445.605C567.119 445.754 566.925 445.88 566.683 445.984C566.44 446.089 566.145 446.141 565.796 446.141ZM565.937 445.312C566.301 445.312 566.608 445.241 566.858 445.098C567.111 444.954 567.301 444.77 567.429 444.543C567.559 444.316 567.624 444.078 567.624 443.828V442.984C567.585 443.031 567.499 443.074 567.366 443.113C567.236 443.15 567.085 443.182 566.913 443.211C566.744 443.237 566.578 443.26 566.417 443.281C566.258 443.299 566.129 443.315 566.03 443.328C565.791 443.359 565.567 443.41 565.358 443.48C565.153 443.548 564.986 443.651 564.858 443.789C564.733 443.924 564.671 444.109 564.671 444.344C564.671 444.664 564.789 444.906 565.026 445.07C565.266 445.232 565.569 445.312 565.937 445.312ZM569.697 446V445.141H569.916C570.096 445.141 570.245 445.105 570.365 445.035C570.485 444.962 570.581 444.836 570.654 444.656C570.73 444.474 570.787 444.221 570.826 443.898C570.868 443.573 570.898 443.159 570.916 442.656L571.025 440H575.025V446H574.104V440.859H571.9L571.807 443C571.786 443.492 571.742 443.926 571.674 444.301C571.609 444.673 571.508 444.986 571.373 445.238C571.24 445.491 571.063 445.681 570.842 445.809C570.62 445.936 570.343 446 570.01 446H569.697ZM577.639 444.641L580.529 440H581.592V446H580.67V441.359L577.795 446H576.717V440H577.639V444.641ZM584.202 444.641L587.093 440H588.155V446H587.233V441.359L584.358 446H583.28V440H584.202V444.641ZM586.483 438H587.343C587.343 438.422 587.197 438.767 586.905 439.035C586.614 439.303 586.218 439.437 585.718 439.437C585.226 439.437 584.834 439.303 584.542 439.035C584.253 438.767 584.108 438.422 584.108 438H584.968C584.968 438.203 585.024 438.382 585.136 438.535C585.25 438.689 585.444 438.766 585.718 438.766C585.991 438.766 586.187 438.689 586.304 438.535C586.424 438.382 586.483 438.203 586.483 438Z" fill="black"/>
<path fill-rule="evenodd" clip-rule="evenodd" d="M589 466L179 466L179 465L589 465L589 466Z" fill="#E8E8E8"/>
<path d="M325.25 752V742.545H328.712C329.383 742.545 329.939 742.656 330.379 742.878C330.819 743.096 331.148 743.393 331.367 743.769C331.585 744.141 331.695 744.561 331.695 745.029C331.695 745.423 331.622 745.755 331.478 746.026C331.333 746.294 331.139 746.509 330.896 746.673C330.656 746.833 330.391 746.95 330.102 747.023V747.116C330.416 747.131 330.722 747.233 331.021 747.42C331.322 747.605 331.572 747.868 331.769 748.21C331.966 748.551 332.064 748.967 332.064 749.456C332.064 749.94 331.95 750.373 331.722 750.758C331.498 751.14 331.15 751.443 330.679 751.668C330.208 751.889 329.607 752 328.874 752H325.25ZM326.677 750.777H328.736C329.419 750.777 329.908 750.644 330.204 750.38C330.499 750.115 330.647 749.784 330.647 749.387C330.647 749.089 330.571 748.815 330.421 748.565C330.27 748.316 330.054 748.118 329.774 747.97C329.497 747.822 329.168 747.748 328.786 747.748H326.677V750.777ZM326.677 746.636H328.588C328.908 746.636 329.196 746.574 329.451 746.451C329.71 746.328 329.914 746.156 330.065 745.934C330.219 745.709 330.296 745.445 330.296 745.14C330.296 744.749 330.159 744.421 329.885 744.157C329.611 743.892 329.191 743.76 328.625 743.76H326.677V746.636ZM334.684 747.347H336.743C337.611 747.347 338.279 747.562 338.746 747.993C339.214 748.424 339.448 748.979 339.448 749.659C339.448 750.103 339.343 750.501 339.134 750.855C338.925 751.209 338.619 751.489 338.216 751.695C337.812 751.898 337.321 752 336.743 752H333.645V744.909H334.998V750.809H336.743C337.14 750.809 337.466 750.706 337.722 750.5C337.977 750.29 338.105 750.024 338.105 749.701C338.105 749.359 337.977 749.081 337.722 748.865C337.466 748.647 337.14 748.538 336.743 748.538H334.684V747.347ZM340.455 752V744.909H341.835V752H340.455ZM345.04 750.066L348.165 744.909H349.652V752H348.299V746.839L345.188 752H343.687V744.909H345.04V750.066ZM347.574 742.509H348.71C348.71 743.029 348.525 743.452 348.156 743.778C347.79 744.101 347.294 744.263 346.669 744.263C346.048 744.263 345.554 744.101 345.188 743.778C344.821 743.452 344.638 743.029 344.638 742.509H345.769C345.769 742.739 345.837 742.944 345.972 743.123C346.108 743.298 346.34 743.386 346.669 743.386C346.993 743.386 347.223 743.298 347.362 743.123C347.503 742.947 347.574 742.742 347.574 742.509ZM350.628 746.1V744.909H356.611V746.1H354.298V752H352.95V746.1H350.628ZM359.424 750.066L362.549 744.909H364.035V752H362.683V746.839L359.571 752H358.071V744.909H359.424V750.066ZM370.684 750.066L373.81 744.909H375.296V752H373.944V746.839L370.832 752H369.332V744.909H370.684V750.066ZM376.732 750.126H378.145C378.163 750.415 378.294 750.638 378.537 750.795C378.783 750.952 379.102 751.031 379.493 751.031C379.89 751.031 380.228 750.946 380.508 750.777C380.788 750.604 380.928 750.338 380.928 749.978C380.928 749.763 380.874 749.575 380.767 749.415C380.662 749.252 380.513 749.125 380.319 749.036C380.128 748.947 379.902 748.902 379.64 748.902H378.486V747.817H379.64C380.031 747.817 380.324 747.728 380.517 747.55C380.711 747.371 380.808 747.148 380.808 746.88C380.808 746.591 380.704 746.359 380.494 746.183C380.288 746.005 380 745.915 379.631 745.915C379.256 745.915 378.943 746 378.694 746.169C378.445 746.336 378.314 746.551 378.302 746.816H376.907C376.917 746.419 377.037 746.071 377.267 745.772C377.501 745.471 377.815 745.237 378.209 745.071C378.606 744.901 379.057 744.817 379.562 744.817C380.088 744.817 380.544 744.901 380.928 745.071C381.313 745.24 381.61 745.474 381.819 745.772C382.032 746.071 382.138 746.414 382.138 746.802C382.138 747.193 382.021 747.513 381.787 747.762C381.556 748.008 381.255 748.185 380.882 748.293V748.367C381.156 748.385 381.399 748.468 381.612 748.616C381.824 748.764 381.99 748.959 382.11 749.202C382.23 749.446 382.29 749.721 382.29 750.029C382.29 750.463 382.17 750.838 381.93 751.155C381.693 751.472 381.364 751.717 380.942 751.889C380.524 752.058 380.045 752.143 379.506 752.143C378.983 752.143 378.514 752.062 378.098 751.898C377.686 751.732 377.358 751.498 377.115 751.197C376.875 750.895 376.747 750.538 376.732 750.126ZM389.22 752.157C388.77 752.157 388.364 752.074 388.001 751.908C387.638 751.738 387.35 751.494 387.137 751.174C386.928 750.854 386.824 750.461 386.824 749.996C386.824 749.596 386.9 749.267 387.054 749.009C387.208 748.75 387.416 748.545 387.678 748.395C387.939 748.244 388.232 748.13 388.555 748.053C388.878 747.976 389.207 747.917 389.543 747.877C389.967 747.828 390.312 747.788 390.577 747.757C390.841 747.724 391.034 747.67 391.154 747.596C391.274 747.522 391.334 747.402 391.334 747.236V747.203C391.334 746.8 391.22 746.488 390.992 746.266C390.768 746.045 390.432 745.934 389.986 745.934C389.521 745.934 389.155 746.037 388.887 746.243C388.622 746.446 388.439 746.673 388.338 746.922L387.041 746.626C387.194 746.196 387.419 745.848 387.715 745.583C388.013 745.315 388.356 745.121 388.744 745.001C389.132 744.878 389.54 744.817 389.967 744.817C390.251 744.817 390.551 744.851 390.868 744.918C391.188 744.983 391.486 745.103 391.763 745.278C392.043 745.454 392.273 745.705 392.451 746.031C392.63 746.354 392.719 746.774 392.719 747.291V752H391.371V751.031H391.315C391.226 751.209 391.092 751.384 390.914 751.557C390.735 751.729 390.506 751.872 390.226 751.986C389.946 752.1 389.61 752.157 389.22 752.157ZM389.52 751.049C389.901 751.049 390.227 750.974 390.498 750.823C390.772 750.672 390.98 750.475 391.121 750.232C391.266 749.986 391.338 749.723 391.338 749.442V748.528C391.289 748.578 391.194 748.624 391.052 748.667C390.914 748.707 390.755 748.742 390.577 748.773C390.398 748.801 390.224 748.827 390.055 748.852C389.886 748.873 389.744 748.892 389.63 748.907C389.363 748.941 389.118 748.998 388.896 749.078C388.678 749.158 388.502 749.273 388.37 749.424C388.241 749.572 388.176 749.769 388.176 750.015C388.176 750.357 388.302 750.615 388.555 750.79C388.807 750.963 389.129 751.049 389.52 751.049ZM394.557 752V744.909H395.938V747.882H396.602L398.943 744.909H400.651L397.904 748.358L400.683 752H398.971L396.833 749.165H395.938V752H394.557ZM401.756 752V744.909H403.136V747.882H403.801L406.141 744.909H407.849L405.102 748.358L407.882 752H406.169L404.031 749.165H403.136V752H401.756ZM411.017 752.157C410.568 752.157 410.162 752.074 409.799 751.908C409.435 751.738 409.148 751.494 408.935 751.174C408.726 750.854 408.621 750.461 408.621 749.996C408.621 749.596 408.698 749.267 408.852 749.009C409.006 748.75 409.214 748.545 409.475 748.395C409.737 748.244 410.029 748.13 410.353 748.053C410.676 747.976 411.005 747.917 411.341 747.877C411.765 747.828 412.11 747.788 412.375 747.757C412.639 747.724 412.832 747.67 412.952 747.596C413.072 747.522 413.132 747.402 413.132 747.236V747.203C413.132 746.8 413.018 746.488 412.79 746.266C412.565 746.045 412.23 745.934 411.784 745.934C411.319 745.934 410.953 746.037 410.685 746.243C410.42 746.446 410.237 746.673 410.136 746.922L408.838 746.626C408.992 746.196 409.217 745.848 409.512 745.583C409.811 745.315 410.154 745.121 410.542 745.001C410.93 744.878 411.337 744.817 411.765 744.817C412.048 744.817 412.348 744.851 412.665 744.918C412.986 744.983 413.284 745.103 413.561 745.278C413.841 745.454 414.07 745.705 414.249 746.031C414.427 746.354 414.517 746.774 414.517 747.291V752H413.169V751.031H413.113C413.024 751.209 412.89 751.384 412.712 751.557C412.533 751.729 412.304 751.872 412.024 751.986C411.744 752.1 411.408 752.157 411.017 752.157ZM411.317 751.049C411.699 751.049 412.025 750.974 412.296 750.823C412.57 750.672 412.778 750.475 412.919 750.232C413.064 749.986 413.136 749.723 413.136 749.442V748.528C413.087 748.578 412.992 748.624 412.85 748.667C412.712 748.707 412.553 748.742 412.375 748.773C412.196 748.801 412.022 748.827 411.853 748.852C411.684 748.873 411.542 748.892 411.428 748.907C411.16 748.941 410.916 748.998 410.694 749.078C410.476 749.158 410.3 749.273 410.168 749.424C410.039 749.572 409.974 749.769 409.974 750.015C409.974 750.357 410.1 750.615 410.353 750.79C410.605 750.963 410.927 751.049 411.317 751.049ZM416.974 754.659C416.768 754.659 416.58 754.642 416.411 754.608C416.241 754.578 416.115 754.544 416.032 754.507L416.364 753.376C416.617 753.443 416.841 753.473 417.038 753.463C417.235 753.454 417.409 753.38 417.56 753.242C417.714 753.103 417.849 752.877 417.966 752.563L418.137 752.092L415.543 744.909H417.02L418.816 750.412H418.89L420.685 744.909H422.167L419.245 752.946C419.11 753.316 418.937 753.628 418.728 753.884C418.519 754.142 418.269 754.336 417.98 754.465C417.691 754.594 417.355 754.659 416.974 754.659ZM428.27 747.859V749.055H424.429V747.859H428.27ZM424.817 744.909V752H423.465V744.909H424.817ZM429.235 744.909V752H427.887V744.909H429.235ZM430.202 746.1V744.909H436.185V746.1H433.872V752H432.524V746.1H430.202ZM439.379 752.157C438.929 752.157 438.523 752.074 438.16 751.908C437.797 751.738 437.509 751.494 437.297 751.174C437.087 750.854 436.983 750.461 436.983 749.996C436.983 749.596 437.06 749.267 437.214 749.009C437.367 748.75 437.575 748.545 437.837 748.395C438.098 748.244 438.391 748.13 438.714 748.053C439.037 747.976 439.366 747.917 439.702 747.877C440.127 747.828 440.471 747.788 440.736 747.757C441.001 747.724 441.193 747.67 441.313 747.596C441.433 747.522 441.493 747.402 441.493 747.236V747.203C441.493 746.8 441.379 746.488 441.151 746.266C440.927 746.045 440.591 745.934 440.145 745.934C439.68 745.934 439.314 746.037 439.046 746.243C438.782 746.446 438.598 746.673 438.497 746.922L437.2 746.626C437.354 746.196 437.578 745.848 437.874 745.583C438.172 745.315 438.515 745.121 438.903 745.001C439.291 744.878 439.699 744.817 440.127 744.817C440.41 744.817 440.71 744.851 441.027 744.918C441.347 744.983 441.645 745.103 441.922 745.278C442.202 745.454 442.432 745.705 442.61 746.031C442.789 746.354 442.878 746.774 442.878 747.291V752H441.53V751.031H441.475C441.385 751.209 441.251 751.384 441.073 751.557C440.894 751.729 440.665 751.872 440.385 751.986C440.105 752.1 439.77 752.157 439.379 752.157ZM439.679 751.049C440.06 751.049 440.387 750.974 440.657 750.823C440.931 750.672 441.139 750.475 441.281 750.232C441.425 749.986 441.498 749.723 441.498 749.442V748.528C441.448 748.578 441.353 748.624 441.211 748.667C441.073 748.707 440.914 748.742 440.736 748.773C440.557 748.801 440.384 748.827 440.214 748.852C440.045 748.873 439.903 748.892 439.79 748.907C439.522 748.941 439.277 748.998 439.056 749.078C438.837 749.158 438.662 749.273 438.529 749.424C438.4 749.572 438.335 749.769 438.335 750.015C438.335 750.357 438.462 750.615 438.714 750.79C438.966 750.963 439.288 751.049 439.679 751.049Z" fill="#EE3465"/>
<path d="M336.769 720H337.914V716.547H339.982C342.185 716.547 343.177 715.208 343.177 713.537C343.177 711.866 342.185 710.545 339.964 710.545H336.769V720ZM337.914 715.531V711.561H339.927C341.464 711.561 342.051 712.401 342.051 713.537C342.051 714.673 341.464 715.531 339.946 715.531H337.914ZM347.77 720.148C349.211 720.148 350.263 719.428 350.596 718.357L349.543 718.061C349.266 718.8 348.625 719.169 347.77 719.169C346.492 719.169 345.61 718.343 345.559 716.824H350.707V716.362C350.707 713.722 349.137 712.817 347.66 712.817C345.739 712.817 344.465 714.331 344.465 716.51C344.465 718.689 345.721 720.148 347.77 720.148ZM345.559 715.882C345.633 714.779 346.413 713.795 347.66 713.795C348.841 713.795 349.599 714.682 349.599 715.882H345.559ZM351.607 722.031H352.696V720H357.941V722.031H359.03V718.984H357.941V712.909H353.435L353.195 715.716C353.024 717.701 352.77 718.384 352.198 718.984H351.607V722.031ZM353.435 718.984C353.933 718.329 354.114 717.198 354.266 715.716L354.451 713.925H356.851V718.984H353.435ZM362.563 720.166C363.8 720.166 364.446 719.501 364.668 719.04H364.723V720H365.813V715.328C365.813 713.075 364.095 712.817 363.191 712.817C362.12 712.817 360.901 713.186 360.347 714.479L361.381 714.848C361.621 714.331 362.189 713.777 363.228 713.777C364.229 713.777 364.723 714.308 364.723 715.217V715.254C364.723 715.781 364.188 715.734 362.895 715.901C361.58 716.071 360.144 716.362 360.144 717.987C360.144 719.372 361.215 720.166 362.563 720.166ZM362.729 719.188C361.861 719.188 361.233 718.8 361.233 718.043C361.233 717.212 361.99 716.953 362.84 716.842C363.301 716.787 364.539 716.658 364.723 716.436V717.433C364.723 718.32 364.022 719.188 362.729 719.188ZM367.801 720H368.891V717.009H369.87L372.196 720H373.6L370.701 716.325L373.563 712.909H372.159L369.611 715.993H368.891V712.909H367.801V720ZM374.378 713.925H376.723V720H377.812V713.925H380.139V712.909H374.378V713.925ZM382.818 718.393V712.909H381.728V720H383.002L386.4 714.516V720H387.489V712.909H386.234L382.818 718.393ZM389.485 722.659H390.574V718.911H390.667C390.907 719.298 391.368 720.148 392.735 720.148C394.508 720.148 395.745 718.726 395.745 716.473C395.745 714.239 394.508 712.817 392.716 712.817C391.332 712.817 390.907 713.666 390.667 714.036H390.538V712.909H389.485V722.659ZM390.556 716.455C390.556 714.866 391.258 713.795 392.587 713.795C393.972 713.795 394.655 714.959 394.655 716.455C394.655 717.969 393.954 719.169 392.587 719.169C391.276 719.169 390.556 718.061 390.556 716.455ZM400.288 720.148C402.208 720.148 403.501 718.689 403.501 716.491C403.501 714.276 402.208 712.817 400.288 712.817C398.367 712.817 397.074 714.276 397.074 716.491C397.074 718.689 398.367 720.148 400.288 720.148ZM400.288 719.169C398.829 719.169 398.164 717.913 398.164 716.491C398.164 715.07 398.829 713.795 400.288 713.795C401.746 713.795 402.411 715.07 402.411 716.491C402.411 717.913 401.746 719.169 400.288 719.169ZM405.164 720H408.506C409.946 720 410.814 719.188 410.814 718.098C410.814 716.985 409.969 716.385 409.189 716.27C409.988 716.104 410.556 715.656 410.556 714.793C410.556 713.662 409.586 712.909 408.063 712.909H405.164V720ZM406.198 719.003V716.824H408.506C409.254 716.824 409.706 717.272 409.706 718.006C409.706 718.624 409.254 719.003 408.506 719.003H406.198ZM406.198 715.882V713.906H408.063C408.935 713.906 409.466 714.271 409.466 714.866C409.466 715.499 408.935 715.882 408.063 715.882H406.198ZM414.55 720.166C415.787 720.166 416.434 719.501 416.655 719.04H416.711V720H417.8V715.328C417.8 713.075 416.083 712.817 415.178 712.817C414.107 712.817 412.888 713.186 412.334 714.479L413.368 714.848C413.608 714.331 414.176 713.777 415.215 713.777C416.217 713.777 416.711 714.308 416.711 715.217V715.254C416.711 715.781 416.175 715.734 414.883 715.901C413.567 716.071 412.131 716.362 412.131 717.987C412.131 719.372 413.202 720.166 414.55 720.166ZM414.716 719.188C413.848 719.188 413.221 718.8 413.221 718.043C413.221 717.212 413.978 716.953 414.827 716.842C415.289 716.787 416.526 716.658 416.711 716.436V717.433C416.711 718.32 416.009 719.188 414.716 719.188ZM418.824 713.925H421.169V720H422.258V713.925H424.585V712.909H418.824V713.925ZM427.264 715.476V712.909H426.174V720H429.147C430.809 720 431.714 718.984 431.714 717.71C431.714 716.418 430.809 715.476 429.147 715.476H427.264ZM427.264 716.491H429.147C430.011 716.491 430.625 717.018 430.625 717.766C430.625 718.481 430.011 718.984 429.147 718.984H427.264V716.491Z" fill="black"/>
</g>
<defs>
<clipPath id="clip0_1_2142">
<rect width="768" height="1024" fill="white"/>
</clipPath>
</defs>
</svg>
