<svg width="320" height="780" viewBox="0 0 320 780" fill="none" xmlns="http://www.w3.org/2000/svg">
<g clip-path="url(#clip0_1_2389)">
<rect width="320" height="780" fill="#FAFAFA"/>
<path d="M43.9013 171.219H46.424V167H58.1428V171.193H60.6655V164.767H58.6882V149.545H47.924L47.5149 156.918C47.2507 161.776 46.2195 163.778 45.0518 164.767H43.9013V171.219ZM48.1541 164.767C49.1513 163.173 49.8246 160.608 50.0376 156.918L50.3104 151.812H56.1655V164.767H48.1541ZM68.8601 167.264C72.5504 167.264 74.9624 164.562 74.9624 160.514C74.9624 156.44 72.5504 153.739 68.8601 153.739C65.1697 153.739 62.7578 156.44 62.7578 160.514C62.7578 164.562 65.1697 167.264 68.8601 167.264ZM68.8686 165.125C66.4567 165.125 65.3317 163.02 65.3317 160.506C65.3317 158 66.4567 155.869 68.8686 155.869C71.2635 155.869 72.3885 158 72.3885 160.506C72.3885 163.02 71.2635 165.125 68.8686 165.125ZM87.9062 149.034C87.267 149.545 86.2955 149.545 84.9403 149.537C84.5398 149.537 84.1051 149.537 83.6278 149.545C79.3835 149.631 77.2358 152.648 77.2358 158.631V159.926C77.2358 164.733 79.6222 167.264 83.2784 167.264C86.9347 167.264 89.304 164.724 89.304 160.651C89.304 156.628 86.9773 154.403 83.8239 154.403C81.9233 154.403 80.3381 155.213 79.4858 156.832H79.3239C79.6136 153.517 80.858 151.872 83.6875 151.787C86.2017 151.71 87.7955 151.719 88.9631 150.645L87.9062 149.034ZM83.2869 165.125C81.1222 165.125 79.8011 163.395 79.8011 160.693C79.8352 158.043 81.1392 156.526 83.2614 156.526C85.4176 156.526 86.7301 158.043 86.7301 160.693C86.7301 163.403 85.4176 165.125 83.2869 165.125ZM92.1506 171.909H94.6989V164.963H94.8523C95.3125 165.798 96.25 167.256 98.6364 167.256C101.807 167.256 104.108 164.716 104.108 160.48C104.108 156.236 101.773 153.739 98.6108 153.739C96.1818 153.739 95.304 155.222 94.8523 156.031H94.6392V153.909H92.1506V171.909ZM94.6477 160.455C94.6477 157.719 95.8409 155.903 98.0653 155.903C100.375 155.903 101.534 157.855 101.534 160.455C101.534 163.08 100.341 165.082 98.0653 165.082C95.875 165.082 94.6477 163.207 94.6477 160.455ZM112.477 167.264C116.168 167.264 118.58 164.562 118.58 160.514C118.58 156.44 116.168 153.739 112.477 153.739C108.787 153.739 106.375 156.44 106.375 160.514C106.375 164.562 108.787 167.264 112.477 167.264ZM112.486 165.125C110.074 165.125 108.949 163.02 108.949 160.506C108.949 158 110.074 155.869 112.486 155.869C114.881 155.869 116.006 158 116.006 160.506C116.006 163.02 114.881 165.125 112.486 165.125ZM127.776 167H130.256V156.108H135.957V167H138.455V153.909H127.776V167ZM147.376 167.264C151.066 167.264 153.478 164.562 153.478 160.514C153.478 156.44 151.066 153.739 147.376 153.739C143.685 153.739 141.273 156.44 141.273 160.514C141.273 164.562 143.685 167.264 147.376 167.264ZM147.384 165.125C144.972 165.125 143.847 163.02 143.847 160.506C143.847 158 144.972 155.869 147.384 155.869C149.779 155.869 150.904 158 150.904 160.506C150.904 163.02 149.779 165.125 147.384 165.125ZM154.948 167H157.974L162.082 161.545H162.934V167H165.482V161.545H166.335L170.417 167H173.442L168.397 160.301L173.383 153.909H170.417L166.369 159.347H165.482V153.909H162.934V159.347H162.022L157.974 153.909H155.008L160.019 160.301L154.948 167ZM179.82 167.29C181.984 167.29 183.203 166.19 183.689 165.21H183.791V167H186.28V158.307C186.28 154.497 183.28 153.739 181.2 153.739C178.831 153.739 176.649 154.693 175.797 157.08L178.192 157.625C178.567 156.696 179.521 155.801 181.234 155.801C182.879 155.801 183.723 156.662 183.723 158.145V158.205C183.723 159.134 182.768 159.116 180.416 159.389C177.936 159.679 175.396 160.327 175.396 163.301C175.396 165.875 177.331 167.29 179.82 167.29ZM180.374 165.244C178.933 165.244 177.893 164.597 177.893 163.335C177.893 161.972 179.104 161.486 180.578 161.29C181.405 161.179 183.365 160.957 183.732 160.591V162.278C183.732 163.83 182.496 165.244 180.374 165.244ZM188.643 167H189.461C192.316 167 193.364 164.886 193.569 160.557L193.773 156.108H198.052V167H200.549V153.909H191.413L191.183 159.705C191.021 163.744 190.56 164.793 189.103 164.793H188.634L188.643 167ZM209.462 167.264C213.152 167.264 215.564 164.562 215.564 160.514C215.564 156.44 213.152 153.739 209.462 153.739C205.771 153.739 203.359 156.44 203.359 160.514C203.359 164.562 205.771 167.264 209.462 167.264ZM209.47 165.125C207.058 165.125 205.933 163.02 205.933 160.506C205.933 158 207.058 155.869 209.47 155.869C211.865 155.869 212.99 158 212.99 160.506C212.99 163.02 211.865 165.125 209.47 165.125ZM218.408 167H224.664C227.528 167 229.207 165.551 229.207 163.472C229.207 161.528 227.715 160.335 225.968 160.131C227.579 159.824 228.644 158.938 228.644 157.403C228.644 155.256 226.786 153.909 223.837 153.909H218.408V167ZM220.803 164.869V161.23H224.664C225.925 161.23 226.684 161.972 226.684 163.19C226.684 164.23 225.925 164.869 224.664 164.869H220.803ZM220.803 159.364V156.065H223.837C225.286 156.065 226.164 156.67 226.164 157.676C226.164 158.724 225.295 159.364 223.863 159.364H220.803ZM235.812 167.29C237.977 167.29 239.195 166.19 239.681 165.21H239.783V167H242.272V158.307C242.272 154.497 239.272 153.739 237.192 153.739C234.823 153.739 232.641 154.693 231.789 157.08L234.184 157.625C234.559 156.696 235.513 155.801 237.227 155.801C238.871 155.801 239.715 156.662 239.715 158.145V158.205C239.715 159.134 238.761 159.116 236.408 159.389C233.928 159.679 231.388 160.327 231.388 163.301C231.388 165.875 233.323 167.29 235.812 167.29ZM236.366 165.244C234.925 165.244 233.886 164.597 233.886 163.335C233.886 161.972 235.096 161.486 236.57 161.29C237.397 161.179 239.357 160.957 239.724 160.591V162.278C239.724 163.83 238.488 165.244 236.366 165.244ZM244.043 156.108H248.33V167H250.818V156.108H255.088V153.909H244.043V156.108ZM260.281 158.409V153.909H257.783V167H263.502C266.707 167 268.496 165.142 268.496 162.679C268.496 160.165 266.707 158.409 263.502 158.409H260.281ZM260.281 160.608H263.502C264.968 160.608 266.016 161.494 266.016 162.756C266.016 163.949 264.968 164.801 263.502 164.801H260.281V160.608ZM274.567 149.545H271.763L271.984 161.98H274.345L274.567 149.545ZM273.161 167.162C274.089 167.162 274.865 166.403 274.865 165.457C274.865 164.528 274.089 163.761 273.161 163.761C272.223 163.761 271.456 164.528 271.456 165.457C271.456 166.403 272.223 167.162 273.161 167.162Z" fill="black"/>
<path d="M141 68.6667C141 64.2329 141 62.016 141.863 60.3226C142.622 58.833 143.833 57.6219 145.323 56.8629C147.016 56 149.233 56 153.667 56H166.333C170.767 56 172.984 56 174.677 56.8629C176.167 57.6219 177.378 58.833 178.137 60.3226C179 62.016 179 64.2329 179 68.6667V81.3333C179 85.7671 179 87.984 178.137 89.6774C177.378 91.167 176.167 92.3781 174.677 93.1371C172.984 94 170.767 94 166.333 94H153.667C149.233 94 147.016 94 145.323 93.1371C143.833 92.3781 142.622 91.167 141.863 89.6774C141 87.984 141 85.7671 141 81.3333V68.6667Z" fill="#3456F3"/>
<circle cx="160" cy="75" r="11" fill="white"/>
<path fill-rule="evenodd" clip-rule="evenodd" d="M156.154 75C156.154 77.1242 157.876 78.8462 160 78.8462C162.124 78.8462 163.846 77.1242 163.846 75H166C166 78.3137 163.314 81 160 81C156.686 81 154 78.3137 154 75H156.154Z" fill="#3456F3"/>
<rect y="253" width="320" height="266" fill="#FAFAFA"/>
<path d="M30.9993 355.864V345.364H32.451V346.602H32.5753C32.6615 346.442 32.7857 346.259 32.9482 346.05C33.1106 345.841 33.3359 345.659 33.6243 345.503C33.9126 345.344 34.2938 345.264 34.7678 345.264C35.3842 345.264 35.9344 345.42 36.4183 345.732C36.9022 346.043 37.2817 346.492 37.5568 347.079C37.8352 347.665 37.9744 348.371 37.9744 349.197C37.9744 350.022 37.8369 350.73 37.5618 351.32C37.2867 351.906 36.9089 352.359 36.4283 352.677C35.9477 352.992 35.3991 353.149 34.7827 353.149C34.3187 353.149 33.9392 353.071 33.6442 352.915C33.3525 352.76 33.1238 352.577 32.9581 352.369C32.7924 352.16 32.6648 351.974 32.5753 351.812H32.4858V355.864H30.9993ZM32.456 349.182C32.456 349.719 32.5339 350.189 32.6896 350.594C32.8454 350.998 33.0708 351.315 33.3658 351.543C33.6607 351.769 34.022 351.881 34.4496 351.881C34.8937 351.881 35.2649 351.764 35.5632 351.528C35.8615 351.29 36.0869 350.967 36.2393 350.559C36.3951 350.151 36.473 349.692 36.473 349.182C36.473 348.678 36.3968 348.226 36.2443 347.825C36.0952 347.424 35.8698 347.107 35.5682 346.875C35.2699 346.643 34.897 346.527 34.4496 346.527C34.0187 346.527 33.6541 346.638 33.3558 346.86C33.0608 347.082 32.8371 347.392 32.6847 347.79C32.5322 348.187 32.456 348.652 32.456 349.182ZM42.8565 353.154C42.1406 353.154 41.5159 352.99 40.9822 352.662C40.4486 352.334 40.0343 351.875 39.7393 351.285C39.4444 350.695 39.2969 350.005 39.2969 349.217C39.2969 348.424 39.4444 347.732 39.7393 347.138C40.0343 346.545 40.4486 346.085 40.9822 345.756C41.5159 345.428 42.1406 345.264 42.8565 345.264C43.5724 345.264 44.1972 345.428 44.7308 345.756C45.2644 346.085 45.6787 346.545 45.9737 347.138C46.2687 347.732 46.4162 348.424 46.4162 349.217C46.4162 350.005 46.2687 350.695 45.9737 351.285C45.6787 351.875 45.2644 352.334 44.7308 352.662C44.1972 352.99 43.5724 353.154 42.8565 353.154ZM42.8615 351.906C43.3255 351.906 43.71 351.784 44.0149 351.538C44.3198 351.293 44.5452 350.967 44.6911 350.559C44.8402 350.151 44.9148 349.702 44.9148 349.212C44.9148 348.724 44.8402 348.277 44.6911 347.869C44.5452 347.458 44.3198 347.129 44.0149 346.88C43.71 346.631 43.3255 346.507 42.8615 346.507C42.3942 346.507 42.0064 346.631 41.6982 346.88C41.3932 347.129 41.1662 347.458 41.017 347.869C40.8712 348.277 40.7983 348.724 40.7983 349.212C40.7983 349.702 40.8712 350.151 41.017 350.559C41.1662 350.967 41.3932 351.293 41.6982 351.538C42.0064 351.784 42.3942 351.906 42.8615 351.906ZM51.2921 353.154C50.553 353.154 49.9166 352.987 49.383 352.652C48.8527 352.314 48.445 351.848 48.16 351.255C47.8749 350.662 47.7324 349.982 47.7324 349.217C47.7324 348.441 47.8783 347.757 48.1699 347.163C48.4616 346.567 48.8726 346.101 49.4029 345.766C49.9332 345.432 50.5579 345.264 51.2772 345.264C51.8572 345.264 52.3742 345.372 52.8283 345.587C53.2824 345.799 53.6486 346.098 53.927 346.482C54.2087 346.867 54.3761 347.316 54.4292 347.83H52.9824C52.9029 347.472 52.7206 347.163 52.4355 346.905C52.1538 346.646 51.776 346.517 51.302 346.517C50.8877 346.517 50.5248 346.626 50.2132 346.845C49.905 347.061 49.6647 347.369 49.4924 347.77C49.32 348.168 49.2338 348.638 49.2338 349.182C49.2338 349.739 49.3184 350.219 49.4874 350.624C49.6564 351.028 49.8951 351.341 50.2033 351.563C50.5149 351.785 50.8811 351.896 51.302 351.896C51.5837 351.896 51.839 351.845 52.0676 351.742C52.2997 351.636 52.4935 351.485 52.6493 351.29C52.8084 351.094 52.9194 350.859 52.9824 350.584H54.4292C54.3761 351.078 54.2154 351.518 53.9469 351.906C53.6784 352.294 53.3188 352.599 52.8681 352.821C52.4206 353.043 51.8953 353.154 51.2921 353.154ZM57.5053 348.466V353H56.0188V342.818H57.4854V346.607H57.5799C57.7589 346.196 58.0323 345.869 58.4002 345.627C58.7681 345.385 59.2487 345.264 59.842 345.264C60.3656 345.264 60.823 345.372 61.2141 345.587C61.6085 345.803 61.9135 346.124 62.1289 346.552C62.3477 346.976 62.457 347.506 62.457 348.143V353H60.9705V348.322C60.9705 347.762 60.8263 347.327 60.538 347.019C60.2496 346.708 59.8486 346.552 59.3349 346.552C58.9835 346.552 58.6687 346.626 58.3903 346.776C58.1152 346.925 57.8981 347.143 57.739 347.432C57.5832 347.717 57.5053 348.062 57.5053 348.466ZM68.0053 345.364V346.557H63.8342V345.364H68.0053ZM64.9528 343.534H66.4393V350.758C66.4393 351.046 66.4824 351.263 66.5685 351.409C66.6547 351.552 66.7657 351.649 66.9016 351.702C67.0408 351.752 67.1916 351.777 67.354 351.777C67.4734 351.777 67.5778 351.769 67.6673 351.752C67.7567 351.736 67.8263 351.722 67.8761 351.712L68.1445 352.94C68.0584 352.973 67.9357 353.007 67.7766 353.04C67.6175 353.076 67.4187 353.096 67.18 353.099C66.7889 353.106 66.4244 353.036 66.0863 352.891C65.7482 352.745 65.4748 352.519 65.266 352.214C65.0572 351.91 64.9528 351.527 64.9528 351.066V343.534ZM71.872 353.169C71.3881 353.169 70.9506 353.08 70.5595 352.901C70.1684 352.718 69.8585 352.455 69.6298 352.11C69.4044 351.765 69.2917 351.343 69.2917 350.842C69.2917 350.411 69.3746 350.057 69.5403 349.778C69.706 349.5 69.9297 349.28 70.2115 349.117C70.4932 348.955 70.8081 348.832 71.1561 348.749C71.5041 348.666 71.8587 348.603 72.22 348.56C72.6774 348.507 73.0486 348.464 73.3336 348.431C73.6187 348.395 73.8258 348.337 73.9551 348.257C74.0843 348.178 74.149 348.048 74.149 347.869V347.835C74.149 347.4 74.0263 347.064 73.7811 346.825C73.5391 346.587 73.1779 346.467 72.6973 346.467C72.1968 346.467 71.8024 346.578 71.514 346.8C71.229 347.019 71.0318 347.263 70.9224 347.531L69.5254 347.213C69.6911 346.749 69.9331 346.375 70.2512 346.089C70.5727 345.801 70.9423 345.592 71.3599 345.463C71.7775 345.33 72.2167 345.264 72.6774 345.264C72.9823 345.264 73.3055 345.301 73.6468 345.374C73.9915 345.443 74.313 345.572 74.6113 345.761C74.9129 345.95 75.1599 346.22 75.3521 346.572C75.5443 346.92 75.6404 347.372 75.6404 347.929V353H74.1887V351.956H74.1291C74.033 352.148 73.8888 352.337 73.6966 352.523C73.5043 352.708 73.2574 352.862 72.9558 352.985C72.6542 353.108 72.2929 353.169 71.872 353.169ZM72.1951 351.976C72.6061 351.976 72.9574 351.895 73.2491 351.732C73.5441 351.57 73.7678 351.358 73.9203 351.096C74.0761 350.831 74.1539 350.547 74.1539 350.246V349.261C74.1009 349.314 73.9982 349.364 73.8457 349.411C73.6966 349.454 73.5259 349.492 73.3336 349.525C73.1414 349.555 72.9541 349.583 72.7718 349.609C72.5895 349.633 72.4371 349.652 72.3145 349.669C72.0261 349.705 71.7626 349.767 71.524 349.853C71.2886 349.939 71.0997 350.063 70.9572 350.226C70.818 350.385 70.7484 350.597 70.7484 350.862C70.7484 351.23 70.8843 351.509 71.1561 351.697C71.4279 351.883 71.7742 351.976 72.1951 351.976ZM83.7504 355.769C82.7229 355.769 81.8114 355.628 81.016 355.347C80.2238 355.068 79.556 354.657 79.0124 354.114C78.4689 353.573 78.0562 352.911 77.7745 352.125C77.4928 351.339 77.3519 350.443 77.3519 349.435C77.3519 348.454 77.4944 347.573 77.7795 346.79C78.0645 346.008 78.4788 345.342 79.0224 344.792C79.5692 344.238 80.2338 343.816 81.016 343.524C81.7982 343.232 82.6864 343.087 83.6808 343.087C84.632 343.087 85.4705 343.236 86.1964 343.534C86.9222 343.832 87.5321 344.242 88.0259 344.762C88.5231 345.282 88.8976 345.879 89.1495 346.552C89.4014 347.225 89.5273 347.936 89.5273 348.685C89.5273 349.208 89.4942 349.72 89.4279 350.221C89.3616 350.718 89.239 351.169 89.06 351.573C88.8844 351.974 88.6291 352.296 88.2944 352.538C87.963 352.776 87.5321 352.901 87.0018 352.911C86.7201 352.92 86.4466 352.887 86.1815 352.811C85.9163 352.735 85.6909 352.612 85.5053 352.443C85.3197 352.271 85.207 352.052 85.1673 351.787H85.1076C85.0281 351.982 84.8955 352.165 84.7099 352.334C84.5243 352.5 84.2873 352.632 83.9989 352.732C83.7139 352.828 83.3825 352.867 83.0046 352.851C82.587 352.834 82.2108 352.74 81.8761 352.567C81.5413 352.395 81.2546 352.156 81.016 351.852C80.7807 351.547 80.6 351.185 80.4741 350.768C80.3481 350.35 80.2852 349.886 80.2852 349.376C80.2852 348.885 80.3564 348.446 80.4989 348.058C80.6415 347.667 80.8353 347.331 81.0806 347.049C81.3292 346.764 81.6142 346.539 81.9357 346.373C82.2572 346.207 82.5969 346.103 82.9549 346.06C83.3029 346.02 83.6228 346.03 83.9144 346.089C84.2061 346.149 84.448 346.24 84.6403 346.363C84.8358 346.486 84.9585 346.62 85.0082 346.766H85.0728V346.209H86.2958V350.822C86.2958 351.084 86.3638 351.306 86.4996 351.489C86.6388 351.671 86.8361 351.762 87.0913 351.762C87.3929 351.762 87.6282 351.651 87.7972 351.429C87.9696 351.207 88.0906 350.866 88.1602 350.405C88.2331 349.944 88.2695 349.354 88.2695 348.635C88.2695 348.131 88.2016 347.657 88.0657 347.213C87.9331 346.766 87.7359 346.361 87.4741 346C87.2156 345.635 86.8974 345.322 86.5195 345.06C86.1417 344.799 85.7108 344.596 85.2269 344.454C84.7463 344.311 84.2144 344.24 83.631 344.24C82.8389 344.24 82.1346 344.363 81.5181 344.608C80.9016 344.85 80.3813 345.2 79.957 345.657C79.5361 346.114 79.2163 346.663 78.9975 347.303C78.7821 347.939 78.6744 348.653 78.6744 349.445C78.6744 350.271 78.7854 351.003 79.0075 351.643C79.2295 352.279 79.5576 352.816 79.9918 353.254C80.426 353.691 80.9629 354.022 81.6026 354.248C82.2423 354.477 82.9798 354.591 83.815 354.591C84.1862 354.591 84.5508 354.558 84.9087 354.491C85.2667 354.429 85.5849 354.356 85.8633 354.273C86.145 354.193 86.3555 354.129 86.4947 354.079L86.8427 355.168C86.6372 355.264 86.3638 355.358 86.0224 355.451C85.6843 355.544 85.3164 355.62 84.9187 355.68C84.5243 355.739 84.1348 355.769 83.7504 355.769ZM83.293 351.633C83.7238 351.633 84.0702 351.547 84.332 351.374C84.5972 351.202 84.7878 350.945 84.9038 350.604C85.0231 350.259 85.0827 349.828 85.0827 349.311C85.0794 348.807 85.0148 348.406 84.8888 348.108C84.7662 347.806 84.574 347.591 84.3121 347.462C84.0536 347.329 83.7205 347.263 83.3129 347.263C82.9383 347.263 82.6185 347.354 82.3533 347.536C82.0915 347.719 81.891 347.965 81.7518 348.277C81.6159 348.589 81.5463 348.935 81.543 349.316C81.5463 349.717 81.6026 350.095 81.712 350.45C81.8247 350.801 82.007 351.086 82.2589 351.305C82.5141 351.523 82.8588 351.633 83.293 351.633ZM92.1088 355.864C91.8868 355.864 91.6846 355.845 91.5023 355.809C91.32 355.776 91.1841 355.739 91.0946 355.7L91.4526 354.482C91.7244 354.554 91.9663 354.586 92.1784 354.576C92.3906 354.566 92.5778 354.487 92.7402 354.337C92.906 354.188 93.0518 353.945 93.1777 353.607L93.3617 353.099L90.5676 345.364H92.1586L94.0925 351.29H94.1721L96.106 345.364H97.7019L94.5549 354.019C94.409 354.417 94.2234 354.753 93.998 355.028C93.7727 355.307 93.5042 355.516 93.1926 355.655C92.8811 355.794 92.5198 355.864 92.1088 355.864ZM101.102 353.169C100.619 353.169 100.181 353.08 99.79 352.901C99.3989 352.718 99.089 352.455 98.8603 352.11C98.6349 351.765 98.5222 351.343 98.5222 350.842C98.5222 350.411 98.6051 350.057 98.7708 349.778C98.9365 349.5 99.1602 349.28 99.4419 349.117C99.7237 348.955 100.039 348.832 100.387 348.749C100.735 348.666 101.089 348.603 101.45 348.56C101.908 348.507 102.279 348.464 102.564 348.431C102.849 348.395 103.056 348.337 103.186 348.257C103.315 348.178 103.379 348.048 103.379 347.869V347.835C103.379 347.4 103.257 347.064 103.012 346.825C102.77 346.587 102.408 346.467 101.928 346.467C101.427 346.467 101.033 346.578 100.744 346.8C100.459 347.019 100.262 347.263 100.153 347.531L98.7559 347.213C98.9216 346.749 99.1635 346.375 99.4817 346.089C99.8032 345.801 100.173 345.592 100.59 345.463C101.008 345.33 101.447 345.264 101.908 345.264C102.213 345.264 102.536 345.301 102.877 345.374C103.222 345.443 103.544 345.572 103.842 345.761C104.143 345.95 104.39 346.22 104.583 346.572C104.775 346.92 104.871 347.372 104.871 347.929V353H103.419V351.956H103.36C103.263 352.148 103.119 352.337 102.927 352.523C102.735 352.708 102.488 352.862 102.186 352.985C101.885 353.108 101.523 353.169 101.102 353.169ZM101.426 351.976C101.837 351.976 102.188 351.895 102.48 351.732C102.775 351.57 102.998 351.358 103.151 351.096C103.307 350.831 103.384 350.547 103.384 350.246V349.261C103.331 349.314 103.229 349.364 103.076 349.411C102.927 349.454 102.756 349.492 102.564 349.525C102.372 349.555 102.185 349.583 102.002 349.609C101.82 349.633 101.668 349.652 101.545 349.669C101.257 349.705 100.993 349.767 100.754 349.853C100.519 349.939 100.33 350.063 100.188 350.226C100.048 350.385 99.9789 350.597 99.9789 350.862C99.9789 351.23 100.115 351.509 100.387 351.697C100.658 351.883 101.005 351.976 101.426 351.976ZM108.337 348.466V353H106.851V345.364H108.278V346.607H108.372C108.548 346.202 108.823 345.877 109.197 345.632C109.575 345.387 110.051 345.264 110.624 345.264C111.145 345.264 111.6 345.374 111.991 345.592C112.383 345.808 112.686 346.129 112.901 346.557C113.117 346.984 113.224 347.513 113.224 348.143V353H111.738V348.322C111.738 347.768 111.594 347.336 111.305 347.024C111.017 346.709 110.621 346.552 110.117 346.552C109.772 346.552 109.466 346.626 109.197 346.776C108.932 346.925 108.722 347.143 108.566 347.432C108.414 347.717 108.337 348.062 108.337 348.466ZM118.077 353.149C117.46 353.149 116.91 352.992 116.426 352.677C115.946 352.359 115.568 351.906 115.293 351.32C115.021 350.73 114.885 350.022 114.885 349.197C114.885 348.371 115.022 347.665 115.298 347.079C115.576 346.492 115.957 346.043 116.441 345.732C116.925 345.42 117.473 345.264 118.087 345.264C118.561 345.264 118.942 345.344 119.23 345.503C119.522 345.659 119.747 345.841 119.906 346.05C120.069 346.259 120.195 346.442 120.284 346.602H120.374V342.818H121.86V353H120.408V351.812H120.284C120.195 351.974 120.065 352.16 119.896 352.369C119.731 352.577 119.502 352.76 119.21 352.915C118.919 353.071 118.541 353.149 118.077 353.149ZM118.405 351.881C118.832 351.881 119.194 351.769 119.489 351.543C119.787 351.315 120.012 350.998 120.165 350.594C120.321 350.189 120.398 349.719 120.398 349.182C120.398 348.652 120.322 348.187 120.17 347.79C120.017 347.392 119.794 347.082 119.499 346.86C119.204 346.638 118.839 346.527 118.405 346.527C117.957 346.527 117.585 346.643 117.286 346.875C116.988 347.107 116.763 347.424 116.61 347.825C116.461 348.226 116.386 348.678 116.386 349.182C116.386 349.692 116.463 350.151 116.615 350.559C116.768 350.967 116.993 351.29 117.291 351.528C117.593 351.764 117.964 351.881 118.405 351.881ZM127.273 353.154C126.521 353.154 125.873 352.993 125.329 352.672C124.789 352.347 124.371 351.891 124.076 351.305C123.785 350.715 123.639 350.024 123.639 349.232C123.639 348.449 123.785 347.76 124.076 347.163C124.371 346.567 124.782 346.101 125.309 345.766C125.839 345.432 126.459 345.264 127.169 345.264C127.599 345.264 128.017 345.335 128.421 345.478C128.826 345.621 129.189 345.844 129.51 346.149C129.832 346.454 130.085 346.85 130.271 347.337C130.456 347.821 130.549 348.41 130.549 349.102V349.629H124.479V348.516H129.093C129.093 348.125 129.013 347.778 128.854 347.477C128.695 347.172 128.471 346.931 128.183 346.756C127.898 346.58 127.563 346.492 127.178 346.492C126.761 346.492 126.396 346.595 126.085 346.8C125.776 347.003 125.538 347.268 125.369 347.596C125.203 347.921 125.12 348.274 125.12 348.655V349.525C125.12 350.035 125.21 350.469 125.389 350.827C125.571 351.185 125.825 351.459 126.149 351.648C126.474 351.833 126.854 351.926 127.288 351.926C127.57 351.926 127.826 351.886 128.058 351.807C128.29 351.724 128.491 351.601 128.66 351.439C128.829 351.277 128.958 351.076 129.048 350.837L130.455 351.091C130.342 351.505 130.14 351.868 129.848 352.18C129.56 352.488 129.197 352.728 128.759 352.901C128.325 353.07 127.83 353.154 127.273 353.154ZM133.194 345.364L134.879 348.337L136.58 345.364H138.205L135.824 349.182L138.225 353H136.6L134.879 350.146L133.164 353H131.534L133.91 349.182L131.563 345.364H133.194ZM140.711 353.094C140.439 353.094 140.206 352.998 140.01 352.806C139.815 352.611 139.717 352.375 139.717 352.1C139.717 351.828 139.815 351.596 140.01 351.404C140.206 351.209 140.439 351.111 140.711 351.111C140.983 351.111 141.217 351.209 141.412 351.404C141.608 351.596 141.705 351.828 141.705 352.1C141.705 352.282 141.659 352.45 141.566 352.602C141.477 352.751 141.357 352.871 141.208 352.96C141.059 353.05 140.893 353.094 140.711 353.094ZM143.697 353V345.364H145.133V346.577H145.213C145.352 346.166 145.597 345.843 145.949 345.607C146.303 345.369 146.704 345.249 147.152 345.249C147.245 345.249 147.354 345.253 147.48 345.259C147.609 345.266 147.71 345.274 147.783 345.284V346.706C147.724 346.689 147.617 346.671 147.465 346.651C147.313 346.628 147.16 346.616 147.008 346.616C146.656 346.616 146.343 346.691 146.068 346.84C145.796 346.986 145.581 347.19 145.422 347.452C145.263 347.71 145.183 348.005 145.183 348.337V353H143.697ZM153.907 349.833V345.364H155.398V353H153.937V351.678H153.857C153.682 352.085 153.4 352.425 153.012 352.697C152.628 352.965 152.149 353.099 151.575 353.099C151.085 353.099 150.651 352.992 150.273 352.776C149.898 352.558 149.603 352.234 149.388 351.807C149.176 351.379 149.07 350.851 149.07 350.221V345.364H150.556V350.042C150.556 350.562 150.7 350.977 150.989 351.285C151.277 351.593 151.652 351.747 152.112 351.747C152.391 351.747 152.667 351.678 152.942 351.538C153.221 351.399 153.451 351.189 153.634 350.907C153.819 350.625 153.91 350.267 153.907 349.833ZM159.181 339.537V356.281H158.186V339.537H159.181Z" fill="black"/>
<path fill-rule="evenodd" clip-rule="evenodd" d="M290 367H30V366H290V367Z" fill="#3456F3"/>
<path d="M30.8807 332H35.3267V331.219H31.7614V328.747H35.0426V327.966H31.7614V325.509H35.2699V324.727H30.8807V332ZM39.8686 328.491H36.6868V329.273H39.8686V328.491ZM41.3432 332H42.1813V328.591C42.1813 327.792 42.7637 327.227 43.4171 327.227C44.0527 327.227 44.4966 327.643 44.4966 328.264V332H45.3489V328.449C45.3489 327.746 45.7892 327.227 46.5563 327.227C47.1529 327.227 47.6642 327.543 47.6642 328.349V332H48.5023V328.349C48.5023 327.067 47.8134 326.474 46.8404 326.474C46.0591 326.474 45.4874 326.833 45.2069 327.398H45.15C44.8801 326.815 44.4043 326.474 43.687 326.474C42.9767 326.474 42.4512 326.815 42.2239 327.398H42.1529V326.545H41.3432V332ZM51.6397 332.128C52.5914 332.128 53.0886 331.616 53.2591 331.261H53.3017V332H54.1397V328.406C54.1397 326.673 52.8187 326.474 52.1227 326.474C51.2988 326.474 50.3613 326.759 49.9352 327.753L50.7306 328.037C50.9153 327.639 51.3521 327.213 52.1511 327.213C52.9217 327.213 53.3017 327.621 53.3017 328.321V328.349C53.3017 328.754 52.8897 328.719 51.8954 328.847C50.8833 328.978 49.7789 329.202 49.7789 330.452C49.7789 331.517 50.6028 332.128 51.6397 332.128ZM51.7676 331.375C51.1 331.375 50.617 331.077 50.617 330.494C50.617 329.855 51.1994 329.656 51.8528 329.571C52.2079 329.528 53.1596 329.429 53.3017 329.259V330.026C53.3017 330.707 52.7619 331.375 51.7676 331.375ZM55.6694 332H56.5075V326.545H55.6694V332ZM56.0955 325.636C56.4222 325.636 56.6921 325.381 56.6921 325.068C56.6921 324.756 56.4222 324.5 56.0955 324.5C55.7688 324.5 55.4989 324.756 55.4989 325.068C55.4989 325.381 55.7688 325.636 56.0955 325.636ZM58.8805 324.727H58.0424V332H58.8805V324.727Z" fill="#A0A0A0"/>
<path d="M31.233 284H34.9119C37.3182 284 38.3125 282.827 38.3125 281.295C38.3125 279.685 37.1989 278.81 36.2642 278.75V278.651C37.1392 278.412 37.9148 277.835 37.9148 276.523C37.9148 275.031 36.9205 273.818 34.7926 273.818H31.233V284ZM32.4659 282.906V279.366H34.9716C36.304 279.366 37.1392 280.261 37.1392 281.295C37.1392 282.19 36.5227 282.906 34.9119 282.906H32.4659ZM32.4659 278.293V274.912H34.7926C36.1449 274.912 36.7415 275.628 36.7415 276.523C36.7415 277.597 35.8665 278.293 34.7528 278.293H32.4659ZM41.3526 282.27V276.364H40.1793V284H41.5515L45.2106 278.094V284H46.3839V276.364H45.0316L41.3526 282.27ZM47.4938 277.457H50.0194V284H51.1926V277.457H53.6983V276.364H47.4938V277.457ZM57.2605 284.179C58.5929 284.179 59.2889 283.463 59.5275 282.966H59.5872V284H60.7605V278.969C60.7605 276.543 58.911 276.264 57.9366 276.264C56.7832 276.264 55.4707 276.662 54.8741 278.054L55.9877 278.452C56.2463 277.895 56.8578 277.298 57.9764 277.298C59.0552 277.298 59.5872 277.87 59.5872 278.849V278.889C59.5872 279.456 59.0105 279.406 57.6184 279.585C56.2015 279.769 54.6554 280.082 54.6554 281.832C54.6554 283.324 55.8088 284.179 57.2605 284.179ZM57.4395 283.125C56.5048 283.125 55.8287 282.707 55.8287 281.892C55.8287 280.997 56.644 280.719 57.5588 280.599C58.0559 280.54 59.3883 280.401 59.5872 280.162V281.236C59.5872 282.19 58.8315 283.125 57.4395 283.125ZM62.2259 284H62.6236C64.3139 284 64.8011 282.688 64.9105 280.182L65.0298 277.457H67.8338V284H69.0071V276.364H63.9162L63.777 279.744C63.6776 282.31 63.419 282.906 62.5043 282.906H62.2259V284ZM72.3331 282.27V276.364H71.1598V284H72.532L76.1911 278.094V284H77.3643V276.364H76.0121L72.3331 282.27ZM80.6866 282.27V276.364H79.5133V284H80.8855L84.5446 278.094V284H85.7179V276.364H84.3656L80.6866 282.27ZM83.59 273.818C83.59 274.335 83.3116 274.793 82.6156 274.793C81.9196 274.793 81.661 274.335 81.661 273.818H80.5673C80.5673 274.892 81.3627 275.648 82.6156 275.648C83.8883 275.648 84.6838 274.892 84.6838 273.818H83.59Z" fill="black"/>
<path fill-rule="evenodd" clip-rule="evenodd" d="M290 298H30V297H290V298Z" fill="#E8E8E8"/>
<path d="M30.8807 255.727V263H31.733L35.696 257.29H35.767V263H36.6477V255.727H35.7955L31.8182 261.452H31.7472V255.727H30.8807ZM41.2793 261.864L39.4043 257.545H38.2963V263H39.1344V258.749L40.9384 263H41.6202L43.4242 258.827V263H44.2623V257.545H43.1827L41.2793 261.864ZM49.0776 263H49.873V257.545H47.6287C46.4533 257.545 45.7395 258.16 45.7395 259.165C45.7395 259.914 46.1159 260.447 46.7729 260.67L45.4412 263H46.3503L47.6145 260.784H49.0776V263ZM49.0776 260.003H47.5293C46.9363 260.003 46.5776 259.687 46.5776 259.165C46.5776 258.636 46.9753 258.312 47.6287 258.312H49.0776V260.003Z" fill="#A0A0A0"/>
<path d="M33.9375 420.131C33.5365 420.131 33.1702 420.033 32.8388 419.837C32.5073 419.638 32.2422 419.373 32.0433 419.042C31.8478 418.71 31.75 418.344 31.75 417.943C31.75 417.539 31.8478 417.173 32.0433 416.844C32.2422 416.513 32.5073 416.25 32.8388 416.054C33.1702 415.855 33.5365 415.756 33.9375 415.756C34.3419 415.756 34.7081 415.855 35.0362 416.054C35.3677 416.25 35.6312 416.513 35.8267 416.844C36.0256 417.173 36.125 417.539 36.125 417.943C36.125 418.344 36.0256 418.71 35.8267 419.042C35.6312 419.373 35.3677 419.638 35.0362 419.837C34.7081 420.033 34.3419 420.131 33.9375 420.131ZM41.8125 420.131C41.4115 420.131 41.0452 420.033 40.7138 419.837C40.3823 419.638 40.1172 419.373 39.9183 419.042C39.7228 418.71 39.625 418.344 39.625 417.943C39.625 417.539 39.7228 417.173 39.9183 416.844C40.1172 416.513 40.3823 416.25 40.7138 416.054C41.0452 415.855 41.4115 415.756 41.8125 415.756C42.2169 415.756 42.5831 415.855 42.9112 416.054C43.2427 416.25 43.5062 416.513 43.7017 416.844C43.9006 417.173 44 417.539 44 417.943C44 418.344 43.9006 418.71 43.7017 419.042C43.5062 419.373 43.2427 419.638 42.9112 419.837C42.5831 420.033 42.2169 420.131 41.8125 420.131ZM49.6875 420.131C49.2865 420.131 48.9202 420.033 48.5888 419.837C48.2573 419.638 47.9922 419.373 47.7933 419.042C47.5978 418.71 47.5 418.344 47.5 417.943C47.5 417.539 47.5978 417.173 47.7933 416.844C47.9922 416.513 48.2573 416.25 48.5888 416.054C48.9202 415.855 49.2865 415.756 49.6875 415.756C50.0919 415.756 50.4581 415.855 50.7862 416.054C51.1177 416.25 51.3812 416.513 51.5767 416.844C51.7756 417.173 51.875 417.539 51.875 417.943C51.875 418.344 51.7756 418.71 51.5767 419.042C51.3812 419.373 51.1177 419.638 50.7862 419.837C50.4581 420.033 50.0919 420.131 49.6875 420.131ZM57.5625 420.131C57.1615 420.131 56.7952 420.033 56.4638 419.837C56.1323 419.638 55.8672 419.373 55.6683 419.042C55.4728 418.71 55.375 418.344 55.375 417.943C55.375 417.539 55.4728 417.173 55.6683 416.844C55.8672 416.513 56.1323 416.25 56.4638 416.054C56.7952 415.855 57.1615 415.756 57.5625 415.756C57.9669 415.756 58.3331 415.855 58.6612 416.054C58.9927 416.25 59.2562 416.513 59.4517 416.844C59.6506 417.173 59.75 417.539 59.75 417.943C59.75 418.344 59.6506 418.71 59.4517 419.042C59.2562 419.373 58.9927 419.638 58.6612 419.837C58.3331 420.033 57.9669 420.131 57.5625 420.131ZM65.4375 420.131C65.0365 420.131 64.6702 420.033 64.3388 419.837C64.0073 419.638 63.7422 419.373 63.5433 419.042C63.3478 418.71 63.25 418.344 63.25 417.943C63.25 417.539 63.3478 417.173 63.5433 416.844C63.7422 416.513 64.0073 416.25 64.3388 416.054C64.6702 415.855 65.0365 415.756 65.4375 415.756C65.8419 415.756 66.2081 415.855 66.5362 416.054C66.8677 416.25 67.1312 416.513 67.3267 416.844C67.5256 417.173 67.625 417.539 67.625 417.943C67.625 418.344 67.5256 418.71 67.3267 419.042C67.1312 419.373 66.8677 419.638 66.5362 419.837C66.2081 420.033 65.8419 420.131 65.4375 420.131ZM73.3125 420.131C72.9115 420.131 72.5452 420.033 72.2138 419.837C71.8823 419.638 71.6172 419.373 71.4183 419.042C71.2228 418.71 71.125 418.344 71.125 417.943C71.125 417.539 71.2228 417.173 71.4183 416.844C71.6172 416.513 71.8823 416.25 72.2138 416.054C72.5452 415.855 72.9115 415.756 73.3125 415.756C73.7169 415.756 74.0831 415.855 74.4112 416.054C74.7427 416.25 75.0062 416.513 75.2017 416.844C75.4006 417.173 75.5 417.539 75.5 417.943C75.5 418.344 75.4006 418.71 75.2017 419.042C75.0062 419.373 74.7427 419.638 74.4112 419.837C74.0831 420.033 73.7169 420.131 73.3125 420.131ZM81.1875 420.131C80.7865 420.131 80.4202 420.033 80.0888 419.837C79.7573 419.638 79.4922 419.373 79.2933 419.042C79.0978 418.71 79 418.344 79 417.943C79 417.539 79.0978 417.173 79.2933 416.844C79.4922 416.513 79.7573 416.25 80.0888 416.054C80.4202 415.855 80.7865 415.756 81.1875 415.756C81.5919 415.756 81.9581 415.855 82.2862 416.054C82.6177 416.25 82.8812 416.513 83.0767 416.844C83.2756 417.173 83.375 417.539 83.375 417.943C83.375 418.344 83.2756 418.71 83.0767 419.042C82.8812 419.373 82.6177 419.638 82.2862 419.837C81.9581 420.033 81.5919 420.131 81.1875 420.131ZM89.0625 420.131C88.6615 420.131 88.2952 420.033 87.9638 419.837C87.6323 419.638 87.3672 419.373 87.1683 419.042C86.9728 418.71 86.875 418.344 86.875 417.943C86.875 417.539 86.9728 417.173 87.1683 416.844C87.3672 416.513 87.6323 416.25 87.9638 416.054C88.2952 415.855 88.6615 415.756 89.0625 415.756C89.4669 415.756 89.8331 415.855 90.1612 416.054C90.4927 416.25 90.7562 416.513 90.9517 416.844C91.1506 417.173 91.25 417.539 91.25 417.943C91.25 418.344 91.1506 418.71 90.9517 419.042C90.7562 419.373 90.4927 419.638 90.1612 419.837C89.8331 420.033 89.4669 420.131 89.0625 420.131ZM96.9375 420.131C96.5365 420.131 96.1702 420.033 95.8388 419.837C95.5073 419.638 95.2422 419.373 95.0433 419.042C94.8478 418.71 94.75 418.344 94.75 417.943C94.75 417.539 94.8478 417.173 95.0433 416.844C95.2422 416.513 95.5073 416.25 95.8388 416.054C96.1702 415.855 96.5365 415.756 96.9375 415.756C97.3419 415.756 97.7081 415.855 98.0362 416.054C98.3677 416.25 98.6312 416.513 98.8267 416.844C99.0256 417.173 99.125 417.539 99.125 417.943C99.125 418.344 99.0256 418.71 98.8267 419.042C98.6312 419.373 98.3677 419.638 98.0362 419.837C97.7081 420.033 97.3419 420.131 96.9375 420.131ZM104.812 420.131C104.411 420.131 104.045 420.033 103.714 419.837C103.382 419.638 103.117 419.373 102.918 419.042C102.723 418.71 102.625 418.344 102.625 417.943C102.625 417.539 102.723 417.173 102.918 416.844C103.117 416.513 103.382 416.25 103.714 416.054C104.045 415.855 104.411 415.756 104.812 415.756C105.217 415.756 105.583 415.855 105.911 416.054C106.243 416.25 106.506 416.513 106.702 416.844C106.901 417.173 107 417.539 107 417.943C107 418.344 106.901 418.71 106.702 419.042C106.506 419.373 106.243 419.638 105.911 419.837C105.583 420.033 105.217 420.131 104.812 420.131ZM112.688 420.131C112.286 420.131 111.92 420.033 111.589 419.837C111.257 419.638 110.992 419.373 110.793 419.042C110.598 418.71 110.5 418.344 110.5 417.943C110.5 417.539 110.598 417.173 110.793 416.844C110.992 416.513 111.257 416.25 111.589 416.054C111.92 415.855 112.286 415.756 112.688 415.756C113.092 415.756 113.458 415.855 113.786 416.054C114.118 416.25 114.381 416.513 114.577 416.844C114.776 417.173 114.875 417.539 114.875 417.943C114.875 418.344 114.776 418.71 114.577 419.042C114.381 419.373 114.118 419.638 113.786 419.837C113.458 420.033 113.092 420.131 112.688 420.131ZM120.562 420.131C120.161 420.131 119.795 420.033 119.464 419.837C119.132 419.638 118.867 419.373 118.668 419.042C118.473 418.71 118.375 418.344 118.375 417.943C118.375 417.539 118.473 417.173 118.668 416.844C118.867 416.513 119.132 416.25 119.464 416.054C119.795 415.855 120.161 415.756 120.562 415.756C120.967 415.756 121.333 415.855 121.661 416.054C121.993 416.25 122.256 416.513 122.452 416.844C122.651 417.173 122.75 417.539 122.75 417.943C122.75 418.344 122.651 418.71 122.452 419.042C122.256 419.373 121.993 419.638 121.661 419.837C121.333 420.033 120.967 420.131 120.562 420.131ZM128.438 420.131C128.036 420.131 127.67 420.033 127.339 419.837C127.007 419.638 126.742 419.373 126.543 419.042C126.348 418.71 126.25 418.344 126.25 417.943C126.25 417.539 126.348 417.173 126.543 416.844C126.742 416.513 127.007 416.25 127.339 416.054C127.67 415.855 128.036 415.756 128.438 415.756C128.842 415.756 129.208 415.855 129.536 416.054C129.868 416.25 130.131 416.513 130.327 416.844C130.526 417.173 130.625 417.539 130.625 417.943C130.625 418.344 130.526 418.71 130.327 419.042C130.131 419.373 129.868 419.638 129.536 419.837C129.208 420.033 128.842 420.131 128.438 420.131ZM136.312 420.131C135.911 420.131 135.545 420.033 135.214 419.837C134.882 419.638 134.617 419.373 134.418 419.042C134.223 418.71 134.125 418.344 134.125 417.943C134.125 417.539 134.223 417.173 134.418 416.844C134.617 416.513 134.882 416.25 135.214 416.054C135.545 415.855 135.911 415.756 136.312 415.756C136.717 415.756 137.083 415.855 137.411 416.054C137.743 416.25 138.006 416.513 138.202 416.844C138.401 417.173 138.5 417.539 138.5 417.943C138.5 418.344 138.401 418.71 138.202 419.042C138.006 419.373 137.743 419.638 137.411 419.837C137.083 420.033 136.717 420.131 136.312 420.131Z" fill="#EE3465"/>
<path fill-rule="evenodd" clip-rule="evenodd" d="M290 436H30V435H290V436Z" fill="#E8E8E8"/>
<path d="M36.321 393.727H30.8949V401H31.7756V394.509H35.4403V401H36.321V393.727ZM39.589 401.128C40.5407 401.128 41.0378 400.616 41.2083 400.261H41.2509V401H42.089V397.406C42.089 395.673 40.7679 395.474 40.0719 395.474C39.248 395.474 38.3105 395.759 37.8844 396.753L38.6799 397.037C38.8645 396.639 39.3013 396.213 40.1003 396.213C40.8709 396.213 41.2509 396.621 41.2509 397.321V397.349C41.2509 397.754 40.839 397.719 39.8446 397.847C38.8326 397.978 37.7282 398.202 37.7282 399.452C37.7282 400.517 38.552 401.128 39.589 401.128ZM39.7168 400.375C39.0492 400.375 38.5662 400.077 38.5662 399.494C38.5662 398.855 39.1486 398.656 39.802 398.571C40.1571 398.528 41.1088 398.429 41.2509 398.259V399.026C41.2509 399.707 40.7111 400.375 39.7168 400.375ZM43.6186 403.045H44.4567V400.162H44.5277C44.7124 400.46 45.0675 401.114 46.1186 401.114C47.4822 401.114 48.4339 400.02 48.4339 398.287C48.4339 396.568 47.4822 395.474 46.1044 395.474C45.0391 395.474 44.7124 396.128 44.5277 396.412H44.4283V395.545H43.6186V403.045ZM44.4425 398.273C44.4425 397.051 44.9822 396.227 46.005 396.227C47.0703 396.227 47.5959 397.122 47.5959 398.273C47.5959 399.438 47.0561 400.361 46.005 400.361C44.9964 400.361 44.4425 399.509 44.4425 398.273ZM51.9283 401.114C53.4055 401.114 54.3999 399.991 54.3999 398.301C54.3999 396.597 53.4055 395.474 51.9283 395.474C50.451 395.474 49.4567 396.597 49.4567 398.301C49.4567 399.991 50.451 401.114 51.9283 401.114ZM51.9283 400.361C50.8061 400.361 50.2947 399.395 50.2947 398.301C50.2947 397.207 50.8061 396.227 51.9283 396.227C53.0504 396.227 53.5618 397.207 53.5618 398.301C53.5618 399.395 53.0504 400.361 51.9283 400.361ZM55.1962 401H55.4803C56.6877 401 57.0357 400.062 57.1138 398.273L57.199 396.327H59.2019V401H60.04V395.545H56.4036L56.3042 397.96C56.2331 399.793 56.0485 400.219 55.3951 400.219H55.1962V401ZM62.4157 397.52V395.545H61.5776V401H63.8645C65.1429 401 65.839 400.219 65.839 399.239C65.839 398.244 65.1429 397.52 63.8645 397.52H62.4157ZM62.4157 398.301H63.8645C64.5286 398.301 65.0009 398.706 65.0009 399.281C65.0009 399.832 64.5286 400.219 63.8645 400.219H62.4157V398.301Z" fill="#A0A0A0"/>
<path d="M30.9517 444.727H31.8324V447.156C31.8324 447.516 31.8951 447.799 32.0206 448.005C32.1461 448.209 32.3236 448.353 32.5533 448.438C32.7829 448.521 33.054 448.562 33.3665 448.562C33.563 448.562 33.7536 448.555 33.9382 448.541C34.1229 448.525 34.3028 448.502 34.478 448.474C34.6555 448.445 34.8284 448.411 34.9964 448.371C35.1669 448.33 35.3338 448.286 35.4972 448.236V449.031C35.3385 449.081 35.1811 449.126 35.0249 449.166C34.871 449.206 34.71 449.241 34.5419 449.269C34.3762 449.298 34.1974 449.32 34.0057 449.337C33.8139 449.351 33.6009 449.358 33.3665 449.358C32.8646 449.358 32.4325 449.286 32.0703 449.141C31.7105 448.997 31.4335 448.764 31.2393 448.442C31.0476 448.12 30.9517 447.691 30.9517 447.156V444.727ZM35.3835 444.727H36.2642V452H35.3835V444.727ZM37.603 447.327V446.545H42.0348V447.327H40.245V452H39.407V447.327H37.603ZM45.19 452.114C44.6976 452.114 44.2655 451.996 43.8938 451.762C43.5245 451.528 43.2357 451.2 43.0273 450.778C42.8214 450.357 42.7184 449.865 42.7184 449.301C42.7184 448.733 42.8214 448.237 43.0273 447.813C43.2357 447.389 43.5245 447.06 43.8938 446.826C44.2655 446.592 44.6976 446.474 45.19 446.474C45.6824 446.474 46.1133 446.592 46.4826 446.826C46.8543 447.06 47.1431 447.389 47.3491 447.813C47.5574 448.237 47.6616 448.733 47.6616 449.301C47.6616 449.865 47.5574 450.357 47.3491 450.778C47.1431 451.2 46.8543 451.528 46.4826 451.762C46.1133 451.996 45.6824 452.114 45.19 452.114ZM45.19 451.361C45.564 451.361 45.8718 451.265 46.1133 451.073C46.3548 450.881 46.5335 450.629 46.6495 450.317C46.7655 450.004 46.8235 449.666 46.8235 449.301C46.8235 448.937 46.7655 448.597 46.6495 448.282C46.5335 447.967 46.3548 447.713 46.1133 447.518C45.8718 447.324 45.564 447.227 45.19 447.227C44.8159 447.227 44.5082 447.324 44.2667 447.518C44.0252 447.713 43.8465 447.967 43.7305 448.282C43.6145 448.597 43.5565 448.937 43.5565 449.301C43.5565 449.666 43.6145 450.004 43.7305 450.317C43.8465 450.629 44.0252 450.881 44.2667 451.073C44.5082 451.265 44.8159 451.361 45.19 451.361ZM52.0659 448.491V449.273H48.8841V448.491H52.0659ZM52.9448 447.327V446.545H57.3766V447.327H55.5868V452H54.7488V447.327H52.9448ZM60.5318 452.114C60.0394 452.114 59.6073 451.996 59.2356 451.762C58.8663 451.528 58.5775 451.2 58.3691 450.778C58.1632 450.357 58.0602 449.865 58.0602 449.301C58.0602 448.733 58.1632 448.237 58.3691 447.813C58.5775 447.389 58.8663 447.06 59.2356 446.826C59.6073 446.592 60.0394 446.474 60.5318 446.474C61.0242 446.474 61.4551 446.592 61.8244 446.826C62.1961 447.06 62.4849 447.389 62.6909 447.813C62.8992 448.237 63.0034 448.733 63.0034 449.301C63.0034 449.865 62.8992 450.357 62.6909 450.778C62.4849 451.2 62.1961 451.528 61.8244 451.762C61.4551 451.996 61.0242 452.114 60.5318 452.114ZM60.5318 451.361C60.9058 451.361 61.2136 451.265 61.4551 451.073C61.6966 450.881 61.8753 450.629 61.9913 450.317C62.1073 450.004 62.1653 449.666 62.1653 449.301C62.1653 448.937 62.1073 448.597 61.9913 448.282C61.8753 447.967 61.6966 447.713 61.4551 447.518C61.2136 447.324 60.9058 447.227 60.5318 447.227C60.1577 447.227 59.85 447.324 59.6085 447.518C59.367 447.713 59.1883 447.967 59.0723 448.282C58.9563 448.597 58.8983 448.937 58.8983 449.301C58.8983 449.666 58.9563 450.004 59.0723 450.317C59.1883 450.629 59.367 450.881 59.6085 451.073C59.85 451.265 60.1577 451.361 60.5318 451.361ZM67.0952 452V446.545H71.3849V452H70.5469V447.327H67.9332V452H67.0952ZM75.1314 452.114C74.639 452.114 74.2069 451.996 73.8352 451.762C73.4659 451.528 73.1771 451.2 72.9688 450.778C72.7628 450.357 72.6598 449.865 72.6598 449.301C72.6598 448.733 72.7628 448.237 72.9688 447.813C73.1771 447.389 73.4659 447.06 73.8352 446.826C74.2069 446.592 74.639 446.474 75.1314 446.474C75.6238 446.474 76.0547 446.592 76.424 446.826C76.7957 447.06 77.0845 447.389 77.2905 447.813C77.4988 448.237 77.603 448.733 77.603 449.301C77.603 449.865 77.4988 450.357 77.2905 450.778C77.0845 451.2 76.7957 451.528 76.424 451.762C76.0547 451.996 75.6238 452.114 75.1314 452.114ZM75.1314 451.361C75.5054 451.361 75.8132 451.265 76.0547 451.073C76.2962 450.881 76.4749 450.629 76.5909 450.317C76.7069 450.004 76.7649 449.666 76.7649 449.301C76.7649 448.937 76.7069 448.597 76.5909 448.282C76.4749 447.967 76.2962 447.713 76.0547 447.518C75.8132 447.324 75.5054 447.227 75.1314 447.227C74.7573 447.227 74.4496 447.324 74.2081 447.518C73.9666 447.713 73.7879 447.967 73.6719 448.282C73.5559 448.597 73.4979 448.937 73.4979 449.301C73.4979 449.666 73.5559 450.004 73.6719 450.317C73.7879 450.629 73.9666 450.881 74.2081 451.073C74.4496 451.265 74.7573 451.361 75.1314 451.361ZM78.8823 446.545H79.7203V451.219H81.78V446.545H82.6181V451.219H84.6777V446.545H85.5158V452H78.8823V446.545ZM86.5634 452V451.219H86.7623C86.9256 451.219 87.0617 451.187 87.1706 451.123C87.2795 451.057 87.3671 450.942 87.4334 450.778C87.5021 450.613 87.5542 450.383 87.5897 450.089C87.6275 449.794 87.6548 449.417 87.6713 448.96L87.7708 446.545H91.4071V452H90.5691V447.327H88.5662L88.481 449.273C88.4621 449.72 88.4218 450.114 88.3603 450.455C88.3011 450.794 88.2099 451.078 88.0868 451.308C87.9661 451.537 87.8051 451.71 87.6039 451.826C87.4026 451.942 87.1505 452 86.8475 452H86.5634ZM95.1607 452.114C94.6683 452.114 94.2362 451.996 93.8645 451.762C93.4952 451.528 93.2064 451.2 92.998 450.778C92.7921 450.357 92.6891 449.865 92.6891 449.301C92.6891 448.733 92.7921 448.237 92.998 447.813C93.2064 447.389 93.4952 447.06 93.8645 446.826C94.2362 446.592 94.6683 446.474 95.1607 446.474C95.6531 446.474 96.084 446.592 96.4533 446.826C96.825 447.06 97.1138 447.389 97.3198 447.813C97.5281 448.237 97.6323 448.733 97.6323 449.301C97.6323 449.865 97.5281 450.357 97.3198 450.778C97.1138 451.2 96.825 451.528 96.4533 451.762C96.084 451.996 95.6531 452.114 95.1607 452.114ZM95.1607 451.361C95.5347 451.361 95.8425 451.265 96.084 451.073C96.3255 450.881 96.5042 450.629 96.6202 450.317C96.7362 450.004 96.7942 449.666 96.7942 449.301C96.7942 448.937 96.7362 448.597 96.6202 448.282C96.5042 447.967 96.3255 447.713 96.084 447.518C95.8425 447.324 95.5347 447.227 95.1607 447.227C94.7866 447.227 94.4789 447.324 94.2374 447.518C93.9959 447.713 93.8172 447.967 93.7012 448.282C93.5852 448.597 93.5272 448.937 93.5272 449.301C93.5272 449.666 93.5852 450.004 93.7012 450.317C93.8172 450.629 93.9959 450.881 94.2374 451.073C94.4789 451.265 94.7866 451.361 95.1607 451.361ZM105.375 448.889V449.67H102.363V448.889H105.375ZM102.562 446.545V452H101.724V446.545H102.562ZM106.014 446.545V452H105.176V446.545H106.014ZM109.831 452.114C109.306 452.114 108.852 451.998 108.471 451.766C108.092 451.531 107.8 451.205 107.594 450.786C107.391 450.364 107.289 449.874 107.289 449.315C107.289 448.757 107.391 448.264 107.594 447.838C107.8 447.41 108.087 447.076 108.453 446.837C108.823 446.595 109.254 446.474 109.746 446.474C110.03 446.474 110.311 446.522 110.588 446.616C110.865 446.711 111.117 446.865 111.344 447.078C111.571 447.289 111.752 447.568 111.887 447.916C112.022 448.264 112.09 448.693 112.09 449.202V449.557H107.885V448.832H111.238C111.238 448.525 111.176 448.25 111.053 448.009C110.932 447.767 110.759 447.576 110.534 447.437C110.312 447.297 110.049 447.227 109.746 447.227C109.412 447.227 109.123 447.31 108.88 447.476C108.638 447.639 108.452 447.852 108.322 448.115C108.192 448.378 108.127 448.66 108.127 448.96V449.443C108.127 449.855 108.198 450.204 108.34 450.491C108.484 450.775 108.684 450.991 108.94 451.141C109.196 451.287 109.493 451.361 109.831 451.361C110.051 451.361 110.25 451.33 110.428 451.268C110.608 451.205 110.763 451.11 110.893 450.984C111.023 450.857 111.124 450.698 111.195 450.509L112.005 450.736C111.919 451.01 111.776 451.252 111.575 451.46C111.374 451.666 111.125 451.827 110.829 451.943C110.533 452.057 110.201 452.114 109.831 452.114ZM115.865 447.327V446.545H120.297V447.327H118.507V452H117.669V447.327H115.865ZM122.841 452.128C122.495 452.128 122.182 452.063 121.9 451.933C121.618 451.8 121.394 451.609 121.229 451.361C121.063 451.11 120.98 450.807 120.98 450.452C120.98 450.139 121.042 449.886 121.165 449.692C121.288 449.495 121.452 449.341 121.658 449.23C121.864 449.119 122.092 449.036 122.34 448.982C122.591 448.925 122.843 448.88 123.097 448.847C123.428 448.804 123.697 448.772 123.903 448.751C124.111 448.727 124.263 448.688 124.357 448.634C124.454 448.579 124.503 448.484 124.503 448.349V448.321C124.503 447.971 124.407 447.698 124.215 447.504C124.026 447.31 123.738 447.213 123.352 447.213C122.952 447.213 122.638 447.301 122.411 447.476C122.184 447.651 122.024 447.838 121.932 448.037L121.136 447.753C121.278 447.421 121.468 447.163 121.705 446.979C121.944 446.792 122.204 446.661 122.486 446.588C122.77 446.512 123.049 446.474 123.324 446.474C123.499 446.474 123.7 446.496 123.928 446.538C124.157 446.579 124.379 446.663 124.592 446.79C124.807 446.918 124.986 447.111 125.128 447.369C125.27 447.627 125.341 447.973 125.341 448.406V452H124.503V451.261H124.46C124.403 451.38 124.309 451.506 124.176 451.641C124.044 451.776 123.867 451.891 123.647 451.986C123.427 452.08 123.158 452.128 122.841 452.128ZM122.969 451.375C123.3 451.375 123.58 451.31 123.807 451.18C124.036 451.049 124.209 450.881 124.325 450.675C124.444 450.469 124.503 450.253 124.503 450.026V449.259C124.467 449.301 124.389 449.34 124.268 449.376C124.15 449.409 124.013 449.438 123.857 449.464C123.703 449.488 123.552 449.509 123.406 449.528C123.261 449.545 123.144 449.559 123.054 449.571C122.836 449.599 122.633 449.646 122.443 449.71C122.256 449.771 122.105 449.865 121.989 449.99C121.875 450.113 121.818 450.281 121.818 450.494C121.818 450.786 121.926 451.006 122.141 451.155C122.359 451.302 122.635 451.375 122.969 451.375ZM126.871 452V446.545H127.709V448.918H128.263L130.223 446.545H131.302L129.101 449.173L131.331 452H130.251L128.461 449.699H127.709V452H126.871ZM132.852 452.057C132.677 452.057 132.527 451.994 132.401 451.869C132.276 451.743 132.213 451.593 132.213 451.418C132.213 451.242 132.276 451.092 132.401 450.967C132.527 450.841 132.677 450.778 132.852 450.778C133.028 450.778 133.178 450.841 133.303 450.967C133.429 451.092 133.492 451.242 133.492 451.418C133.492 451.534 133.462 451.64 133.403 451.737C133.346 451.834 133.269 451.912 133.172 451.972C133.077 452.028 132.971 452.057 132.852 452.057ZM135.606 452.057C135.431 452.057 135.281 451.994 135.155 451.869C135.03 451.743 134.967 451.593 134.967 451.418C134.967 451.242 135.03 451.092 135.155 450.967C135.281 450.841 135.431 450.778 135.606 450.778C135.782 450.778 135.932 450.841 136.057 450.967C136.183 451.092 136.246 451.242 136.246 451.418C136.246 451.534 136.216 451.64 136.157 451.737C136.1 451.834 136.023 451.912 135.926 451.972C135.831 452.028 135.725 452.057 135.606 452.057ZM138.36 452.057C138.185 452.057 138.035 451.994 137.909 451.869C137.784 451.743 137.721 451.593 137.721 451.418C137.721 451.242 137.784 451.092 137.909 450.967C138.035 450.841 138.185 450.778 138.36 450.778C138.535 450.778 138.686 450.841 138.811 450.967C138.937 451.092 138.999 451.242 138.999 451.418C138.999 451.534 138.97 451.64 138.911 451.737C138.854 451.834 138.777 451.912 138.68 451.972C138.585 452.028 138.479 452.057 138.36 452.057Z" fill="#EE3465"/>
<path d="M219.467 747H222.62C224.683 747 225.535 745.994 225.535 744.682C225.535 743.301 224.581 742.551 223.779 742.5V742.415C224.529 742.21 225.194 741.716 225.194 740.591C225.194 739.312 224.342 738.273 222.518 738.273H219.467V747ZM220.524 746.062V743.028H222.672C223.814 743.028 224.529 743.795 224.529 744.682C224.529 745.449 224.001 746.062 222.62 746.062H220.524ZM220.524 742.108V739.21H222.518C223.677 739.21 224.189 739.824 224.189 740.591C224.189 741.511 223.439 742.108 222.484 742.108H220.524ZM229.794 747.136C231.567 747.136 232.76 745.79 232.76 743.761C232.76 741.716 231.567 740.369 229.794 740.369C228.022 740.369 226.828 741.716 226.828 743.761C226.828 745.79 228.022 747.136 229.794 747.136ZM229.794 746.233C228.448 746.233 227.834 745.074 227.834 743.761C227.834 742.449 228.448 741.273 229.794 741.273C231.141 741.273 231.755 742.449 231.755 743.761C231.755 745.074 231.141 746.233 229.794 746.233ZM235.301 745.517V740.455H234.295V747H235.472L238.608 741.938V747H239.614V740.455H238.455L235.301 745.517ZM237.79 738.273C237.79 738.716 237.551 739.108 236.955 739.108C236.358 739.108 236.136 738.716 236.136 738.273H235.199C235.199 739.193 235.881 739.841 236.955 739.841C238.045 739.841 238.727 739.193 238.727 738.273H237.79ZM240.565 741.392H242.73V747H243.735V741.392H245.883V740.455H240.565V741.392ZM248.356 745.517V740.455H247.35V747H248.526L251.663 741.938V747H252.668V740.455H251.509L248.356 745.517Z" fill="#3456F3"/>
<rect x="30" y="676" width="260" height="45" rx="3" fill="#3456F3"/>
<path d="M101.233 703.119C103.015 703.119 104.323 702.054 104.319 700.605C104.323 699.501 103.654 698.709 102.495 698.53V698.462C103.407 698.227 103.999 697.511 103.995 696.531C103.999 695.249 102.946 694.153 101.267 694.153C99.6651 694.153 98.3782 695.121 98.3356 696.54H99.6097C99.6396 695.739 100.394 695.253 101.25 695.253C102.141 695.253 102.725 695.794 102.721 696.599C102.725 697.443 102.047 697.997 101.08 697.997H100.343V699.071H101.08C102.29 699.071 102.989 699.685 102.989 700.562C102.989 701.411 102.252 701.986 101.225 701.986C100.279 701.986 99.5415 701.5 99.4904 700.724H98.1523C98.2077 702.148 99.4691 703.119 101.233 703.119ZM107.851 703.145C108.934 703.145 109.543 702.595 109.786 702.105H109.837V703H111.081V698.653C111.081 696.749 109.581 696.369 108.542 696.369C107.357 696.369 106.266 696.847 105.84 698.04L107.037 698.312C107.225 697.848 107.702 697.401 108.559 697.401C109.381 697.401 109.803 697.831 109.803 698.572V698.602C109.803 699.067 109.326 699.058 108.15 699.195C106.909 699.339 105.64 699.663 105.64 701.151C105.64 702.438 106.607 703.145 107.851 703.145ZM108.128 702.122C107.408 702.122 106.888 701.798 106.888 701.168C106.888 700.486 107.493 700.243 108.23 700.145C108.644 700.089 109.624 699.979 109.807 699.795V700.639C109.807 701.415 109.189 702.122 108.128 702.122ZM112.778 705.455H114.053V701.982H114.129C114.359 702.399 114.828 703.128 116.021 703.128C117.607 703.128 118.757 701.858 118.757 699.74C118.757 697.618 117.589 696.369 116.009 696.369C114.794 696.369 114.355 697.111 114.129 697.516H114.023V696.455H112.778V705.455ZM114.027 699.727C114.027 698.359 114.624 697.452 115.736 697.452C116.891 697.452 117.47 698.428 117.47 699.727C117.47 701.04 116.874 702.041 115.736 702.041C114.641 702.041 114.027 701.104 114.027 699.727ZM123.006 703.132C124.433 703.132 125.443 702.429 125.733 701.364L124.527 701.146C124.297 701.764 123.743 702.08 123.018 702.08C121.928 702.08 121.195 701.372 121.161 700.111H125.814V699.659C125.814 697.294 124.399 696.369 122.916 696.369C121.092 696.369 119.891 697.759 119.891 699.77C119.891 701.803 121.075 703.132 123.006 703.132ZM121.165 699.156C121.216 698.227 121.889 697.422 122.925 697.422C123.913 697.422 124.561 698.155 124.565 699.156H121.165ZM131.412 696.455H127.228V703H128.485V697.554H131.412V696.455ZM134.007 701.214V696.455H132.759V703H134.144L137.016 698.236V703H138.265V696.455H136.892L134.007 701.214ZM142.735 703.132C144.282 703.132 145.283 702.203 145.424 700.929H144.184C144.022 701.636 143.472 702.054 142.743 702.054C141.665 702.054 140.971 701.155 140.971 699.727C140.971 698.325 141.678 697.443 142.743 697.443C143.553 697.443 144.047 697.955 144.184 698.568H145.424C145.287 697.247 144.209 696.369 142.722 696.369C140.877 696.369 139.684 697.759 139.684 699.757C139.684 701.73 140.834 703.132 142.735 703.132ZM146.291 697.554H148.434V703H149.679V697.554H151.814V696.455H146.291V697.554ZM153.161 705.455H154.435V701.982H154.512C154.742 702.399 155.211 703.128 156.404 703.128C157.989 703.128 159.14 701.858 159.14 699.74C159.14 697.618 157.972 696.369 156.391 696.369C155.177 696.369 154.738 697.111 154.512 697.516H154.406V696.455H153.161V705.455ZM154.41 699.727C154.41 698.359 155.006 697.452 156.119 697.452C157.273 697.452 157.853 698.428 157.853 699.727C157.853 701.04 157.256 702.041 156.119 702.041C155.023 702.041 154.41 701.104 154.41 699.727ZM161.816 701.214V696.455H160.567V703H161.952L164.825 698.236V703H166.073V696.455H164.701L161.816 701.214ZM167.786 705.455H169.06V701.982H169.137C169.367 702.399 169.836 703.128 171.029 703.128C172.614 703.128 173.765 701.858 173.765 699.74C173.765 697.618 172.597 696.369 171.016 696.369C169.802 696.369 169.363 697.111 169.137 697.516H169.031V696.455H167.786V705.455ZM169.035 699.727C169.035 698.359 169.631 697.452 170.744 697.452C171.898 697.452 172.478 698.428 172.478 699.727C172.478 701.04 171.881 702.041 170.744 702.041C169.648 702.041 169.035 701.104 169.035 699.727ZM177.95 703.132C179.795 703.132 181.001 701.781 181.001 699.757C181.001 697.72 179.795 696.369 177.95 696.369C176.104 696.369 174.898 697.72 174.898 699.757C174.898 701.781 176.104 703.132 177.95 703.132ZM177.954 702.062C176.748 702.062 176.185 701.01 176.185 699.753C176.185 698.5 176.748 697.435 177.954 697.435C179.151 697.435 179.714 698.5 179.714 699.753C179.714 701.01 179.151 702.062 177.954 702.062ZM182.423 703H185.551C186.983 703 187.822 702.276 187.822 701.236C187.822 700.264 187.076 699.668 186.203 699.565C187.008 699.412 187.541 698.969 187.541 698.202C187.541 697.128 186.612 696.455 185.137 696.455H182.423V703ZM183.62 701.935V700.115H185.551C186.181 700.115 186.561 700.486 186.561 701.095C186.561 701.615 186.181 701.935 185.551 701.935H183.62ZM183.62 699.182V697.533H185.137C185.862 697.533 186.301 697.835 186.301 698.338C186.301 698.862 185.866 699.182 185.15 699.182H183.62ZM191.125 703.145C192.207 703.145 192.816 702.595 193.059 702.105H193.11V703H194.355V698.653C194.355 696.749 192.855 696.369 191.815 696.369C190.63 696.369 189.539 696.847 189.113 698.04L190.311 698.312C190.498 697.848 190.975 697.401 191.832 697.401C192.654 697.401 193.076 697.831 193.076 698.572V698.602C193.076 699.067 192.599 699.058 191.423 699.195C190.183 699.339 188.913 699.663 188.913 701.151C188.913 702.438 189.88 703.145 191.125 703.145ZM191.402 702.122C190.681 702.122 190.162 701.798 190.162 701.168C190.162 700.486 190.767 700.243 191.504 700.145C191.917 700.089 192.897 699.979 193.081 699.795V700.639C193.081 701.415 192.463 702.122 191.402 702.122ZM195.24 697.554H197.384V703H198.628V697.554H200.763V696.455H195.24V697.554ZM203.359 698.705V696.455H202.11V703H204.97C206.572 703 207.467 702.071 207.467 700.839C207.467 699.582 206.572 698.705 204.97 698.705H203.359ZM203.359 699.804H204.97C205.703 699.804 206.227 700.247 206.227 700.878C206.227 701.474 205.703 701.901 204.97 701.901H203.359V699.804ZM211.653 703.132C213.2 703.132 214.201 702.203 214.342 700.929H213.102C212.94 701.636 212.39 702.054 211.661 702.054C210.583 702.054 209.888 701.155 209.888 699.727C209.888 698.325 210.596 697.443 211.661 697.443C212.471 697.443 212.965 697.955 213.102 698.568H214.342C214.205 697.247 213.127 696.369 211.64 696.369C209.795 696.369 208.602 697.759 208.602 699.757C208.602 701.73 209.752 703.132 211.653 703.132ZM219.608 703H220.805V696.455H218.039C216.531 696.455 215.61 697.234 215.61 698.466C215.61 699.327 216.062 699.962 216.842 700.256L215.312 703H216.616L218.044 700.439H219.608V703ZM219.608 699.408H217.954C217.26 699.408 216.855 699.041 216.859 698.483C216.855 697.92 217.294 697.541 218.039 697.541H219.608V699.408Z" fill="white"/>
<path d="M67.6948 747.119H68.2573C69.5868 747.119 69.9789 746.403 70.3368 745.585L73.3539 738.273H72.2289L70.03 743.693L67.6266 738.273H66.4846L69.5016 744.955L69.3652 745.278C69.1777 745.705 68.8709 746.131 68.2402 746.131H67.6948V747.119ZM74.1774 747H75.3876L77.6206 744.188H78.1319V747H79.1376V744.188H79.649L81.8649 747H83.0751L80.4331 743.676L83.041 740.455H81.8478L79.666 743.25H79.1376V740.455H78.1319V743.25H77.5865L75.4047 740.455H74.2115L76.8365 743.676L74.1774 747ZM86.987 747.136C88.3166 747.136 89.2882 746.472 89.595 745.483L88.6234 745.21C88.3677 745.892 87.7754 746.233 86.987 746.233C85.8066 746.233 84.9927 745.47 84.9458 744.068H89.6973V743.642C89.6973 741.205 88.2484 740.369 86.8848 740.369C85.112 740.369 83.9359 741.767 83.9359 743.778C83.9359 745.79 85.095 747.136 86.987 747.136ZM84.9458 743.199C85.014 742.18 85.7342 741.273 86.8848 741.273C87.9757 741.273 88.6745 742.091 88.6745 743.199H84.9458ZM94.193 745.33C94.2271 746.403 95.2541 747.136 96.6475 747.136C98.0794 747.136 99.1191 746.369 99.1191 745.176C99.1191 744.358 98.6291 743.693 97.8919 743.642V743.574C98.514 743.382 98.9828 742.93 98.9828 742.193C98.9828 741.158 98.0964 740.369 96.7157 740.369C95.3521 740.369 94.3805 741.119 94.3464 742.176H95.4032C95.4331 741.635 95.9998 741.256 96.7669 741.256C97.5297 741.256 97.96 741.643 97.96 742.227C97.96 742.773 97.585 743.182 96.7839 743.182H95.6589V744.085H96.7839C97.585 744.085 98.0964 744.524 98.0964 745.176C98.0964 745.922 97.4359 746.233 96.6305 746.233C95.8422 746.233 95.3137 745.922 95.2669 745.33H94.193ZM102.458 747.153C103.6 747.153 104.197 746.54 104.401 746.114H104.452V747H105.458V742.688C105.458 740.608 103.873 740.369 103.037 740.369C102.049 740.369 100.924 740.71 100.412 741.903L101.367 742.244C101.589 741.767 102.113 741.256 103.072 741.256C103.996 741.256 104.452 741.746 104.452 742.585V742.619C104.452 743.105 103.958 743.062 102.765 743.216C101.55 743.374 100.225 743.642 100.225 745.142C100.225 746.42 101.214 747.153 102.458 747.153ZM102.611 746.25C101.81 746.25 101.231 745.892 101.231 745.193C101.231 744.426 101.93 744.188 102.714 744.085C103.14 744.034 104.282 743.915 104.452 743.71V744.631C104.452 745.449 103.805 746.25 102.611 746.25ZM107.294 749.455H108.299V745.994H108.384C108.606 746.352 109.032 747.136 110.294 747.136C111.93 747.136 113.072 745.824 113.072 743.744C113.072 741.682 111.93 740.369 110.276 740.369C108.998 740.369 108.606 741.153 108.384 741.494H108.265V740.455H107.294V749.455ZM108.282 743.727C108.282 742.261 108.93 741.273 110.157 741.273C111.436 741.273 112.066 742.347 112.066 743.727C112.066 745.125 111.419 746.233 110.157 746.233C108.947 746.233 108.282 745.21 108.282 743.727ZM117.35 747.136C118.68 747.136 119.651 746.472 119.958 745.483L118.987 745.21C118.731 745.892 118.139 746.233 117.35 746.233C116.17 746.233 115.356 745.47 115.309 744.068H120.061V743.642C120.061 741.205 118.612 740.369 117.248 740.369C115.475 740.369 114.299 741.767 114.299 743.778C114.299 745.79 115.458 747.136 117.35 747.136ZM115.309 743.199C115.377 742.18 116.097 741.273 117.248 741.273C118.339 741.273 119.038 742.091 119.038 743.199H115.309ZM125.63 740.455H121.59V747H122.596V741.392H125.63V740.455ZM128.104 745.517V740.455H127.098V747H128.274L131.411 741.938V747H132.416V740.455H131.257L128.104 745.517ZM136.917 747.136C138.366 747.136 139.321 746.25 139.491 745.091H138.486C138.298 745.807 137.702 746.233 136.917 746.233C135.724 746.233 134.957 745.244 134.957 743.727C134.957 742.244 135.741 741.273 136.917 741.273C137.804 741.273 138.332 741.818 138.486 742.415H139.491C139.321 741.188 138.281 740.369 136.9 740.369C135.128 740.369 133.952 741.767 133.952 743.761C133.952 745.722 135.077 747.136 136.917 747.136ZM140.446 741.392H142.611V747H143.616V741.392H145.764V740.455H140.446V741.392ZM147.231 749.455H148.237V745.994H148.322C148.544 746.352 148.97 747.136 150.231 747.136C151.867 747.136 153.009 745.824 153.009 743.744C153.009 741.682 151.867 740.369 150.214 740.369C148.936 740.369 148.544 741.153 148.322 741.494H148.203V740.455H147.231V749.455ZM148.22 743.727C148.22 742.261 148.867 741.273 150.095 741.273C151.373 741.273 152.004 742.347 152.004 743.727C152.004 745.125 151.356 746.233 150.095 746.233C148.884 746.233 148.22 745.21 148.22 743.727ZM155.549 745.517V740.455H154.544V747H155.72L158.856 741.938V747H159.862V740.455H158.703L155.549 745.517ZM161.704 749.455H162.709V745.994H162.795C163.016 746.352 163.442 747.136 164.704 747.136C166.34 747.136 167.482 745.824 167.482 743.744C167.482 741.682 166.34 740.369 164.687 740.369C163.408 740.369 163.016 741.153 162.795 741.494H162.675V740.455H161.704V749.455ZM162.692 743.727C162.692 742.261 163.34 741.273 164.567 741.273C165.846 741.273 166.476 742.347 166.476 743.727C166.476 745.125 165.829 746.233 164.567 746.233C163.357 746.233 162.692 745.21 162.692 743.727ZM171.675 747.136C173.448 747.136 174.641 745.79 174.641 743.761C174.641 741.716 173.448 740.369 171.675 740.369C169.903 740.369 168.709 741.716 168.709 743.761C168.709 745.79 169.903 747.136 171.675 747.136ZM171.675 746.233C170.329 746.233 169.715 745.074 169.715 743.761C169.715 742.449 170.329 741.273 171.675 741.273C173.022 741.273 173.635 742.449 173.635 743.761C173.635 745.074 173.022 746.233 171.675 746.233ZM176.176 747H179.262C180.591 747 181.392 746.25 181.392 745.244C181.392 744.217 180.612 743.663 179.892 743.557C180.629 743.403 181.154 742.99 181.154 742.193C181.154 741.149 180.259 740.455 178.852 740.455H176.176V747ZM177.131 746.08V744.068H179.262C179.952 744.068 180.369 744.482 180.369 745.159C180.369 745.73 179.952 746.08 179.262 746.08H177.131ZM177.131 743.199V741.375H178.852C179.658 741.375 180.148 741.712 180.148 742.261C180.148 742.845 179.658 743.199 178.852 743.199H177.131ZM184.841 747.153C185.983 747.153 186.579 746.54 186.784 746.114H186.835V747H187.841V742.688C187.841 740.608 186.256 740.369 185.42 740.369C184.432 740.369 183.307 740.71 182.795 741.903L183.75 742.244C183.971 741.767 184.496 741.256 185.454 741.256C186.379 741.256 186.835 741.746 186.835 742.585V742.619C186.835 743.105 186.341 743.062 185.148 743.216C183.933 743.374 182.608 743.642 182.608 745.142C182.608 746.42 183.596 747.153 184.841 747.153ZM184.994 746.25C184.193 746.25 183.613 745.892 183.613 745.193C183.613 744.426 184.312 744.188 185.096 744.085C185.523 744.034 186.665 743.915 186.835 743.71V744.631C186.835 745.449 186.187 746.25 184.994 746.25ZM190.682 740.455H189.676V747H190.682V744.205H193.818V747H194.824V740.455H193.818V743.267H190.682V740.455ZM197.666 742.824V740.455H196.661V747H199.405C200.939 747 201.774 746.062 201.774 744.886C201.774 743.693 200.939 742.824 199.405 742.824H197.666ZM202.814 747H203.82V740.455H202.814V747ZM197.666 743.761H199.405C200.202 743.761 200.769 744.247 200.769 744.938C200.769 745.598 200.202 746.062 199.405 746.062H197.666V743.761ZM206.973 744.545H207.996V744.494C208.013 743.438 208.286 742.977 209.036 742.509C209.786 742.053 210.229 741.396 210.229 740.455C210.229 739.125 209.257 738.153 207.757 738.153C206.377 738.153 205.281 739.006 205.218 740.455H206.291C206.355 739.449 207.058 739.04 207.757 739.04C208.558 739.04 209.206 739.568 209.206 740.403C209.206 741.081 208.818 741.567 208.32 741.869C207.485 742.376 206.986 742.871 206.973 744.494V744.545ZM207.519 747.068C207.941 747.068 208.286 746.723 208.286 746.301C208.286 745.879 207.941 745.534 207.519 745.534C207.097 745.534 206.752 745.879 206.752 746.301C206.752 746.723 207.097 747.068 207.519 747.068Z" fill="#A0A0A0"/>
</g>
<defs>
<clipPath id="clip0_1_2389">
<rect width="320" height="780" fill="white"/>
</clipPath>
</defs>
</svg>
