<svg width="1280" height="700" viewBox="0 0 1280 700" fill="none" xmlns="http://www.w3.org/2000/svg">
<g clip-path="url(#clip0_1_1941)">
<rect width="1280" height="700" fill="#FAFAFA"/>
<path d="M565.718 427C565.286 424.614 563.377 423.205 561.036 423.205C558.059 423.205 555.9 425.5 555.9 429.182C555.9 432.864 558.059 435.159 561.036 435.159C563.377 435.159 565.286 433.75 565.718 431.364H564.309C563.968 432.977 562.582 433.841 561.036 433.841C558.923 433.841 557.263 432.205 557.263 429.182C557.263 426.159 558.923 424.523 561.036 424.523C562.582 424.523 563.968 425.386 564.309 427H565.718ZM567.313 427.523H570.2V435H571.54V427.523H574.404V426.273H567.313V427.523ZM576.36 438.273H577.701V433.659H577.815C578.11 434.136 578.678 435.182 580.36 435.182C582.542 435.182 584.065 433.432 584.065 430.659C584.065 427.909 582.542 426.159 580.337 426.159C578.633 426.159 578.11 427.205 577.815 427.659H577.656V426.273H576.36V438.273ZM577.678 430.636C577.678 428.682 578.542 427.364 580.178 427.364C581.883 427.364 582.724 428.795 582.724 430.636C582.724 432.5 581.86 433.977 580.178 433.977C578.565 433.977 577.678 432.614 577.678 430.636ZM588.678 435.205C590.201 435.205 590.996 434.386 591.269 433.818H591.337V435H592.678V429.25C592.678 426.477 590.565 426.159 589.451 426.159C588.133 426.159 586.633 426.614 585.951 428.205L587.224 428.659C587.519 428.023 588.218 427.341 589.496 427.341C590.729 427.341 591.337 427.994 591.337 429.114V429.159C591.337 429.807 590.678 429.75 589.087 429.955C587.468 430.165 585.701 430.523 585.701 432.523C585.701 434.227 587.019 435.205 588.678 435.205ZM588.883 434C587.815 434 587.042 433.523 587.042 432.591C587.042 431.568 587.974 431.25 589.019 431.114C589.587 431.045 591.11 430.886 591.337 430.614V431.841C591.337 432.932 590.474 434 588.883 434ZM596.467 426.273H595.126V435H596.467V431.273H600.648V435H601.989V426.273H600.648V430.023H596.467V426.273ZM605.779 433.023V426.273H604.438V435H606.006L610.188 428.25V435H611.529V426.273H609.984L605.779 433.023ZM620.849 426.273H619.508V433.75H615.326V426.273H613.985V435H620.849V437.818H622.19V433.75H620.849V426.273ZM626.71 435.205C628.232 435.205 629.028 434.386 629.3 433.818H629.369V435H630.71V429.25C630.71 426.477 628.596 426.159 627.482 426.159C626.164 426.159 624.664 426.614 623.982 428.205L625.255 428.659C625.55 428.023 626.249 427.341 627.528 427.341C628.761 427.341 629.369 427.994 629.369 429.114V429.159C629.369 429.807 628.71 429.75 627.119 429.955C625.499 430.165 623.732 430.523 623.732 432.523C623.732 434.227 625.05 435.205 626.71 435.205ZM626.914 434C625.846 434 625.073 433.523 625.073 432.591C625.073 431.568 626.005 431.25 627.05 431.114C627.619 431.045 629.141 430.886 629.369 430.614V431.841C629.369 432.932 628.505 434 626.914 434ZM638.998 426.273H637.657V435H638.998V431.273H643.18V435H644.521V426.273H643.18V430.023H638.998V426.273ZM650.629 435.182C652.401 435.182 653.697 434.295 654.106 432.977L652.81 432.614C652.469 433.523 651.68 433.977 650.629 433.977C649.055 433.977 647.969 432.96 647.907 431.091H654.242V430.523C654.242 427.273 652.31 426.159 650.492 426.159C648.129 426.159 646.56 428.023 646.56 430.705C646.56 433.386 648.106 435.182 650.629 435.182ZM647.907 429.932C647.998 428.574 648.958 427.364 650.492 427.364C651.947 427.364 652.879 428.455 652.879 429.932H647.907ZM662.123 426.273H660.782V435H662.123V431.273H666.305V435H667.646V426.273H666.305V430.023H662.123V426.273ZM672.663 435.205C674.185 435.205 674.981 434.386 675.254 433.818H675.322V435H676.663V429.25C676.663 426.477 674.549 426.159 673.435 426.159C672.117 426.159 670.617 426.614 669.935 428.205L671.208 428.659C671.504 428.023 672.202 427.341 673.481 427.341C674.714 427.341 675.322 427.994 675.322 429.114V429.159C675.322 429.807 674.663 429.75 673.072 429.955C671.452 430.165 669.685 430.523 669.685 432.523C669.685 434.227 671.004 435.205 672.663 435.205ZM672.867 434C671.799 434 671.026 433.523 671.026 432.591C671.026 431.568 671.958 431.25 673.004 431.114C673.572 431.045 675.094 430.886 675.322 430.614V431.841C675.322 432.932 674.458 434 672.867 434ZM680.451 433.023V426.273H679.11V435H680.678L684.86 428.25V435H686.201V426.273H684.656L680.451 433.023ZM683.769 423.364C683.769 423.955 683.451 424.477 682.656 424.477C681.86 424.477 681.565 423.955 681.565 423.364H680.315C680.315 424.591 681.224 425.455 682.656 425.455C684.11 425.455 685.019 424.591 685.019 423.364H683.769ZM687.725 437.5H689.066V435H695.521V437.5H696.862V433.75H695.521V426.273H689.975L689.68 429.727C689.469 432.17 689.157 433.011 688.452 433.75H687.725V437.5ZM689.975 433.75C690.589 432.943 690.81 431.551 690.998 429.727L691.225 427.523H694.18V433.75H689.975ZM702.3 435.182C704.073 435.182 705.369 434.295 705.778 432.977L704.482 432.614C704.141 433.523 703.352 433.977 702.3 433.977C700.727 433.977 699.641 432.96 699.579 431.091H705.914V430.523C705.914 427.273 703.982 426.159 702.164 426.159C699.8 426.159 698.232 428.023 698.232 430.705C698.232 433.386 699.778 435.182 702.3 435.182ZM699.579 429.932C699.67 428.574 700.63 427.364 702.164 427.364C703.619 427.364 704.55 428.455 704.55 429.932H699.579ZM709.295 426.273H707.954V435H709.295V431.273H713.477V435H714.817V426.273H713.477V430.023H709.295V426.273ZM719.835 435.205C721.357 435.205 722.153 434.386 722.425 433.818H722.494V435H723.835V429.25C723.835 426.477 721.721 426.159 720.607 426.159C719.289 426.159 717.789 426.614 717.107 428.205L718.38 428.659C718.675 428.023 719.374 427.341 720.653 427.341C721.886 427.341 722.494 427.994 722.494 429.114V429.159C722.494 429.807 721.835 429.75 720.244 429.955C718.624 430.165 716.857 430.523 716.857 432.523C716.857 434.227 718.175 435.205 719.835 435.205ZM720.039 434C718.971 434 718.198 433.523 718.198 432.591C718.198 431.568 719.13 431.25 720.175 431.114C720.744 431.045 722.266 430.886 722.494 430.614V431.841C722.494 432.932 721.63 434 720.039 434Z" fill="black"/>
<path d="M514.579 360.119H562.505V381H574.238V360.119H588.159V349.182H574.238V279.182H559.324L514.579 349.977V360.119ZM562.505 349.182H527.903V348.386L561.71 294.892H562.505V349.182ZM640 382.392C662.472 382.392 675.398 363.351 675.398 330.091C675.398 297.08 662.273 277.79 640 277.79C617.727 277.79 604.602 297.08 604.602 330.091C604.602 363.351 617.528 382.392 640 382.392ZM640 371.455C625.185 371.455 616.534 356.589 616.534 330.091C616.534 303.642 625.284 288.528 640 288.528C654.716 288.528 663.466 303.642 663.466 330.091C663.466 356.589 654.815 371.455 640 371.455ZM691.903 360.119H739.83V381H751.562V360.119H765.483V349.182H751.562V279.182H736.648L691.903 349.977V360.119ZM739.83 349.182H705.227V348.386L739.034 294.892H739.83V349.182Z" fill="black"/>
<path d="M620.335 637H621.568V632.446H626.997V637H628.23V626.818H626.997V631.352H621.568V626.818H620.335V637ZM632.787 637.179C634.119 637.179 634.815 636.463 635.054 635.966H635.114V637H636.287V631.969C636.287 629.543 634.437 629.264 633.463 629.264C632.31 629.264 630.997 629.662 630.4 631.054L631.514 631.452C631.773 630.895 632.384 630.298 633.503 630.298C634.582 630.298 635.114 630.87 635.114 631.849V631.889C635.114 632.456 634.537 632.406 633.145 632.585C631.728 632.769 630.182 633.082 630.182 634.832C630.182 636.324 631.335 637.179 632.787 637.179ZM632.966 636.125C632.031 636.125 631.355 635.707 631.355 634.892C631.355 633.997 632.17 633.719 633.085 633.599C633.582 633.54 634.915 633.401 635.114 633.162V634.236C635.114 635.19 634.358 636.125 632.966 636.125ZM637.951 635.051C637.991 636.304 639.189 637.159 640.815 637.159C642.485 637.159 643.698 636.264 643.698 634.872C643.698 633.918 643.127 633.142 642.266 633.082V633.003C642.992 632.779 643.539 632.252 643.539 631.392C643.539 630.184 642.505 629.264 640.894 629.264C639.303 629.264 638.17 630.139 638.13 631.372H639.363C639.398 630.741 640.059 630.298 640.954 630.298C641.844 630.298 642.346 630.751 642.346 631.432C642.346 632.068 641.908 632.545 640.974 632.545H639.661V633.599H640.974C641.908 633.599 642.505 634.112 642.505 634.872C642.505 635.742 641.734 636.105 640.795 636.105C639.875 636.105 639.259 635.742 639.204 635.051H637.951ZM647.593 637.179C648.926 637.179 649.622 636.463 649.861 635.966H649.92V637H651.093V631.969C651.093 629.543 649.244 629.264 648.27 629.264C647.116 629.264 645.804 629.662 645.207 631.054L646.321 631.452C646.579 630.895 647.191 630.298 648.309 630.298C649.388 630.298 649.92 630.87 649.92 631.849V631.889C649.92 632.456 649.343 632.406 647.951 632.585C646.535 632.769 644.988 633.082 644.988 634.832C644.988 636.324 646.142 637.179 647.593 637.179ZM647.772 636.125C646.838 636.125 646.162 635.707 646.162 634.892C646.162 633.997 646.977 633.719 647.892 633.599C648.389 633.54 649.721 633.401 649.92 633.162V634.236C649.92 635.19 649.165 636.125 647.772 636.125ZM652.42 639.188H653.593V637H659.241V639.188H660.414V635.906H659.241V629.364H654.388L654.13 632.386C653.946 634.524 653.672 635.26 653.056 635.906H652.42V639.188ZM654.388 635.906C654.925 635.2 655.119 633.982 655.283 632.386L655.482 630.457H658.067V635.906H654.388Z" fill="#3456F3"/>
</g>
<defs>
<clipPath id="clip0_1_1941">
<rect width="1280" height="700" fill="white"/>
</clipPath>
</defs>
</svg>
